<?xml version="1.0" encoding="UTF-8"?>
<svg width="255px" height="260px" viewBox="0 0 255 260" version="1.1" xmlns="http://www.w3.org/2000/svg" xmlns:xlink="http://www.w3.org/1999/xlink">
    <!-- Generator: Sketch 51.3 (57544) - http://www.bohemiancoding.com/sketch -->
    <title>Ampersand</title>
    <desc>Created with Sketch.</desc>
    <defs></defs>
    <g id="Page-1" stroke="none" stroke-width="1" fill="none" fill-rule="evenodd">
        <g id="Logos" transform="translate(-891.000000, -8081.000000)">
            <g id="Page"></g>
            <g id="Ampersand-Carousel-1" transform="translate(732.000000, 7894.000000)">
                <g id="Group-10">
                    <g id="Group-12">
                        <g id="Ampersand" transform="translate(159.000000, 187.000000)">
                            <path d="M254.0334,132.0269 C254.0334,121.9349 245.3824,113.6419 235.2874,113.6419 C225.1934,113.6419 216.5414,121.9349 216.5414,132.0269 C216.5414,142.4809 225.1934,150.7729 235.2874,150.7729 C245.3824,150.7729 254.0334,142.4809 254.0334,132.0269" id="Fill-2" fill="#14E8FF"></path>
                            <path d="M99.0216,98.5015 C127.5006,91.6535 151.2926,73.6275 151.2926,45.1485 C151.2926,18.8325 130.0236,-0.9935 93.6146,0.0865 L93.6146,4.7735 C108.3956,8.0165 118.8486,26.0425 118.8486,46.5905 C118.8486,71.4635 110.1966,84.8025 97.2196,94.5355 L99.0216,98.5015 Z" id="Fill-4" fill="#071533"></path>
                            <g id="Group-8" transform="translate(0.000000, 125.000000)">
                                <polygon id="Clip-7" points="0.968 0.5385 153.8165 0.5385 153.8165 135.002 0.968 135.002"></polygon>
                                <path d="M79.1935,135.0035 C114.5215,135.0035 139.0345,116.6165 153.8165,83.4525 L149.1295,83.0905 C137.5935,97.8705 122.0905,105.8005 101.5455,105.8005 C66.9365,105.8005 27.2825,75.1615 27.2825,32.6215 C27.2825,21.4465 29.4465,12.7955 34.8515,4.5035 L32.6875,0.5385 C16.4675,12.0745 0.9665,34.4235 0.9665,60.3805 C0.9665,102.1985 34.1315,135.0035 79.1935,135.0035" id="Fill-6" fill="#071533"></path>
                            </g>
                            <path d="M30.8888,78.6743 C30.8888,188.9863 164.2708,245.9423 226.2748,157.6203 L222.3108,155.4603 C166.4348,220.7083 64.7738,157.2623 64.7738,54.1613 C64.7738,31.0883 73.4248,11.2623 87.8458,5.1343 L87.8458,0.4483 C56.8428,5.1343 30.8888,33.9743 30.8888,78.6743" id="Fill-9" fill="#071533"></path>
                        </g>
                    </g>
                </g>
            </g>
        </g>
        <g id="Page"></g>
    </g>
</svg>