<svg id="Layer_1" data-name="Layer 1" xmlns="http://www.w3.org/2000/svg" viewBox="0 0 1000 600"><defs><style>.cls-1{fill:#011e41;}.cls-2{fill:#a693ff;}.cls-3{fill:none;stroke:#a693ff;stroke-miterlimit:10;stroke-width:1.27px;}.cls-4{fill:#041e42;}.cls-5{fill:#fff;}</style></defs><title>Colour_Using_Colour_Carousel_02</title><rect class="cls-1" width="1000" height="600"/><rect class="cls-2" y="409.67" width="1000" height="190.33"/><path class="cls-3" d="M164.17,271.31,155.92,281a18.87,18.87,0,0,0-14.79-7.06c-11.36,0-18.92,8.6-18.92,20.64s7.56,20.73,18.92,20.73a19,19,0,0,0,15-7.22l8.26,9.63c-6.28,6.88-13.76,9.63-23.22,9.63-18.75,0-32.25-14-32.25-32.77s13.5-32.68,32.25-32.68C151.27,261.85,158.15,265,164.17,271.31Z"/><path class="cls-3" d="M226.52,326.18H213.37V299.87H187.74v26.31H174.58V263h13.16v24.86h25.63V263h13.15Z"/><path class="cls-3" d="M297.3,326.18H282.68l-4-9.72H254.47l-4.12,9.72H235.81l30.53-64.33h.35Zm-38.7-20h15.91l-8-18.83Z"/><path class="cls-3" d="M370.31,326.18H357.16V299.26L338.84,327h-.6l-18.49-27.86v27H306.59V261.85h.34L338.5,306.4,370,261.85h.34Z"/><path class="cls-3" d="M433.09,283.87c0,13.42-10.14,20.9-22.27,20.9H398.69v21.41H385.54V263h25.28C423,263,433.09,270.45,433.09,283.87Zm-34.4-9.55v19.1h10.84c6.11,0,10.15-3.19,10.15-9.55,0-6.11-4-9.55-10.15-9.55Z"/><path class="cls-3" d="M457.17,326.18H444V263h13.15Z"/><path class="cls-3" d="M534.06,294.71c0,18.83-13.94,32.59-32.51,32.59S469,313.54,469,294.71c0-19,13.85-32.86,32.51-32.86S534.06,275.7,534.06,294.71Zm-51.69,0c0,12,7.91,20.55,19.18,20.55s19.09-8.6,19.09-20.55c0-12.22-7.91-20.82-19.09-20.82S482.37,282.49,482.37,294.71Z"/><path class="cls-3" d="M583.51,298.06V263h13.15V327.3h-.34L559,291v35.17H545.84V261.85h.34Z"/><path class="cls-3" d="M654.54,268.65l-6.28,11.09a26.94,26.94,0,0,0-16.42-6c-5.59,0-9.81,2.32-9.81,6.88,0,3.79,2.33,5.76,11.7,7.74,16.43,3.36,21.5,9,21.5,18.58,0,12.21-9,20.38-23.91,20.38-9.72,0-18.32-3-24.51-8.43L614,308a25.61,25.61,0,0,0,17.8,7.39c6.54,0,10.32-2.58,10.32-7.22,0-3.79-2.75-6.11-12.21-8-16.34-3.44-21-9.63-21-18.83,0-11.36,9.54-19.53,23-19.53C641,261.85,649.12,264.69,654.54,268.65Z"/><path class="cls-3" d="M718.78,326.18H705.62V299.87H680v26.31H666.84V263H680v24.86h25.62V263h13.16Z"/><path class="cls-3" d="M747.08,326.18H733.92V263h13.16Z"/><path class="cls-3" d="M809.85,283.87c0,13.42-10.14,20.9-22.27,20.9H775.46v21.41H762.3V263h25.28C799.71,263,809.85,270.45,809.85,283.87Zm-34.39-9.55v19.1h10.83c6.11,0,10.15-3.19,10.15-9.55,0-6.11-4-9.55-10.15-9.55Z"/><path class="cls-3" d="M863.52,268.65l-6.28,11.09a27,27,0,0,0-16.43-6c-5.59,0-9.8,2.32-9.8,6.88,0,3.79,2.32,5.76,11.7,7.74,16.42,3.36,21.5,9,21.5,18.58,0,12.21-9,20.38-23.91,20.38-9.72,0-18.32-3-24.51-8.43L822.93,308a25.59,25.59,0,0,0,17.8,7.39c6.53,0,10.32-2.58,10.32-7.22,0-3.79-2.75-6.11-12.21-8-16.34-3.44-21-9.63-21-18.83,0-11.36,9.55-19.53,23-19.53C849.93,261.85,858.1,264.69,863.52,268.65Z"/><path class="cls-2" d="M889.58,319.21a7.83,7.83,0,1,1-7.83-7.82A7.55,7.55,0,0,1,889.58,319.21Z"/><path class="cls-4" d="M422.69,520.37l-7.13-11.56h-6v11.56h-4.23V489.92h10.11c6,0,10.73,3.36,10.73,9.45a8.72,8.72,0,0,1-6.17,8.7l7.62,12.3ZM409.6,505.08h5.51c4.14,0,6.83-1.94,6.83-5.71s-2.73-5.72-6.83-5.72H409.6Z"/><path class="cls-4" d="M453.22,520.37l-3.44-3.89c-2.41,2.44-5.22,4.35-9.28,4.31-5.1,0-9.41-3.07-9.41-8.41,0-4.27,2.36-6.38,6.76-9.2-1.91-2.16-3.44-4.39-3.44-7.13,0-4,2.9-6.67,7.33-6.67s7.33,2.7,7.33,6.59c0,3.65-2.69,5.47-5.8,7.5l.67.74,5.8,6.47,3.77-4.6h4.8l-6,7.46,6.13,6.83Zm-6-6.75-6.09-6.84-1.08-1.2c-3.06,2.07-4.84,3.56-4.84,6.55,0,3.15,2.4,5,5.46,5C443.44,517.18,445.51,515.52,447.25,513.62Zm-9-17.4c0,1.82,1.2,3.35,2.73,5,2.86-1.82,4.23-2.94,4.23-5.05a3.18,3.18,0,0,0-3.44-3.36A3.24,3.24,0,0,0,438.26,496.22Z"/><path class="cls-4" d="M488.51,520.37H484l-2.73-6.21H467.59l-2.74,6.21h-4.51l14-31h.17Zm-19.35-9.9h10.52l-5.26-11.77Z"/><path class="cls-4" d="M509.59,516.6h14.5v3.77H505.37V489.92h4.22Z"/><path class="cls-4" d="M533.86,492.86a2.65,2.65,0,1,1-2.65-2.65A2.6,2.6,0,0,1,533.86,492.86Zm-.62,27.51h-4.06v-20.8h4.06Z"/><path class="cls-4" d="M544.84,520.37h-4.06V488.89h4.06Z"/><path class="cls-4" d="M566.8,502.1l.16-2.53h3.69v20.8H567l-.16-2.53a7.8,7.8,0,0,1-6.51,2.95c-5.67,0-9.44-4.56-9.44-10.82s3.77-10.81,9.44-10.81A7.82,7.82,0,0,1,566.8,502.1ZM555,510c0,4.31,2.48,7.21,6.09,7.21,2.73,0,4.31-1.49,5.55-3.52v-7.37c-1.24-2-2.82-3.52-5.55-3.52C557.43,502.77,555,505.66,555,510Z"/><path class="cls-4" d="M595.42,503.72l-2.86,2.19a6.41,6.41,0,0,0-5.42-3.19c-4.11,0-6.38,3.15-6.38,7.25s2.27,7.25,6.38,7.25a6.54,6.54,0,0,0,5.51-3.19l2.85,2.2a9.56,9.56,0,0,1-8.36,4.56c-6.38,0-10.49-4.56-10.49-10.82s4.11-10.81,10.49-10.81A9.42,9.42,0,0,1,595.42,503.72Z"/><path class="cls-5" d="M514.69,155.43c-4.79,5.32-10.39,8.18-17.9,8.18-13.12,0-28.15-11.6-28.15-27.69a18.29,18.29,0,0,1,2.87-10.64l-.82-1.5c-6.15,4.36-12,12.82-12,22.64,0,15.83,12.57,28.24,29.65,28.24,13.12,0,22.28-6.68,28-18.83Z"/><path class="cls-5" d="M449.38,103c0-16.64-12.85-27.14-40.86-25.78v2.32c18.17.68,24.19,12,24.19,23.46s-5.33,22.51-22.55,23.74L439.68,173h19l-29.79-46c10.52-3.41,20.5-11.18,20.5-24"/><path class="cls-2" d="M611.18,100.86a7.11,7.11,0,1,0-7.11,7.09,7.11,7.11,0,0,0,7.11-7.09"/><path class="cls-5" d="M495.83,113.55c10.79-2.59,19.81-9.41,19.81-20.19,0-10-8.06-17.46-22-17v1.77c5.74,1.23,9.7,8,9.7,15.82,0,9.42-3.27,14.46-8.19,18.15Z"/><path class="cls-5" d="M530.81,154.33c24.59,0,48.92-11.59,68.73-43.1L597.63,110c-17.22,26.87-38.81,37.38-60.67,37.38-28.29,0-54.52-23.33-54.52-50.61,0-8.73,2.18-16.23,8.47-18.55V76.44c-13.25,1.78-22.27,13.78-22.27,27.56,0,28,28.15,50.33,62.17,50.33"/><polygon class="cls-5" points="575.36 173.02 592.44 173.02 556.23 76.99 554.18 76.99 546.8 96.5 575.36 173.02"/><polygon class="cls-5" points="518.24 173.02 522.21 173.02 547.08 106.05 545.3 100.72 518.24 173.02"/><rect class="cls-5" x="388.82" y="77.26" width="16.69" height="95.76"/></svg>