<svg id="Layer_1" data-name="Layer 1" xmlns="http://www.w3.org/2000/svg" viewBox="0 0 1000 600"><defs><style>.cls-1{fill:#011e41;}.cls-2{fill:#e3fc00;}.cls-3{fill:none;stroke:#e3fc00;stroke-miterlimit:10;stroke-width:1.27px;}.cls-4{fill:#041e42;}.cls-5{fill:#fff;}</style></defs><title>Colour_Using_Colour_Carousel_05</title><rect class="cls-1" width="1000" height="600"/><rect class="cls-2" y="409.67" width="1000" height="190.33"/><path class="cls-3" d="M230.22,271.31,222,281a18.91,18.91,0,0,0-14.88-7.06c-11.35,0-18.84,8.6-18.84,20.64s7.91,20.73,20,20.73a19,19,0,0,0,10.32-3.1V301.93H205V290.58h26.75v28c-6,5.77-14,8.69-23.48,8.69-19.52,0-33.37-14-33.37-32.77s13.42-32.68,32.17-32.68C217.32,261.85,224.2,265,230.22,271.31Z"/><path class="cls-3" d="M307.28,294.71c0,18.83-13.94,32.59-32.51,32.59s-32.51-13.76-32.51-32.59c0-19,13.85-32.86,32.51-32.86S307.28,275.7,307.28,294.71Zm-51.69,0c0,12,7.91,20.55,19.18,20.55s19.09-8.6,19.09-20.55c0-12.22-7.91-20.82-19.09-20.82S255.59,282.49,255.59,294.71Z"/><path class="cls-3" d="M343.82,327.13h-.34L313.21,263h14.53l15.91,37,15.91-37H374Z"/><path class="cls-3" d="M424.15,275H396.46v13.5h24.08v11.27H396.46v14.36h28.38v12H383.3V263h40.85Z"/><path class="cls-3" d="M472.05,326.18l-13.24-22.27h-8.69v22.27H437V263H461.9c12,0,22.36,7.4,22.36,20.47,0,8.94-4.73,15.14-11.52,18.23l14.7,24.51Zm-21.93-33.62h10.49c6.19,0,10.32-3.19,10.32-9.12s-4.13-9.12-10.32-9.12H450.12Z"/><path class="cls-3" d="M534.49,298.06V263h13.15V327.3h-.34L510,291v35.17H496.82V261.85h.34Z"/><path class="cls-3" d="M618.42,326.18H603.8l-4-9.72H575.59l-4.12,9.72H556.93l30.53-64.33h.35Zm-38.7-20h15.91l-8-18.83Z"/><path class="cls-3" d="M665.38,298.06V263h13.15V327.3h-.34L640.87,291v35.17H627.71V261.85h.34Z"/><path class="cls-3" d="M745.61,271.31,737.36,281a18.87,18.87,0,0,0-14.79-7.06c-11.35,0-18.92,8.6-18.92,20.64s7.57,20.73,18.92,20.73a19,19,0,0,0,15-7.22l8.26,9.63c-6.28,6.88-13.76,9.63-23.22,9.63-18.75,0-32.25-14-32.25-32.77s13.5-32.68,32.25-32.68C732.71,261.85,739.59,265,745.61,271.31Z"/><path class="cls-3" d="M796.87,275H769.18v13.5h24.08v11.27H769.18v14.36h28.38v12H756V263h40.85Z"/><path class="cls-2" d="M823.53,319.21a7.83,7.83,0,1,1-7.83-7.82A7.55,7.55,0,0,1,823.53,319.21Z"/><path class="cls-4" d="M406,520.37l-7.13-11.56h-6v11.56h-4.23V489.92h10.11c6.05,0,10.73,3.36,10.73,9.45a8.71,8.71,0,0,1-6.17,8.7l7.62,12.3Zm-13.09-15.29h5.51c4.14,0,6.84-1.94,6.84-5.71s-2.74-5.72-6.84-5.72h-5.51Z"/><path class="cls-4" d="M436.48,520.37,433,516.48c-2.4,2.44-5.22,4.35-9.28,4.31-5.09,0-9.4-3.07-9.4-8.41,0-4.27,2.36-6.38,6.75-9.2-1.91-2.16-3.44-4.39-3.44-7.13,0-4,2.9-6.67,7.33-6.67s7.34,2.7,7.34,6.59c0,3.65-2.7,5.47-5.8,7.5l.66.74,5.8,6.47,3.77-4.6h4.8l-6,7.46,6.13,6.83Zm-6-6.75-6.09-6.84-1.07-1.2c-3.07,2.07-4.85,3.56-4.85,6.55,0,3.15,2.4,5,5.47,5C426.7,517.18,428.77,515.52,430.51,513.62Zm-9-17.4c0,1.82,1.21,3.35,2.74,5,2.86-1.82,4.22-2.94,4.22-5.05a3.17,3.17,0,0,0-3.43-3.36A3.24,3.24,0,0,0,421.52,496.22Z"/><path class="cls-4" d="M471.77,520.37h-4.51l-2.74-6.21H450.85l-2.73,6.21H443.6l14-31h.17Zm-19.34-9.9H463l-5.26-11.77Z"/><path class="cls-4" d="M501,507.49v12.88h-4.23v-12.8L485.52,490h4.93l8.45,13.34L507.31,490h5Z"/><path class="cls-4" d="M530.76,509.81v1.61H515.51c.25,3.73,2.49,5.84,6.38,5.84a6.88,6.88,0,0,0,5.76-2.61l2.69,2.24a10.24,10.24,0,0,1-8.45,3.9c-6.42,0-10.48-4.52-10.48-10.77s4.1-10.86,9.94-10.86C527.57,499.16,530.76,504,530.76,509.81Zm-15.25-1.7h11.23c-.12-3.27-2-5.47-5.39-5.47A5.53,5.53,0,0,0,515.51,508.11Z"/><path class="cls-4" d="M540.78,520.37h-4.06V488.89h4.06Z"/><path class="cls-4" d="M552.46,520.37H548.4V488.89h4.06Z"/><path class="cls-4" d="M579.8,510a10.67,10.67,0,1,1-21.33,0c0-6.26,4.47-10.86,10.64-10.86A10.45,10.45,0,0,1,579.8,510Zm-17.23,0c0,4.14,2.73,7.16,6.54,7.16s6.59-3,6.59-7.16-2.77-7.25-6.59-7.25S562.57,505.83,562.57,510Z"/><path class="cls-4" d="M603.62,520.79h-.16l-6-12.35-6,12.35h-.16l-9.24-21.22h4.18l5.35,12.64,5.8-12.64h.16l5.76,12.64,5.39-12.64h4.14Z"/><path class="cls-5" d="M514.69,155.43c-4.79,5.32-10.39,8.18-17.9,8.18-13.12,0-28.15-11.6-28.15-27.69a18.29,18.29,0,0,1,2.87-10.64l-.82-1.5c-6.15,4.36-12,12.82-12,22.64,0,15.83,12.57,28.24,29.65,28.24,13.12,0,22.28-6.68,28-18.83Z"/><path class="cls-5" d="M449.38,103c0-16.64-12.85-27.14-40.86-25.78v2.32c18.17.68,24.19,12,24.19,23.46s-5.33,22.51-22.55,23.74L439.68,173h19l-29.79-46c10.52-3.41,20.5-11.18,20.5-24"/><path class="cls-2" d="M611.18,100.86a7.11,7.11,0,1,0-7.11,7.09,7.11,7.11,0,0,0,7.11-7.09"/><path class="cls-5" d="M495.83,113.55c10.79-2.59,19.81-9.41,19.81-20.19,0-10-8.06-17.46-22-17v1.77c5.74,1.23,9.7,8,9.7,15.82,0,9.42-3.27,14.46-8.19,18.15Z"/><path class="cls-5" d="M530.81,154.33c24.59,0,48.92-11.59,68.73-43.1L597.63,110c-17.22,26.87-38.81,37.38-60.67,37.38-28.29,0-54.52-23.33-54.52-50.61,0-8.73,2.18-16.23,8.47-18.55V76.44c-13.25,1.78-22.27,13.78-22.27,27.56,0,28,28.15,50.33,62.17,50.33"/><polygon class="cls-5" points="575.36 173.02 592.44 173.02 556.23 76.99 554.18 76.99 546.8 96.5 575.36 173.02"/><polygon class="cls-5" points="518.24 173.02 522.21 173.02 547.08 106.05 545.3 100.72 518.24 173.02"/><rect class="cls-5" x="388.82" y="77.26" width="16.69" height="95.76"/></svg>