<svg id="Layer_1" data-name="Layer 1" xmlns="http://www.w3.org/2000/svg" viewBox="0 0 1000 600"><defs><style>.cls-1{fill:#011e41;}.cls-10,.cls-2,.cls-4,.cls-6,.cls-8{fill:none;stroke-miterlimit:10;stroke-width:1.27px;}.cls-2{stroke:#39ffc4;}.cls-3{fill:#39ffc4;}.cls-4{stroke:#ff5836;}.cls-5{fill:#ff5836;}.cls-6{stroke:#e3fc00;}.cls-7{fill:#e3fc00;}.cls-8{stroke:#a693ff;}.cls-9{fill:#a693ff;}.cls-10{stroke:#14e8ff;}.cls-11{fill:#14e8ff;}</style></defs><title>Colour_Using_Colour_Carousel_06</title><rect class="cls-1" width="1000" height="600"/><path class="cls-2" d="M117.29,272.07,111,283.17a27,27,0,0,0-16.43-6c-5.59,0-9.8,2.32-9.8,6.88,0,3.78,2.32,5.76,11.69,7.74,16.43,3.35,21.5,8.94,21.5,18.57,0,12.22-9,20.39-23.9,20.39-9.72,0-18.32-3-24.51-8.43l7.13-10.84a25.64,25.64,0,0,0,17.8,7.4c6.54,0,10.33-2.58,10.33-7.23,0-3.78-2.76-6.1-12.22-8-16.34-3.44-21-9.64-21-18.84,0-11.35,9.55-19.52,23.05-19.52C103.71,265.28,111.88,268.12,117.29,272.07Z"/><path class="cls-2" d="M179,306.9c0,14.37-8.85,23.83-25.28,23.83s-25.28-9.46-25.28-23.83V266.4h13.16V306c0,7.57,4.21,12.65,12.12,12.65S165.8,313.61,165.8,306V266.4H179Z"/><path class="cls-2" d="M234.34,272.07l-6.28,11.1a27,27,0,0,0-16.43-6c-5.59,0-9.8,2.32-9.8,6.88,0,3.78,2.32,5.76,11.7,7.74,16.42,3.35,21.5,8.94,21.5,18.57,0,12.22-9,20.39-23.91,20.39-9.72,0-18.32-3-24.51-8.43l7.14-10.84a25.6,25.6,0,0,0,17.8,7.4c6.53,0,10.32-2.58,10.32-7.23,0-3.78-2.75-6.1-12.21-8-16.34-3.44-21-9.64-21-18.84,0-11.35,9.55-19.52,23.05-19.52C220.75,265.28,228.92,268.12,234.34,272.07Z"/><path class="cls-2" d="M296.43,278H276v51.6H262.8V278H242.34V266.4h54.09Z"/><path class="cls-2" d="M353.45,329.61H338.83l-4-9.72H310.62l-4.13,9.72H292l30.53-64.33h.34Zm-38.7-20h15.91l-8-18.83Z"/><path class="cls-2" d="M375.89,329.61H362.74V266.4h13.15Z"/><path class="cls-2" d="M426.2,301.49V266.4h13.16v64.33H439l-37.32-36.3v35.18H388.53V265.28h.35Z"/><path class="cls-2" d="M508.85,329.61H494.23l-4.05-9.72H466l-4.13,9.72H447.36l30.53-64.33h.34Zm-38.7-20h15.91l-8-18.83Z"/><path class="cls-2" d="M561.82,283.51a14.33,14.33,0,0,1-6.1,12.21c6.36,2.24,11.18,6.71,11.18,15.48,0,11.79-9.29,18.41-21,18.41H517.28V266.4h24.5C554.25,266.4,561.82,272.85,561.82,283.51Zm-31.39-5.16V292.2h9.89c5,0,8.17-2.75,8.17-6.88,0-4.39-3.18-7-8.43-7Zm0,24.25v15h13.93c5.51,0,9.21-2.66,9.21-7.56s-3.53-7.49-9.64-7.49Z"/><path class="cls-2" d="M589.86,329.61H576.7V266.4h13.16Z"/><path class="cls-2" d="M616.09,318H643v11.61H602.93V266.4h13.16Z"/><path class="cls-2" d="M666,329.61H652.81V266.4H666Z"/><path class="cls-2" d="M729.26,278H708.79v51.6H695.64V278H675.17V266.4h54.09Z"/><path class="cls-2" d="M772.17,303.72v25.89H759V304L735.88,266.4h15.31l14.36,24.34,14.19-24.34h15.4Z"/><path class="cls-3" d="M814.66,322.64a7.83,7.83,0,1,1-7.83-7.82A7.55,7.55,0,0,1,814.66,322.64Z"/><path class="cls-4" d="M128.25,398.27c0,20-12.82,31.65-34.57,31.65H73.55V366.71H93.68C115.26,366.71,128.25,378.32,128.25,398.27ZM86.71,378.83v39.05h6.54c14.27,0,21.67-7.23,21.67-19.53s-7.48-19.52-21.67-19.52Z"/><path class="cls-4" d="M180.88,378.75H153.19v13.5h24.08v11.26H153.19v14.37h28.38v12H140V366.71h40.85Z"/><path class="cls-4" d="M218.55,430.86h-.35l-30.27-64.15h14.54l15.91,37,15.91-37h14.44Z"/><path class="cls-4" d="M298.87,378.75H271.18v13.5h24.08v11.26H271.18v14.37h28.38v12H258V366.71h40.85Z"/><path class="cls-4" d="M324.93,418.31h26.92v11.61H311.77V366.71h13.16Z"/><path class="cls-4" d="M423.31,398.44c0,18.83-13.93,32.59-32.51,32.59s-32.51-13.76-32.51-32.59c0-19,13.85-32.85,32.51-32.85S423.31,379.43,423.31,398.44Zm-51.69,0c0,11.95,7.92,20.55,19.18,20.55s19.09-8.6,19.09-20.55c0-12.21-7.91-20.81-19.09-20.81S371.62,386.23,371.62,398.44Z"/><path class="cls-4" d="M482.65,387.6c0,13.42-10.15,20.9-22.27,20.9H448.25v21.42H435.09V366.71h25.29C472.5,366.71,482.65,374.19,482.65,387.6Zm-34.4-9.54v19.09h10.84c6.1,0,10.14-3.18,10.14-9.55,0-6.1-4-9.54-10.14-9.54Z"/><path class="cls-4" d="M557.3,429.92H544.14V403l-18.32,27.78h-.6l-18.49-27.87v27H493.57V365.59h.35l31.56,44.55L557,365.59h.35Z"/><path class="cls-4" d="M613.37,378.75H585.68v13.5h24.08v11.26H585.68v14.37h28.38v12H572.52V366.71h40.85Z"/><path class="cls-4" d="M663.93,401.79V366.71h13.16V431h-.34l-37.33-36.29v35.18H626.27V365.59h.34Z"/><path class="cls-4" d="M741.16,378.32H720.69v51.6H707.54v-51.6H687.07V366.71h54.09Z"/><path class="cls-5" d="M764.9,423a7.83,7.83,0,1,1-7.83-7.83A7.55,7.55,0,0,1,764.9,423Z"/><path class="cls-6" d="M125.5,475.36,117.24,485a18.89,18.89,0,0,0-14.88-7.05c-11.35,0-18.83,8.6-18.83,20.64s7.91,20.72,20,20.72a19.05,19.05,0,0,0,10.32-3.09V506H100.3V494.62H127v28c-6,5.76-14,8.68-23.47,8.68-19.53,0-33.37-14-33.37-32.76s13.42-32.68,32.16-32.68C112.6,465.9,119.48,469.08,125.5,475.36Z"/><path class="cls-6" d="M202.55,498.75c0,18.83-13.93,32.59-32.51,32.59s-32.5-13.76-32.5-32.59c0-19,13.84-32.85,32.5-32.85S202.55,479.74,202.55,498.75Zm-51.68,0c0,11.95,7.91,20.55,19.17,20.55s19.1-8.6,19.1-20.55c0-12.21-7.92-20.81-19.1-20.81S150.87,486.54,150.87,498.75Z"/><path class="cls-6" d="M239.1,531.17h-.34L208.49,467H223l15.91,37,15.91-37h14.45Z"/><path class="cls-6" d="M319.42,479.05H291.73v13.51h24.08v11.26H291.73v14.36h28.38v12H278.58V467h40.84Z"/><path class="cls-6" d="M367.33,530.22,354.08,508H345.4v22.27H332.24V467h24.94c12,0,22.36,7.4,22.36,20.47,0,8.95-4.73,15.14-11.53,18.23l14.71,24.51ZM345.4,496.6h10.49c6.19,0,10.32-3.18,10.32-9.12s-4.13-9.11-10.32-9.11H345.4Z"/><path class="cls-6" d="M429.76,502.1V467h13.16v64.33h-.35l-37.32-36.29v35.17H392.09V465.9h.35Z"/><path class="cls-6" d="M513.7,530.22H499.08L495,520.51H470.87l-4.13,9.71H452.21l30.53-64.32h.34Zm-38.7-20h15.91l-8-18.84Z"/><path class="cls-6" d="M560.65,502.1V467h13.16v64.33h-.34l-37.33-36.29v35.17H523V465.9h.34Z"/><path class="cls-6" d="M640.89,475.36,632.63,485a18.84,18.84,0,0,0-14.79-7.05c-11.35,0-18.92,8.6-18.92,20.64s7.57,20.72,18.92,20.72a19,19,0,0,0,15-7.22l8.25,9.63c-6.28,6.88-13.76,9.63-23.22,9.63-18.75,0-32.25-14-32.25-32.76s13.5-32.68,32.25-32.68C628,465.9,634.87,469.08,640.89,475.36Z"/><path class="cls-6" d="M692.14,479.05H664.45v13.51h24.08v11.26H664.45v14.36h28.38v12H651.3V467h40.84Z"/><path class="cls-7" d="M718.8,523.26a7.83,7.83,0,1,1-7.82-7.83A7.53,7.53,0,0,1,718.8,523.26Z"/><path class="cls-8" d="M125,175l-8.19,9.56a18.75,18.75,0,0,0-14.68-7c-11.26,0-18.77,8.54-18.77,20.48s7.51,20.57,18.77,20.57A18.81,18.81,0,0,0,117,211.46l8.19,9.55c-6.23,6.83-13.65,9.56-23,9.56-18.6,0-32-13.91-32-32.51s13.39-32.42,32-32.42C112.24,165.64,119.07,168.79,125,175Z"/><path class="cls-8" d="M186.91,229.46H173.85V203.35H148.42v26.11h-13V166.75h13v24.66h25.43V166.75h13.06Z"/><path class="cls-8" d="M257.13,229.46h-14.5l-4-9.64h-24l-4.1,9.64H196.12l30.3-63.82h.34Zm-38.39-19.88h15.78l-7.93-18.69Z"/><path class="cls-8" d="M329.58,229.46H316.52V202.75l-18.17,27.57h-.6l-18.34-27.65v26.79H266.35V165.64h.34L298,209.84l31.23-44.2h.34Z"/><path class="cls-8" d="M391.87,187.48c0,13.31-10.07,20.74-22.1,20.74h-12v21.24H344.68V166.75h25.09C381.8,166.75,391.87,174.17,391.87,187.48ZM357.74,178V197h10.75c6.06,0,10.07-3.15,10.07-9.47,0-6.06-4-9.47-10.07-9.47Z"/><path class="cls-8" d="M415.76,229.46H402.71V166.75h13.05Z"/><path class="cls-8" d="M492.05,198.23c0,18.69-13.83,32.34-32.26,32.34s-32.25-13.65-32.25-32.34c0-18.85,13.74-32.59,32.25-32.59S492.05,179.38,492.05,198.23Zm-51.28,0c0,11.86,7.85,20.4,19,20.4s18.95-8.54,18.95-20.4c0-12.11-7.85-20.65-18.95-20.65S440.77,186.12,440.77,198.23Z"/><path class="cls-8" d="M541.11,201.56V166.75h13.06v63.82h-.34l-37-36v34.9h-13V165.64h.34Z"/><path class="cls-8" d="M611.6,172.38l-6.23,11a26.75,26.75,0,0,0-16.3-6c-5.55,0-9.73,2.31-9.73,6.83,0,3.75,2.31,5.72,11.61,7.68,16.3,3.33,21.33,8.87,21.33,18.43,0,12.12-9,20.22-23.72,20.22-9.64,0-18.18-3-24.32-8.36l7.08-10.75A25.4,25.4,0,0,0,589,218.8c6.49,0,10.24-2.56,10.24-7.17,0-3.76-2.73-6.06-12.11-7.94-16.21-3.41-20.82-9.55-20.82-18.68,0-11.27,9.47-19.37,22.87-19.37C598.12,165.64,606.22,168.45,611.6,172.38Z"/><path class="cls-8" d="M675.34,229.46H662.28V203.35H636.85v26.11H623.8V166.75h13.05v24.66h25.43V166.75h13.06Z"/><path class="cls-8" d="M703.41,229.46h-13V166.75h13Z"/><path class="cls-8" d="M765.7,187.48c0,13.31-10.07,20.74-22.1,20.74h-12v21.24H718.52V166.75H743.6C755.63,166.75,765.7,174.17,765.7,187.48ZM731.57,178V197h10.75c6.06,0,10.07-3.15,10.07-9.47,0-6.06-4-9.47-10.07-9.47Z"/><path class="cls-8" d="M819,172.38l-6.23,11a26.75,26.75,0,0,0-16.3-6c-5.55,0-9.73,2.31-9.73,6.83,0,3.75,2.31,5.72,11.61,7.68,16.3,3.33,21.33,8.87,21.33,18.43,0,12.12-9,20.22-23.72,20.22-9.64,0-18.17-3-24.32-8.36l7.08-10.75a25.4,25.4,0,0,0,17.67,7.34c6.48,0,10.24-2.56,10.24-7.17,0-3.76-2.74-6.06-12.12-7.94-16.21-3.41-20.82-9.55-20.82-18.68,0-11.27,9.47-19.37,22.87-19.37C805.47,165.64,813.57,168.45,819,172.38Z"/><path class="cls-9" d="M844.8,222.55a7.77,7.77,0,1,1-7.76-7.76A7.49,7.49,0,0,1,844.8,222.55Z"/><path class="cls-10" d="M137.28,129.73H124.12V102.82L105.8,130.59h-.6L86.71,102.73v27H73.55V65.41h.35L105.46,110l31.47-44.55h.35Z"/><path class="cls-10" d="M208.14,129.73H193.52l-4-9.71H165.31l-4.12,9.71H146.65l30.53-64.32h.35Zm-38.7-20h15.91l-8-18.84Z"/><path class="cls-10" d="M260.17,72.2l-6.28,11.09a27,27,0,0,0-16.42-6c-5.59,0-9.81,2.32-9.81,6.88,0,3.78,2.32,5.76,11.7,7.73,16.42,3.36,21.5,9,21.5,18.58,0,12.21-9,20.38-23.91,20.38-9.72,0-18.32-3-24.51-8.43l7.14-10.83a25.59,25.59,0,0,0,17.8,7.39c6.54,0,10.32-2.58,10.32-7.22,0-3.78-2.75-6.11-12.21-8-16.34-3.44-21-9.63-21-18.83,0-11.35,9.55-19.52,23.05-19.52C246.58,65.41,254.75,68.25,260.17,72.2Z"/><path class="cls-10" d="M321.4,78.13H300.93v51.6H287.78V78.13H267.31V66.53H321.4Z"/><path class="cls-10" d="M372.23,78.57H344.54v13.5h24.08v11.26H344.54v14.36h28.37v12H331.38V66.53h40.85Z"/><path class="cls-10" d="M420.13,129.73l-13.25-22.27H398.2v22.27H385V66.53H410c12,0,22.36,7.39,22.36,20.46,0,9-4.73,15.14-11.52,18.23l14.7,24.51ZM398.2,96.11h10.49c6.19,0,10.32-3.18,10.32-9.12s-4.13-9.11-10.32-9.11H398.2Z"/><path class="cls-10" d="M511.54,83.64a14.33,14.33,0,0,1-6.1,12.21c6.36,2.24,11.18,6.71,11.18,15.48,0,11.78-9.29,18.4-21,18.4H467V66.53h24.51C504,66.53,511.54,73,511.54,83.64Zm-31.38-5.16V92.33H490c5,0,8.17-2.76,8.17-6.88,0-4.39-3.18-7-8.42-7Zm0,24.25v15h13.93c5.5,0,9.2-2.67,9.2-7.57s-3.53-7.48-9.63-7.48Z"/><path class="cls-10" d="M562.71,129.73l-13.24-22.27h-8.69v22.27H527.63V66.53h24.94c12,0,22.36,7.39,22.36,20.46,0,9-4.73,15.14-11.53,18.23l14.71,24.51ZM540.78,96.11h10.5c6.19,0,10.32-3.18,10.32-9.12s-4.13-9.11-10.32-9.11h-10.5Z"/><path class="cls-10" d="M643.12,129.73H628.5l-4-9.71H600.3l-4.13,9.71H581.63l30.53-64.32h.35Zm-38.7-20h15.91l-8-18.84Z"/><path class="cls-10" d="M690.08,101.61V66.53h13.16v64.32h-.35L665.57,94.56v35.17H652.41V65.41h.35Z"/><path class="cls-10" d="M773.07,98.09c0,20-12.82,31.64-34.57,31.64H718.37V66.53H738.5C760.08,66.53,773.07,78.13,773.07,98.09ZM731.53,78.65v39h6.54c14.27,0,21.67-7.22,21.67-19.52s-7.48-19.52-21.67-19.52Z"/><path class="cls-11" d="M798.61,122.77a7.83,7.83,0,1,1-7.82-7.83A7.54,7.54,0,0,1,798.61,122.77Z"/></svg>