<svg id="Layer_1" data-name="Layer 1" xmlns="http://www.w3.org/2000/svg" viewBox="0 0 1000 600"><defs><style>.cls-1{fill:#011e41;}.cls-2{fill:#ff5836;}.cls-3{fill:none;stroke:#ff5836;stroke-miterlimit:10;stroke-width:1.27px;}.cls-4{fill:#041e42;}.cls-5{fill:#fff;}</style></defs><title>Colour_Using_Colour_Carousel_04</title><rect class="cls-1" width="1000" height="600"/><rect class="cls-2" y="409.67" width="1000" height="190.33"/><path class="cls-3" d="M210.75,294.53c0,20-12.81,31.65-34.57,31.65H156.06V263h20.12C197.77,263,210.75,274.58,210.75,294.53ZM169.22,275.1v39h6.53c14.28,0,21.67-7.22,21.67-19.52s-7.48-19.52-21.67-19.52Z"/><path class="cls-3" d="M263.39,275h-27.7v13.5h24.08v11.27H235.69v14.36h28.38v12H222.54V263h40.85Z"/><path class="cls-3" d="M301.05,327.13h-.34L270.44,263H285l15.91,37,15.91-37h14.45Z"/><path class="cls-3" d="M381.38,275h-27.7v13.5h24.08v11.27H353.68v14.36h28.38v12H340.53V263h40.85Z"/><path class="cls-3" d="M407.43,314.57h26.92v11.61H394.27V263h13.16Z"/><path class="cls-3" d="M505.81,294.71c0,18.83-13.93,32.59-32.5,32.59s-32.51-13.76-32.51-32.59c0-19,13.85-32.86,32.51-32.86S505.81,275.7,505.81,294.71Zm-51.68,0c0,12,7.91,20.55,19.18,20.55s19.09-8.6,19.09-20.55c0-12.22-7.91-20.82-19.09-20.82S454.13,282.49,454.13,294.71Z"/><path class="cls-3" d="M565.15,283.87c0,13.42-10.14,20.9-22.27,20.9H530.76v21.41H517.6V263h25.28C555,263,565.15,270.45,565.15,283.87Zm-34.39-9.55v19.1h10.83c6.11,0,10.15-3.19,10.15-9.55,0-6.11-4-9.55-10.15-9.55Z"/><path class="cls-3" d="M639.8,326.18H626.64V299.26L608.33,327h-.61l-18.49-27.86v27H576.08V261.85h.34L608,306.4l31.48-44.55h.34Z"/><path class="cls-3" d="M695.87,275H668.18v13.5h24.08v11.27H668.18v14.36h28.38v12H655V263h40.85Z"/><path class="cls-3" d="M746.44,298.06V263H759.6V327.3h-.35L721.93,291v35.17H708.77V261.85h.35Z"/><path class="cls-3" d="M823.67,274.58H803.2v51.6H790v-51.6H769.57V263h54.1Z"/><path class="cls-2" d="M847.4,319.21a7.83,7.83,0,1,1-7.82-7.82A7.54,7.54,0,0,1,847.4,319.21Z"/><path class="cls-4" d="M395.55,519.87l-7.12-11.55h-6v11.55h-4.22V489.43h10.11c6,0,10.73,3.35,10.73,9.44a8.71,8.71,0,0,1-6.18,8.7l7.63,12.3Zm-13.09-15.28H388c4.15,0,6.84-1.95,6.84-5.72s-2.74-5.72-6.84-5.72h-5.51Z"/><path class="cls-4" d="M426.08,519.87,422.64,516c-2.4,2.44-5.22,4.35-9.28,4.31-5.09,0-9.4-3.07-9.4-8.41,0-4.27,2.36-6.38,6.75-9.2-1.9-2.15-3.44-4.39-3.44-7.12,0-4,2.9-6.67,7.34-6.67s7.33,2.69,7.33,6.58c0,3.65-2.69,5.47-5.8,7.5l.66.75,5.8,6.46,3.77-4.6h4.81l-6,7.46,6.13,6.83Zm-6-6.75L414,506.29,413,505.08c-3.07,2.08-4.85,3.57-4.85,6.55,0,3.15,2.41,5,5.47,5C416.31,516.68,418.38,515,420.12,513.12Zm-9-17.4c0,1.83,1.2,3.36,2.73,5,2.86-1.82,4.23-2.94,4.23-5.05a3.18,3.18,0,0,0-3.44-3.36A3.24,3.24,0,0,0,411.13,495.72Z"/><path class="cls-4" d="M461.38,519.87h-4.52l-2.73-6.21H440.46l-2.74,6.21h-4.51l14-31h.16ZM442,510h10.52l-5.26-11.76Z"/><path class="cls-4" d="M507.07,504.67c0,9.11-6.55,15.74-15.37,15.74s-15.33-6.63-15.33-15.74,6.46-15.78,15.33-15.78S507.07,495.6,507.07,504.67Zm-26.43,0c0,6.88,4.59,11.85,11.06,11.85s11.06-5,11.06-11.85-4.6-11.89-11.06-11.89S480.64,497.79,480.64,504.67Z"/><path class="cls-4" d="M523.22,502.72h-.37c-2.57,0-4.23,1.45-5.64,3.48v13.67h-4.06V499.08h3.69l.21,2.81a7.09,7.09,0,0,1,6.17-3.23Z"/><path class="cls-4" d="M542.85,501.6l.17-2.52h3.69v20.79H543l-.17-2.52a7.8,7.8,0,0,1-6.5,2.94c-5.68,0-9.45-4.56-9.45-10.81s3.77-10.82,9.45-10.82A7.8,7.8,0,0,1,542.85,501.6ZM531,509.48c0,4.3,2.48,7.2,6.09,7.2,2.73,0,4.3-1.49,5.55-3.52v-7.37c-1.25-2-2.82-3.52-5.55-3.52C533.49,502.27,531,505.17,531,509.48Z"/><path class="cls-4" d="M572.47,507.57v12.3h-4.06V507.82c0-3.15-1.86-5.3-4.8-5.3-2.45,0-4.1,1.49-5.39,3.31v14h-4.06V499.08h3.69l.16,2.52a8.18,8.18,0,0,1,6.59-2.94C569.61,498.66,572.47,502.23,572.47,507.57Z"/><path class="cls-4" d="M594.51,501.6l.16-2.52h3.69v20.26c0,6.5-4.14,10.48-10.48,10.48a11.91,11.91,0,0,1-9.57-4.35l2.69-2.65a8.59,8.59,0,0,0,6.84,3.39c4,0,6.46-2.69,6.46-6.79v-1.78a8.19,8.19,0,0,1-6.46,2.65c-5.72,0-9.61-4.56-9.61-10.81s3.89-10.82,9.61-10.82A8.11,8.11,0,0,1,594.51,501.6Zm-12.18,7.88c0,4.3,2.61,7.2,6.25,7.2a6.4,6.4,0,0,0,5.72-3.52v-7.37a6.4,6.4,0,0,0-5.72-3.52C584.94,502.27,582.33,505.17,582.33,509.48Z"/><path class="cls-4" d="M623.71,509.31v1.62H608.47c.25,3.72,2.48,5.84,6.38,5.84a6.88,6.88,0,0,0,5.75-2.61l2.7,2.23a10.26,10.26,0,0,1-8.45,3.9c-6.42,0-10.48-4.52-10.48-10.77s4.1-10.86,9.94-10.86C620.52,498.66,623.71,503.47,623.71,509.31Zm-15.24-1.7h11.22c-.12-3.27-2-5.47-5.38-5.47A5.52,5.52,0,0,0,608.47,507.61Z"/><path class="cls-5" d="M514.69,155.43c-4.79,5.32-10.39,8.18-17.9,8.18-13.12,0-28.15-11.6-28.15-27.69a18.29,18.29,0,0,1,2.87-10.64l-.82-1.5c-6.15,4.36-12,12.82-12,22.64,0,15.83,12.57,28.24,29.65,28.24,13.12,0,22.28-6.68,28-18.83Z"/><path class="cls-5" d="M449.38,103c0-16.64-12.85-27.14-40.86-25.78v2.32c18.17.68,24.19,12,24.19,23.46s-5.33,22.51-22.55,23.74L439.68,173h19l-29.79-46c10.52-3.41,20.5-11.18,20.5-24"/><path class="cls-2" d="M611.18,100.86a7.11,7.11,0,1,0-7.11,7.09,7.11,7.11,0,0,0,7.11-7.09"/><path class="cls-5" d="M495.83,113.55c10.79-2.59,19.81-9.41,19.81-20.19,0-10-8.06-17.46-22-17v1.77c5.74,1.23,9.7,8,9.7,15.82,0,9.42-3.27,14.46-8.19,18.15Z"/><path class="cls-5" d="M530.81,154.33c24.59,0,48.92-11.59,68.73-43.1L597.63,110c-17.22,26.87-38.81,37.38-60.67,37.38-28.29,0-54.52-23.33-54.52-50.61,0-8.73,2.18-16.23,8.47-18.55V76.44c-13.25,1.78-22.27,13.78-22.27,27.56,0,28,28.15,50.33,62.17,50.33"/><polygon class="cls-5" points="575.36 173.02 592.44 173.02 556.23 76.99 554.18 76.99 546.8 96.5 575.36 173.02"/><polygon class="cls-5" points="518.24 173.02 522.21 173.02 547.08 106.05 545.3 100.72 518.24 173.02"/><rect class="cls-5" x="388.82" y="77.26" width="16.69" height="95.76"/></svg>