<svg id="Layer_1" data-name="Layer 1" xmlns="http://www.w3.org/2000/svg" viewBox="0 0 1000 600"><defs><style>.cls-1{fill:#011e41;}.cls-2{fill:#39ffc4;}.cls-3{fill:none;stroke:#39ffc4;stroke-miterlimit:10;stroke-width:1.27px;}.cls-4{fill:#041e42;}.cls-5{fill:#fff;}</style></defs><title>Colour_Using_Colour_Carousel_03</title><rect class="cls-1" width="1000" height="600"/><rect class="cls-2" y="409.67" width="1000" height="190.33"/><path class="cls-3" d="M173.59,268.65l-6.28,11.09a26.94,26.94,0,0,0-16.42-6c-5.59,0-9.81,2.32-9.81,6.88,0,3.79,2.33,5.76,11.7,7.74,16.43,3.36,21.5,9,21.5,18.58,0,12.21-9,20.38-23.91,20.38-9.72,0-18.32-3-24.51-8.43L133,308a25.61,25.61,0,0,0,17.8,7.39c6.54,0,10.32-2.58,10.32-7.22,0-3.79-2.75-6.11-12.21-8-16.34-3.44-21-9.63-21-18.83,0-11.36,9.54-19.53,23-19.53C160,261.85,168.17,264.69,173.59,268.65Z"/><path class="cls-3" d="M235.25,303.48c0,14.36-8.85,23.82-25.28,23.82s-25.28-9.46-25.28-23.82V263h13.15v39.65c0,7.56,4.22,12.64,12.13,12.64s12.12-5.08,12.12-12.64V263h13.16Z"/><path class="cls-3" d="M290.64,268.65l-6.28,11.09a27,27,0,0,0-16.43-6c-5.59,0-9.8,2.32-9.8,6.88,0,3.79,2.32,5.76,11.69,7.74,16.43,3.36,21.5,9,21.5,18.58,0,12.21-9,20.38-23.9,20.38-9.72,0-18.32-3-24.51-8.43L250,308a25.63,25.63,0,0,0,17.81,7.39c6.53,0,10.32-2.58,10.32-7.22,0-3.79-2.76-6.11-12.22-8-16.34-3.44-21-9.63-21-18.83,0-11.36,9.55-19.53,23-19.53C277.05,261.85,285.22,264.69,290.64,268.65Z"/><path class="cls-3" d="M352.73,274.58H332.26v51.6H319.1v-51.6H298.63V263h54.1Z"/><path class="cls-3" d="M409.74,326.18H395.12l-4-9.72H366.92l-4.13,9.72H348.26l30.52-64.33h.35Zm-38.69-20H387l-8-18.83Z"/><path class="cls-3" d="M432.19,326.18H419V263h13.16Z"/><path class="cls-3" d="M482.5,298.06V263h13.16V327.3h-.35L458,291v35.17H444.83V261.85h.35Z"/><path class="cls-3" d="M565.14,326.18H550.52l-4-9.72H522.32l-4.13,9.72H503.66l30.52-64.33h.35Zm-38.7-20h15.91l-8-18.83Z"/><path class="cls-3" d="M618.12,280.08A14.36,14.36,0,0,1,612,292.3c6.37,2.23,11.18,6.7,11.18,15.48,0,11.78-9.28,18.4-21,18.4H573.57V263h24.51C610.55,263,618.12,269.42,618.12,280.08Zm-31.39-5.15v13.84h9.89c5,0,8.17-2.75,8.17-6.88,0-4.38-3.18-7-8.43-7Zm0,24.25v15.05h13.93c5.51,0,9.2-2.67,9.2-7.57s-3.52-7.48-9.63-7.48Z"/><path class="cls-3" d="M646.16,326.18H633V263h13.16Z"/><path class="cls-3" d="M672.38,314.57H699.3v11.61H659.23V263h13.15Z"/><path class="cls-3" d="M722.26,326.18H709.11V263h13.15Z"/><path class="cls-3" d="M785.56,274.58H765.09v51.6H751.93v-51.6H731.46V263h54.1Z"/><path class="cls-3" d="M828.47,300.29v25.89H815.31V300.55L792.18,263h15.31l14.36,24.34L836,263h15.39Z"/><path class="cls-2" d="M871,319.21a7.83,7.83,0,1,1-7.83-7.82A7.55,7.55,0,0,1,871,319.21Z"/><path class="cls-4" d="M428.28,520.37l-7.13-11.56h-6v11.56H411V489.92h10.11c6.05,0,10.73,3.36,10.73,9.45a8.71,8.71,0,0,1-6.17,8.7l7.62,12.3Zm-13.09-15.29h5.51c4.14,0,6.83-1.94,6.83-5.71s-2.73-5.72-6.83-5.72h-5.51Z"/><path class="cls-4" d="M458.81,520.37l-3.44-3.89c-2.4,2.44-5.22,4.35-9.28,4.31-5.1,0-9.4-3.07-9.4-8.41,0-4.27,2.36-6.38,6.75-9.2-1.91-2.16-3.44-4.39-3.44-7.13,0-4,2.9-6.67,7.33-6.67s7.34,2.7,7.34,6.59c0,3.65-2.7,5.47-5.8,7.5l.66.74,5.8,6.47,3.77-4.6h4.8l-6,7.46,6.13,6.83Zm-6-6.75-6.09-6.84-1.07-1.2c-3.07,2.07-4.85,3.56-4.85,6.55,0,3.15,2.4,5,5.47,5C449,517.18,451.1,515.52,452.84,513.62Zm-9-17.4c0,1.82,1.2,3.35,2.74,5,2.85-1.82,4.22-2.94,4.22-5.05a3.18,3.18,0,0,0-3.44-3.36A3.24,3.24,0,0,0,443.85,496.22Z"/><path class="cls-4" d="M494.1,520.37h-4.51l-2.74-6.21H473.18l-2.73,6.21h-4.52l14-31h.17Zm-19.35-9.9h10.53L480,498.7Z"/><path class="cls-4" d="M533.66,493.69H523v26.68h-4.22V493.69H508.1v-3.77h25.56Z"/><path class="cls-4" d="M551.51,509.81v1.61H536.27c.25,3.73,2.48,5.84,6.38,5.84a6.91,6.91,0,0,0,5.76-2.61l2.69,2.24a10.26,10.26,0,0,1-8.45,3.9c-6.42,0-10.48-4.52-10.48-10.77s4.1-10.86,9.94-10.86C548.32,499.16,551.51,504,551.51,509.81Zm-15.24-1.7h11.22c-.12-3.27-2-5.47-5.38-5.47A5.52,5.52,0,0,0,536.27,508.11Z"/><path class="cls-4" d="M572.27,502.1l.16-2.53h3.69v20.8h-3.69l-.16-2.53a7.81,7.81,0,0,1-6.51,2.95c-5.67,0-9.44-4.56-9.44-10.82s3.77-10.81,9.44-10.81A7.84,7.84,0,0,1,572.27,502.1ZM560.42,510c0,4.31,2.48,7.21,6.09,7.21,2.73,0,4.31-1.49,5.55-3.52v-7.37c-1.24-2-2.82-3.52-5.55-3.52C562.9,502.77,560.42,505.66,560.42,510Z"/><path class="cls-4" d="M587.71,520.37h-4.06V488.89h4.06Z"/><path class="cls-5" d="M514.69,155.43c-4.79,5.32-10.39,8.18-17.9,8.18-13.12,0-28.15-11.6-28.15-27.69a18.29,18.29,0,0,1,2.87-10.64l-.82-1.5c-6.15,4.36-12,12.82-12,22.64,0,15.83,12.57,28.24,29.65,28.24,13.12,0,22.28-6.68,28-18.83Z"/><path class="cls-5" d="M449.38,103c0-16.64-12.85-27.14-40.86-25.78v2.32c18.17.68,24.19,12,24.19,23.46s-5.33,22.51-22.55,23.74L439.68,173h19l-29.79-46c10.52-3.41,20.5-11.18,20.5-24"/><path class="cls-2" d="M611.18,100.86a7.11,7.11,0,1,0-7.11,7.09,7.11,7.11,0,0,0,7.11-7.09"/><path class="cls-5" d="M495.83,113.55c10.79-2.59,19.81-9.41,19.81-20.19,0-10-8.06-17.46-22-17v1.77c5.74,1.23,9.7,8,9.7,15.82,0,9.42-3.27,14.46-8.19,18.15Z"/><path class="cls-5" d="M530.81,154.33c24.59,0,48.92-11.59,68.73-43.1L597.63,110c-17.22,26.87-38.81,37.38-60.67,37.38-28.29,0-54.52-23.33-54.52-50.61,0-8.73,2.18-16.23,8.47-18.55V76.44c-13.25,1.78-22.27,13.78-22.27,27.56,0,28,28.15,50.33,62.17,50.33"/><polygon class="cls-5" points="575.36 173.02 592.44 173.02 556.23 76.99 554.18 76.99 546.8 96.5 575.36 173.02"/><polygon class="cls-5" points="518.24 173.02 522.21 173.02 547.08 106.05 545.3 100.72 518.24 173.02"/><rect class="cls-5" x="388.82" y="77.26" width="16.69" height="95.76"/></svg>