<svg id="Layer_1" data-name="Layer 1" xmlns="http://www.w3.org/2000/svg" viewBox="0 0 1000 600"><defs><style>.cls-1{fill:#011e41;}.cls-2{fill:#14e8ff;}.cls-3{fill:none;stroke:#14e8ff;stroke-miterlimit:10;stroke-width:1.27px;}.cls-4{fill:#041e42;}.cls-5{fill:#fff;}</style></defs><title>Colour_Using_Colour_Carousel_01</title><rect class="cls-1" width="1000" height="600"/><rect class="cls-2" y="409.67" width="1000" height="190.33"/><path class="cls-3" d="M202.93,326.18H189.77V299.26L171.45,327h-.6l-18.49-27.86v27H139.2V261.85h.35l31.56,44.55,31.47-44.55h.35Z"/><path class="cls-3" d="M273.79,326.18H259.17l-4-9.72H231l-4.12,9.72H212.3l30.53-64.33h.34Zm-38.7-20H251l-8-18.83Z"/><path class="cls-3" d="M325.82,268.65l-6.28,11.09a27,27,0,0,0-16.42-6c-5.59,0-9.81,2.32-9.81,6.88,0,3.79,2.32,5.76,11.7,7.74,16.42,3.36,21.5,9,21.5,18.58,0,12.21-9,20.38-23.91,20.38-9.72,0-18.32-3-24.51-8.43L285.23,308a25.59,25.59,0,0,0,17.8,7.39c6.54,0,10.32-2.58,10.32-7.22,0-3.79-2.75-6.11-12.21-8-16.34-3.44-21-9.63-21-18.83,0-11.36,9.55-19.53,23.05-19.53C312.23,261.85,320.4,264.69,325.82,268.65Z"/><path class="cls-3" d="M387.05,274.58H366.58v51.6H353.42v-51.6H333V263h54.09Z"/><path class="cls-3" d="M437.88,275H410.19v13.5h24.07v11.27H410.19v14.36h28.37v12H397V263h40.85Z"/><path class="cls-3" d="M485.78,326.18l-13.25-22.27h-8.68v22.27H450.69V263h24.94c12,0,22.36,7.4,22.36,20.47,0,8.94-4.73,15.14-11.52,18.23l14.7,24.51Zm-21.93-33.62h10.49c6.19,0,10.32-3.19,10.32-9.12s-4.13-9.12-10.32-9.12H463.85Z"/><path class="cls-3" d="M577.19,280.08a14.35,14.35,0,0,1-6.1,12.22c6.36,2.23,11.18,6.7,11.18,15.48,0,11.78-9.29,18.4-21,18.4H532.65V263h24.51C569.63,263,577.19,269.42,577.19,280.08Zm-31.39-5.15v13.84h9.89c5,0,8.17-2.75,8.17-6.88,0-4.38-3.18-7-8.42-7Zm0,24.25v15.05h13.94c5.5,0,9.2-2.67,9.2-7.57s-3.53-7.48-9.63-7.48Z"/><path class="cls-3" d="M628.36,326.18l-13.24-22.27h-8.69v22.27H593.28V263h24.94c12,0,22.36,7.4,22.36,20.47,0,8.94-4.73,15.14-11.53,18.23l14.71,24.51Zm-21.93-33.62h10.5c6.19,0,10.32-3.19,10.32-9.12s-4.13-9.12-10.32-9.12h-10.5Z"/><path class="cls-3" d="M708.77,326.18H694.15l-4-9.72H666l-4.13,9.72H647.28l30.53-64.33h.35Zm-38.7-20H686l-8-18.83Z"/><path class="cls-3" d="M755.73,298.06V263h13.16V327.3h-.35L731.22,291v35.17H718.06V261.85h.34Z"/><path class="cls-3" d="M838.72,294.53c0,20-12.82,31.65-34.57,31.65H784V263h20.13C825.73,263,838.72,274.58,838.72,294.53ZM797.18,275.1v39h6.54c14.27,0,21.67-7.22,21.67-19.52s-7.48-19.52-21.67-19.52Z"/><path class="cls-2" d="M864.26,319.21a7.83,7.83,0,1,1-7.83-7.82A7.55,7.55,0,0,1,864.26,319.21Z"/><path class="cls-4" d="M368,520.37l-7.13-11.56h-6v11.56h-4.23V489.92h10.11c6.05,0,10.73,3.36,10.73,9.45a8.71,8.71,0,0,1-6.17,8.7l7.62,12.3Zm-13.09-15.29h5.51c4.14,0,6.83-1.94,6.83-5.71s-2.73-5.72-6.83-5.72h-5.51Z"/><path class="cls-4" d="M398.56,520.37l-3.44-3.89c-2.4,2.44-5.22,4.35-9.28,4.31-5.1,0-9.4-3.07-9.4-8.41,0-4.27,2.36-6.38,6.75-9.2-1.91-2.16-3.44-4.39-3.44-7.13,0-4,2.9-6.67,7.33-6.67s7.34,2.7,7.34,6.59c0,3.65-2.7,5.47-5.8,7.5l.66.74,5.8,6.47,3.77-4.6h4.8l-6,7.46,6.13,6.83Zm-6-6.75-6.09-6.84-1.07-1.2c-3.07,2.07-4.85,3.56-4.85,6.55,0,3.15,2.4,5,5.47,5C388.78,517.18,390.85,515.52,392.59,513.62Zm-9-17.4c0,1.82,1.2,3.35,2.74,5,2.85-1.82,4.22-2.94,4.22-5.05a3.18,3.18,0,0,0-3.44-3.36A3.24,3.24,0,0,0,383.6,496.22Z"/><path class="cls-4" d="M433.85,520.37h-4.52l-2.73-6.21H412.93l-2.73,6.21h-4.52l14-31h.17Zm-19.35-9.9H425l-5.26-11.77Z"/><path class="cls-4" d="M454.93,516.6h14.5v3.77H450.71V489.92h4.22Z"/><path class="cls-4" d="M479.21,492.86a2.66,2.66,0,1,1-2.65-2.65A2.6,2.6,0,0,1,479.21,492.86Zm-.62,27.51h-4.06v-20.8h4.06Z"/><path class="cls-4" d="M500.87,502.1l.17-2.53h3.69v20.26c0,6.51-4.15,10.48-10.49,10.48a11.92,11.92,0,0,1-9.57-4.35l2.7-2.65a8.55,8.55,0,0,0,6.83,3.4c4,0,6.47-2.69,6.47-6.79v-1.79a8.23,8.23,0,0,1-6.47,2.66c-5.71,0-9.61-4.56-9.61-10.82s3.9-10.81,9.61-10.81A8.09,8.09,0,0,1,500.87,502.1ZM488.69,510c0,4.31,2.61,7.21,6.26,7.21,2.77,0,4.47-1.49,5.72-3.52v-7.37c-1.25-2-2.95-3.52-5.72-3.52C491.3,502.77,488.69,505.66,488.69,510Z"/><path class="cls-4" d="M516.32,501.85a7.91,7.91,0,0,1,6.38-2.69c5,0,7.87,3.56,7.87,8.91v12.3h-4.06V508.32c0-3.15-1.86-5.31-4.8-5.31-2.45,0-4.1,1.49-5.39,3.32v14h-4.06V488.89h4.06Z"/><path class="cls-4" d="M543.5,499.57H550v3.49H543.5v10.35c0,2.36,1.45,3.69,3.43,3.69a6.49,6.49,0,0,0,3.11-.75l1.16,3.32a8.29,8.29,0,0,1-4.47,1.12c-4.44,0-7.29-2.57-7.29-7.38V503.06h-4.06v-3.49h4.06v-7h4.06Z"/><path class="cls-4" d="M588.11,498a6.82,6.82,0,0,1-3.6,6.3c3.43.91,6.13,3.1,6.13,7.58,0,5.42-4.15,8.53-10,8.53h-12.8V489.92h10.77C584.84,489.92,588.11,493,588.11,498ZM572,493.77V503h6.46c3.4,0,5.38-2,5.38-4.6,0-2.85-1.94-4.6-5.75-4.6Zm0,13v9.78h8.16c3.81,0,6.17-1.7,6.17-4.89s-2.2-4.89-6.63-4.89Z"/><path class="cls-4" d="M600.62,520.37h-4.06V488.89h4.06Z"/><path class="cls-4" d="M625.89,520.37H622.2l-.17-2.53a8,8,0,0,1-6.67,2.95c-4.76,0-7.41-3.53-7.41-8.83V499.57H612v12.18c0,3.07,1.66,5.18,4.39,5.18s4.14-1.53,5.43-3.31V499.57h4.06Z"/><path class="cls-4" d="M651.24,509.81v1.61H636c.25,3.73,2.49,5.84,6.38,5.84a6.88,6.88,0,0,0,5.76-2.61l2.69,2.24a10.26,10.26,0,0,1-8.45,3.9c-6.42,0-10.48-4.52-10.48-10.77s4.1-10.86,9.94-10.86C648.05,499.16,651.24,504,651.24,509.81ZM636,508.11h11.23c-.12-3.27-2-5.47-5.39-5.47A5.53,5.53,0,0,0,636,508.11Z"/><path class="cls-5" d="M514.69,155.43c-4.79,5.32-10.39,8.18-17.9,8.18-13.12,0-28.15-11.6-28.15-27.69a18.29,18.29,0,0,1,2.87-10.64l-.82-1.5c-6.15,4.36-12,12.82-12,22.64,0,15.83,12.57,28.24,29.65,28.24,13.12,0,22.28-6.68,28-18.83Z"/><path class="cls-5" d="M449.38,103c0-16.64-12.85-27.14-40.86-25.78v2.32c18.17.68,24.19,12,24.19,23.46s-5.33,22.51-22.55,23.74L439.68,173h19l-29.79-46c10.52-3.41,20.5-11.18,20.5-24"/><path class="cls-2" d="M611.18,100.86a7.11,7.11,0,1,0-7.11,7.09,7.11,7.11,0,0,0,7.11-7.09"/><path class="cls-5" d="M495.83,113.55c10.79-2.59,19.81-9.41,19.81-20.19,0-10-8.06-17.46-22-17v1.77c5.74,1.23,9.7,8,9.7,15.82,0,9.42-3.27,14.46-8.19,18.15Z"/><path class="cls-5" d="M530.81,154.33c24.59,0,48.92-11.59,68.73-43.1L597.63,110c-17.22,26.87-38.81,37.38-60.67,37.38-28.29,0-54.52-23.33-54.52-50.61,0-8.73,2.18-16.23,8.47-18.55V76.44c-13.25,1.78-22.27,13.78-22.27,27.56,0,28,28.15,50.33,62.17,50.33"/><polygon class="cls-5" points="575.36 173.02 592.44 173.02 556.23 76.99 554.18 76.99 546.8 96.5 575.36 173.02"/><polygon class="cls-5" points="518.24 173.02 522.21 173.02 547.08 106.05 545.3 100.72 518.24 173.02"/><rect class="cls-5" x="388.82" y="77.26" width="16.69" height="95.76"/></svg>