<svg xmlns="http://www.w3.org/2000/svg" xmlns:xlink="http://www.w3.org/1999/xlink" width="1169" height="200" viewBox="0 0 1169 200">
    <defs>
        <path id="a" d="M0 209.821h1168.12V.688H0z"/>
    </defs>
    <g fill="none" fill-rule="evenodd">
        <g transform="translate(0 -10.51)">
            <mask id="b" fill="#fff">
                <use xlink:href="#a"/>
            </mask>
            <path stroke="#041E42" stroke-width="1.176" d="M157.469 10.688v59.02-59.02zM350.417 10.688v59.02-59.02zM421.29 10.688v59.02-59.02zM499.496 10.688v59.02-59.02zM611.939 10.688v59.02-59.02zM685.154 10.688v59.02-59.02zM731.269 10.688v59.02-59.02zM796.444 10.688v59.02-59.02zM870.508 10.688v59.02-59.02zM928.864 10.688v59.02-59.02zM999.274 10.688v59.02-59.02zM1112.576 10.688v59.02-59.02zM1046.924 10.688v59.02-59.02zM85.798 10.688v59.02-59.02z" mask="url(#b)"/>
            <path fill="#041E42" d="M165.605 21.82h6.487v-1.464h-6.487zM181.758 15.253c0 2.067-.71 3.402-2.083 5.081l-4.146 4.995h6.465v1.464h-9.322v-.129l5.778-7.191c1.246-1.55 1.718-2.605 1.718-4.243 0-1.936-1.31-3.077-3.007-3.077-1.76 0-2.75.904-3.135 2.798l-1.461-.322c.536-2.541 2.061-3.94 4.596-3.94 2.707 0 4.597 1.851 4.597 4.564M192.112 12.432h-6.38v5.319a5.202 5.202 0 0 1 2.47-.604c2.922 0 4.898 1.982 4.898 4.974 0 2.756-1.847 4.952-4.79 4.952-2.62 0-4.104-1.313-4.962-3.165l1.31-.71c.644 1.334 1.718 2.41 3.566 2.41 1.933 0 3.286-1.528 3.286-3.552s-1.375-3.444-3.437-3.444c-1.31 0-2.212.495-3.007 1.098l-.923-.475v-8.267h7.969v1.464zM358.553 21.82h6.487v-1.464h-6.487zM369.143 22.035h4.36v-6.523l-4.36 6.523zm5.928-.022h2.32v1.465h-2.32v3.315h-1.59v-3.315h-7.067v-.087l8.55-12.51h.107v11.132zM429.423 21.82h6.487v-1.464h-6.487zM441.688 26.793h-1.59V13.68l-3.114 2.175-.73-1.4 5.348-3.767h.086zM452.45 15.812c0-2.152-1.526-3.659-3.415-3.659-1.912 0-3.46 1.507-3.46 3.66 0 2.174 1.548 3.724 3.46 3.724 1.89 0 3.415-1.55 3.415-3.725m1.611 0a5.322 5.322 0 0 1-.946 3.08l-5.284 7.9h-1.825l3.93-5.898a4.331 4.331 0 0 1-.901.086c-2.792 0-5.07-2.175-5.07-5.168 0-2.992 2.278-5.124 5.07-5.124 2.77 0 5.026 2.132 5.026 5.124M507.614 21.82h6.487v-1.464h-6.487zM524.863 15.037c0 1.852-.967 2.885-2.298 3.424 1.76.603 2.878 1.981 2.878 3.874 0 2.843-1.912 4.738-4.812 4.738-2.77 0-4.21-1.42-5.026-3.66l1.44-.41c.6 1.55 1.567 2.606 3.586 2.606 1.911 0 3.223-1.292 3.223-3.274 0-1.786-1.44-3.142-3.524-3.142h-1.74V17.77h1.784c1.482 0 2.899-.86 2.899-2.756 0-1.765-1.225-2.862-2.857-2.862-1.632 0-2.62.925-3.179 2.432l-1.396-.603c.71-1.894 2.084-3.293 4.575-3.293 2.6 0 4.447 1.766 4.447 4.348M528.687 18.87c0 4.112 1.268 6.739 3.824 6.739 2.534 0 3.823-2.627 3.823-6.74 0-4.09-1.289-6.716-3.823-6.716-2.556 0-3.824 2.626-3.824 6.717m9.258 0c0 5.016-1.933 8.203-5.434 8.203-3.501 0-5.435-3.187-5.435-8.203 0-4.995 1.934-8.181 5.435-8.181 3.5 0 5.434 3.186 5.434 8.18M620.073 21.82h6.487v-1.464h-6.487zM637.323 15.037c0 1.852-.967 2.885-2.3 3.424 1.762.603 2.88 1.981 2.88 3.874 0 2.843-1.913 4.738-4.813 4.738-2.77 0-4.21-1.42-5.025-3.66l1.44-.41c.599 1.55 1.567 2.606 3.585 2.606 1.912 0 3.224-1.292 3.224-3.274 0-1.786-1.441-3.142-3.524-3.142h-1.74V17.77h1.784c1.48 0 2.899-.86 2.899-2.756 0-1.765-1.226-2.862-2.857-2.862-1.632 0-2.622.925-3.179 2.432l-1.397-.603c.709-1.894 2.084-3.293 4.576-3.293 2.599 0 4.447 1.766 4.447 4.348M641.147 18.87c0 4.112 1.267 6.739 3.823 6.739 2.535 0 3.824-2.627 3.824-6.74 0-4.09-1.29-6.716-3.824-6.716-2.556 0-3.823 2.626-3.823 6.717m9.258 0c0 5.016-1.932 8.203-5.435 8.203-3.502 0-5.434-3.187-5.434-8.203 0-4.995 1.932-8.181 5.434-8.181 3.503 0 5.435 3.186 5.435 8.18M693.304 21.82h6.487v-1.464h-6.487zM709.458 15.253c0 2.067-.709 3.402-2.082 5.081l-4.147 4.995h6.466v1.464h-9.323v-.129l5.778-7.191c1.246-1.55 1.718-2.605 1.718-4.243 0-1.936-1.31-3.077-3.007-3.077-1.76 0-2.75.904-3.135 2.798l-1.46-.322c.537-2.541 2.062-3.94 4.595-3.94 2.707 0 4.597 1.851 4.597 4.564M716.418 26.793h-1.59V13.68l-3.114 2.175-.73-1.4 5.35-3.767h.084zM739.403 21.82h6.487v-1.464h-6.487zM755.558 15.253c0 2.067-.71 3.402-2.083 5.081l-4.147 4.995h6.466v1.464h-9.323v-.129l5.778-7.191c1.246-1.55 1.719-2.605 1.719-4.243 0-1.936-1.31-3.077-3.008-3.077-1.76 0-2.75.904-3.135 2.798l-1.46-.322c.537-2.541 2.062-3.94 4.595-3.94 2.708 0 4.598 1.851 4.598 4.564M762.518 26.793h-1.59V13.68l-3.115 2.175-.729-1.4 5.349-3.767h.085zM804.578 21.82h6.487v-1.464h-6.487zM820.732 15.253c0 2.067-.709 3.402-2.082 5.081l-4.147 4.995h6.466v1.464h-9.323v-.129l5.778-7.191c1.246-1.55 1.718-2.605 1.718-4.243 0-1.936-1.31-3.077-3.007-3.077-1.76 0-2.75.904-3.135 2.798l-1.46-.322c.537-2.541 2.062-3.94 4.595-3.94 2.707 0 4.597 1.851 4.597 4.564M831.086 12.432h-6.38v5.319a5.202 5.202 0 0 1 2.47-.604c2.922 0 4.898 1.982 4.898 4.974 0 2.756-1.847 4.952-4.79 4.952-2.62 0-4.103-1.313-4.962-3.165l1.31-.71c.645 1.334 1.718 2.41 3.566 2.41 1.933 0 3.286-1.528 3.286-3.552s-1.375-3.444-3.437-3.444c-1.31 0-2.212.495-3.007 1.098l-.923-.475v-8.267h7.969v1.464zM878.626 21.82h6.487v-1.464h-6.487zM890.891 26.793h-1.59V13.68l-3.114 2.175-.729-1.4 5.349-3.767h.084zM901.59 21.949c0-2.175-1.546-3.725-3.458-3.725-1.89 0-3.415 1.55-3.415 3.725 0 2.152 1.525 3.659 3.415 3.659 1.912 0 3.459-1.507 3.459-3.66m1.61 0c0 2.994-2.276 5.125-5.069 5.125-2.77 0-5.026-2.131-5.026-5.124 0-1.034.257-2.068.945-3.08l5.284-7.9h1.827l-3.932 5.898c.301-.063.602-.086.902-.086 2.793 0 5.069 2.175 5.069 5.168M936.991 21.82h6.487v-1.464h-6.487zM953.145 15.253c0 2.067-.709 3.402-2.082 5.081l-4.147 4.995h6.466v1.464h-9.323v-.129l5.778-7.191c1.246-1.55 1.718-2.605 1.718-4.243 0-1.936-1.31-3.077-3.007-3.077-1.76 0-2.75.904-3.135 2.798l-1.46-.322c.537-2.541 2.062-3.94 4.595-3.94 2.708 0 4.597 1.851 4.597 4.564M960.105 26.793h-1.59V13.68l-3.114 2.175-.729-1.4 5.349-3.767h.084zM1007.408 21.82h6.487v-1.464h-6.487zM1023.562 15.253c0 2.067-.71 3.402-2.083 5.081l-4.147 4.995h6.466v1.464h-9.322v-.129l5.778-7.191c1.245-1.55 1.718-2.605 1.718-4.243 0-1.936-1.31-3.077-3.007-3.077-1.76 0-2.75.904-3.136 2.798l-1.46-.322c.537-2.541 2.062-3.94 4.596-3.94 2.707 0 4.597 1.851 4.597 4.564M1027.085 22.035h4.361v-6.523l-4.36 6.523zm5.929-.022h2.32v1.465h-2.32v3.315h-1.59v-3.315h-7.066v-.087l8.548-12.51h.108v11.132zM1120.704 21.82h6.487v-1.464h-6.487zM1136.858 15.253c0 2.067-.709 3.402-2.083 5.081l-4.146 4.995h6.466v1.464h-9.323v-.129l5.778-7.191c1.245-1.55 1.718-2.605 1.718-4.243 0-1.936-1.31-3.077-3.007-3.077-1.76 0-2.75.904-3.135 2.798l-1.461-.322c.537-2.541 2.063-3.94 4.596-3.94 2.707 0 4.597 1.851 4.597 4.564M1140.382 22.035h4.36v-6.523l-4.36 6.523zm5.928-.022h2.32v1.465h-2.32v3.315h-1.59v-3.315h-7.065v-.087l8.547-12.51h.108v11.132zM1055.055 21.82h6.488v-1.464h-6.488zM1072.305 15.037c0 1.852-.967 2.885-2.3 3.424 1.763.603 2.88 1.981 2.88 3.874 0 2.843-1.912 4.738-4.813 4.738-2.77 0-4.21-1.42-5.025-3.66l1.44-.41c.6 1.55 1.567 2.606 3.585 2.606 1.913 0 3.224-1.292 3.224-3.274 0-1.786-1.44-3.142-3.524-3.142h-1.74V17.77h1.784c1.48 0 2.899-.86 2.899-2.756 0-1.765-1.225-2.862-2.857-2.862-1.632 0-2.621.925-3.179 2.432l-1.397-.603c.71-1.894 2.084-3.293 4.576-3.293 2.6 0 4.447 1.766 4.447 4.348M1076.13 18.87c0 4.112 1.266 6.739 3.823 6.739 2.534 0 3.823-2.627 3.823-6.74 0-4.09-1.289-6.716-3.823-6.716-2.557 0-3.824 2.626-3.824 6.717m9.258 0c0 5.016-1.932 8.203-5.434 8.203-3.503 0-5.435-3.187-5.435-8.203 0-4.995 1.932-8.181 5.435-8.181 3.502 0 5.434 3.186 5.434 8.18M93.919 21.82h6.487v-1.464h-6.487zM111.04 12.432h-6.381v5.319a5.202 5.202 0 0 1 2.47-.604c2.922 0 4.898 1.982 4.898 4.974 0 2.756-1.846 4.952-4.79 4.952-2.62 0-4.103-1.313-4.962-3.165l1.31-.71c.645 1.334 1.718 2.41 3.566 2.41 1.934 0 3.286-1.528 3.286-3.552s-1.375-3.444-3.436-3.444c-1.31 0-2.213.495-3.008 1.098l-.923-.475v-8.267h7.97v1.464zM80.165 109.503H48.073v80.607h-16.11v-80.607H0v-14.34h80.165zM107.234 131.463c4.254-4.522 9.666-7.75 18.817-7.75 15.724 0 24.488 11.238 24.488 28.289v38.108h-15.595v-37.204c0-8.655-4.898-14.468-12.888-14.468-6.832 0-11.47 4.135-14.822 9.043v42.63H91.77V91.933h15.465v39.529zM177.094 151.227h30.544c-.386-8.914-5.542-15.113-14.692-15.113s-15.337 6.07-15.852 15.113m45.882 5.684v5.426h-45.882c.644 10.204 6.958 15.888 17.785 15.888 7.733 0 13.405-3.23 16.497-7.363l10.31 8.14c-6.314 7.88-15.078 12.4-27.065 12.4-20.105 0-33.251-14.21-33.251-33.717 0-19.634 13.017-33.973 31.834-33.973 19.847 0 29.772 14.985 29.772 33.199M347.482 107.564L337.3 119.19c-5.67-6.2-13.532-10.85-24.1-10.85-18.689 0-31.448 14.338-31.448 34.362 0 19.763 12.76 34.233 31.448 34.233 10.826 0 18.945-4.78 24.487-11.37l10.053 11.886c-9.022 9.946-20.364 14.339-34.54 14.339-27.71 0-47.687-21.057-47.687-49.088 0-28.29 19.977-49.218 47.687-49.218 14.95 0 25.26 4.91 34.282 14.08M375.969 131.463c4.254-4.522 9.666-7.75 18.817-7.75 15.724 0 24.487 11.238 24.487 28.289v38.108H403.68v-37.204c0-8.655-4.898-14.468-12.888-14.468-6.832 0-11.47 4.135-14.822 9.043v42.63h-15.465V91.933h15.465v39.529zM446.473 157.557c0 12.272 6.702 20.152 16.755 20.152 7.475 0 11.857-4.134 15.337-9.688v-20.928c-3.48-5.554-7.862-9.688-15.337-9.688-10.053 0-16.755 7.88-16.755 20.152m32.864-24.931l.774-7.622h13.919v65.106H480.11l-.774-7.622c-3.609 4.908-9.795 8.914-19.461 8.914-17.528 0-29.127-14.339-29.127-33.845 0-19.635 11.6-33.845 29.127-33.845 9.666 0 15.852 4.004 19.461 8.914M609.126 152.002v38.108h-15.724v-37.203c0-8.656-4.51-14.47-12.114-14.47-6.703 0-11.214 4.136-14.565 9.302.13.904.13 1.938.13 2.842v39.53h-15.467v-37.204c0-8.656-4.64-14.47-12.244-14.47-6.573 0-10.955 4.136-14.305 8.916v42.757h-15.595v-65.106h14.048l.645 7.491c3.608-4.649 10.053-8.783 19.461-8.783 9.28 0 15.982 4.263 19.847 11.497 4.899-6.717 11.987-11.497 22.427-11.497 14.95 0 23.456 11.239 23.456 28.29M639.161 147.093v20.928c3.352 5.554 8.12 9.688 15.724 9.688 10.181 0 17.27-7.88 17.27-20.152 0-12.272-7.089-20.152-17.27-20.152-7.604 0-12.372 4.134-15.724 9.688m48.718 10.464c0 19.506-11.987 33.845-29.514 33.845-9.538 0-15.724-3.616-19.204-7.75v36.169h-15.595v-94.817h14.049l.643 7.622c3.61-4.91 10.184-8.914 20.107-8.914 17.527 0 29.514 14.21 29.514 33.845M699.997 190.11h15.596v-65.106h-15.596v65.106zm17.4-85.904c0 5.555-4.125 9.559-9.666 9.559-5.543 0-9.538-4.004-9.538-9.559s3.995-9.69 9.538-9.69c5.541 0 9.666 4.135 9.666 9.69zM743.303 157.686c0 11.626 7.475 20.023 17.914 20.023 10.57 0 18.174-8.397 18.174-20.023 0-11.756-7.605-20.28-18.174-20.28-10.439 0-17.914 8.524-17.914 20.28m51.811 0c0 19.506-14.305 33.716-33.897 33.716-19.46 0-33.638-14.21-33.638-33.716 0-19.635 14.178-33.973 33.638-33.973 19.592 0 33.897 14.338 33.897 33.973M865.488 152.002v38.108h-15.465v-37.203c0-8.656-5.028-14.47-13.018-14.47-6.83 0-11.471 4.136-14.693 9.044v42.63h-15.595v-65.107h14.049l.644 7.491c3.48-4.649 10.183-8.783 19.591-8.783 15.723 0 24.487 11.239 24.487 28.29M927.484 130.3l-6.057 11.497c-4.125-2.842-9.796-5.426-17.013-5.426-6.058 0-9.925 1.938-9.925 6.46 0 4.262 3.093 5.684 12.374 7.879 14.82 3.617 21.524 9.819 21.524 19.637 0 12.659-10.44 21.055-27.066 21.055-9.795 0-18.945-2.712-24.875-7.492l6.444-11.755c4.77 4.003 10.955 6.588 18.56 6.588 6.83 0 11.341-2.197 11.341-6.847 0-4.521-3.221-6.459-12.114-8.656-15.21-3.487-21.781-8.913-21.781-18.989 0-12.659 9.794-20.539 25.905-20.539 8.763 0 17.399 2.712 22.683 6.588M956.228 131.463c4.253-4.522 9.667-7.75 18.817-7.75 15.724 0 24.488 11.238 24.488 28.289v38.108h-15.595v-37.204c0-8.655-4.898-14.468-12.888-14.468-6.83 0-11.47 4.135-14.822 9.043v42.63h-15.465V91.933h15.465v39.529zM1014.616 190.11h15.595v-65.106h-15.595v65.106zm17.4-85.904c0 5.555-4.124 9.559-9.666 9.559-5.542 0-9.539-4.004-9.539-9.559s3.997-9.69 9.54-9.69c5.541 0 9.664 4.135 9.664 9.69zM1061.015 147.093v20.928c3.352 5.554 8.12 9.688 15.724 9.688 10.181 0 17.27-7.88 17.27-20.152 0-12.272-7.089-20.152-17.27-20.152-7.604 0-12.372 4.134-15.724 9.688m48.718 10.464c0 19.506-11.987 33.845-29.515 33.845-9.537 0-15.723-3.616-19.203-7.75v36.169h-15.595v-94.817h14.049l.643 7.622c3.61-4.91 10.184-8.914 20.106-8.914 17.528 0 29.515 14.21 29.515 33.845M1167.218 130.3l-6.057 11.497c-4.125-2.842-9.795-5.426-17.013-5.426-6.058 0-9.925 1.938-9.925 6.46 0 4.262 3.093 5.684 12.374 7.879 14.82 3.617 21.524 9.819 21.524 19.637 0 12.659-10.44 21.055-27.066 21.055-9.795 0-18.945-2.712-24.875-7.492l6.444-11.755c4.77 4.003 10.955 6.588 18.56 6.588 6.83 0 11.341-2.197 11.341-6.847 0-4.521-3.221-6.459-12.114-8.656-15.21-3.487-21.781-8.913-21.781-18.989 0-12.659 9.794-20.539 25.905-20.539 8.763 0 17.399 2.712 22.683 6.588" mask="url(#b)"/>
        </g>
    </g>
</svg>
