<svg id="Layer_1" data-name="Layer 1" xmlns="http://www.w3.org/2000/svg" viewBox="0 0 480 306.41"><defs><style>.cls-1{fill:#fff;}.cls-2{fill:#e3fc00;}</style></defs><title>Typography_Styling_05</title><path class="cls-1" d="M49.24,13.55H32V56.63H25.16V13.55H8V7.46H49.24Z"/><path class="cls-1" d="M61.22,26.73c2.34-2.54,5.21-4.35,10.3-4.35,8.09,0,12.71,5.75,12.71,14.38V56.63H77.67V37.16c0-5.08-3-8.56-7.76-8.56C66,28.6,63.29,31,61.22,34V56.63H54.66V5.79h6.56Z"/><path class="cls-1" d="M122.09,39.57v2.61H97.47c.4,6,4,9.43,10.3,9.43,4.42,0,7.63-1.87,9.3-4.21L121.42,51a16.58,16.58,0,0,1-13.65,6.29C97.41,57.3,90.85,50,90.85,39.91s6.62-17.53,16.06-17.53C116.94,22.38,122.09,30.14,122.09,39.57ZM97.47,36.83H115.6c-.2-5.28-3.28-8.83-8.69-8.83S97.81,31.48,97.47,36.83Z"/><path class="cls-1" d="M194.87,56.63H188V29.47L171.45,57H171L154.33,29.47V56.63h-6.82v-50h.26l23.42,38.27L194.6,6.59h.27Z"/><path class="cls-1" d="M228.58,27.13l.27-4.08h6V56.63h-6l-.27-4.08c-1.94,2.54-5.28,4.75-10.5,4.75-9.17,0-15.25-7.36-15.25-17.46s6.08-17.46,15.25-17.46C223.3,22.38,226.64,24.59,228.58,27.13ZM209.45,39.84c0,7,4,11.64,9.83,11.64,4.42,0,7-2.41,9-5.69V33.89c-2-3.28-4.55-5.69-9-5.69C213.46,28.2,209.45,32.88,209.45,39.84Z"/><path class="cls-1" d="M229.72,70l3.48-5.08a8.15,8.15,0,0,0,5.28,1.94c3.21,0,5.62-2.41,5.62-6.29V23.05h6.56V60.51c0,7-5.16,12.18-12.38,12.18A13.47,13.47,0,0,1,229.72,70Zm21.94-57.8a4.28,4.28,0,1,1-8.56,0,4.18,4.18,0,0,1,4.28-4.28A4.22,4.22,0,0,1,251.66,12.21Z"/><path class="cls-1" d="M291.73,39.91c0,10.1-7.29,17.39-17.26,17.39S257.28,50,257.28,39.91s7.22-17.53,17.19-17.53S291.73,29.81,291.73,39.91Zm-27.83,0c0,6.69,4.41,11.57,10.57,11.57S285.1,46.6,285.1,39.91,280.62,28.2,274.47,28.2,263.9,33.15,263.9,39.91Z"/><path class="cls-1" d="M314.94,28.94h-.6c-4.15,0-6.83,2.34-9.1,5.62V56.63h-6.56V23.05h6L305,27.6a11.45,11.45,0,0,1,10-5.22Z"/><path class="cls-1" d="M51.72,97.37l-4.35,4.95A17.57,17.57,0,0,0,34.13,96.5c-10.44,0-17.66,8.09-17.66,19.2s7.22,19.13,17.66,19.13a17.57,17.57,0,0,0,13.58-6.15L52,133.76c-4.62,5-10.57,7.36-17.86,7.36-14.25,0-24.55-10.84-24.55-25.42s10.3-25.49,24.55-25.49C41.68,90.21,47.17,92.75,51.72,97.37Z"/><path class="cls-1" d="M64.29,110.35c2.35-2.54,5.22-4.35,10.31-4.35,8.09,0,12.71,5.75,12.71,14.38v19.87H80.75V120.78c0-5.08-3-8.56-7.76-8.56-3.95,0-6.62,2.41-8.7,5.35v22.68H57.74V89.41h6.55Z"/><path class="cls-1" d="M119.68,110.75l.27-4.08h6v33.58h-6l-.27-4.08c-1.94,2.54-5.28,4.75-10.5,4.75-9.17,0-15.25-7.36-15.25-17.46S100,106,109.18,106C114.4,106,117.74,108.21,119.68,110.75Zm-19.13,12.71c0,7,4,11.64,9.83,11.64,4.42,0,7-2.41,9-5.69v-11.9c-2-3.28-4.55-5.69-9-5.69C104.56,111.82,100.55,116.5,100.55,123.46Z"/><path class="cls-1" d="M186.17,120.38v19.87h-6.62V120.78c0-5.08-2.81-8.56-7.29-8.56-3.81,0-6.49,2.41-8.63,5.49.07.73.13,1.47.13,2.14v20.4h-6.55V120.78c0-5.08-2.81-8.56-7.29-8.56-3.82,0-6.36,2.41-8.5,5.29v22.74h-6.55V106.67h5.95l.27,4.08a13,13,0,0,1,10.5-4.75c4.88,0,8.43,2.27,10.37,6.15A14.11,14.11,0,0,1,174,106C181.69,106,186.17,111.75,186.17,120.38Z"/><path class="cls-1" d="M227.45,123.46c0,10.1-6.29,17.46-15.52,17.46-5,0-8.43-1.94-10.44-4.28v19h-6.56v-49h6l.27,4.08c1.94-2.54,5.48-4.75,10.77-4.75C221.16,106,227.45,113.36,227.45,123.46Zm-26-5.95v11.9c2,3.28,4.75,5.69,9.23,5.69,5.89,0,10.1-4.68,10.1-11.64s-4.21-11.64-10.1-11.64C206.24,111.82,203.5,114.23,201.49,117.51Z"/><path class="cls-1" d="M241.83,95.83a4.19,4.19,0,0,1-4.29,4.28,4.28,4.28,0,0,1,0-8.56A4.23,4.23,0,0,1,241.83,95.83Zm-1,44.42h-6.55V106.67h6.55Z"/><path class="cls-1" d="M281.89,123.53c0,10.1-7.29,17.39-17.25,17.39s-17.2-7.29-17.2-17.39S254.67,106,264.64,106,281.89,113.42,281.89,123.53Zm-27.82,0c0,6.69,4.41,11.57,10.57,11.57s10.63-4.88,10.63-11.57-4.48-11.71-10.63-11.71S254.07,116.77,254.07,123.53Z"/><path class="cls-1" d="M318.42,120.38v19.87h-6.56V120.78c0-5.08-3-8.56-7.76-8.56-3.94,0-6.62,2.41-8.69,5.35v22.68h-6.56V106.67h5.95l.27,4.08A13.16,13.16,0,0,1,305.71,106C313.8,106,318.42,111.75,318.42,120.38Z"/><path class="cls-1" d="M349.86,109.28l-2.75,5.22a15.87,15.87,0,0,0-9.09-2.81c-3.48,0-5.89,1.13-5.89,3.88s1.94,3.47,6.82,4.61c8,1.94,11.58,5.15,11.58,10.17,0,6.42-5.22,10.57-13.45,10.57A20.81,20.81,0,0,1,324.3,137l3-5.29a14.92,14.92,0,0,0,9.84,3.48c4,0,6.75-1.34,6.75-4.21s-2-3.82-6.89-5c-8.09-1.88-11.43-4.62-11.43-9.84,0-6.42,4.88-10.23,12.7-10.23A21.29,21.29,0,0,1,349.86,109.28Z"/><path class="cls-1" d="M364,110.35c2.34-2.54,5.22-4.35,10.3-4.35,8.1,0,12.71,5.75,12.71,14.38v19.87h-6.55V120.78c0-5.08-3-8.56-7.76-8.56-3.95,0-6.63,2.41-8.7,5.35v22.68h-6.56V89.41H364Z"/><path class="cls-1" d="M403.17,95.83a4.28,4.28,0,1,1-4.28-4.28A4.22,4.22,0,0,1,403.17,95.83Zm-1,44.42h-6.56V106.67h6.56Z"/><path class="cls-1" d="M443.64,123.46c0,10.1-6.29,17.46-15.52,17.46-5,0-8.43-1.94-10.44-4.28v19h-6.55v-49h5.95l.27,4.08c1.94-2.54,5.48-4.75,10.77-4.75C437.35,106,443.64,113.36,443.64,123.46Zm-26-5.95v11.9c2,3.28,4.75,5.69,9.24,5.69,5.88,0,10.1-4.68,10.1-11.64s-4.22-11.64-10.1-11.64C422.43,111.82,419.69,114.23,417.68,117.51Z"/><path class="cls-1" d="M473.14,109.28l-2.74,5.22a15.93,15.93,0,0,0-9.1-2.81c-3.48,0-5.89,1.13-5.89,3.88s1.94,3.47,6.83,4.61c8,1.94,11.57,5.15,11.57,10.17,0,6.42-5.22,10.57-13.45,10.57A20.81,20.81,0,0,1,447.58,137l3-5.29a14.92,14.92,0,0,0,9.84,3.48c4,0,6.75-1.34,6.75-4.21s-2-3.82-6.89-5c-8.09-1.88-11.43-4.62-11.43-9.84,0-6.42,4.88-10.23,12.71-10.23A21.28,21.28,0,0,1,473.14,109.28Z"/><path class="cls-2" d="M153.49,228.39h-6.11l-3.21-7.29H128.59l-3.21,7.29h-6.11L136,191.27h.67l.1.22Zm-5.64-.73h4.5l-16-35.35-16,35.35h4.5l3.21-7.29h16.53Zm-4.73-10.89H129.63l6.75-15.08ZM130.76,216H142l-5.61-12.56Z"/><path class="cls-2" d="M162.05,239.58h-5.5V203.24h5l.16,2.42a10,10,0,0,1,7.53-2.91c6.86,0,11.65,5.37,11.65,13.07s-4.79,13.06-11.65,13.06a10.42,10.42,0,0,1-7.22-2.57Zm-4.77-.73h4V224.41l.64.75a9.37,9.37,0,0,0,7.31,3c6.43,0,10.92-5.07,10.92-12.33s-4.49-12.34-10.92-12.34c-4.37,0-6.6,2.08-7.54,3.32l-.6.77-.23-3.6h-3.62Zm11.11-14.2c-3,0-5.22-1.37-7-4.31l-.05-.09v-8.87l.05-.08c1.8-2.94,4-4.31,7-4.31,4.54,0,7.72,3.63,7.72,8.83S172.93,224.65,168.39,224.65ZM162.05,220c1.64,2.64,3.66,3.88,6.34,3.88,4.11,0,7-3.34,7-8.1s-2.87-8.1-7-8.1c-2.68,0-4.7,1.23-6.34,3.87Z"/><path class="cls-2" d="M191,228.39h-5.5V203.24h5l.19,2.64a8.93,8.93,0,0,1,7-3.13h.36v5.5h-.8c-2.48,0-4.36,1.15-6.25,3.84Zm-4.77-.73h4v-15.8l.06-.1c1.38-2,3.4-4.24,6.92-4.24h.07v-4a7.84,7.84,0,0,0-6.57,3.62l-.59.95-.3-4.09h-3.63Z"/><path class="cls-2" d="M206.87,228.4h-5.5V203.24h5.5Zm-4.77-.74h4V204h-4Zm2-28.46a3.48,3.48,0,1,1,0-6.95,3.48,3.48,0,1,1,0,6.95Zm0-6.22a2.75,2.75,0,1,0,2.75,2.74A2.71,2.71,0,0,0,204.12,193Z"/><path class="cls-2" d="M218.39,228.39h-5.5v-37.7h5.5Zm-4.77-.73h4V191.42h-4Z"/><path class="cls-2" d="M155.12,278.5H119.36v-5.16h35.76Zm-35-.73h34.3v-3.69h-34.3Z"/><path class="cls-2" d="M203.73,289.21h-6.11l-3.21-7.3H178.83l-3.21,7.3h-6.11l16.78-37.13H187l.1.22Zm-5.64-.74h4.5l-16-35.35-16,35.35h4.5l3.21-7.29h16.53Zm-4.73-10.89H179.87l6.75-15.08ZM181,276.85h11.23l-5.61-12.56Z"/><path class="cls-2" d="M214.64,289.69c-5.59,0-9.07-4.11-9.07-10.73V264.05h5.5v14.67c0,3.47,1.88,5.72,4.79,5.72s4.62-1.74,6-3.65V264.05h5.5v25.16h-5l-.16-2.43A10,10,0,0,1,214.64,289.69Zm-8.34-24.91V279c0,6.26,3.12,10,8.34,10a9.06,9.06,0,0,0,7.55-3.32l.59-.74.24,3.58h3.62v-23.7h-4V281l-.07.1c-1.44,2-3.37,4-6.67,4s-5.52-2.53-5.52-6.45V264.78Z"/><path class="cls-2" d="M243.66,300.88a14.39,14.39,0,0,1-11.52-5.24l-.22-.25,3.69-3.64.25.31a9.72,9.72,0,0,0,7.75,3.86c4.46,0,7.22-2.92,7.22-7.61v-1.19a10.37,10.37,0,0,1-7.22,2.57c-6.86,0-11.65-5.37-11.65-13.06s4.79-13.06,11.65-13.06a10,10,0,0,1,7.53,2.9l.16-2.42h5v24.16C256.33,295.91,251.36,300.88,243.66,300.88Zm-10.74-5.45a13.69,13.69,0,0,0,10.74,4.72c7.37,0,11.94-4.58,11.94-11.94V264.78H252l-.23,3.61-.6-.78c-.94-1.24-3.17-3.31-7.54-3.31-6.43,0-10.92,5.07-10.92,12.33S237.18,289,243.61,289a9.4,9.4,0,0,0,7.31-3l.64-.76v3.09c0,5.06-3.12,8.34-7.95,8.34a10.28,10.28,0,0,1-8.05-3.82Zm11.57-10c-4.54,0-7.72-3.63-7.72-8.83s3.18-8.83,7.72-8.83c3,0,5.22,1.37,7,4.31l.05.09v8.86l-.05.09C249.71,284.09,247.48,285.46,244.49,285.46Zm0-16.93c-4.11,0-7,3.33-7,8.1s2.88,8.1,7,8.1c2.68,0,4.7-1.23,6.34-3.88V272.4C249.19,269.76,247.17,268.53,244.49,268.53Z"/><path class="cls-2" d="M271.2,289.69c-5.59,0-9.07-4.11-9.07-10.73V264.05h5.5v14.67c0,3.47,1.88,5.72,4.79,5.72s4.62-1.74,6-3.65V264.05h5.5v25.16h-5l-.16-2.43A10,10,0,0,1,271.2,289.69Zm-8.34-24.91V279c0,6.26,3.12,10,8.34,10a9.06,9.06,0,0,0,7.55-3.32l.59-.74.23,3.58h3.63v-23.7h-4V281l-.07.1c-1.44,2-3.37,4-6.67,4s-5.52-2.53-5.52-6.45V264.78Z"/><path class="cls-2" d="M297.67,289.69a15.39,15.39,0,0,1-9.52-2.9l-.25-.19,2.56-4.5.34.28a10.45,10.45,0,0,0,6.92,2.44c1.7,0,4.55-.35,4.55-2.69,0-1.67-1.07-2.39-4.73-3.25-6.11-1.41-8.6-3.59-8.6-7.51,0-4.81,3.68-7.8,9.6-7.8a15.73,15.73,0,0,1,8.63,2.45l.26.18-2.33,4.44-.34-.23a11.27,11.27,0,0,0-6.41-2c-1.79,0-3.91.43-3.91,2.46,0,1.65,1.11,2.17,4.67,3,5.94,1.43,8.7,3.89,8.7,7.75C307.81,286.53,303.83,289.69,297.67,289.69Zm-8.82-3.28a14.87,14.87,0,0,0,8.82,2.55c5.72,0,9.41-2.87,9.41-7.32,0-3.51-2.51-5.68-8.14-7-3.56-.83-5.24-1.46-5.24-3.71,0-2.06,1.65-3.19,4.65-3.19a12,12,0,0,1,6.48,1.88l1.65-3.14a15.47,15.47,0,0,0-7.94-2.14c-5.55,0-8.87,2.64-8.87,7.07,0,3.56,2.25,5.46,8,6.8,3.51.82,5.3,1.65,5.3,4s-1.93,3.43-5.28,3.43a11.19,11.19,0,0,1-7.05-2.34Z"/><path class="cls-2" d="M323.7,289.69c-5.59,0-8.92-3.37-8.92-9v-11.8H310v-4.82h4.77v-8.27h5.49v8.27H328v4.82h-7.69v11.8c0,2.44,1.41,4,3.67,4a7.21,7.21,0,0,0,3.49-.84l.37-.18,1.6,4.56-.25.15A10.11,10.11,0,0,1,323.7,289.69Zm-13-21.55h4.77v12.53c0,5.27,3,8.29,8.19,8.29a9.59,9.59,0,0,0,4.81-1.11l-1.13-3.22a8.08,8.08,0,0,1-3.44.73c-2.67,0-4.4-1.84-4.4-4.69V268.14h7.69v-3.36h-7.69v-8.27h-4v8.27h-4.77Z"/><path class="cls-2" d="M30.82,228.83h-23V228l13.5-17.27c2.55-3.24,3.37-5.3,3.37-8.51,0-3.59-2.25-5.9-5.75-5.9s-5.34,1.78-6.1,5.77l-.08.37-5.15-1.2L7.7,201c1.26-6.39,5.16-9.77,11.26-9.77,6.72,0,11.42,4.6,11.42,11.18,0,4.73-1.77,7.86-4.62,11.38l-8.15,9.91H30.82Zm-22.1-.74H30.09v-3.71h-14l9.12-11.1c2.82-3.49,4.46-6.39,4.46-10.92,0-6.15-4.4-10.45-10.69-10.45-5.68,0-9.2,3-10.47,8.84l3.72.87c.89-4,3.1-6,6.75-6,3.88,0,6.49,2.67,6.49,6.64,0,3.4-.86,5.58-3.54,9Z"/><path class="cls-2" d="M46.89,229.47c-8.2,0-13.1-7.17-13.1-19.17s4.9-19.12,13.1-19.12,13,7.15,13,19.12S55.06,229.47,46.89,229.47Zm0-37.56c-7.74,0-12.37,6.88-12.37,18.39s4.63,18.44,12.37,18.44,12.32-6.9,12.32-18.44S54.6,191.91,46.89,191.91Zm0,33.17c-5.23,0-8.11-5.25-8.11-14.78s2.88-14.73,8.11-14.73S55,200.94,55,210.3,52,225.08,46.89,225.08Zm0-28.77c-6.42,0-7.38,8.76-7.38,14s1,14,7.38,14c2.74,0,7.33-1.82,7.33-14C54.22,201.41,51.55,196.31,46.89,196.31Z"/><path class="cls-2" d="M76.51,228.83H70.9V201.22l-6.25,3.67L62.15,200l13.69-8.78h.67Zm-4.88-.74h4.15v-36L63.1,200.22,65,203.87l6.68-3.93Z"/><path class="cls-2" d="M91.94,228.83h-6.4l8.5-13h-.18a12.2,12.2,0,0,1-12.3-12.36,12.26,12.26,0,1,1,24.51,0,13,13,0,0,1-2.23,7.26Zm-5-.74h4.65l11.69-17.79a12.3,12.3,0,0,0,2.11-6.86,11.53,11.53,0,1,0-11.48,11.63,4.52,4.52,0,0,0,.83,0l.82-.13Zm7-16.68c-4.2,0-7.37-3.43-7.37-8s3.17-7.87,7.37-7.87,7.23,3.31,7.23,7.87S98.05,211.41,93.86,211.41Zm0-15.1c-3.85,0-6.64,3-6.64,7.13s2.79,7.23,6.64,7.23,6.5-3,6.5-7.23S97.62,196.31,93.86,196.31Z"/></svg>