<svg id="Layer_1" data-name="Layer 1" xmlns="http://www.w3.org/2000/svg" viewBox="0 0 600 600"><defs><style>.cls-1{fill:#d8d8d8;}.cls-2,.cls-4,.cls-5,.cls-6{fill:none;stroke-miterlimit:10;stroke-width:0.48px;}.cls-2{stroke:#8b8b8b;}.cls-3{fill:#fff;}.cls-4,.cls-5,.cls-6{stroke:#b1b1b1;}.cls-5{stroke-dasharray:24.13 24.13;}.cls-6{stroke-dasharray:24.09 24.09;}.cls-7{fill:#75cae8;}</style></defs><title>Graphic_Language_Use_Photography_Portrait_Full</title><rect class="cls-1" x="95.09" y="11.11" width="409.83" height="577.78"/><rect class="cls-2" x="95.09" y="11.11" width="409.83" height="577.78"/><rect class="cls-3" x="118.52" y="34.55" width="363.27" height="530.91"/><rect class="cls-4" x="118.52" y="34.55" width="363.27" height="530.91"/><rect class="cls-4" x="118.36" y="521.65" width="363.27" height="43.8"/><rect class="cls-4" x="118.36" y="300.24" width="363.27" height="43.8"/><rect class="cls-4" x="118.36" y="477.37" width="363.27" height="43.8"/><rect class="cls-4" x="118.36" y="255.96" width="363.27" height="43.8"/><rect class="cls-4" x="118.36" y="433.09" width="363.27" height="43.8"/><rect class="cls-4" x="118.36" y="211.68" width="363.27" height="43.8"/><rect class="cls-4" x="118.36" y="388.81" width="363.27" height="43.8"/><rect class="cls-4" x="118.36" y="167.39" width="363.27" height="43.8"/><rect class="cls-4" x="118.36" y="78.83" width="363.27" height="43.8"/><rect class="cls-4" x="118.36" y="344.52" width="363.27" height="43.8"/><rect class="cls-4" x="118.36" y="123.11" width="363.27" height="43.8"/><rect class="cls-4" x="118.36" y="34.55" width="363.27" height="43.8"/><rect class="cls-3" x="143.42" y="34.55" width="5.55" height="530.91"/><line class="cls-5" x1="143.42" y1="70.74" x2="143.42" y2="541.32"/><line class="cls-5" x1="148.97" y1="529.26" x2="148.97" y2="58.68"/><path class="cls-4" d="M149,46.61V34.55h-5.55V46.61m0,506.78v12.07H149V553.39"/><rect class="cls-3" x="204.94" y="34.55" width="5.55" height="530.91"/><line class="cls-5" x1="204.94" y1="70.74" x2="204.94" y2="541.32"/><line class="cls-5" x1="210.49" y1="529.26" x2="210.49" y2="58.68"/><path class="cls-4" d="M210.49,46.61V34.55h-5.55V46.61m0,506.78v12.07h5.55V553.39"/><rect class="cls-3" x="266.47" y="34.55" width="5.55" height="530.91"/><line class="cls-5" x1="266.46" y1="70.74" x2="266.46" y2="541.32"/><line class="cls-5" x1="272.01" y1="529.26" x2="272.01" y2="58.68"/><path class="cls-4" d="M272,46.61V34.55h-5.56V46.61m0,506.78v12.07H272V553.39"/><rect class="cls-3" x="327.99" y="34.55" width="5.55" height="530.91"/><line class="cls-5" x1="327.99" y1="70.74" x2="327.99" y2="541.32"/><line class="cls-5" x1="333.54" y1="529.26" x2="333.54" y2="58.68"/><path class="cls-4" d="M333.54,46.61V34.55H328V46.61m0,506.78v12.07h5.55V553.39"/><rect class="cls-3" x="389.5" y="34.55" width="5.55" height="530.91"/><line class="cls-5" x1="389.51" y1="70.74" x2="389.51" y2="541.32"/><line class="cls-5" x1="395.06" y1="529.26" x2="395.06" y2="58.68"/><path class="cls-4" d="M395.06,46.61V34.55h-5.55V46.61m0,506.78v12.07h5.55V553.39"/><rect class="cls-3" x="174.18" y="34.55" width="5.55" height="530.91"/><rect class="cls-4" x="174.18" y="34.55" width="5.55" height="530.91"/><rect class="cls-3" x="235.7" y="34.55" width="5.55" height="530.91"/><rect class="cls-4" x="235.7" y="34.55" width="5.55" height="530.91"/><rect class="cls-3" x="297.22" y="34.55" width="5.55" height="530.91"/><rect class="cls-4" x="297.22" y="34.55" width="5.55" height="530.91"/><rect class="cls-3" x="358.75" y="34.55" width="5.55" height="530.91"/><rect class="cls-4" x="358.75" y="34.55" width="5.55" height="530.91"/><polyline class="cls-4" points="425.82 565.3 425.82 34.54 420.26 34.54 420.26 565.3"/><rect class="cls-3" x="451.03" y="34.55" width="5.55" height="530.91"/><line class="cls-5" x1="451.03" y1="70.74" x2="451.03" y2="541.32"/><line class="cls-5" x1="456.58" y1="529.26" x2="456.58" y2="58.68"/><path class="cls-4" d="M456.58,46.61V34.55H451V46.61m0,506.78v12.07h5.55V553.39"/><rect class="cls-3" x="451.03" y="34.54" width="5.55" height="529.97"/><line class="cls-6" x1="451.03" y1="70.68" x2="451.03" y2="540.42"/><line class="cls-6" x1="456.58" y1="528.38" x2="456.58" y2="58.63"/><path class="cls-4" d="M456.58,46.59V34.54H451V46.59m0,505.87v12h5.55v-12"/><path class="cls-7" d="M495.49,557.08l-3.14,1.26-3.11,1.31-5.87,2.47.08,0,.22.1-.59.25-6.17,2.74c-4.13,1.79-8.2,3.7-12.29,5.57-2,.94-4.07,1.91-6.11,2.86s-4.07,1.91-6.09,2.89q-12.51,6-24.91,12.15h1.19c3.93-1.94,7.86-3.88,11.81-5.79l6.06-2.94,6.09-2.91q15.84-7.53,32-14.36h0l5-2.08,1.33-.56q5.47-2.24,11-4.37l1.57-.6,1.37-.51h0v-1.23c-1.05.4-2.11.79-3.16,1.2Z"/><path class="cls-7" d="M488.11,556.83c-2.08.84-4.17,1.66-6.24,2.51l-2.43,1,.33.14-4,1.71-3.1,1.31-3.08,1.35-6.16,2.69-6.14,2.76-3.06,1.39-3.06,1.4C440,578.21,429,583.46,418,588.72h1.22L427,585c4-1.92,8.09-3.86,12.15-5.74l6.09-2.85,6.12-2.8q14.52-6.65,29.33-12.69l0,0,1.53-.64c2.07-.85,4.16-1.66,6.24-2.49,1.19-.49,2.4-.95,3.6-1.42q4.44-1.71,8.91-3.36c1.29-.5,2.59-1,3.9-1.41v-1.19c-1.42.51-2.84,1-4.24,1.56C496.47,553.58,492.26,555.13,488.11,556.83Z"/><path class="cls-7" d="M475.21,558.58l.36.14-1.13.46c-2.08.82-4.13,1.7-6.2,2.55s-4.13,1.71-6.19,2.59c-4.11,1.78-8.22,3.53-12.31,5.35-14,6.17-27.89,12.61-41.78,19.05h1.25l16.28-7.58c4.06-1.86,8.12-3.75,12.2-5.57l6.12-2.74,6.14-2.7,3.07-1.35,3.08-1.32,6.17-2.62c2.05-.87,4.13-1.7,6.2-2.56s4.12-1.71,6.21-2.51l1.75-.69.08,0q9.19-3.66,18.48-7l4.8-1.69q2.55-.9,5.12-1.77v-1.13q-2.73.93-5.43,1.9Q487.24,553.73,475.21,558.58Z"/><path class="cls-7" d="M491.83,548.92l-6.3,2.27-3.15,1.13-3.13,1.19L473,555.88l-2.33.92.38.14-4.21,1.67c-2.07.83-4.16,1.63-6.21,2.49-4.13,1.7-8.26,3.39-12.37,5.15-16.44,7-32.71,14.3-49,21.66-.59.28-1.19.53-1.79.81h1.25l.75-.35q12.18-5.55,24.39-11c4.08-1.81,8.16-3.63,12.25-5.39l6.14-2.66c2.05-.88,4.11-1.73,6.17-2.6,4.1-1.76,8.24-3.42,12.37-5.1,2.06-.85,4.15-1.64,6.22-2.46l4.82-1.88.09,0,1.39-.54,6.25-2.35,3.14-1.18,3.15-1.12,5.76-2.07.5-.17c2.11-.73,4.22-1.42,6.34-2.13s4.29-1.43,6.45-2.11v-1.08c-2.25.72-4.5,1.45-6.74,2.23S493.94,548.19,491.83,548.92Z"/><path class="cls-7" d="M496.77,544.13c-4.26,1.33-8.47,2.8-12.69,4.23-2.12.7-4.21,1.48-6.31,2.22l-6.29,2.27L465.7,555l.41.14c-6.52,2.49-13,5-19.48,7.68-16.51,6.71-32.85,13.85-49.14,21.06l-3.06,1.35c-1,.46-2.05.87-3.07,1.3l-5.15,2.16h1.29l4.05-1.71c1-.44,2.06-.85,3.08-1.31l3.05-1.36q12.21-5.45,24.47-10.76c8.18-3.52,16.38-7,24.65-10.32,2.06-.83,4.12-1.68,6.2-2.49l6.23-2.42,3.11-1.21,3.13-1.17,1.42-.53.11,0,4.79-1.8,6.28-2.25c2.1-.74,4.19-1.52,6.3-2.21s4.21-1.44,6.32-2.14,4.21-1.39,6.33-2,4.25-1.35,6.38-2l1.51-.44v-1l-1.77.53C501,542.77,498.89,543.46,496.77,544.13Z"/><path class="cls-7" d="M501.65,539.56l-6.4,1.92C483.47,545,471.84,549,460.3,553.3l.45.13c-1.13.42-2.26.82-3.38,1.25L451.12,557l-6.22,2.43-3.11,1.21-3.1,1.24-6.19,2.5-12.35,5.09q-12.31,5.16-24.57,10.47c-4.07,1.8-8.21,3.44-12.32,5.14l-1.54.63c-.52.2-1.05.38-1.57.57L377,587.44l-3.13,1.13-.41.15H375l2.19-.81,3.13-1.15c.52-.19,1.05-.37,1.57-.58l1.54-.64c4.12-1.71,8.26-3.36,12.32-5.17Q408,575,420.3,569.86q6.15-2.58,12.34-5.08l6.2-2.48,3.11-1.23,3.11-1.21,6.22-2.41,6.26-2.33c1.31-.5,2.64-1,4-1.45l.11,0c8.23-3,16.5-5.88,24.84-8.55l1.49-.48q3.13-1,6.28-1.94l1.26-.38,6.4-1.89c1-.31,2-.57,3-.85v-1h-.05C503.79,538.94,502.71,539.23,501.65,539.56Z"/><path class="cls-7" d="M492,539.26l-1.6.48-3.19,1c-2.13.65-4.27,1.27-6.39,1.95l-6.36,2.05-3.18,1-3.16,1.08L461.81,549c-2.1.72-4.19,1.49-6.29,2.23l-1.19.43.49.12-2.38.86c-1.05.37-2.09.75-3.14,1.14l-6.25,2.34c-2.09.77-4.16,1.57-6.24,2.38l-6.22,2.41-6.2,2.48c-2.06.83-4.14,1.63-6.2,2.48-4.11,1.68-8.24,3.35-12.34,5.07l-6.17,2.57-6.14,2.6c-2.05.87-4.1,1.75-6.15,2.59L384.31,580l-3.11,1.21c-4.14,1.61-8.34,3.07-12.55,4.48-3.36,1.1-6.75,2.11-10.15,3.08h2c2.79-.83,5.57-1.69,8.33-2.6L372,585c1.05-.37,2.11-.72,3.15-1.11,2.09-.78,4.18-1.53,6.25-2.36l3.11-1.22,3.08-1.28c2.06-.85,4.1-1.73,6.15-2.6,16.37-7,32.81-13.79,49.49-20q6.18-2.31,12.38-4.52l.12,0,.1,0c2.09-.74,4.18-1.5,6.28-2.23l6.32-2.14,3.16-1.07,3.17-1,6.35-2c2.12-.67,4.26-1.29,6.39-1.93l2.49-.75,3.87-1.13q5.54-1.57,11.09-3v-.93q-5.67,1.5-11.29,3.11Z"/><path class="cls-7" d="M447.12,550.27l.58.09-.33.11-6.28,2.26c-1,.37-2.09.75-3.13,1.14L434.83,555l-6.26,2.34-6.22,2.41-3.12,1.2-3.11,1.22c-4.13,1.64-8.27,3.27-12.39,5l-6.18,2.52-6.17,2.56c-2.06.85-4.11,1.71-6.17,2.54l-3.09,1.26L379,577.24c-4.15,1.6-8.37,3-12.59,4.41a264.16,264.16,0,0,1-25.76,6.86l-1,.21h2.71c8.16-1.85,16.25-4,24.2-6.63,4.23-1.41,8.44-2.87,12.59-4.48l3.11-1.2,3.1-1.26c2.06-.84,4.11-1.7,6.16-2.56,16.43-6.86,32.94-13.5,49.69-19.52l6.29-2.23,1-.36.16,0c13.77-4.83,27.69-9.25,41.74-13.16l1.67-.47q6.39-1.73,12.84-3.29v-.87q-6.54,1.6-13,3.38C476.79,540.27,461.87,545.05,447.12,550.27Z"/><path class="cls-7" d="M496.53,531.76c-2.16.54-4.33,1-6.48,1.63-17.25,4.51-34.27,9.82-51.1,15.7l-.45.17.64.06-.13,0-6.29,2.26c-2.09.76-4.2,1.49-6.28,2.28l-6.26,2.34-3.13,1.17-3.11,1.2L407.7,561c-2.08.8-4.14,1.64-6.21,2.45l-6.21,2.48-6.19,2.52c-2.06.84-4.12,1.68-6.19,2.5l-3.1,1.24-3.12,1.17c-1.05.38-2.08.79-3.13,1.15l-3.16,1.1-1.57.55-1.59.51-3.17,1a261.22,261.22,0,0,1-25.84,6.68,265.4,265.4,0,0,1-30,4.33h6.69c7.85-.93,15.66-2.17,23.39-3.79a260.6,260.6,0,0,0,25.85-6.81l3.18-1,1.59-.53,1.57-.55,3.16-1.12c1.05-.36,2.08-.78,3.13-1.16l3.13-1.18,3.1-1.24c2.07-.83,4.13-1.68,6.19-2.52,16.47-6.76,33.08-13.22,49.89-19.09l.85-.29h.14c15.2-5.26,30.56-10.06,46.09-14.22l4-1.05c2.15-.59,4.32-1.08,6.48-1.61l6.49-1.56,1.73-.38v-.83l-1.89.42Z"/><path class="cls-7" d="M502.78,527.24l-1.63.36-6.53,1.49c-1.09.25-2.18.48-3.26.75l-3.25.81c-17.32,4.28-34.45,9.37-51.34,15.1-2.67.91-5.32,1.86-8,2.79l.72,0q-21.6,7.59-42.82,16.13c-2.07.83-4.14,1.66-6.22,2.47l-3.11,1.22-3.14,1.15c-1.05.38-2.08.79-3.14,1.14l-3.17,1.08-1.58.53-1.59.51-3.19,1a251,251,0,0,1-25.91,6.5c-2.18.45-4.38.81-6.57,1.2-1.1.21-2.2.35-3.3.53s-2.2.35-3.3.5l-3.31.44-1.66.22-1.66.18-3.32.37-3.33.31c-8.87.8-17.78,1.11-26.68,1-1.12,0-2.23,0-3.34-.06s-2.23,0-3.34-.08c-2.23-.09-4.46-.15-6.68-.29-4.45-.22-8.89-.58-13.32-1q-13.31-1.28-26.5-3.43c-17.6-2.83-35-6.68-52.37-10.76s-34.68-8.34-52.18-11.9q-6.56-1.33-13.15-2.5T98.41,553l-3.32-.43v.92c9.89,1.3,19.73,3,29.51,5,17.46,3.56,34.77,7.87,52.15,11.9s34.81,7.88,52.44,10.69c8.82,1.42,17.67,2.56,26.57,3.37,4.44.39,8.89.74,13.35.94,2.23.13,4.46.19,6.69.27,1.12,0,2.24,0,3.35.07s2.23,0,3.35,0c8.93,0,17.86-.3,26.75-1.14l3.33-.32,3.33-.39,1.66-.19,1.66-.22,3.32-.45c1.1-.16,2.2-.35,3.3-.52s2.21-.33,3.31-.54c2.19-.4,4.39-.76,6.58-1.23a251.22,251.22,0,0,0,25.93-6.61l3.19-1,1.59-.52,1.58-.54,3.16-1.09c1.06-.36,2.1-.77,3.15-1.15l3.14-1.16,3.11-1.22q3.12-1.23,6.21-2.48c14.35-5.78,28.8-11.3,43.4-16.38h.23c2.18-.76,4.36-1.53,6.55-2.28,15.8-5.34,31.81-10.11,48-14.19l3.29-.82,3.24-.8c1.08-.27,2.17-.49,3.26-.74l6.52-1.46,1.63-.37,1.64-.33.36-.07v-.78l-.49.1Z"/><path class="cls-7" d="M482.81,528.63l-1.64.37-1.62.42-6.5,1.65c-1.08.27-2.16.54-3.25.83l-3.23.89-6.46,1.78c-2.15.59-4.29,1.25-6.44,1.88s-4.28,1.25-6.42,1.91l-6.39,2-3.2,1c-1.07.33-2.12.7-3.18,1q-8.3,2.72-16.52,5.64l.79,0q-17.43,6.13-34.59,12.93-3.12,1.23-6.25,2.43c-1,.4-2.07.81-3.12,1.2l-3.15,1.13c-2.09.78-4.22,1.47-6.33,2.18l-1.59.53-1.6.49-3.2,1a247,247,0,0,1-26,6.32c-4.38.84-8.8,1.5-13.22,2.11s-8.86,1-13.31,1.35-8.91.54-13.37.66c-2.23,0-4.46.09-6.69.06l-3.35,0-3.35-.08-1.67,0-1.67-.07-3.34-.15-3.34-.2-1.67-.1-1.67-.13-3.34-.27-3.33-.31c-1.11-.1-2.22-.22-3.33-.35l-3.32-.37q-13.29-1.62-26.44-4.16c-17.54-3.35-34.85-7.79-52.11-12.41s-34.48-9.39-51.93-13.3c-8.73-2-17.51-3.68-26.36-5l-1-.14v.82c9.12,1.35,18.19,3.12,27.18,5.14,17.43,3.91,34.64,8.72,51.91,13.3s34.6,9,52.17,12.35c8.78,1.68,17.62,3.07,26.51,4.11l3.33.36c1.11.13,2.22.24,3.34.34l3.34.3,3.34.26,1.67.12,1.68.1,3.35.19,3.35.14,1.67.06,1.68,0,3.35.08h3.35c2.24,0,4.48-.05,6.71-.08,4.47-.14,8.94-.33,13.4-.71s8.9-.84,13.34-1.4,8.84-1.3,13.23-2.16a247.76,247.76,0,0,0,26-6.42c4.27-1.31,8.52-2.7,12.72-4.23l3.15-1.14c1.05-.39,2.09-.81,3.13-1.21,2.09-.8,4.16-1.62,6.24-2.44,11.63-4.61,23.34-9,35.14-13.16h.17c5-1.75,10-3.47,15.09-5.12,1.07-.35,2.12-.71,3.19-1l3.19-1,6.39-2c2.13-.66,4.28-1.27,6.42-1.9s4.28-1.28,6.43-1.87l6.46-1.77,3.23-.89c1.08-.29,2.16-.55,3.24-.83l6.5-1.64,1.62-.41,1.63-.37,2.05-.48,1.19-.27q9.32-2.14,18.71-3.94v-.74q-9.45,1.85-18.84,4Z"/><path class="cls-7" d="M497.1,522.33l-3.3.63-1.65.32c-.55.1-1.09.23-1.64.35L483.94,525l-3.29.71-3.26.78-6.54,1.56c-1.09.25-2.17.54-3.26.82l-3.25.85c-2.17.57-4.34,1.11-6.5,1.7l-6.47,1.82-3.23.91c-1.08.3-2.14.64-3.22,1-4.28,1.3-8.59,2.54-12.84,3.94q-13,4.13-25.76,8.72h.75q-12.85,4.57-25.56,9.54l-6.27,2.4c-1.05.39-2.09.81-3.15,1.17l-3.16,1.12c-4.22,1.49-8.49,2.84-12.78,4.11A240.88,240.88,0,0,1,330,572.29c-4.4.81-8.83,1.42-13.27,2l-3.33.36c-1.12.11-2.23.25-3.34.33-2.23.19-4.46.39-6.69.51-4.46.3-8.94.4-13.41.46h-5l-1.68,0-3.35-.08-3.35-.15-1.68-.08-1.67-.11-3.35-.21-3.34-.28-1.67-.14-1.67-.17-3.34-.34-3.33-.39-1.66-.2-1.67-.23-3.32-.46q-13.27-1.95-26.38-4.91c-17.47-3.9-34.66-8.92-51.8-14.09s-34.27-10.45-51.69-14.7c-2.17-.55-4.35-1-6.54-1.55s-4.37-1-6.57-1.42-4.39-.87-6.59-1.3l-5.22-.9v.73c1.7.28,3.39.58,5.08.88,2.2.43,4.4.83,6.59,1.3s4.37.94,6.55,1.42,4.36,1,6.53,1.54c17.39,4.25,34.49,9.57,51.65,14.71s34.37,10.15,51.87,14c8.74,2,17.56,3.6,26.43,4.88l3.33.45,1.67.22,1.67.19,3.34.39,3.34.33,1.68.17,1.67.13,3.35.27,3.36.21,1.67.1,1.68.07,3.36.14,3.36.07,1.68,0H290c4.47-.08,9-.19,13.43-.51,2.24-.12,4.47-.33,6.7-.52,1.12-.09,2.23-.23,3.34-.34s2.23-.24,3.34-.38c4.45-.57,8.89-1.2,13.29-2a243.93,243.93,0,0,0,26.14-6.21c4.29-1.29,8.56-2.65,12.78-4.16l3.16-1.12c1.06-.37,2.1-.79,3.15-1.18l6.27-2.41q13-5.07,26.11-9.76h.15q12.12-4.29,24.39-8.2c4.25-1.39,8.55-2.63,12.84-3.93,1.07-.32,2.13-.65,3.21-1l3.23-.91L458,532c2.15-.59,4.33-1.13,6.49-1.69l3.25-.84c1.08-.28,2.16-.58,3.25-.82l6.54-1.55,3.26-.78,3.28-.7.06,0q10.35-2.24,20.78-4.06v-.7l-1.21.21C501.5,521.46,499.3,521.91,497.1,522.33Z"/><path class="cls-7" d="M478.42,522.88l-3.29.73-3.29.73c-1.1.25-2.2.47-3.28.75L462,526.7l-3.27.8c-1.09.27-2.17.57-3.26.86-4.34,1.16-8.69,2.28-13,3.56L436,533.79c-2.15.64-4.29,1.31-6.44,2q-17.91,5.54-35.53,12h.72q-8,2.91-16,6c-4.2,1.59-8.39,3.19-12.65,4.63l-1.58.55-1.61.52-3.2,1c-1.07.35-2.15.66-3.22,1l-3.23,1A237.58,237.58,0,0,1,327,568.32c-1.11.18-2.21.38-3.32.54l-3.33.48-1.67.23-1.67.2-3.34.4c-1.11.12-2.23.21-3.35.32s-2.23.23-3.35.29c-2.24.15-4.47.34-6.72.42-1.11,0-2.23.11-3.36.14l-3.36.08-1.68,0h-5.05l-3.36-.07-1.68,0-1.68-.07-3.36-.15-3.36-.21-1.68-.11-1.67-.14-3.36-.29-3.34-.35-1.67-.18-1.67-.21-3.34-.42-3.33-.48-1.66-.24-1.66-.27-3.32-.55c-4.42-.78-8.83-1.62-13.21-2.58s-8.75-2-13.09-3.1c-17.39-4.45-34.45-10.09-51.47-15.81s-34-11.51-51.43-16.1c-7.39-2-14.85-3.65-22.38-5v.63c7.47,1.38,14.88,3.07,22.22,5,17.36,4.58,34.36,10.4,51.38,16.09s34.11,11.33,51.53,15.76c8.71,2.23,17.5,4.14,26.36,5.66l3.32.54,1.67.26,1.67.24,3.33.48,3.35.41,1.67.2,1.68.18,3.35.34,3.36.28,1.68.14,1.68.11,3.36.2,3.37.14,1.69.07,1.68,0,3.37.06h5.05l1.69,0,3.37-.09,3.36-.15c2.25-.09,4.49-.28,6.73-.43,1.12-.07,2.24-.21,3.36-.31s2.24-.2,3.35-.33l3.35-.4,1.67-.2,1.67-.24,3.33-.49c1.11-.16,2.22-.37,3.33-.55a238.64,238.64,0,0,0,26.26-6l3.23-1c1.08-.32,2.16-.63,3.22-1l3.21-1,1.6-.52,1.59-.55c4.25-1.45,8.45-3.06,12.64-4.65q8.25-3.18,16.56-6.2h.09q17-6.15,34.26-11.49c2.14-.65,4.28-1.33,6.43-2l6.47-1.86c4.31-1.27,8.66-2.38,13-3.54,1.09-.29,2.17-.59,3.26-.86l3.27-.79,6.53-1.6c1.09-.28,2.19-.5,3.29-.75l3.28-.73,3.29-.72,1.27-.29.91-.19,1.11-.23c1.72-.36,3.45-.7,5.18-1q8.92-1.73,17.9-3.13v-.63q-11.66,1.85-23.2,4.24C480.61,522.38,479.51,522.64,478.42,522.88Z"/><path class="cls-7" d="M499.37,515.77l-6.67,1.06c-1.12.16-2.22.39-3.33.59l-3.32.61-3.33.6c-1.11.21-2.22.4-3.32.64-17.68,3.52-35.17,8-52.43,13.15-15.41,4.62-30.63,9.82-45.7,15.44H382l-6.09,2.29-6.33,2.34c-1.06.4-2.12.76-3.19,1.12l-3.19,1.1c-1.07.37-2.14.7-3.22,1l-3.22,1c-2.15.66-4.32,1.26-6.48,1.9a237.89,237.89,0,0,1-26.38,5.72c-1.11.17-2.22.37-3.34.51l-3.35.45-1.67.21-1.68.18-3.35.36c-1.13.11-2.25.19-3.37.28s-2.24.2-3.37.25c-2.24.12-4.49.28-6.74.32-1.12,0-2.25.08-3.37.1l-3.38,0h-1.69l-1.68,0-3.38-.06-3.37-.14-1.69-.07-1.68-.1-3.37-.21-3.36-.29-1.69-.15-1.67-.17-3.36-.37-3.35-.43-1.67-.21-1.67-.26-3.34-.5-3.33-.56c-1.11-.19-2.21-.39-3.32-.61s-2.21-.41-3.31-.63c-4.41-.9-8.8-1.88-13.18-3s-8.71-2.25-13-3.52c-17.3-5-34.21-11.26-51.09-17.55s-33.8-12.56-51.16-17.47q-6.51-1.83-13.09-3.39-3.31-.76-6.66-1.44v.53q3.28.67,6.54,1.42,6.57,1.56,13.07,3.39c17.33,4.9,34.22,11.21,51.11,17.47s33.82,12.5,51.14,17.51c4.33,1.27,8.69,2.41,13.06,3.51s8.78,2.06,13.2,3c1.1.22,2.21.42,3.32.63s2.22.42,3.33.6l3.33.56,3.35.5,1.67.24,1.68.22,3.35.42,3.36.36,1.69.17,1.68.14,3.37.28,3.38.21,1.68.1,1.69.07,3.38.13,3.38,0,1.69,0h1.69l3.38,0c1.13,0,2.26-.07,3.38-.11,2.26,0,4.51-.21,6.75-.33,1.13-.05,2.25-.18,3.38-.26s2.24-.18,3.36-.29l3.37-.37,1.68-.18,1.67-.22,3.35-.45c1.12-.15,2.23-.35,3.34-.52a238.59,238.59,0,0,0,26.41-5.77c2.16-.64,4.33-1.24,6.48-1.9l3.22-1c1.08-.34,2.15-.67,3.22-1l3.19-1.1c1.07-.37,2.13-.73,3.19-1.13l6.33-2.35q3.29-1.26,6.59-2.49h.06c14.68-5.44,29.52-10.47,44.53-15,17.25-5.16,34.73-9.59,52.39-13.09,1.1-.24,2.21-.43,3.32-.63l3.32-.61,3.32-.6,1.28-.24,1.35-.23.7-.12.22,0,6.43-1,3.34-.53,2.13-.28h0v-.56c-.73.1-1.47.19-2.2.3Z"/><path class="cls-7" d="M497.09,513l-3.36.48c-1.12.16-2.24.32-3.35.51l-6.69,1.13-3.35.56-3.33.64c-17.78,3.34-35.38,7.65-52.74,12.72s-34.51,10.9-51.44,17.29c-1.6.6-3.22,1.19-4.84,1.76h.69c-7.11,2.56-14.3,4.88-21.6,6.83a237.43,237.43,0,0,1-26.53,5.51c-4.47.68-9,1.15-13.47,1.56-1.12.09-2.25.16-3.38.24s-2.25.17-3.38.2c-2.26.09-4.51.21-6.77.23-4.52.11-9,0-13.55-.19l-3.39-.2-1.69-.1-1.69-.14-3.37-.28-3.37-.36a264,264,0,0,1-52.81-11.87c-17.2-5.6-33.94-12.47-50.68-19.3s-33.54-13.63-50.88-18.84c-4.33-1.32-8.7-2.49-13.1-3.57-1.3-.33-2.61-.63-3.93-.92v.42c1.28.29,2.56.58,3.84.9,4.38,1.07,8.75,2.25,13.07,3.56,17.32,5.2,34.11,12,50.85,18.81s33.5,13.7,50.71,19.3c4.3,1.41,8.64,2.7,13,4s8.74,2.34,13.15,3.34,8.85,1.92,13.31,2.66l1.67.29,1.68.25,3.36.51,3.36.44,1.68.21,1.69.18,3.38.36,3.38.27,1.69.14,1.69.1,3.39.19c4.52.17,9,.28,13.57.16,2.26,0,4.52-.14,6.78-.24,1.13,0,2.26-.13,3.39-.21s2.26-.15,3.38-.24c4.51-.42,9-.9,13.48-1.59a235.19,235.19,0,0,0,26.55-5.54c7.47-2,14.82-4.4,22.08-7h0c1.25-.45,2.5-.89,3.74-1.36,16.92-6.37,34.06-12.18,51.42-17.23s34.94-9.35,52.71-12.67l3.33-.64,3.34-.56,6.69-1.12c1.11-.19,2.23-.35,3.35-.5l3.35-.48c2.24-.31,4.47-.65,6.72-.93l1-.12h0V512l-1.1.13C501.57,512.38,499.33,512.72,497.09,513Z"/><path class="cls-7" d="M474.54,513.38a532.88,532.88,0,0,0-53.07,12.33c-17.48,5-34.71,10.79-51.73,17.12q-8.52,3.17-17.25,5.76l.83,0a234.81,234.81,0,0,1-36.2,8c-2.25.34-4.51.56-6.76.81-1.13.14-2.26.22-3.39.32l-3.39.28c-4.53.27-9.07.5-13.61.47s-9.07-.15-13.6-.42c-2.26-.18-4.53-.31-6.78-.57-1.13-.12-2.26-.22-3.39-.36l-3.37-.43c-1.13-.13-2.25-.31-3.37-.48s-2.25-.33-3.37-.53c-2.23-.39-4.47-.76-6.69-1.23-4.45-.87-8.87-1.91-13.27-3l-3.28-.87-3.28-.93-1.63-.47-1.63-.5c-1.09-.33-2.18-.65-3.26-1q-6.48-2.05-12.89-4.37c-17.07-6.2-33.63-13.7-50.21-21.1S126.68,507.44,109.34,502c-4.33-1.37-8.7-2.65-13.11-3.75l-1.14-.27v.32l1.07.26c4.4,1.1,8.76,2.37,13.08,3.74,17.32,5.48,34,12.75,50.58,20.13s33.15,14.9,50.24,21.09c4.27,1.54,8.57,3,12.91,4.38,1.08.35,2.17.67,3.25,1l1.63.5,1.64.46,3.28.93,3.29.87c4.4,1.13,8.83,2.18,13.29,3,2.22.46,4.47.83,6.7,1.23,1.12.19,2.25.34,3.37.52s2.24.34,3.37.47l3.38.43c1.13.14,2.26.24,3.39.35,2.26.26,4.53.39,6.79.57,4.54.26,9.08.45,13.62.41s9.09-.22,13.62-.49l3.4-.29c1.13-.1,2.26-.18,3.39-.32,2.25-.26,4.51-.48,6.76-.82a241.17,241.17,0,0,0,42.91-10.13l2.47-.81,1.67-.58q2.85-1,5.68-2c17-6.32,34.24-12.12,51.71-17.07a532.13,532.13,0,0,1,53-12.29q15.06-2.65,30.29-4.34h0V509Q489.66,510.68,474.54,513.38Z"/><path class="cls-7" d="M502.88,572.48l-3.5,1.75q-12.13,6.12-24.08,12.55l-3.62,1.94h1.8l2.22-1.17c8-4.17,16.09-8.28,24.2-12.26l5-2.43v-1.52l-2.15,1.06Z"/><path class="cls-7" d="M496.92,569l.16.09c-13.21,6.26-26.23,12.88-39.22,19.59h1.55q8.23-4.19,16.51-8.3,12.15-6,24.44-11.61l4.55-2v-1.42l-5,2.3Z"/><path class="cls-7" d="M490.48,565.59l.18.09q-7.41,3.35-14.76,6.84-6.12,2.9-12.18,5.87t-12.11,6q-4.33,2.16-8.65,4.34h1.36c2.52-1.26,5-2.53,7.57-3.78,16.14-8,32.43-15.68,49.05-22.62l4-1.64v-1.32l-4.4,1.85C497.15,562.64,493.82,564.11,490.48,565.59Z"/><path class="cls-7" d="M131,584.65c-8.82-1.22-17.65-2.36-26.51-3.29-3.13-.33-6.26-.62-9.39-.89v1.17c11.94,1.05,23.85,2.53,35.74,4.19,6.62.92,13.24,1.9,19.86,2.89H159l-1.55-.23C148.61,587.18,139.81,585.87,131,584.65Z"/><path class="cls-7" d="M155.39,580.17c-8.77-1.55-17.54-3.08-26.33-4.49S111.45,573,102.6,572q-3.75-.44-7.51-.81v1.07c11.31,1.14,22.57,2.75,33.8,4.56,17.56,2.82,35.05,6.14,52.61,9.11q8.7,1.47,17.44,2.84H206c-8.12-1.21-16.23-2.54-24.33-3.93C172.92,583.28,164.16,581.71,155.39,580.17Z"/><path class="cls-7" d="M179.4,577.16l-26.18-5.37c-8.72-1.79-17.46-3.53-26.23-5.13-4.39-.79-8.78-1.55-13.18-2.25s-8.81-1.35-13.23-1.92c-1.83-.24-3.66-.45-5.49-.66v1c10.62,1.24,21.19,2.93,31.72,4.85,17.51,3.19,34.91,7,52.38,10.5s35,6.77,52.69,9.07q6.3.82,12.64,1.47H254.6q-11.32-.9-22.6-2.4C214.35,584,196.84,580.7,179.4,577.16Z"/><path class="cls-7" d="M496.9,588.72h2.47l5.54-3.08v-1.48c-2.05,1.16-4.11,2.31-6.15,3.48Z"/><path class="cls-7" d="M484.69,588.72h2.22q6.31-3.4,12.67-6.74c1.77-.93,3.55-1.86,5.33-2.77V577.7q-3,1.57-5.92,3.17C494.21,583.45,489.44,586.08,484.69,588.72Z"/></svg>