<svg id="Layer_1" data-name="Layer 1" xmlns="http://www.w3.org/2000/svg" viewBox="0 0 600 600"><defs><style>.cls-1{fill:#011e41;}.cls-2{fill:#75cae8;}</style></defs><title>Graphic_Language_Use_Photography_Landscape_No_Image</title><rect class="cls-1" x="10" y="158.66" width="580" height="282.68"/><path class="cls-2" d="M576.66,396.57l-4.43,1.78-4.4,1.85-8.31,3.5.12.05.31.15-.84.36-8.74,3.86c-5.84,2.55-11.6,5.25-17.39,7.89-2.89,1.33-5.76,2.7-8.64,4.05s-5.77,2.71-8.63,4.1c-11.8,5.63-23.53,11.4-35.25,17.18h1.69c5.56-2.74,11.12-5.49,16.71-8.19l8.58-4.16,8.61-4.11q22.41-10.67,45.28-20.33h0l7-2.95,1.88-.79q7.76-3.17,15.54-6.18l2.22-.84,1.94-.73h0v-1.75L585.53,393Z"/><path class="cls-2" d="M566.23,396.22c-2.94,1.18-5.9,2.34-8.84,3.55L554,401.2l.46.21-5.72,2.41-4.38,1.86L540,407.59l-8.73,3.81-8.67,3.91-4.34,2-4.33,2c-15.71,7.22-31.31,14.65-46.91,22.09h1.73l11-5.28c5.73-2.73,11.45-5.47,17.21-8.14l8.62-4,8.65-4q20.56-9.42,41.51-18l.07,0,2.15-.9c2.94-1.2,5.89-2.35,8.84-3.53,1.69-.69,3.4-1.33,5.1-2,4.19-1.61,8.39-3.21,12.6-4.76,1.83-.7,3.67-1.35,5.52-2v-1.67c-2,.71-4,1.42-6,2.2C578.06,391.61,572.11,393.81,566.23,396.22Z"/><path class="cls-2" d="M548,398.69l.51.2-1.6.65c-2.94,1.16-5.85,2.41-8.78,3.61s-5.85,2.42-8.76,3.67c-5.81,2.52-11.63,5-17.41,7.57-19.83,8.73-39.49,17.84-59.14,26.95h1.77l23-10.72c5.75-2.64,11.49-5.3,17.27-7.88l8.66-3.89,8.68-3.82,4.35-1.9,4.36-1.87,8.73-3.71c2.91-1.23,5.85-2.41,8.77-3.62s5.84-2.43,8.8-3.56l2.48-1,.11.05q13-5.18,26.16-10l6.78-2.4c2.41-.85,4.83-1.67,7.25-2.5V383c-2.57.89-5.13,1.78-7.69,2.7Q565,391.82,548,398.69Z"/><path class="cls-2" d="M571.5,385l-8.92,3.21-4.46,1.61-4.44,1.67-8.86,3.36c-1.11.42-2.21.86-3.31,1.3l.55.2-6,2.36c-2.93,1.18-5.88,2.31-8.79,3.53-5.84,2.41-11.69,4.8-17.49,7.29-23.27,9.84-46.3,20.24-69.31,30.65-.84.39-1.69.76-2.54,1.14h1.77l1.07-.48Q458,433,475.31,425.24c5.78-2.56,11.54-5.14,17.34-7.63l8.69-3.76c2.9-1.25,5.82-2.46,8.73-3.69,5.8-2.48,11.66-4.83,17.51-7.21,2.92-1.21,5.87-2.33,8.8-3.48l6.82-2.66.13.05,2-.77,8.86-3.33,4.43-1.67L563,389.5l8.16-2.92.7-.25c3-1,6-2,9-3s6.08-2,9.13-3v-1.53c-3.19,1-6.37,2.05-9.53,3.16C577.48,383,574.48,384,571.5,385Z"/><path class="cls-2" d="M578.48,378.24c-6,1.88-12,4-18,6-3,1-5.95,2.1-8.93,3.15l-8.9,3.22c-2.73,1-5.46,2-8.18,3.08l.59.2c-9.24,3.52-18.44,7.11-27.58,10.87-23.37,9.5-46.48,19.6-69.55,29.8l-4.33,1.91c-1.43.65-2.9,1.23-4.35,1.85l-7.28,3h1.83l5.73-2.41c1.45-.62,2.92-1.2,4.35-1.85l4.32-1.93q17.28-7.71,34.63-15.23c11.58-5,23.19-9.9,34.89-14.61,2.92-1.18,5.84-2.37,8.77-3.52l8.82-3.43,4.4-1.7,4.43-1.66,2-.75.15.05,6.77-2.54,8.9-3.19c3-1.05,5.93-2.15,8.92-3.13l8.94-3c3-1,6-2,9-2.87s6-1.91,9-2.83l2.14-.62v-1.46l-2.5.75C584.48,376.31,581.49,377.29,578.48,378.24Z"/><path class="cls-2" d="M585.38,371.77l-9,2.72c-16.66,5-33.13,10.7-49.46,16.72l.63.2c-1.59.58-3.19,1.15-4.78,1.76l-8.84,3.33-8.81,3.43-4.4,1.72-4.39,1.76-8.76,3.53L470,414.14q-17.43,7.31-34.77,14.82c-5.77,2.55-11.61,4.87-17.43,7.27l-2.19.9c-.73.29-1.47.54-2.21.81l-4.45,1.6-4.43,1.6-.58.2h2.16l3.1-1.13,4.44-1.63c.74-.28,1.48-.53,2.21-.83l2.19-.9c5.82-2.42,11.68-4.75,17.44-7.32q17.31-7.56,34.73-14.88,8.72-3.64,17.48-7.19L496.5,404l4.39-1.74,4.4-1.71,8.81-3.4,8.86-3.3c1.86-.71,3.74-1.38,5.61-2.06l.16,0c11.64-4.25,23.35-8.32,35.14-12.1L566,379q4.44-1.41,8.88-2.76l1.79-.53,9.05-2.68c1.42-.43,2.86-.81,4.29-1.2v-1.39l-.07,0C588.42,370.9,586.89,371.3,585.38,371.77Z"/><path class="cls-2" d="M571.75,371.35l-2.27.68L565,373.4c-3,.92-6,1.8-9,2.76l-9,2.9-4.5,1.45L538,382l-9,3.05c-3,1-5.93,2.11-8.9,3.17l-1.69.6.7.17-3.38,1.21q-2.22.79-4.44,1.63l-8.84,3.3c-3,1.09-5.9,2.23-8.83,3.37L484.82,402l-8.77,3.5c-2.93,1.18-5.86,2.31-8.77,3.52-5.83,2.38-11.67,4.73-17.48,7.17l-8.72,3.64-8.7,3.68c-2.9,1.23-5.79,2.47-8.7,3.66l-4.36,1.81-4.4,1.71c-5.86,2.29-11.8,4.35-17.77,6.35-4.75,1.56-9.54,3-14.35,4.35h2.79c3.94-1.17,7.88-2.38,11.78-3.68l4.47-1.54c1.49-.52,3-1,4.46-1.57,2.95-1.1,5.92-2.16,8.84-3.34l4.4-1.72,4.37-1.82c2.91-1.2,5.8-2.45,8.7-3.68,23.17-9.87,46.44-19.52,70-28.3q8.75-3.26,17.53-6.39l.16,0,.14,0c3-1,5.92-2.13,8.9-3.15l8.94-3,4.47-1.51,4.49-1.45,9-2.88c3-.95,6-1.83,9-2.74l3.53-1.06c1.82-.54,3.65-1.08,5.48-1.6q7.82-2.22,15.69-4.26v-1.32q-8,2.13-16,4.41Z"/><path class="cls-2" d="M508.21,386.92l.83.13-.47.17-8.89,3.18c-1.48.53-3,1.08-4.44,1.63l-4.43,1.65L482,397l-8.82,3.41-4.41,1.7-4.39,1.73c-5.86,2.32-11.72,4.63-17.55,7l-8.75,3.56L429.33,418c-2.91,1.21-5.82,2.43-8.73,3.6l-4.38,1.78-4.41,1.69c-5.87,2.26-11.83,4.29-17.81,6.25-12,3.85-24.16,7.06-36.46,9.71l-1.43.28H360c11.55-2.61,23-5.7,34.25-9.38,6-2,11.94-4,17.82-6.34l4.41-1.69,4.37-1.79c2.93-1.19,5.82-2.41,8.73-3.62,23.24-9.7,46.62-19.11,70.33-27.63l8.89-3.16,1.42-.5.22,0c19.5-6.82,39.19-13.09,59.08-18.62l2.35-.66q9.06-2.43,18.18-4.65v-1.24q-9.25,2.28-18.44,4.79C550.2,372.77,529.09,379.54,508.21,386.92Z"/><path class="cls-2" d="M578.15,360.74c-3.07.75-6.14,1.46-9.18,2.3-24.41,6.38-48.51,13.9-72.31,22.22l-.65.23.91.09-.19.07-8.9,3.19c-3,1.07-5.94,2.1-8.88,3.23l-8.86,3.31L465.66,397l-4.41,1.69-8.82,3.4c-2.94,1.13-5.87,2.32-8.8,3.47l-8.78,3.5-8.76,3.57c-2.92,1.19-5.83,2.38-8.76,3.54L412.94,418l-4.42,1.66c-1.48.55-2.94,1.13-4.43,1.63l-4.46,1.55-2.23.78-2.25.73-4.49,1.45a365.92,365.92,0,0,1-36.56,9.46,372.27,372.27,0,0,1-42.42,6.12h9.46c11.11-1.3,22.17-3.06,33.11-5.36a368.67,368.67,0,0,0,36.59-9.64l4.49-1.47,2.25-.74,2.23-.79,4.46-1.57c1.49-.52,3-1.11,4.43-1.65l4.43-1.67,4.39-1.76c2.93-1.17,5.84-2.37,8.76-3.56,23.32-9.57,46.82-18.72,70.62-27l1.2-.41.2,0c21.51-7.46,43.25-14.25,65.23-20.13l5.67-1.49c3-.83,6.11-1.53,9.17-2.28l9.19-2.21,2.44-.53V357.9l-2.67.59Z"/><path class="cls-2" d="M587,354.33l-2.3.52-9.25,2.1c-1.53.36-3.08.68-4.61,1.07l-4.59,1.14c-24.52,6.06-48.76,13.26-72.66,21.38-3.78,1.28-7.53,2.62-11.3,3.94l1,.06q-30.57,10.72-60.61,22.83c-2.93,1.18-5.85,2.35-8.79,3.5l-4.4,1.72L405,414.22c-1.48.54-3,1.11-4.44,1.61l-4.48,1.52-2.24.76-2.25.72-4.51,1.42a356.36,356.36,0,0,1-36.68,9.21c-3.08.64-6.2,1.15-9.3,1.7-1.55.29-3.11.5-4.67.75s-3.11.49-4.67.7l-4.69.62-2.34.31-2.35.26-4.7.53-4.71.43c-12.55,1.14-25.17,1.57-37.77,1.47-1.58,0-3.15,0-4.73-.07s-3.15-.06-4.72-.12c-3.15-.13-6.3-.22-9.45-.41-6.29-.31-12.58-.83-18.85-1.39q-18.83-1.8-37.51-4.85c-24.9-4-49.55-9.46-74.11-15.23S76.78,402.36,52,397.32q-9.29-1.89-18.61-3.54t-18.72-3c-1.56-.22-3.13-.41-4.69-.61v1.29c14,1.85,27.92,4.31,41.76,7.13,24.72,5,49.21,11.13,73.81,16.84s49.27,11.15,74.22,15.13c12.47,2,25,3.62,37.59,4.77,6.3.55,12.6,1,18.91,1.33,3.15.18,6.31.26,9.47.38,1.58.05,3.16.06,4.73.09s3.16.07,4.74.06c12.64.05,25.28-.42,37.86-1.61l4.71-.46,4.71-.54,2.36-.27,2.34-.32,4.7-.64c1.56-.22,3.12-.48,4.68-.72s3.12-.47,4.68-.77c3.1-.57,6.22-1.08,9.31-1.74a356.76,356.76,0,0,0,36.7-9.36l4.51-1.45,2.25-.72,2.24-.77,4.48-1.55c1.5-.5,3-1.08,4.45-1.62l4.44-1.64,4.41-1.73c2.94-1.16,5.86-2.33,8.79-3.51,20.3-8.19,40.75-16,61.42-23.19l.33,0c3.08-1.07,6.16-2.17,9.26-3.22q33.55-11.36,67.92-20.09l4.65-1.16L571,359c1.52-.38,3.07-.7,4.61-1l9.23-2.07,2.31-.51,2.32-.47.5-.1v-1.11l-.7.14Z"/><path class="cls-2" d="M558.72,356.3l-2.31.53-2.3.58-9.19,2.34c-1.54.39-3.07.77-4.6,1.18l-4.57,1.26-9.15,2.51c-3.05.85-6.07,1.78-9.11,2.66s-6.07,1.77-9.09,2.71l-9,2.85-4.53,1.42c-1.5.48-3,1-4.5,1.49q-11.73,3.85-23.37,8l1.11,0q-24.66,8.67-49,18.29-4.41,1.74-8.83,3.44c-1.48.57-2.94,1.15-4.42,1.7l-4.46,1.61c-3,1.1-6,2.07-9,3.07l-2.25.75-2.27.7-4.52,1.4a348,348,0,0,1-36.81,8.94c-6.21,1.2-12.46,2.12-18.71,3s-12.55,1.48-18.85,1.92-12.6.76-18.91.93c-3.16,0-6.32.13-9.48.08l-4.73,0-4.74-.12-2.36-.06-2.37-.1-4.73-.21-4.73-.28-2.36-.15-2.36-.19-4.72-.37-4.72-.45c-1.57-.14-3.14-.31-4.71-.48l-4.71-.53q-18.79-2.28-37.42-5.88c-24.82-4.75-49.32-11-73.74-17.57S73.42,390,48.73,384.42c-12.35-2.76-24.78-5.2-37.3-7.09l-1.43-.2v1.16c12.91,1.92,25.74,4.42,38.47,7.28,24.66,5.53,49,12.34,73.46,18.83s49,12.75,73.84,17.47q18.64,3.57,37.51,5.82l4.72.51c1.57.18,3.14.34,4.72.48l4.73.43,4.73.36,2.37.18,2.36.13,4.74.28,4.75.19,2.37.09,2.37.06,4.75.1h4.74c3.17,0,6.33-.06,9.49-.1,6.33-.2,12.65-.48,19-1s12.6-1.19,18.88-2,12.52-1.84,18.73-3.06a348,348,0,0,0,36.84-9.08c6.05-1.86,12.06-3.83,18-6l4.46-1.62c1.48-.55,2.95-1.14,4.43-1.7q4.43-1.71,8.83-3.46,24.69-9.79,49.73-18.63h.24q10.65-3.74,21.36-7.25c1.51-.49,3-1,4.51-1.48l4.52-1.42,9.05-2.83c3-.93,6.05-1.79,9.08-2.7s6.06-1.8,9.11-2.64l9.13-2.51,4.58-1.25c1.52-.41,3.06-.78,4.58-1.17l9.2-2.32,2.29-.58,2.31-.54,2.9-.66,1.68-.39q13.18-3,26.48-5.58v-1q-13.38,2.6-26.66,5.69Z"/><path class="cls-2" d="M579,347.38l-4.67.9-2.34.45c-.77.15-1.55.33-2.32.49l-9.3,2-4.65,1-4.62,1.1-9.25,2.21c-1.55.35-3.08.77-4.61,1.16l-4.6,1.2c-3.07.81-6.15,1.57-9.2,2.41l-9.15,2.58-4.58,1.28c-1.53.43-3,.91-4.56,1.36-6.06,1.84-12.16,3.6-18.18,5.58q-18.33,5.83-36.45,12.34l1.07,0q-18.19,6.46-36.18,13.49l-8.88,3.4c-1.48.55-3,1.15-4.45,1.66l-4.47,1.59c-6,2.11-12,4-18.09,5.81a341.91,341.91,0,0,1-37,8.67c-6.22,1.15-12.5,2-18.78,2.8-1.57.19-3.15.34-4.72.52s-3.14.35-4.72.47c-3.16.26-6.31.55-9.47.71-6.32.43-12.65.57-19,.66l-4.74,0h-2.38l-2.37-.06L271.6,423l-4.75-.21-2.37-.11-2.37-.15-4.73-.3-4.74-.39-2.36-.2-2.36-.24-4.73-.48-4.71-.56-2.36-.29-2.35-.32-4.7-.65q-18.78-2.77-37.33-6.94c-24.73-5.52-49.06-12.63-73.32-19.95s-48.5-14.78-73.15-20.81c-3.08-.77-6.17-1.47-9.26-2.19s-6.19-1.38-9.3-2-6.22-1.24-9.33-1.84c-2.46-.43-4.92-.87-7.38-1.27v1c2.4.39,4.8.82,7.19,1.24,3.11.6,6.22,1.18,9.32,1.84s6.19,1.33,9.28,2S42,371.67,45,372.44c24.6,6,48.81,13.54,73.09,20.81s48.64,14.37,73.41,19.86q18.57,4.15,37.41,6.9l4.72.64L236,421l2.36.28,4.72.55,4.74.47,2.36.23,2.37.19,4.75.38,4.75.3,2.37.14,2.38.1,4.75.2,4.76.1,2.38.05h7.13c6.34-.1,12.68-.26,19-.71,3.17-.17,6.33-.48,9.49-.74,1.58-.12,3.15-.32,4.73-.49s3.15-.33,4.72-.53c6.29-.81,12.58-1.69,18.81-2.86a342.2,342.2,0,0,0,37-8.79c6.07-1.82,12.12-3.75,18.09-5.88l4.48-1.59c1.5-.52,3-1.12,4.45-1.67l8.87-3.41q18.38-7.19,37-13.81h.21q17.16-6.09,34.52-11.61c6-2,12.1-3.73,18.17-5.56,1.51-.45,3-.93,4.55-1.35l4.57-1.28,9.15-2.56c3-.84,6.13-1.6,9.19-2.4l4.6-1.19c1.53-.4,3.06-.81,4.6-1.16l9.25-2.19,4.62-1.1,4.64-1,.09,0q14.64-3.18,29.4-5.75v-1l-1.71.29C585.17,346.16,582.07,346.79,579,347.38Z"/><path class="cls-2" d="M552.51,348.16l-4.66,1-4.65,1c-1.55.36-3.11.67-4.65,1.07l-9.26,2.27-4.63,1.13c-1.54.38-3.08.81-4.61,1.22-6.14,1.65-12.3,3.23-18.39,5l-9.17,2.64c-3,.91-6.07,1.86-9.11,2.79-16.91,5.22-33.66,10.92-50.29,17h1q-11.39,4.13-22.68,8.46c-5.95,2.24-11.88,4.51-17.9,6.54l-2.25.79-2.27.72-4.53,1.46c-1.51.5-3,.94-4.56,1.39l-4.56,1.35a337.33,337.33,0,0,1-37.14,8.4c-1.57.26-3.13.55-4.7.77l-4.72.68-2.36.33-2.36.28-4.73.56c-1.57.17-3.16.3-4.74.46s-3.15.32-4.74.41c-3.17.21-6.33.47-9.51.59-1.58.07-3.16.15-4.75.2l-4.76.11-2.38.05h-7.14l-4.76-.1-2.38-.06-2.38-.1-4.76-.21-4.75-.3-2.37-.16-2.38-.2-4.74-.41-4.73-.49-2.37-.26-2.36-.29-4.73-.59-4.71-.69-2.35-.34-2.35-.38-4.7-.77c-6.25-1.11-12.49-2.3-18.69-3.65s-12.39-2.81-18.53-4.4c-24.62-6.3-48.76-14.27-72.84-22.37s-48.18-16.29-72.79-22.78c-10.46-2.76-21-5.17-31.67-7.13v.89c10.57,2,21.05,4.35,31.45,7.1C66,365.71,90.07,373.94,114.17,382s48.27,16,72.92,22.31c12.32,3.15,24.76,5.85,37.3,8l4.71.76,2.35.37,2.37.34,4.72.67,4.73.59,2.37.28,2.37.25,4.75.49,4.75.4c.79.06,1.58.14,2.38.19l2.38.15,4.76.29,4.76.2,2.39.1,2.38.05,4.77.09h7.16l2.38-.05,4.77-.13c1.59-.05,3.17-.14,4.76-.22,3.18-.12,6.35-.39,9.52-.61,1.59-.09,3.17-.28,4.75-.42s3.17-.29,4.75-.47l4.73-.57,2.37-.29,2.36-.34,4.72-.69c1.57-.23,3.14-.52,4.71-.78a335.89,335.89,0,0,0,37.17-8.48l4.57-1.36c1.52-.45,3.05-.89,4.56-1.4l4.53-1.46,2.27-.74,2.25-.78c6-2.05,12-4.33,17.9-6.59q11.67-4.5,23.42-8.77h.14c16-5.79,32.19-11.25,48.48-16.26,3-.93,6.07-1.88,9.11-2.78l9.15-2.63c6.1-1.81,12.25-3.38,18.39-5,1.53-.4,3.06-.83,4.6-1.21l4.63-1.13,9.25-2.26c1.54-.39,3.1-.71,4.65-1.06l4.65-1,4.65-1,1.8-.4,1.29-.27,1.56-.33c2.45-.5,4.89-1,7.34-1.47Q577.3,344,590,342.05v-.89q-16.49,2.61-32.83,6C555.61,347.45,554.06,347.82,552.51,348.16Z"/><path class="cls-2" d="M582.17,338.1l-9.45,1.5c-1.58.23-3.14.55-4.71.83l-4.71.86-4.7.87c-1.57.29-3.14.56-4.7.9-25,5-49.77,11.28-74.21,18.61-21.8,6.53-43.35,13.89-64.67,21.85h1q-4.32,1.59-8.62,3.23l-9,3.32c-1.49.56-3,1.07-4.51,1.59l-4.52,1.54c-1.5.53-3,1-4.55,1.48l-4.56,1.44c-3,.93-6.11,1.78-9.17,2.68a337.35,337.35,0,0,1-37.34,8.1c-1.57.24-3.14.52-4.72.72l-4.74.63-2.37.31-2.37.25-4.75.51c-1.59.15-3.18.26-4.76.39s-3.18.29-4.77.36c-3.18.17-6.36.39-9.54.45-1.59.05-3.19.11-4.78.14l-4.78,0h-2.38l-2.39,0-4.78-.08-4.77-.2-2.39-.09-2.38-.15-4.77-.3-4.76-.41-2.38-.2L252.8,409l-4.76-.51-4.73-.61-2.37-.31-2.36-.35-4.73-.71-4.71-.8c-1.57-.26-3.13-.55-4.7-.86s-3.13-.58-4.69-.9q-9.36-1.91-18.64-4.19c-6.18-1.56-12.34-3.18-18.45-5-24.48-7.1-48.42-15.94-72.31-24.83S62.52,352.12,38,345.17q-9.21-2.58-18.53-4.78-4.7-1.09-9.42-2.05v.76c3.09.63,6.18,1.3,9.25,2q9.3,2.19,18.5,4.79c24.53,6.93,48.43,15.87,72.34,24.72s47.86,17.7,72.38,24.78c6.12,1.8,12.29,3.42,18.48,5s12.42,2.91,18.68,4.17c1.56.32,3.13.59,4.7.89s3.13.59,4.71.85l4.72.79,4.73.7,2.37.35,2.37.31,4.75.6,4.76.5,2.38.25,2.38.2,4.77.39,4.78.3,2.38.14,2.4.09,4.78.19,4.78.07,2.39,0h2.4l4.78-.05c1.6,0,3.19-.1,4.78-.15,3.19-.07,6.38-.3,9.56-.47,1.6-.08,3.18-.25,4.77-.37s3.18-.25,4.77-.41l4.76-.51L322,409l2.38-.32,4.74-.63c1.58-.21,3.15-.49,4.72-.74a335.82,335.82,0,0,0,37.37-8.16c3.06-.91,6.13-1.76,9.18-2.7l4.56-1.45c1.52-.48,3-.94,4.55-1.48l4.52-1.55c1.51-.52,3-1,4.51-1.6l9-3.33q4.65-1.78,9.32-3.51h.08c20.78-7.71,41.78-14.83,63-21.18C504.31,355,529,348.75,554,343.79c1.56-.34,3.13-.6,4.7-.89l4.7-.86,4.7-.86,1.8-.33,1.92-.33,1-.16.31-.05,9.11-1.43,4.72-.75,3-.4h0v-.79c-1,.13-2.07.27-3.1.42Z"/><path class="cls-2" d="M578.94,334.23l-4.76.67c-1.58.23-3.17.45-4.74.73L560,337.22l-4.74.79-4.72.91c-25.16,4.73-50.07,10.83-74.64,18S427,372.36,403.08,381.39c-2.28.86-4.56,1.68-6.85,2.5l1,0c-10.06,3.62-20.24,6.9-30.57,9.67a333.1,333.1,0,0,1-37.55,7.79c-6.32,1-12.69,1.63-19.06,2.21-1.59.13-3.19.22-4.78.34s-3.19.24-4.79.29c-3.19.13-6.38.3-9.58.32-6.4.16-12.79,0-19.18-.26L266.9,404l-2.39-.14-2.39-.2-4.78-.4-4.77-.51c-25.44-2.81-50.43-8.86-74.74-16.81s-48-17.65-71.72-27.32-47.47-19.28-72-26.65c-6.13-1.87-12.31-3.53-18.53-5.06q-2.77-.69-5.57-1.3v.59c1.81.41,3.62.83,5.43,1.28,6.21,1.52,12.39,3.18,18.5,5,24.51,7.36,48.27,17,72,26.62s47.4,19.39,71.77,27.31c6.08,2,12.22,3.83,18.38,5.59s12.36,3.32,18.61,4.74,12.52,2.71,18.84,3.75l2.36.41c.79.14,1.59.25,2.38.37L243,402l4.76.61,2.38.31,2.39.25,4.78.5,4.78.39,2.4.2,2.39.14,4.8.27c6.4.24,12.8.4,19.2.23,3.21,0,6.4-.2,9.6-.34,1.6-.05,3.2-.19,4.79-.3s3.2-.21,4.8-.34c6.37-.59,12.74-1.27,19.07-2.25a334.71,334.71,0,0,0,37.58-7.84c10.56-2.84,21-6.23,31.24-10h0c1.76-.64,3.54-1.27,5.29-1.93,24-9,48.2-17.24,72.77-24.39s49.45-13.23,74.6-17.93l4.71-.91,4.74-.78,9.46-1.58c1.57-.28,3.15-.5,4.74-.72l4.75-.68c3.17-.43,6.33-.92,9.5-1.31l1.46-.17h0v-.72l-1.55.18C585.27,333.3,582.11,333.79,578.94,334.23Z"/><path class="cls-2" d="M547,334.71a757.79,757.79,0,0,0-75.11,17.46c-24.73,7-49.12,15.27-73.21,24.23q-12.06,4.49-24.41,8.15l1.17,0a333.84,333.84,0,0,1-51.23,11.28c-3.18.48-6.38.79-9.57,1.15-1.59.2-3.2.31-4.8.45l-4.8.4c-6.41.38-12.83.7-19.25.67s-12.85-.22-19.25-.6c-3.21-.26-6.41-.45-9.6-.82-1.6-.16-3.2-.31-4.79-.5l-4.78-.61c-1.6-.19-3.18-.44-4.77-.68s-3.18-.47-4.76-.74c-3.16-.57-6.33-1.09-9.47-1.75-6.31-1.23-12.56-2.71-18.78-4.32L205,387.21l-4.64-1.32-2.31-.66-2.3-.7c-1.54-.47-3.08-.93-4.61-1.42q-9.18-2.91-18.25-6.19c-24.16-8.77-47.59-19.39-71.06-29.85S54.7,326.31,30.16,318.54c-6.13-1.94-12.3-3.74-18.54-5.3L10,312.85v.46l1.51.37C17.74,315.23,23.91,317,30,319c24.51,7.76,48.11,18.06,71.58,28.5s46.92,21.08,71.1,29.85q9.07,3.27,18.27,6.2c1.53.48,3.07.94,4.61,1.41l2.3.7,2.32.66,4.64,1.32,4.66,1.23c6.23,1.6,12.49,3.08,18.8,4.3,3.15.65,6.33,1.17,9.49,1.73,1.59.28,3.18.49,4.77.74s3.18.49,4.77.68l4.79.6c1.59.19,3.19.33,4.79.5,3.2.36,6.41.54,9.61.8,6.42.37,12.85.64,19.28.57s12.86-.3,19.27-.69l4.81-.41c1.6-.14,3.2-.25,4.8-.45,3.19-.37,6.39-.68,9.57-1.16A341.5,341.5,0,0,0,385,381.71l3.49-1.15,2.37-.82c2.68-.93,5.36-1.87,8-2.86,24.09-8.94,48.47-17.15,73.19-24.16a753.72,753.72,0,0,1,75.06-17.39q21.33-3.76,42.87-6.14v-.67Q568.42,330.91,547,334.71Z"/><path class="cls-2" d="M587.14,418.36l-5,2.48Q565,429.51,548.09,438.6L543,441.34h2.55l3.15-1.65q17-8.85,34.24-17.35c2.36-1.16,4.72-2.3,7.09-3.45v-2.14l-3,1.51Z"/><path class="cls-2" d="M578.7,413.49l.22.13c-18.69,8.87-37.13,18.24-55.5,27.72h2.19q11.65-5.93,23.36-11.74c11.46-5.63,23-11.14,34.6-16.43l6.43-2.89v-2q-3.57,1.61-7.12,3.25Z"/><path class="cls-2" d="M569.59,408.61l.25.14q-10.5,4.72-20.9,9.67-8.64,4.09-17.23,8.3t-17.15,8.49q-6.12,3-12.23,6.13h1.92c3.57-1.78,7.13-3.57,10.71-5.34,22.85-11.3,45.91-22.19,69.42-32,1.87-.79,3.75-1.55,5.62-2.32V399.8c-2.08.87-4.15,1.73-6.22,2.62Q576.66,405.45,569.59,408.61Z"/><path class="cls-2" d="M60.81,435.58c-12.48-1.73-25-3.33-37.53-4.65-4.42-.46-8.85-.87-13.28-1.26v1.66c16.9,1.48,33.76,3.58,50.57,5.92q14.07,2,28.11,4.09h11.71L98.2,441C85.74,439.16,73.29,437.31,60.81,435.58Z"/><path class="cls-2" d="M95.34,429.24c-12.41-2.19-24.82-4.35-37.27-6.34s-24.92-3.82-37.44-5.29c-3.54-.41-7.09-.79-10.63-1.15V418c16,1.62,31.94,3.89,47.83,6.45,24.86,4,49.61,8.69,74.46,12.89q12.32,2.1,24.68,4h10c-11.5-1.71-23-3.59-34.43-5.56C120.14,433.64,107.74,431.43,95.34,429.24Z"/><path class="cls-2" d="M129.31,425l-37-7.61c-12.35-2.52-24.72-5-37.13-7.25q-9.3-1.68-18.65-3.19C30.26,406,24,405,17.76,404.22q-3.87-.5-7.76-.94v1.43c15,1.75,30,4.14,44.88,6.85,24.79,4.52,49.42,9.92,74.14,14.87s49.54,9.58,74.57,12.83q8.92,1.17,17.89,2.08h14.27q-16-1.27-32-3.4C178.78,434.65,154,430,129.31,425Z"/><path class="cls-2" d="M578.66,441.34h3.5L590,437v-2.1c-2.9,1.64-5.81,3.27-8.7,4.93Z"/><path class="cls-2" d="M561.39,441.34h3.14q8.94-4.81,17.93-9.54,3.76-2,7.54-3.92v-2.13q-4.2,2.24-8.37,4.49C574.86,433.89,568.12,437.61,561.39,441.34Z"/></svg>