<svg id="Layer_1" data-name="Layer 1" xmlns="http://www.w3.org/2000/svg" viewBox="0 0 600 600"><defs><style>.cls-1{fill:#011e41;}.cls-2{fill:#75cae8;}</style></defs><title>Graphic_Language_Landscape_Pattern2</title><rect class="cls-1" x="3" y="88.5" width="594" height="420"/><path class="cls-2" d="M597,508.5v-2.76c-1.25.91-2.48,1.83-3.72,2.76Z"/><path class="cls-2" d="M590.33,508.5q3.31-2.47,6.67-4.88v-2.77q-5.34,3.73-10.54,7.65Z"/><path class="cls-2" d="M583.29,508.5c4.51-3.35,9.07-6.63,13.71-9.79v-2.62c-6,4-11.75,8.14-17.48,12.41Z"/><path class="cls-2" d="M574.92,506.68c-.81.6-1.62,1.22-2.44,1.82h3.64l.09-.07c6-4.4,12-8.71,18.18-12.8l2.61-1.69v-2.45c-1.25.79-2.51,1.59-3.75,2.41C587,498,580.93,502.28,574.92,506.68Z"/><path class="cls-2" d="M570.22,504.89c-1.66,1.19-3.29,2.41-4.93,3.61h3.56c.86-.63,1.72-1.28,2.59-1.91,6-4.36,12.08-8.62,18.29-12.68,2.4-1.57,4.83-3.1,7.27-4.6V487q-4.23,2.55-8.37,5.23C582.38,496.29,576.26,500.54,570.22,504.89Z"/><path class="cls-2" d="M566,502.68c-2.72,1.92-5.41,3.87-8.1,5.82h3.48c1.92-1.4,3.85-2.8,5.79-4.18,6-4.29,12.15-8.49,18.37-12.5q5.64-3.61,11.42-7v-2.17q-6.33,3.61-12.46,7.53C578.27,494.2,572.11,498.39,566,502.68Z"/><path class="cls-2" d="M562,500.32c-3.88,2.69-7.73,5.43-11.56,8.18h3.35q4.63-3.33,9.32-6.59A378.18,378.18,0,0,1,597,480.49v-2c-5.57,3-11,6.2-16.38,9.55C574.32,492,568.14,496.09,562,500.32Z"/><path class="cls-2" d="M558.22,497.79c-5.17,3.51-10.29,7.1-15.38,10.71h3.26c4.37-3.09,8.75-6.17,13.17-9.18A368.65,368.65,0,0,1,597,476.26v-1.89l-.66.33A365.22,365.22,0,0,0,558.22,497.79Z"/><path class="cls-2" d="M554.64,495.08q-9.28,6.17-18.38,12.56l-1.24.86h3.17q8.67-6.06,17.43-11.94a375.76,375.76,0,0,1,38.07-22.74c1.09-.56,2.2-1.09,3.31-1.63V470.4c-1.35.64-2.7,1.29-4,2A373.33,373.33,0,0,0,554.64,495.08Z"/><path class="cls-2" d="M592.38,468.66l-2.51,1.23a378.8,378.8,0,0,0-38.56,22.34c-6.23,4-12.39,8.17-18.52,12.35-1.92,1.3-3.82,2.61-5.72,3.92h3q1.81-1.26,3.64-2.51,9.18-6.3,18.47-12.38a377.12,377.12,0,0,1,38.33-22.34L593,470l2.52-1.16,1.45-.67v-1.66l-2.09.95Z"/><path class="cls-2" d="M592.12,464.92l-2.54,1.14-2.52,1.2a384.55,384.55,0,0,0-38.84,21.91c-6.28,4-12.5,8.05-18.67,12.17-3.1,2.05-6.16,4.16-9.26,6.19l-1.48,1h3c2.9-1.92,5.75-3.89,8.64-5.81q9.24-6.19,18.61-12.19a381.16,381.16,0,0,1,38.63-21.92l2.5-1.2,2.53-1.14c.84-.38,1.68-.77,2.53-1.13l1.75-.74v-1.56l-2.32,1C593.82,464.15,593,464.54,592.12,464.92Z"/><path class="cls-2" d="M592.17,461.1c-.86.36-1.71.74-2.57,1.11L587,463.33l-2.53,1.17A384,384,0,0,0,545.36,486c-6.33,3.9-12.6,7.91-18.82,12-3.12,2-6.21,4.1-9.34,6.1l-7,4.45h2.93l4.89-3.14c3.13-2,6.19-4.09,9.31-6.12,6.21-4.07,12.46-8.09,18.77-12a381.18,381.18,0,0,1,38.94-21.48l2.52-1.17,2.55-1.12c.85-.37,1.69-.76,2.54-1.11l2.57-1.05c.57-.25,1.15-.47,1.73-.69v-1.47c-.75.29-1.5.57-2.24.89Z"/><path class="cls-2" d="M593.82,456.78l-1.3.52c-1.73.69-3.47,1.35-5.18,2.1s-3.44,1.45-5.13,2.24a382.18,382.18,0,0,0-39.47,21q-9.6,5.75-19,11.77l-9.4,6-9.45,5.9c-1.23.74-2.47,1.44-3.7,2.16h3c.49-.29,1-.57,1.48-.87l9.48-5.93,9.39-6q9.39-6,18.93-11.8a385.79,385.79,0,0,1,39.29-21c1.68-.78,3.39-1.5,5.1-2.23s3.43-1.41,5.15-2.11l1.29-.52,1.31-.47L597,457v-1.36l-1.86.66Z"/><path class="cls-2" d="M593.16,453.5c-.88.31-1.77.61-2.63,1q-5.25,2-10.39,4.22a385,385,0,0,0-39.83,20.53q-9.67,5.64-19.17,11.57l-9.49,6-9.54,5.8q-5.21,3.06-10.51,6h3c2.77-1.55,5.53-3.12,8.26-4.74l9.56-5.84,9.47-6Q531.35,486,541,480.37a381.3,381.3,0,0,1,39.64-20.54q5.11-2.24,10.33-4.23c.86-.35,1.75-.64,2.62-1l2.63-.92.79-.28v-1.28l-1.18.41Z"/><path class="cls-2" d="M594.06,449.74l-5.32,1.81-5.26,2-5.21,2.11a381.87,381.87,0,0,0-40.19,20c-6.52,3.67-13,7.48-19.37,11.36q-4.79,2.91-9.56,5.87l-9.63,5.71q-9,5.17-18.2,9.87h3q8-4.15,15.87-8.7l9.65-5.76c3.18-2,6.35-3.93,9.54-5.87q9.58-5.84,19.31-11.39a383.18,383.18,0,0,1,40-20l5.19-2.11,5.23-2,5.28-1.82c.86-.28,1.71-.61,2.58-.86v-1.18l-.26.08C595.83,449.11,595,449.45,594.06,449.74Z"/><path class="cls-2" d="M592.5,446.84l-5.35,1.78c-.9.29-1.77.62-2.66.95l-2.64,1c-1.77.65-3.5,1.36-5.25,2A382,382,0,0,0,536,472.1q-9.88,5.4-19.56,11.15-4.85,2.85-9.66,5.77c-3.22,1.91-6.47,3.76-9.71,5.64l-2.43,1.41-1.22.7c-.4.24-.82.44-1.23.66l-5,2.62c-3.32,1.73-6.6,3.54-10,5.09l-5.07,2.42-2,.94h3l4.63-2.2c3.42-1.54,6.71-3.37,10-5.11l5-2.64c.41-.22.84-.43,1.24-.66l1.22-.71,2.44-1.42c3.24-1.89,6.5-3.75,9.72-5.67s6.42-3.88,9.64-5.79q9.67-5.73,19.51-11.16A381.5,381.5,0,0,1,577,453.61a208.39,208.39,0,0,1,20-7v-1.11l-1.8.52C594.29,446.28,593.39,446.54,592.5,446.84Z"/><path class="cls-2" d="M591.11,443.92l-5.38,1.74c-.9.29-1.8.56-2.69.88l-2.66,1c-1.78.62-3.53,1.3-5.29,2a385.15,385.15,0,0,0-41,19c-6.66,3.52-13.24,7.18-19.77,10.92q-4.89,2.81-9.75,5.69c-1.62,1-3.25,1.88-4.89,2.8l-4.9,2.77-4.91,2.77-5,2.56-5,2.55-2.51,1.28c-.84.42-1.7.79-2.55,1.19l-10.24,4.69-6.93,2.82h3.15l4.25-1.73,10.29-4.69c.85-.4,1.71-.77,2.56-1.19l2.52-1.28,5-2.58,5-2.57,4.92-2.79,4.91-2.78c1.64-.93,3.28-1.85,4.89-2.82q4.86-2.88,9.74-5.69,9.76-5.62,19.71-10.94a382.77,382.77,0,0,1,40.83-19c1.75-.68,3.5-1.36,5.27-2l2.65-.95c.88-.33,1.78-.59,2.67-.89l5.35-1.74,5.41-1.54.19,0v-1l-.45.12Z"/><path class="cls-2" d="M589.88,441l-1.38.38c-.45.13-.9.28-1.35.42l-2.7.85c-1.8.58-3.61,1.13-5.39,1.77s-3.58,1.23-5.34,1.91a382.73,382.73,0,0,0-41.39,18.45c-6.72,3.43-13.38,7-20,10.69s-13.12,7.5-19.7,11.16-13.34,7-20.17,10.18-13.8,6.06-20.84,8.73c-2.72,1-5.46,2-8.21,2.95h3.3a309.23,309.23,0,0,0,46.45-20.9c6.61-3.68,13.1-7.52,19.69-11.18s13.22-7.27,19.92-10.71a384.21,384.21,0,0,1,41.25-18.47c1.76-.67,3.54-1.28,5.32-1.91s3.57-1.19,5.37-1.77l2.68-.85,1.35-.42,1.36-.38,5.44-1.52,1.43-.34v-.94l-1.66.4Z"/><path class="cls-2" d="M592.89,437l-1.37.37-2.75.74-2.75.74c-.91.26-1.81.55-2.72.83-1.81.57-3.63,1.1-5.44,1.7s-3.59,1.21-5.38,1.83a384.16,384.16,0,0,0-41.8,17.92q-10.2,5-20.19,10.45l-5,2.72-5,2.76c-3.3,1.87-6.62,3.69-9.93,5.51q-10,5.35-20.33,10.07t-21,8.54c-7.1,2.6-14.32,4.85-21.61,6.86l-1.83.49h3.74c6.76-1.9,13.46-4,20.05-6.4q10.69-3.89,21.09-8.54c6.92-3.12,13.7-6.53,20.38-10.12q5-2.74,9.94-5.53l5-2.77,5-2.72q10-5.42,20.14-10.47A382,382,0,0,1,572.78,444l5.36-1.84c1.79-.6,3.61-1.13,5.41-1.7.91-.28,1.8-.57,2.71-.83l2.74-.74,2.73-.75,1.37-.37c.46-.12.92-.22,1.38-.33l2.52-.6V436l-2.73.63Z"/><path class="cls-2" d="M593.32,433.78l-2.78.63-2.76.73-2.77.73c-.91.24-1.84.47-2.75.76l-5.47,1.64c-1.82.55-3.62,1.18-5.43,1.77a389.57,389.57,0,0,0-42.22,17.36q-10.3,4.91-20.42,10.21c-3.37,1.76-6.72,3.56-10.07,5.37l-5,2.74-5,2.69A301.49,301.49,0,0,1,447,496.74a279.56,279.56,0,0,1-41,10.88c-.33,0-.67-.06-1-.09l-1.6.29c-1.38.24-2.77.46-4.15.68h9.31c.77-.14,1.53-.3,2.3-.45-.56,0-1.1-.1-1.65-.15a279.8,279.8,0,0,0,38.13-10.28,294.75,294.75,0,0,0,41.78-18.38l5-2.71,5-2.74c3.34-1.81,6.68-3.61,10-5.37,6.73-3.53,13.51-7,20.37-10.23a389.4,389.4,0,0,1,42.1-17.37c1.81-.59,3.6-1.23,5.42-1.77l5.44-1.65c.91-.29,1.83-.51,2.75-.76l2.75-.73,2.75-.74,2.77-.63,2.77-.64.73-.16V433l-.89.18Z"/><path class="cls-2" d="M547.72,445.1c-16.06,6.43-31.69,13.86-47,21.82-7.7,3.95-15.21,8.22-23,11.91S462,486,453.94,489.05s-16.28,5.73-24.6,8-16.76,4.12-25.26,5.56c-5.22.9-10.47,1.62-15.73,2.21l-.89-.18A309.49,309.49,0,0,1,353,506.41a418.22,418.22,0,0,1-51.59-3.63c-17.13-2.19-34.15-5.15-51.09-8.48-33.89-6.7-67.56-14.51-101.51-21s-68.18-11.62-102.69-14c-8.62-.65-17.28-.86-25.93-.84q-8.37,0-16.74.43v.26l-.47,0v.62l.47,0v.3a371.61,371.61,0,0,1,42.61.19q12.92.85,25.81,2.14t25.72,3.05c8.55,1.15,17.09,2.47,25.61,3.88s17,2.93,25.5,4.54c17,3.22,33.88,6.73,50.77,10.39s33.76,7.32,50.71,10.69,34,6.47,51.1,8.76A419.93,419.93,0,0,0,353,507.66a303.45,303.45,0,0,0,39.06-2.08l-1.22-.25q6.7-.79,13.37-1.92,12.79-2.18,25.34-5.56t24.68-8q12.13-4.59,23.84-10.24c7.82-3.72,15.33-8,23-11.95,15.31-8,30.91-15.42,46.93-21.85,8-3.21,16.12-6.18,24.34-8.78A244.26,244.26,0,0,1,597,430.67V430a239.17,239.17,0,0,0-24.87,6.37C563.88,438.93,555.75,441.89,547.72,445.1Z"/><path class="cls-2" d="M570.89,433.3c-8.33,2.51-16.55,5.39-24.66,8.51-16.24,6.25-32.08,13.49-47.62,21.31-3.88,1.94-7.74,3.95-11.6,6l-5.8,2.95-1.45.74-1.47.7-2.94,1.4c-7.85,3.7-15.85,7.08-24,10.06A259.66,259.66,0,0,1,401,497.83a274.23,274.23,0,0,1-28.32,2.8l-.83-.26q-11.14.51-22.3.2a414.91,414.91,0,0,1-51.81-4.94c-17.17-2.66-34.22-6.06-51.18-9.83-33.93-7.56-67.64-16.1-101.72-23S76.3,450.53,41.55,448.41c-8.68-.57-17.39-.77-26.09-.67q-6,.06-12,.31v.26l-.47,0v.55l.47,0v.29a368.27,368.27,0,0,1,38,.18q13,.76,26,2t25.87,3.09c8.61,1.17,17.19,2.56,25.75,4s17.1,3.09,25.61,4.82c17,3.45,34,7.26,50.91,11.26s33.82,8.06,50.79,11.86,34,7.35,51.18,10.08a414.34,414.34,0,0,0,51.91,5.24c8.68.28,17.37.22,26-.24l-1-.3c8.87-.46,17.73-1.33,26.52-2.66a261.11,261.11,0,0,0,50.51-12.9q12.27-4.49,24.08-10.08l2.94-1.41,1.48-.7,1.45-.74,5.81-3c3.85-2,7.7-4,11.59-6,15.5-7.83,31.32-15.07,47.52-21.34,8.1-3.12,16.3-6,24.61-8.51a247.06,247.06,0,0,1,25.27-6.22l.64-.11V427l-.75.13A245.34,245.34,0,0,0,570.89,433.3Z"/><path class="cls-2" d="M544.78,438.55c-16.42,6.07-32.46,13.14-48.21,20.78-7.88,3.81-15.6,7.95-23.54,11.59s-16,7-24.25,9.91a256.31,256.31,0,0,1-50.87,12.26,273,273,0,0,1-39.49,2.37l-.82-.32q-5.76-.08-11.52-.36a412.09,412.09,0,0,1-52-6.26c-17.2-3.1-34.27-7-51.25-11.17s-33.91-8.64-50.87-12.93-34-8.48-51.06-12.18C106.68,444.85,72,439.38,37,437.48q-16.76-.92-33.53-.3v.25l-.47,0v.48h.47v.28c11.15-.45,22.33-.41,33.48.16q13.1.69,26.15,1.95c8.7.85,17.38,1.92,26,3.14,2.16.32,4.33.61,6.49.95l6.48,1c4.31.72,8.62,1.44,12.92,2.24q12.9,2.35,25.73,5.11c17.1,3.69,34.11,7.8,51.05,12.15s33.87,8.81,50.85,13,34,8.23,51.25,11.41A409,409,0,0,0,346,495.89q7.31.41,14.63.46l-.77-.3A269.92,269.92,0,0,0,398,493.74a256.23,256.23,0,0,0,51-12.25c8.26-2.91,16.38-6.25,24.32-9.94s15.67-7.81,23.53-11.62c15.72-7.67,31.73-14.75,48.12-20.83s33.18-11.18,50.41-14.22l1.61-.26v-.51l-1.7.28C578,427.4,561.21,432.52,544.78,438.55Z"/><path class="cls-2" d="M568.59,427.35q-12.75,3.52-25.21,8a527.55,527.55,0,0,0-48.82,20.25c-8,3.72-15.81,7.79-23.82,11.42l-3,1.35-1.51.67-1.52.63-6.1,2.53-6.16,2.36c-2.06.76-4.14,1.47-6.22,2.2a248.49,248.49,0,0,1-51.37,11.68,272.26,272.26,0,0,1-50.1,1.09l-.81-.38-1.31-.09a405.45,405.45,0,0,1-52.2-7.56c-17.24-3.56-34.32-7.88-51.32-12.5s-33.93-9.47-50.92-14.12-34-9.16-51.21-13.08c-34.33-7.89-69.27-13.52-104.51-15.2q-14.49-.72-29-.26v.25l-.47,0V427h.47v.28q14.47-.51,29,.12c8.79.4,17.57,1,26.33,1.87s17.5,1.94,26.21,3.2,17.4,2.72,26,4.39,17.27,3.47,25.86,5.42,17.13,4.05,25.66,6.23,17,4.47,25.53,6.82c17,4.68,33.9,9.57,50.9,14.21s34,9.1,51.3,12.73a406.39,406.39,0,0,0,52.29,7.82c1.35.11,2.7.19,4,.27l-.68-.31a272.81,272.81,0,0,0,49-1.1,249.84,249.84,0,0,0,51.51-11.64A254.59,254.59,0,0,0,471,467.54c8-3.65,15.85-7.73,23.82-11.45,15.93-7.5,32.15-14.42,48.74-20.3q12.45-4.43,25.17-8a262.94,262.94,0,0,1,25.75-5.74c.84-.15,1.69-.26,2.53-.39v-.45c-.87.14-1.74.25-2.6.4C585.71,423.09,577.09,425,568.59,427.35Z"/><path class="cls-2" d="M567.49,424.38c-8.58,2.26-17.07,4.85-25.48,7.7-16.81,5.7-33.27,12.39-49.42,19.73q-6.07,2.74-12.07,5.62l-3,1.44-3,1.41-3,1.41-1.51.7-1.52.66a258.38,258.38,0,0,1-24.79,9.58,243.41,243.41,0,0,1-51.88,11.09,267.67,267.67,0,0,1-53.1-.13q-3.85-.37-7.71-.86l-.89-.45a421.18,421.18,0,0,1-43.28-7.84c-17.27-4-34.36-8.77-51.37-13.82-34-10.1-67.81-20.95-102.32-29.31S63.47,417.09,28,415.63q-12.24-.54-24.49-.22v.25H3V416h.47v.27q12.22-.35,24.46.12a478.73,478.73,0,0,1,52.92,5c17.54,2.6,34.93,6.18,52.17,10.33q12.93,3.11,25.75,6.65c3.16.86,6.31,1.76,9.46,2.65q7.86,2.24,15.69,4.54c9.19,2.72,18.36,5.52,27.53,8.31,7.94,2.42,15.89,4.85,23.85,7.22,17,5.05,34.07,10,51.35,14a418.37,418.37,0,0,0,46,8.39l-.58-.3c2.21.26,4.43.51,6.65.73a268.37,268.37,0,0,0,53.17.19,244,244,0,0,0,52-11.06,254,254,0,0,0,24.84-9.57l1.52-.67,1.51-.71,3-1.41,3-1.41,3-1.45c4-1.91,8-3.8,12.05-5.63,16.13-7.35,32.58-14.06,49.36-19.77,8.4-2.85,16.88-5.45,25.45-7.72s17.25-4.11,26-5.51c1.13-.19,2.27-.34,3.4-.5v-.39c-1.15.17-2.31.32-3.46.51C584.77,420.29,576.08,422.14,567.49,424.38Z"/><path class="cls-2" d="M540.67,428.87c-17,5.53-33.67,12-50,19.21-4.1,1.79-8.17,3.64-12.23,5.5s-8.11,3.75-12.18,5.57a267.12,267.12,0,0,1-25.07,9.41A236.45,236.45,0,0,1,388.74,479a264,264,0,0,1-53.47-1.16q-9.58-1.14-19.1-2.85l-1-.52c-10.73-1.93-21.39-4.33-31.95-7-17.3-4.44-34.4-9.67-51.41-15.14-34-10.94-67.84-22.59-102.49-31.45s-70.07-14.95-105.84-16.2q-10-.37-20-.19v.25H3v.31h.47v.26q10-.22,20,.12l6.7.26,6.68.38c2.23.11,4.45.32,6.68.49l3.34.26,3.33.32c2.22.23,4.44.4,6.66.68l6.65.77,6.64.89c2.21.28,4.42.65,6.63,1q13.23,2,26.35,4.78t26.1,6.09c8.52,2.17,17,4.51,25.44,7s17.09,5.13,25.6,7.83c17,5.4,34,11.09,51,16.57l.14.05.28.09c17,5.48,34.09,10.81,51.39,15.32,11.41,3,22.94,5.58,34.56,7.64l-.53-.28c6,1.06,12.08,2,18.15,2.71a264.7,264.7,0,0,0,53.54,1.2A236.31,236.31,0,0,0,441.29,469a266.13,266.13,0,0,0,25.11-9.41c4.08-1.83,8.15-3.68,12.19-5.58s8.11-3.73,12.21-5.51c16.35-7.19,33-13.71,50-19.25a327.31,327.31,0,0,1,52-12.77c1.4-.21,2.82-.39,4.23-.58v-.32c-1.43.19-2.86.37-4.28.58A328,328,0,0,0,540.67,428.87Z"/><path class="cls-2" d="M539.37,425.72c-17.2,5.35-34.07,11.7-50.66,18.69-4.15,1.77-8.28,3.55-12.39,5.39l-6.16,2.77L464,455.29c-8.29,3.49-16.74,6.61-25.34,9.26a232,232,0,0,1-52.95,9.86,259.39,259.39,0,0,1-53.85-2.17c-11.17-1.56-22.24-3.75-33.21-6.36l-1.33-.69q-8.88-2.15-17.66-4.61c-17.32-4.88-34.42-10.55-51.43-16.44-34-11.8-67.85-24.24-102.65-33.63A522.07,522.07,0,0,0,72.8,399C63.91,397.51,55,396.37,46,395.5s-18-1.5-27-1.73q-7.78-.24-15.57-.13v.23H3v.2h.47v.24c5.18-.08,10.36-.06,15.55.09,9,.21,18,.81,26.93,1.65s17.89,2,26.77,3.4a508,508,0,0,1,52.74,11.44q6.48,1.74,12.93,3.62c12.84,3.74,25.58,7.83,38.25,12.13,17.06,5.76,34,11.85,51,17.76,2.66.93,5.32,1.83,8,2.74,14.51,5,29.09,9.8,43.85,14q10.11,2.88,20.34,5.34l-.49-.25c10.73,2.54,21.56,4.67,32.48,6.21a259.17,259.17,0,0,0,53.9,2.2,231.41,231.41,0,0,0,53-9.83,267.88,267.88,0,0,0,25.37-9.26l6.19-2.73,6.15-2.77c4.11-1.85,8.24-3.63,12.38-5.39,16.58-7,33.44-13.36,50.63-18.72A342,342,0,0,1,592,413.65c1.68-.24,3.36-.45,5-.66v-.21c-1.69.21-3.38.42-5.07.66A342.39,342.39,0,0,0,539.37,425.72Z"/><path class="cls-2" d="M591.17,410.74a358.39,358.39,0,0,0-53.09,11.85c-17.39,5.17-34.48,11.33-51.3,18.16-4.2,1.72-8.38,3.45-12.55,5.26-2.08.89-4.16,1.81-6.24,2.72l-6.26,2.65c-1.05.44-2.08.89-3.14,1.32l-3.17,1.21-3.18,1.21c-1.06.4-2.11.84-3.19,1.18l-6.44,2.19L441,459l-1.63.48-3.26,1-3.25,1c-1.09.32-2.2.58-3.29.87l-3.29.85c-1.1.28-2.19.6-3.3.82l-6.65,1.46c-1.1.26-2.22.43-3.34.64l-3.34.61a233.42,233.42,0,0,1-27,3.06,255.62,255.62,0,0,1-54.21-3.19c-9-1.44-17.85-3.28-26.66-5.41s-17.55-4.63-26.22-7.28L271,452.48l-.47-.21-2.15-1q-9.12-2.93-18.18-6.09c-8.56-3-17.09-6.08-25.59-9.24-34-12.64-67.86-25.87-102.79-35.8q-13.08-3.76-26.36-6.81c-8.84-2.06-17.75-3.8-26.7-5.31L62.06,387,55.31,386c-2.24-.34-4.5-.57-6.75-.83l-3.39-.39-1.69-.19-1.69-.15-6.78-.6c-1.13-.12-2.27-.17-3.4-.25l-3.4-.21-3.4-.21c-1.13-.08-2.26-.1-3.4-.15l-6.8-.24c-2.27-.05-4.54-.05-6.81-.08l-3.41,0-.92,0V383H3v.15h.47v.25l.93,0,3.4,0c2.26,0,4.53,0,6.8.06l6.79.23c1.13,0,2.26.06,3.4.13l3.39.21,3.39.2c1.13.07,2.26.13,3.39.24l6.78.58,1.69.15,1.69.19,3.38.37c2.25.26,4.51.48,6.75.81l6.74.92,6.71,1.07c9,1.48,17.86,3.19,26.69,5.25S113,398,121.74,400.52q6.36,1.8,12.68,3.74,6.48,2,12.9,4.11,12.93,4.26,25.73,8.87c17.07,6.14,34,12.63,51,19q6.94,2.6,13.9,5.11,6,2.19,12.1,4.33,11.1,3.92,22.31,7.46l-.47-.21L275.5,454c8.68,2.66,17.41,5.13,26.22,7.29s17.71,4,26.67,5.43A256,256,0,0,0,382.64,470a233.77,233.77,0,0,0,27-3.06l3.35-.6c1.11-.21,2.24-.38,3.34-.64L423,464.2c1.11-.22,2.2-.54,3.3-.82l3.3-.85c1.09-.29,2.2-.55,3.29-.87l3.26-1,3.26-1,1.63-.48c.54-.17,1.08-.36,1.62-.55l6.44-2.19c1.08-.34,2.13-.78,3.19-1.18l3.18-1.21,3.18-1.21c1.05-.43,2.09-.88,3.14-1.32l6.27-2.65c2.07-.92,4.14-1.84,6.23-2.73,4.16-1.81,8.35-3.55,12.54-5.27,16.8-6.83,33.89-13,51.28-18.18a357,357,0,0,1,53-11.87c1.94-.27,3.88-.5,5.82-.72V410C595.05,410.25,593.11,410.48,591.17,410.74Z"/><path class="cls-2" d="M98.12,506.68c-14.94-1.76-29.88-3.59-44.92-4.65A405.32,405.32,0,0,0,8,501.92c-1.52.08-3,.18-4.55.28v.28l-.47,0v.91l.47,0v.34c1.54-.12,3.09-.23,4.64-.32a402.62,402.62,0,0,1,45-.18c15,1,29.93,2.71,44.87,4.39,2.51.28,5,.58,7.52.88h7.13l-3.34-.44Z"/><path class="cls-2" d="M116.9,498.62q-11.22-1.53-22.46-2.89t-22.51-2.51c-3.76-.38-7.51-.76-11.28-1.1L55,491.61c-.47,0-.94-.09-1.41-.12l-1.42-.08-2.83-.15a400.87,400.87,0,0,0-45.33.1l-.55,0v.27l-.47,0v.83l.47,0v.34l.64,0a400.56,400.56,0,0,1,45.18-.39l2.82.14,1.41.07c.47,0,.94.08,1.41.12l5.63.47q5.63.48,11.27,1,11.27,1.09,22.5,2.39,22.49,2.6,44.88,5.89c13.15,1.9,26.27,3.94,39.39,6h4.23c-14.49-2.29-29-4.58-43.51-6.71Q128.12,500.13,116.9,498.62Z"/><path class="cls-2" d="M135.94,491.07c-29.95-4.61-60-8.56-90.29-10.6a401,401,0,0,0-42.18.12v.27l-.47,0v.76l.47,0v.32a400,400,0,0,1,42.13-.38c7.54.37,15.08,1.08,22.62,1.75s15.07,1.5,22.6,2.35,15,1.82,22.53,2.84,15,2.11,22.48,3.27c15,2.29,29.91,4.8,44.84,7.38s29.84,5.26,44.77,7.79c3.09.53,6.17,1.05,9.26,1.56h4.23q-6.69-1.08-13.38-2.2C195.68,501.27,165.89,495.72,135.94,491.07Z"/><path class="cls-2" d="M132.72,480.41c-30-4.92-60.23-8.84-90.62-10.74-12.87-.59-25.77-.58-38.63.08V470L3,470v.69l.47,0v.3q19.26-1.1,38.58-.3c7.58.41,15.16,1,22.72,1.68s15.13,1.46,22.68,2.33,15.09,1.87,22.62,2.91,15,2.23,22.54,3.44c15,2.44,30,5.15,44.92,8s29.86,5.79,44.79,8.65,29.89,5.67,44.91,8.1q8.94,1.45,17.91,2.71h6.93c-23.34-2.88-46.52-7-69.63-11.42C192.56,491.4,162.75,485.33,132.72,480.41Z"/></svg>