<svg id="Layer_1" data-name="Layer 1" xmlns="http://www.w3.org/2000/svg" viewBox="0 0 600 600"><defs><style>.cls-1{fill:#011e41;}.cls-2{fill:#75cae8;}</style></defs><title>Graphic_Language_Portrait_Pattern1</title><rect class="cls-1" x="94.95" y="8.5" width="410.1" height="580"/><path class="cls-2" d="M495.62,556.84l-3.13,1.26-3.11,1.31-5.88,2.47.08,0,.22.1-.59.26L477,565c-4.13,1.8-8.2,3.71-12.3,5.58-2,.94-4.07,1.91-6.11,2.87s-4.07,1.91-6.1,2.89c-8.34,4-16.63,8.06-24.92,12.15h1.19c3.94-1.94,7.86-3.88,11.82-5.79l6.07-2.94,6.08-2.91q15.86-7.54,32-14.38h0l0,0,5-2.09,1.33-.56q5.47-2.24,11-4.37l1.57-.6,1.37-.51h0v-1.24l-3.16,1.21Z"/><path class="cls-2" d="M488.25,556.59c-2.09.84-4.18,1.66-6.25,2.51l-2.43,1,.32.14-4,1.71-3.1,1.32-3.08,1.34-6.17,2.7-6.14,2.76-3.07,1.39-3.05,1.4c-11.11,5.1-22.14,10.36-33.17,15.62h1.22l7.79-3.74c4.06-1.92,8.1-3.86,12.17-5.75l6.09-2.84,6.12-2.8q14.54-6.66,29.35-12.7l.05,0,1.53-.64c2.07-.85,4.16-1.66,6.24-2.49,1.19-.49,2.4-.95,3.61-1.41q4.44-1.73,8.91-3.37c1.29-.5,2.6-1,3.9-1.41v-1.19c-1.42.5-2.84,1-4.24,1.56C496.61,553.34,492.4,554.89,488.25,556.59Z"/><path class="cls-2" d="M475.33,558.34l.36.15-1.13.45c-2.08.82-4.13,1.7-6.21,2.56s-4.13,1.71-6.19,2.59c-4.11,1.78-8.23,3.52-12.31,5.35-14,6.18-27.92,12.62-41.82,19.06h1.26l16.28-7.58c4.07-1.87,8.13-3.75,12.22-5.57l6.12-2.75,6.14-2.7,3.07-1.35,3.09-1.32,6.17-2.62c2.06-.87,4.14-1.71,6.2-2.56s4.13-1.72,6.22-2.52l1.75-.69.08,0q9.19-3.66,18.5-7l4.8-1.7c1.7-.6,3.41-1.18,5.12-1.76v-1.14l-5.44,1.9C491.46,552,483.37,555.12,475.33,558.34Z"/><path class="cls-2" d="M492,548.68,485.66,551l-3.15,1.13-3.14,1.19-6.27,2.37-2.33.92.38.14-4.22,1.67c-2.07.83-4.16,1.64-6.21,2.5-4.13,1.7-8.27,3.39-12.37,5.15-16.45,7-32.74,14.31-49,21.67-.59.28-1.19.54-1.79.81h1.25l.75-.34q12.19-5.56,24.41-11c4.08-1.8,8.16-3.63,12.26-5.39l6.14-2.66c2.05-.88,4.11-1.74,6.17-2.61,4.11-1.75,8.25-3.41,12.38-5.09,2.07-.86,4.15-1.65,6.23-2.47L472,557l.09,0,1.39-.53,6.26-2.36,3.13-1.18,3.16-1.13,5.77-2.06.49-.18c2.11-.72,4.23-1.41,6.35-2.13s4.29-1.42,6.45-2.1v-1.09c-2.25.72-4.5,1.46-6.74,2.24S494.08,547.94,492,548.68Z"/><path class="cls-2" d="M496.9,543.88c-4.26,1.33-8.47,2.8-12.7,4.23-2.11.7-4.2,1.48-6.31,2.23l-6.29,2.27-5.79,2.18.42.14c-6.53,2.49-13,5-19.5,7.69-16.52,6.71-32.87,13.86-49.18,21.07L394.49,585c-1,.46-2.05.87-3.07,1.31l-5.15,2.15h1.29l4.05-1.7c1-.44,2.07-.86,3.08-1.32l3.06-1.36q12.21-5.45,24.48-10.77c8.19-3.52,16.4-7,24.67-10.33,2.07-.83,4.13-1.67,6.2-2.49l6.24-2.42,3.11-1.21,3.13-1.16,1.43-.54.11,0,4.79-1.8,6.29-2.25c2.1-.75,4.19-1.52,6.3-2.22l6.33-2.14q3.15-1.05,6.33-2c2.13-.67,4.25-1.35,6.38-2l1.51-.44v-1l-1.77.53C501.15,542.52,499,543.21,496.9,543.88Z"/><path class="cls-2" d="M501.79,539.31l-6.41,1.92c-11.78,3.56-23.42,7.56-35,11.83l.44.13c-1.13.42-2.26.82-3.38,1.25l-6.25,2.35L445,559.22l-3.11,1.21-3.11,1.25-6.19,2.49-12.36,5.1q-12.33,5.16-24.59,10.47c-4.07,1.81-8.21,3.45-12.32,5.15l-1.55.63c-.51.2-1,.38-1.56.57l-3.14,1.13-3.14,1.13-.41.15h1.53l2.19-.8,3.14-1.15c.52-.2,1.05-.38,1.57-.59l1.54-.64c4.12-1.71,8.26-3.36,12.33-5.17q12.24-5.35,24.56-10.52,6.17-2.58,12.36-5.09l6.2-2.48,3.1-1.23,3.12-1.21,6.23-2.41,6.26-2.33c1.31-.5,2.64-1,4-1.45l.11,0q12.34-4.51,24.85-8.56l1.5-.47c2.08-.67,4.18-1.32,6.27-1.95l1.27-.38,6.4-1.89c1-.31,2-.58,3-.85v-1H505C503.93,538.69,502.85,539,501.79,539.31Z"/><path class="cls-2" d="M492.14,539l-1.6.48-3.19,1c-2.13.65-4.27,1.27-6.39,1.95l-6.37,2.05-3.18,1-3.16,1.07-6.32,2.16c-2.11.73-4.2,1.49-6.3,2.24l-1.19.42.49.13-2.38.85c-1.05.37-2.1.75-3.14,1.15l-6.26,2.34c-2.09.77-4.16,1.57-6.24,2.38l-6.23,2.41-6.2,2.48c-2.07.83-4.14,1.64-6.2,2.49-4.12,1.68-8.26,3.35-12.36,5.07l-6.17,2.57-6.15,2.61c-2.05.86-4.09,1.74-6.15,2.59l-3.08,1.27-3.11,1.21c-4.15,1.62-8.35,3.08-12.57,4.5-3.36,1.09-6.75,2.1-10.15,3.07h2c2.78-.83,5.57-1.68,8.33-2.6l3.16-1.09c1.05-.37,2.11-.72,3.15-1.11,2.09-.78,4.19-1.53,6.25-2.36l3.12-1.22,3.08-1.29c2.06-.85,4.11-1.73,6.15-2.6,16.39-7,32.84-13.8,49.53-20q6.18-2.31,12.39-4.52l.12,0,.09,0c2.1-.74,4.19-1.51,6.3-2.23l6.32-2.14,3.16-1.07,3.17-1,6.36-2c2.12-.68,4.26-1.29,6.39-1.94l2.49-.75,3.88-1.13q5.52-1.57,11.09-3v-.92q-5.67,1.5-11.3,3.11Z"/><path class="cls-2" d="M447.22,550l.58.09-.33.12-6.28,2.25c-1.05.37-2.1.76-3.14,1.15l-3.13,1.17-6.26,2.34-6.23,2.41-3.12,1.2-3.1,1.23c-4.14,1.64-8.29,3.27-12.41,5l-6.19,2.52L391.44,572c-2.05.85-4.11,1.71-6.17,2.55l-3.09,1.25-3.12,1.2c-4.15,1.59-8.37,3-12.59,4.41-8.48,2.73-17.09,5-25.79,6.87l-1,.2h2.71c8.17-1.84,16.26-4,24.22-6.63,4.23-1.41,8.44-2.87,12.59-4.48l3.12-1.2,3.1-1.27c2.06-.84,4.11-1.7,6.17-2.56,16.43-6.86,33-13.51,49.72-19.53l6.29-2.24,1-.35.15,0c13.79-4.82,27.71-9.25,41.78-13.16l1.66-.47q6.41-1.73,12.85-3.29v-.88c-4.36,1.08-8.7,2.2-13,3.39C476.91,540,462,544.8,447.22,550Z"/><path class="cls-2" d="M496.67,531.51c-2.17.53-4.34,1-6.49,1.63-17.26,4.5-34.3,9.82-51.13,15.71l-.46.16.65.06-.14,0-6.29,2.26c-2.09.76-4.2,1.49-6.28,2.28L420.27,556l-3.13,1.17-3.12,1.2-6.24,2.4c-2.08.81-4.15,1.64-6.22,2.46l-6.21,2.47-6.19,2.53c-2.07.84-4.13,1.68-6.2,2.5l-3.1,1.24-3.13,1.17c-1,.39-2.08.8-3.13,1.16l-3.16,1.09-1.57.55-1.59.52-3.18,1a260.43,260.43,0,0,1-55.84,11H315c7.85-.92,15.67-2.17,23.41-3.79a259,259,0,0,0,25.87-6.82l3.18-1,1.59-.52,1.57-.56,3.16-1.11c1-.37,2.09-.78,3.13-1.17l3.13-1.18,3.11-1.24c2.07-.83,4.13-1.68,6.19-2.52,16.49-6.77,33.1-13.23,49.93-19.1l.85-.29h.14c15.21-5.27,30.58-10.07,46.12-14.23l4-1.06c2.15-.58,4.33-1.07,6.49-1.6l6.49-1.57,1.73-.37v-.84l-1.88.42Z"/><path class="cls-2" d="M502.92,527l-1.63.36-6.54,1.49c-1.08.25-2.18.48-3.26.75l-3.25.81c-17.34,4.29-34.47,9.37-51.37,15.12-2.67.91-5.33,1.85-8,2.79l.72,0q-21.62,7.57-42.85,16.14c-2.08.83-4.15,1.66-6.22,2.47l-3.12,1.22-3.14,1.15c-1,.38-2.08.79-3.14,1.14L368,571.54l-1.58.54-1.59.5-3.19,1a254.67,254.67,0,0,1-25.93,6.51c-2.19.45-4.39.81-6.58,1.2-1.1.21-2.2.35-3.3.53s-2.2.35-3.31.5l-3.31.44-1.66.21-1.66.19-3.32.37-3.33.31c-8.88.81-17.8,1.11-26.71,1-1.11,0-2.23,0-3.34-.06s-2.23,0-3.34-.08c-2.23-.09-4.46-.15-6.68-.29-4.45-.22-8.89-.58-13.33-1q-13.32-1.28-26.52-3.43c-17.61-2.83-35-6.69-52.41-10.77s-34.7-8.34-52.21-11.91q-6.55-1.33-13.16-2.5t-13.23-2.11L95,552.33v.92c9.9,1.3,19.74,3,29.53,5,17.47,3.56,34.79,7.87,52.18,11.91s34.84,7.89,52.49,10.7q13.22,2.13,26.58,3.38c4.45.38,8.9.73,13.36.93,2.23.13,4.47.19,6.7.27,1.11,0,2.23,0,3.35.07s2.23.05,3.35,0c8.93,0,17.87-.3,26.76-1.14l3.34-.32,3.33-.39,1.66-.19,1.66-.22,3.32-.45c1.11-.16,2.21-.35,3.31-.52s2.21-.33,3.31-.54c2.19-.4,4.4-.77,6.58-1.23A251.63,251.63,0,0,0,361.71,574l3.19-1,1.6-.51,1.58-.55,3.16-1.09c1.06-.36,2.1-.77,3.15-1.15l3.14-1.16,3.12-1.23c2.08-.81,4.14-1.64,6.21-2.47,14.36-5.79,28.82-11.31,43.43-16.4l.23,0c2.19-.76,4.36-1.54,6.55-2.28q23.73-8,48-14.21l3.29-.82,3.24-.79c1.08-.28,2.18-.5,3.26-.75l6.53-1.46,1.63-.37,1.64-.33.36-.07v-.78l-.49.1Z"/><path class="cls-2" d="M482.94,528.37l-1.64.38-1.63.41-6.5,1.65c-1.08.28-2.17.54-3.25.83l-3.23.89-6.47,1.78c-2.15.6-4.29,1.26-6.44,1.88s-4.29,1.25-6.42,1.92l-6.41,2-3.2,1c-1.06.33-2.12.7-3.18,1q-8.29,2.72-16.53,5.64l.79,0Q401.4,554,384.21,560.78c-2.07.82-4.16,1.63-6.24,2.43-1,.4-2.08.82-3.13,1.2l-3.15,1.14c-2.1.78-4.22,1.47-6.34,2.18l-1.59.53-1.6.49-3.2,1a244.87,244.87,0,0,1-26,6.32c-4.38.85-8.8,1.5-13.22,2.11s-8.87,1.05-13.33,1.36-8.91.54-13.38.66c-2.23,0-4.46.09-6.69.06l-3.35,0-3.35-.09-1.67,0-1.68-.07-3.34-.15-3.34-.2-1.68-.11-1.66-.13-3.34-.26-3.34-.32c-1.11-.09-2.22-.21-3.33-.34l-3.32-.37q-13.31-1.62-26.47-4.16c-17.55-3.36-34.87-7.8-52.14-12.42s-34.5-9.4-52-13.32c-8.73-2-17.52-3.67-26.37-5l-1-.14v.82c9.13,1.35,18.2,3.13,27.2,5.14,17.44,3.92,34.66,8.73,51.94,13.32s34.63,9,52.21,12.35q13.19,2.52,26.52,4.12l3.34.36c1.11.12,2.22.24,3.34.34l3.34.3,3.35.25,1.67.13,1.68.1,3.35.19,3.35.14,1.68.06,1.67,0,3.36.07h3.36c2.23,0,4.47,0,6.71-.07,4.47-.14,8.94-.34,13.4-.71s8.91-.85,13.35-1.41,8.85-1.29,13.24-2.15a247.55,247.55,0,0,0,26.05-6.43c4.28-1.31,8.53-2.7,12.73-4.24l3.15-1.14c1.05-.39,2.09-.8,3.13-1.2,2.09-.81,4.17-1.62,6.25-2.45,11.63-4.61,23.35-9,35.16-13.17h.17q7.53-2.64,15.11-5.13c1.06-.35,2.12-.71,3.18-1l3.2-1,6.4-2c2.13-.66,4.28-1.27,6.42-1.91s4.28-1.28,6.44-1.87l6.46-1.77,3.23-.89,3.24-.82,6.5-1.65,1.63-.4,1.63-.38,2.05-.47,1.19-.28q9.33-2.14,18.72-3.94v-.74q-9.46,1.84-18.85,4Z"/><path class="cls-2" d="M497.24,522.06l-3.31.64-1.65.31-1.64.35-6.57,1.42-3.29.71-3.27.78L471,527.83c-1.09.25-2.17.55-3.26.82l-3.25.85c-2.17.57-4.35,1.11-6.51,1.71L451.48,533l-3.23.9c-1.09.31-2.15.64-3.23,1-4.29,1.3-8.6,2.55-12.85,4q-13,4.13-25.78,8.73h.76q-12.87,4.57-25.58,9.54l-6.28,2.4c-1.05.39-2.09.81-3.15,1.18L369,561.82c-4.23,1.49-8.5,2.84-12.79,4.11a241.23,241.23,0,0,1-26.14,6.13c-4.4.81-8.84,1.42-13.28,2l-3.33.36c-1.12.12-2.23.26-3.34.34-2.24.18-4.46.39-6.7.5-4.47.3-8.94.4-13.42.47l-3.35,0H285l-1.68,0-3.35-.08-3.36-.15-1.67-.07-1.68-.11-3.35-.22-3.34-.27-1.68-.14-1.67-.17-3.34-.34-3.33-.4-1.67-.2-1.66-.23-3.32-.46q-13.29-1.95-26.4-4.91C206,564,188.76,559,171.61,553.79s-34.29-10.46-51.72-14.72c-2.18-.54-4.36-1-6.55-1.54s-4.37-1-6.57-1.42-4.4-.87-6.6-1.3l-5.22-.9v.73c1.7.28,3.39.58,5.09.88,2.19.42,4.39.83,6.58,1.3s4.38.94,6.56,1.42,4.36,1,6.53,1.54c17.4,4.26,34.52,9.57,51.69,14.72s34.39,10.16,51.91,14q13.13,2.94,26.45,4.88l3.33.45,1.67.22,1.67.2,3.34.39,3.35.33,1.67.16,1.68.14,3.35.27,3.36.2,1.68.1,1.68.07,3.36.14,3.36.08,1.68,0H290c4.48-.07,9-.19,13.44-.5,2.24-.13,4.47-.34,6.71-.53,1.11-.08,2.23-.23,3.34-.34l3.34-.37c4.45-.58,8.89-1.2,13.3-2a242,242,0,0,0,26.16-6.22c4.29-1.28,8.56-2.65,12.79-4.15l3.16-1.13c1.06-.36,2.1-.79,3.15-1.18l6.27-2.41q13-5.07,26.13-9.76h.15q12.13-4.3,24.41-8.21c4.26-1.4,8.56-2.64,12.85-3.93,1.07-.32,2.14-.66,3.22-1l3.23-.9,6.47-1.81c2.16-.6,4.33-1.13,6.5-1.7l3.25-.84c1.08-.28,2.16-.58,3.25-.82l6.54-1.55,3.27-.78,3.28-.71h.06q10.35-2.24,20.79-4.06v-.7l-1.21.2C501.64,521.2,499.44,521.65,497.24,522.06Z"/><path class="cls-2" d="M478.54,522.61l-3.29.74-3.29.73c-1.1.25-2.2.47-3.29.75l-6.55,1.61-3.27.8c-1.09.27-2.17.57-3.26.86-4.34,1.17-8.69,2.28-13,3.56l-6.48,1.87c-2.15.64-4.3,1.32-6.45,2q-17.93,5.54-35.55,12h.72q-8,2.91-16,6c-4.2,1.59-8.4,3.19-12.65,4.63l-1.59.55-1.6.52-3.21,1c-1.07.36-2.15.66-3.22,1l-3.23,1A238.44,238.44,0,0,1,327,568.09c-1.11.18-2.21.38-3.32.54l-3.34.48-1.66.23-1.67.2-3.35.4c-1.11.12-2.23.21-3.35.32s-2.23.23-3.36.29c-2.23.15-4.47.34-6.72.42-1.12,0-2.24.11-3.36.14l-3.36.08-1.69,0H286.8l-3.36-.08-1.68,0-1.69-.07-3.36-.15-3.36-.21-1.68-.11-1.68-.14-3.35-.29-3.35-.35-1.67-.18L260,569.4l-3.34-.42-3.33-.48-1.67-.24L250,568l-3.32-.55c-4.42-.78-8.83-1.62-13.22-2.58s-8.75-2-13.1-3.11c-17.4-4.45-34.47-10.09-51.5-15.82s-34.07-11.51-51.46-16.11c-7.4-2-14.87-3.65-22.4-5v.63c7.47,1.38,14.89,3.07,22.23,5,17.37,4.59,34.38,10.41,51.42,16.11s34.14,11.33,51.57,15.77c8.71,2.23,17.5,4.14,26.37,5.66l3.33.54,1.66.26,1.67.24,3.34.48,3.35.41,1.67.2,1.68.18,3.36.34,3.36.29,1.68.13,1.68.11,3.37.21,3.37.14,1.68.06,1.69,0,3.37.06h5.06l1.68,0,3.38-.09,3.36-.15c2.25-.09,4.49-.28,6.74-.43,1.12-.07,2.23-.21,3.35-.3s2.24-.21,3.36-.34l3.35-.4,1.67-.2,1.67-.24,3.34-.49c1.11-.16,2.22-.37,3.32-.55a238.68,238.68,0,0,0,26.29-6l3.23-1c1.08-.32,2.16-.63,3.22-1l3.21-1,1.6-.52,1.6-.56c4.25-1.45,8.45-3.06,12.65-4.65q8.25-3.19,16.56-6.21h.1c11.34-4.09,22.76-8,34.28-11.49,2.14-.66,4.29-1.33,6.44-2l6.47-1.86c4.31-1.28,8.66-2.39,13-3.55,1.08-.28,2.17-.59,3.26-.86l3.27-.79,6.54-1.6c1.09-.28,2.19-.5,3.29-.75l3.28-.73,3.29-.73,1.28-.28.91-.19,1.1-.23c1.73-.36,3.46-.7,5.19-1q8.92-1.74,17.91-3.14v-.63q-11.66,1.86-23.21,4.24C480.73,522.11,479.64,522.37,478.54,522.61Z"/><path class="cls-2" d="M499.51,515.5l-6.68,1.06c-1.11.16-2.22.39-3.33.59l-3.33.61-3.32.61c-1.11.2-2.22.39-3.33.63-17.69,3.53-35.19,8-52.46,13.16-15.42,4.63-30.66,9.83-45.73,15.46H382q-3.06,1.13-6.1,2.28l-6.34,2.35c-1.05.4-2.12.76-3.18,1.12l-3.2,1.1c-1.06.37-2.14.7-3.22,1l-3.22,1c-2.15.66-4.32,1.26-6.48,1.89a238.44,238.44,0,0,1-26.41,5.73c-1.11.17-2.22.37-3.33.51l-3.35.44-1.68.22-1.68.18-3.36.36c-1.12.11-2.24.18-3.36.28s-2.25.2-3.37.25c-2.25.12-4.5.28-6.75.32-1.13,0-2.25.08-3.38.1l-3.38,0h-1.69l-1.68,0-3.38,0-3.38-.14-1.68-.07-1.69-.1-3.37-.22-3.36-.28-1.69-.15-1.68-.18-3.36-.36-3.35-.43-1.67-.22-1.67-.25-3.34-.5-3.33-.57c-1.11-.18-2.22-.39-3.32-.6s-2.22-.41-3.32-.64q-6.63-1.35-13.18-3c-4.37-1.11-8.73-2.25-13.05-3.53-17.31-5-34.23-11.27-51.13-17.56s-33.82-12.58-51.19-17.49q-6.51-1.83-13.1-3.38-3.31-.76-6.66-1.45v.54c2.19.44,4.37.92,6.54,1.42q6.57,1.54,13.08,3.38c17.34,4.91,34.24,11.23,51.15,17.49S199.56,551,216.9,556c4.33,1.27,8.69,2.41,13.06,3.51s8.79,2.07,13.21,3c1.1.22,2.22.42,3.32.63s2.22.41,3.34.59l3.33.56,3.35.5,1.67.25,1.68.21,3.36.43,3.36.35,1.68.18,1.69.14,3.37.28,3.38.21,1.69.1,1.69.06,3.38.13,3.38.06,1.69,0h1.7l3.38,0L297,567c2.26,0,4.51-.21,6.76-.34,1.13-.05,2.25-.17,3.37-.25s2.25-.18,3.37-.29l3.37-.37,1.68-.18,1.67-.22,3.36-.45c1.11-.15,2.22-.35,3.34-.52a236.06,236.06,0,0,0,26.42-5.78c2.16-.63,4.34-1.24,6.49-1.9l3.22-1c1.08-.34,2.16-.67,3.22-1l3.2-1.1c1.07-.37,2.13-.73,3.19-1.13l6.34-2.36,6.59-2.48h.05c14.7-5.45,29.55-10.49,44.56-15,17.27-5.17,34.76-9.6,52.44-13.1,1.1-.24,2.21-.43,3.32-.64l3.32-.6,3.32-.61,1.28-.23c.45-.09.9-.16,1.36-.24l.69-.11.23,0,6.43-1,3.34-.53,2.13-.28h0v-.56l-2.19.3Z"/><path class="cls-2" d="M497.23,512.76l-3.36.48c-1.12.16-2.24.32-3.36.51l-6.7,1.13-3.34.56-3.34.64c-17.79,3.35-35.4,7.66-52.78,12.73s-34.53,10.91-51.47,17.3c-1.61.61-3.22,1.19-4.84,1.77l.69,0c-7.11,2.56-14.31,4.89-21.61,6.84a237.94,237.94,0,0,1-26.56,5.51c-4.47.68-9,1.15-13.47,1.56l-3.38.24c-1.13.07-2.26.17-3.39.21-2.26.09-4.52.21-6.78.22-4.52.12-9,0-13.56-.18l-3.38-.2-1.7-.1-1.69-.14-3.38-.28-3.37-.36a263.76,263.76,0,0,1-52.84-11.89c-17.21-5.6-34-12.48-50.72-19.31S129.34,516.34,112,511.13c-4.33-1.32-8.71-2.5-13.11-3.58-1.3-.32-2.62-.62-3.93-.92v.42c1.28.29,2.56.59,3.84.91,4.39,1.07,8.76,2.25,13.08,3.56,17.33,5.2,34.13,12,50.89,18.82s33.52,13.71,50.74,19.31c4.3,1.41,8.64,2.71,13,4s8.74,2.35,13.16,3.36,8.85,1.91,13.32,2.65l1.67.29,1.68.26,3.36.51,3.37.43,1.68.22,1.69.18,3.37.35,3.39.28,1.69.14,1.7.09,3.39.2c4.52.16,9,.28,13.58.16,2.26,0,4.52-.14,6.78-.24,1.14,0,2.26-.14,3.39-.21s2.26-.15,3.39-.25c4.51-.41,9-.89,13.48-1.58a236.19,236.19,0,0,0,26.58-5.55c7.46-2,14.82-4.4,22.09-7h0l3.74-1.36c16.94-6.38,34.08-12.19,51.45-17.25s35-9.35,52.75-12.68l3.33-.64,3.35-.56,6.69-1.11c1.11-.2,2.23-.36,3.35-.51l3.36-.48c2.24-.31,4.47-.65,6.72-.93l1-.12h0v-.51l-1.1.13C501.71,512.11,499.47,512.45,497.23,512.76Z"/><path class="cls-2" d="M474.66,513.11a534.33,534.33,0,0,0-53.11,12.34c-17.49,5-34.73,10.79-51.76,17.13q-8.54,3.17-17.26,5.77l.82,0a236,236,0,0,1-36.22,8c-2.25.34-4.51.56-6.76.82-1.13.13-2.26.21-3.4.31l-3.39.28c-4.53.28-9.07.5-13.61.48s-9.09-.16-13.62-.43c-2.26-.18-4.53-.31-6.79-.57-1.12-.12-2.25-.22-3.38-.36l-3.38-.43c-1.13-.13-2.25-.31-3.37-.48s-2.25-.33-3.37-.53c-2.23-.39-4.47-.76-6.7-1.23-4.45-.87-8.87-1.92-13.27-3l-3.29-.88-3.28-.93-1.64-.47-1.62-.49-3.26-1c-4.33-1.37-8.63-2.84-12.9-4.38-17.09-6.2-33.65-13.71-50.25-21.11s-33.29-14.68-50.64-20.17c-4.34-1.37-8.71-2.65-13.12-3.75L95,497.65V498l1.06.26c4.41,1.1,8.77,2.37,13.1,3.74,17.33,5.48,34,12.77,50.62,20.15S192.9,537,210,543.22q6.42,2.31,12.91,4.39l3.26,1,1.63.49,1.64.47,3.28.93,3.3.87c4.4,1.13,8.83,2.17,13.29,3,2.23.46,4.47.83,6.71,1.23,1.12.19,2.25.34,3.37.52s2.25.34,3.38.48l3.38.42c1.13.14,2.26.24,3.39.36,2.26.25,4.53.38,6.8.56,4.54.26,9.08.45,13.63.41s9.09-.21,13.62-.49l3.4-.29c1.13-.1,2.27-.18,3.4-.32,2.25-.26,4.52-.48,6.76-.82a241.49,241.49,0,0,0,42.94-10.13l2.47-.82,1.67-.58c1.9-.65,3.8-1.32,5.68-2,17-6.32,34.27-12.12,51.75-17.08a533.58,533.58,0,0,1,53.08-12.3q15.08-2.65,30.31-4.34h0v-.46Q489.79,510.41,474.66,513.11Z"/><path class="cls-2" d="M503,572.25c-1.18.58-2.35,1.16-3.52,1.76q-12.12,6.12-24.09,12.55l-3.62,1.94h1.8l2.22-1.17q12.06-6.26,24.22-12.27l5-2.43v-1.52l-2.15,1.07Z"/><path class="cls-2" d="M497.06,568.81l.16.09C484,575.17,471,581.79,458,588.5h1.55q8.25-4.18,16.52-8.3c8.11-4,16.25-7.88,24.46-11.62,1.52-.69,3-1.37,4.55-2v-1.42l-5,2.3Z"/><path class="cls-2" d="M490.62,565.36l.18.09q-7.43,3.34-14.78,6.85c-4.08,1.93-8.13,3.89-12.19,5.86l-12.12,6q-4.33,2.16-8.65,4.34h1.36c2.52-1.26,5-2.53,7.57-3.78,16.16-8,32.46-15.69,49.09-22.63,1.32-.56,2.64-1.1,4-1.64v-1.32c-1.47.61-2.94,1.22-4.4,1.85Q495.61,563.13,490.62,565.36Z"/><path class="cls-2" d="M130.87,584.43c-8.82-1.22-17.66-2.36-26.53-3.29-3.12-.33-6.26-.62-9.39-.89v1.17c12,1.05,23.87,2.53,35.76,4.19,6.63.92,13.25,1.9,19.87,2.89h8.28l-1.54-.23C148.51,587,139.7,585.65,130.87,584.43Z"/><path class="cls-2" d="M155.29,579.94c-8.77-1.54-17.55-3.07-26.35-4.48s-17.62-2.7-26.48-3.74q-3.75-.44-7.51-.81V572c11.31,1.15,22.58,2.76,33.82,4.56,17.57,2.83,35.08,6.15,52.64,9.12,5.81,1,11.63,1.94,17.46,2.84H206c-8.13-1.21-16.25-2.54-24.35-3.93C172.83,583.06,164.06,581.49,155.29,579.94Z"/><path class="cls-2" d="M179.31,576.94l-26.19-5.38c-8.73-1.79-17.48-3.53-26.25-5.13q-6.59-1.18-13.19-2.26c-4.4-.69-8.82-1.35-13.24-1.92q-2.75-.35-5.49-.66v1c10.63,1.23,21.21,2.93,31.73,4.84,17.53,3.2,34.94,7,52.43,10.52s35,6.77,52.72,9.07q6.31.83,12.65,1.47h10.09q-11.34-.9-22.62-2.4C214.29,583.77,196.77,580.48,179.31,576.94Z"/><path class="cls-2" d="M497,588.5h2.47l5.54-3.08v-1.48c-2.05,1.16-4.11,2.31-6.15,3.48Z"/><path class="cls-2" d="M484.82,588.5H487q6.33-3.4,12.68-6.75,2.65-1.39,5.33-2.77v-1.5c-2,1-3.95,2.1-5.92,3.17C494.34,583.23,489.58,585.86,484.82,588.5Z"/></svg>