<svg id="Layer_1" data-name="Layer 1" xmlns="http://www.w3.org/2000/svg" viewBox="0 0 600 600"><defs><style>.cls-1{fill:#011e41;}.cls-2{fill:#75cae8;}</style></defs><title>Graphic_Language_Landscape_Pattern1</title><rect class="cls-1" x="3" y="88.5" width="594" height="420"/><path class="cls-2" d="M583.34,462.65l-4.53,1.82-4.51,1.9L565.78,470l.12.06.32.14-.86.37-8.94,4c-6,2.6-11.89,5.37-17.82,8.07-3,1.37-5.9,2.78-8.85,4.16s-5.9,2.77-8.83,4.19c-12.08,5.77-24.1,11.68-36.1,17.6h1.73q8.54-4.22,17.11-8.39l8.79-4.26,8.82-4.21q23-10.92,46.37-20.82h0l7.22-3,1.93-.81q7.92-3.24,15.91-6.33l2.28-.86,2-.75h0v-1.8L592.43,459Z"/><path class="cls-2" d="M572.66,462.29c-3,1.21-6,2.39-9,3.63l-3.52,1.47.47.21-5.86,2.48-4.48,1.9-4.47,1.95-8.93,3.9-8.89,4-4.45,2-4.42,2c-16.09,7.38-32.07,15-48,22.62h1.78l11.28-5.41c5.87-2.79,11.73-5.6,17.62-8.33l8.83-4.12,8.86-4.06q21.06-9.65,42.52-18.39l.06,0,2.21-.92c3-1.23,6-2.41,9-3.62,1.74-.7,3.49-1.37,5.23-2q6.43-2.49,12.91-4.88c1.87-.72,3.76-1.39,5.65-2.05V453c-2.06.73-4.11,1.46-6.15,2.25C584.77,457.57,578.67,459.82,572.66,462.29Z"/><path class="cls-2" d="M554,464.82l.51.21-1.63.65c-3,1.19-6,2.47-9,3.71s-6,2.48-9,3.76c-6,2.57-11.92,5.1-17.84,7.74-20.3,8.95-40.43,18.28-60.56,27.61h1.81l23.6-11c5.89-2.7,11.77-5.43,17.68-8.07l8.87-4,8.9-3.91,4.45-2,4.46-1.91,9-3.8c3-1.26,6-2.47,9-3.7s6-2.49,9-3.65l2.55-1,.11,0q13.32-5.31,26.79-10.21l7-2.45q3.7-1.31,7.42-2.56v-1.65c-2.63.91-5.26,1.82-7.87,2.76Q571.4,457.78,554,464.82Z"/><path class="cls-2" d="M578.05,450.82l-9.14,3.29-4.56,1.64-4.54,1.71-9.08,3.44-3.39,1.33.56.22-6.11,2.41c-3,1.2-6,2.37-9,3.62-6,2.46-12,4.91-17.92,7.46-23.83,10.08-47.41,20.73-71,31.39-.86.4-1.73.77-2.6,1.17h1.81l1.09-.5q17.65-8,35.36-16c5.91-2.62,11.81-5.26,17.75-7.82l8.9-3.85c3-1.28,6-2.51,8.94-3.77,5.94-2.55,11.94-4.95,17.93-7.39,3-1.23,6-2.38,9-3.57l7-2.72.13.05c.67-.26,1.34-.53,2-.78l9.07-3.42,4.54-1.7,4.57-1.64,8.35-3,.72-.25c3.06-1.05,6.13-2.05,9.19-3.08S593.87,447,597,446v-1.56c-3.26,1-6.52,2.1-9.76,3.23C584.18,448.74,581.11,449.76,578.05,450.82Z"/><path class="cls-2" d="M585.2,443.88c-6.17,1.92-12.27,4.05-18.39,6.12-3.07,1-6.1,2.15-9.14,3.23l-9.12,3.29c-2.8,1-5.59,2.1-8.38,3.15l.6.21c-9.45,3.6-18.88,7.28-28.24,11.13-23.93,9.73-47.61,20.07-71.23,30.52l-4.43,2c-1.47.66-3,1.26-4.46,1.89L425,508.5h1.87L432.7,506c1.48-.63,3-1.23,4.45-1.9l4.43-2q17.69-7.89,35.46-15.6c11.86-5.11,23.76-10.13,35.73-15,3-1.21,6-2.43,9-3.61l9-3.51,4.51-1.75,4.53-1.69,2.07-.77.15.05,6.94-2.6,9.12-3.26c3-1.08,6.06-2.2,9.13-3.21s6.1-2.08,9.16-3.1,6.1-2,9.17-2.95,6.15-1.95,9.24-2.89l2.19-.64v-1.49l-2.56.76C591.35,441.9,588.28,442.9,585.2,443.88Z"/><path class="cls-2" d="M592.27,437.25,583,440c-17.07,5.16-33.93,11-50.65,17.13l.64.2c-1.63.6-3.27,1.18-4.89,1.81l-9.06,3.4-9,3.52-4.51,1.76-4.49,1.8-9,3.61-17.9,7.38q-17.85,7.49-35.61,15.18c-5.9,2.61-11.89,5-17.85,7.45l-2.24.91c-.75.3-1.51.56-2.27.83l-4.54,1.64-4.55,1.64-.59.21h2.21l3.18-1.16,4.54-1.67c.76-.28,1.52-.54,2.27-.85l2.24-.92c6-2.48,12-4.87,17.86-7.49q17.73-7.76,35.57-15.25,8.92-3.74,17.9-7.36l9-3.59,4.5-1.79,4.51-1.74,9-3.49,9.07-3.38c1.91-.73,3.83-1.42,5.75-2.11l.16.05q17.88-6.56,36-12.4l2.17-.69q4.55-1.44,9.1-2.82l1.82-.54,9.28-2.75c1.45-.44,2.92-.83,4.39-1.23V435.9l-.07,0C595.38,436.36,593.82,436.77,592.27,437.25Z"/><path class="cls-2" d="M578.31,436.81l-2.32.71-4.63,1.4c-3.09.94-6.18,1.84-9.26,2.83l-9.21,3-4.61,1.49-4.58,1.56-9.16,3.12c-3,1.05-6.08,2.17-9.12,3.24l-1.73.62.71.18L521,456.16c-1.52.54-3,1.09-4.55,1.66l-9.06,3.39c-3,1.11-6,2.28-9,3.45l-9,3.49-9,3.59c-3,1.21-6,2.37-9,3.6-6,2.44-11.95,4.85-17.89,7.35l-8.93,3.72-8.91,3.78c-3,1.25-5.94,2.52-8.92,3.75l-4.46,1.85-4.5,1.75c-6,2.35-12.09,4.46-18.2,6.51-4.87,1.59-9.78,3.05-14.71,4.45h2.86c4-1.2,8.07-2.44,12.07-3.77l4.58-1.58c1.52-.53,3.06-1,4.56-1.61,3-1.12,6.07-2.21,9.06-3.42l4.51-1.76,4.47-1.86c3-1.23,5.94-2.51,8.91-3.77,23.73-10.1,47.56-20,71.73-29q9-3.35,18-6.55l.16,0,.14-.05c3-1.07,6.07-2.18,9.11-3.22l9.16-3.11,4.58-1.55,4.6-1.48,9.2-2.95c3.08-1,6.18-1.87,9.26-2.81l3.6-1.09c1.88-.54,3.75-1.1,5.62-1.63q8-2.27,16.07-4.37v-1.34q-8.21,2.17-16.37,4.51Z"/><path class="cls-2" d="M513.24,452.77l.84.13-.47.17-9.11,3.26c-1.52.54-3,1.1-4.54,1.67l-4.54,1.69-9.06,3.39-9,3.49-4.51,1.74-4.5,1.77c-6,2.38-12,4.74-18,7.19l-9,3.65-8.94,3.71c-3,1.23-5.95,2.48-8.94,3.69L419,490.14l-4.52,1.73c-6,2.31-12.12,4.39-18.24,6.39-12.27,3.95-24.75,7.24-37.34,9.95l-1.46.29h3.92c11.84-2.67,23.56-5.84,35.09-9.61,6.12-2,12.22-4.15,18.24-6.49l4.52-1.74,4.48-1.83c3-1.21,6-2.46,8.94-3.7,23.8-9.94,47.74-19.57,72-28.3l9.11-3.24,1.46-.51.22,0c20-7,40.13-13.4,60.51-19.06l2.41-.68q9.27-2.5,18.61-4.77v-1.27q-9.46,2.34-18.88,4.91C556.24,438.27,534.62,445.21,513.24,452.77Z"/><path class="cls-2" d="M584.86,426c-3.14.77-6.28,1.5-9.4,2.36-25,6.53-49.67,14.24-74.06,22.75l-.66.24.93.09-.19.07-9.11,3.27c-3,1.1-6.09,2.16-9.1,3.31l-9.07,3.39-4.54,1.69-4.52,1.74-9,3.48c-3,1.16-6,2.38-9,3.56l-9,3.58-9,3.65c-3,1.22-6,2.45-9,3.63l-4.49,1.8-4.53,1.7c-1.51.55-3,1.15-4.54,1.67L402,489.52l-2.28.79-2.3.75-4.61,1.49a377.36,377.36,0,0,1-37.44,9.68A383.15,383.15,0,0,1,312,508.5h9.69c11.38-1.34,22.7-3.14,33.91-5.49A377.41,377.41,0,0,0,393,493.14l4.6-1.51,2.3-.76,2.29-.81,4.57-1.61c1.53-.53,3-1.13,4.54-1.69l4.53-1.71,4.5-1.8c3-1.2,6-2.42,9-3.65,23.88-9.8,47.94-19.16,72.32-27.67l1.23-.42.21,0c22-7.63,44.29-14.59,66.8-20.61,1.94-.51,3.88-1,5.81-1.53,3.11-.85,6.26-1.56,9.39-2.33l9.41-2.26,2.5-.55v-1.2l-2.73.6Z"/><path class="cls-2" d="M593.91,419.39l-2.36.53-9.47,2.15c-1.57.37-3.15.69-4.72,1.09l-4.71,1.18c-25.11,6.2-49.93,13.57-74.41,21.89-3.87,1.31-7.71,2.68-11.57,4l1,.06q-31.29,11-62.07,23.38-4.49,1.8-9,3.58l-4.51,1.77-4.55,1.67c-1.52.54-3,1.13-4.56,1.64l-4.58,1.56-2.29.78-2.31.73-4.62,1.46a365.06,365.06,0,0,1-37.56,9.43c-3.16.66-6.35,1.18-9.53,1.74-1.58.3-3.18.51-4.78.77s-3.19.5-4.78.72l-4.8.64-2.4.31-2.41.27-4.81.54-4.82.44c-12.86,1.17-25.78,1.61-38.69,1.51-1.61,0-3.22,0-4.84-.08s-3.23-.06-4.84-.12c-3.22-.13-6.45-.22-9.67-.42-6.45-.32-12.89-.85-19.31-1.43q-19.29-1.85-38.41-5c-25.51-4.1-50.75-9.69-75.91-15.6S71.39,468.57,46,463.41q-9.51-1.94-19.07-3.62T7.8,456.74c-1.59-.23-3.2-.42-4.8-.63v1.33c14.34,1.89,28.6,4.41,42.77,7.29,25.31,5.16,50.4,11.4,75.58,17.25s50.46,11.43,76,15.5q19.17,3.07,38.5,4.89c6.45.55,12.9,1.06,19.36,1.35,3.23.19,6.47.27,9.7.39,1.62.06,3.24.07,4.85.1s3.24.07,4.85.06c12.94.05,25.89-.43,38.77-1.66l4.83-.46,4.83-.55,2.41-.28,2.4-.33,4.81-.65c1.6-.23,3.19-.5,4.79-.74s3.2-.49,4.79-.79c3.18-.58,6.37-1.11,9.54-1.78a365.69,365.69,0,0,0,37.59-9.59L394,486l2.31-.74,2.3-.79,4.58-1.59c1.53-.51,3-1.11,4.56-1.66l4.55-1.68,4.51-1.77c3-1.18,6-2.39,9-3.59,20.78-8.39,41.73-16.38,62.9-23.75l.33,0c3.16-1.1,6.32-2.22,9.49-3.3,22.91-7.75,46.11-14.66,69.56-20.57l4.76-1.19,4.71-1.16c1.56-.39,3.15-.71,4.72-1.07l9.46-2.12,2.36-.53,2.37-.48.52-.1v-1.14l-.71.15Z"/><path class="cls-2" d="M565,421.4l-2.37.55-2.36.6-9.41,2.39-4.71,1.2-4.68,1.29L532.07,430c-3.12.87-6.22,1.82-9.33,2.73s-6.22,1.81-9.31,2.77l-9.27,2.92-4.63,1.45c-1.55.49-3.07,1-4.61,1.52q-12,4-23.94,8.18l1.13,0Q446.86,458.5,422,468.35q-4.51,1.78-9.05,3.53c-1.51.57-3,1.17-4.53,1.73l-4.56,1.65c-3,1.13-6.12,2.12-9.18,3.15l-2.3.77-2.32.72-4.64,1.43a358.78,358.78,0,0,1-37.7,9.16c-6.35,1.22-12.75,2.17-19.16,3.05s-12.85,1.52-19.3,2-12.91.78-19.37,1c-3.24,0-6.47.13-9.7.08l-4.85,0-4.85-.12-2.43-.07-2.42-.1-4.84-.21-4.85-.3-2.42-.15-2.41-.19-4.84-.38-4.83-.46c-1.61-.14-3.21-.31-4.82-.5l-4.82-.54q-19.26-2.34-38.33-6c-25.42-4.87-50.51-11.29-75.52-18s-50-13.61-75.28-19.28C30,447.38,17.29,444.88,4.47,443L3,442.74v1.19c13.22,2,26.36,4.53,39.4,7.45,25.25,5.67,50.19,12.64,75.23,19.28s50.15,13.06,75.62,17.9q19.09,3.65,38.42,6l4.83.53c1.61.17,3.22.34,4.84.48l4.84.44,4.84.37,2.43.18,2.42.14,4.86.28,4.86.2,2.42.1,2.43.05,4.86.11h4.86c3.25,0,6.49-.07,9.73-.11,6.47-.2,12.95-.48,19.41-1s12.91-1.22,19.34-2,12.82-1.88,19.18-3.13a356.85,356.85,0,0,0,37.73-9.3c6.19-1.91,12.35-3.92,18.43-6.14l4.57-1.65c1.52-.57,3-1.17,4.54-1.75,3-1.16,6-2.35,9-3.54q25.28-10,50.93-19.08h.24q10.9-3.82,21.89-7.43c1.54-.5,3.06-1,4.61-1.51l4.63-1.45,9.26-2.9c3.09-1,6.21-1.84,9.31-2.76s6.2-1.86,9.32-2.71l9.36-2.57,4.68-1.28c1.56-.42,3.14-.8,4.7-1.2l9.41-2.38,2.35-.59,2.37-.55,3-.68,1.72-.4q13.51-3.11,27.12-5.72v-1.06q-13.71,2.67-27.3,5.83Z"/><path class="cls-2" d="M585.68,412.27l-4.78.92-2.39.46c-.8.15-1.59.34-2.38.5l-9.52,2.06-4.77,1-4.73,1.13-9.48,2.25c-1.58.37-3.14.79-4.71,1.2L538.2,423c-3.14.83-6.29,1.61-9.42,2.48l-9.37,2.63-4.69,1.32c-1.56.43-3.11.92-4.67,1.38-6.21,1.89-12.45,3.7-18.61,5.73q-18.79,6-37.34,12.63l1.09,0q-18.63,6.63-37.05,13.82l-9.09,3.48c-1.52.56-3,1.17-4.56,1.7l-4.58,1.63c-6.12,2.15-12.3,4.11-18.52,5.95a350.72,350.72,0,0,1-37.86,8.88c-6.38,1.17-12.81,2.06-19.24,2.87-1.61.19-3.22.35-4.83.52s-3.22.37-4.84.49c-3.23.26-6.46.56-9.69.73-6.47.44-13,.58-19.44.67l-4.86,0H278.2l-2.43-.06-4.86-.12-4.86-.22-2.42-.11-2.43-.15-4.85-.31-4.85-.41-2.42-.2-2.42-.24-4.84-.5-4.82-.57-2.42-.29-2.41-.33-4.81-.66q-19.25-2.85-38.23-7.12C163.8,473,138.88,465.72,114,458.22s-49.68-15.14-74.92-21.31c-3.15-.79-6.32-1.5-9.48-2.24s-6.34-1.42-9.52-2.05-6.37-1.27-9.56-1.89c-2.52-.44-5-.88-7.56-1.3v1.05c2.46.41,4.91.85,7.37,1.28,3.18.62,6.36,1.2,9.54,1.88s6.33,1.36,9.5,2.06,6.32,1.45,9.46,2.24c25.2,6.16,50,13.86,74.86,21.31s49.82,14.72,75.19,20.34q19,4.25,38.31,7.07l4.83.65,2.41.32,2.42.28,4.84.57,4.85.48,2.42.24,2.43.19,4.86.39,4.86.3,2.43.15,2.44.1,4.86.2,4.87.11,2.44.05h7.31c6.49-.11,13-.27,19.47-.73,3.24-.18,6.47-.49,9.71-.76,1.62-.12,3.23-.33,4.85-.5s3.23-.34,4.84-.54c6.44-.83,12.87-1.74,19.26-2.93a348.7,348.7,0,0,0,37.88-9c6.22-1.86,12.41-3.84,18.53-6l4.58-1.63c1.54-.53,3-1.15,4.56-1.72l9.09-3.49q18.81-7.35,37.85-14.14h.21q17.58-6.23,35.35-11.89c6.17-2,12.4-3.82,18.61-5.69,1.55-.46,3.1-1,4.66-1.39l4.69-1.31,9.36-2.62c3.13-.86,6.28-1.64,9.42-2.46l4.71-1.22c1.57-.4,3.13-.83,4.71-1.19l9.47-2.24,4.74-1.12,4.75-1,.09,0q15-3.24,30.11-5.89v-1l-1.75.3C592.05,411,588.87,411.67,585.68,412.27Z"/><path class="cls-2" d="M558.6,413.07l-4.76,1.06-4.77,1.06c-1.59.36-3.18.69-4.76,1.09l-9.48,2.33-4.75,1.16c-1.58.39-3.15.83-4.72,1.24-6.29,1.69-12.59,3.31-18.83,5.17l-9.39,2.7c-3.11.93-6.22,1.91-9.33,2.86q-26,8-51.5,17.38h1q-11.66,4.23-23.22,8.66c-6.09,2.3-12.17,4.62-18.33,6.7l-2.3.81-2.33.74-4.64,1.49c-1.54.52-3.11,1-4.67,1.43l-4.68,1.38a348.45,348.45,0,0,1-38,8.61c-1.6.26-3.2.55-4.81.78l-4.83.69-2.42.34-2.42.29-4.84.57c-1.62.18-3.24.31-4.85.47s-3.24.33-4.86.42c-3.25.22-6.49.49-9.74.6-1.62.08-3.24.17-4.87.22l-4.87.11-2.44.05h-7.31l-4.88-.11-2.43-.05-2.44-.11-4.87-.21-4.87-.31-2.43-.16c-.81-.06-1.62-.14-2.43-.21l-4.86-.42-4.85-.5-2.42-.26-2.42-.31-4.84-.6-4.82-.7-2.42-.35-2.4-.39L222.7,478c-6.41-1.14-12.79-2.35-19.14-3.74s-12.69-2.87-19-4.5c-25.2-6.45-49.93-14.62-74.59-22.92s-49.35-16.67-74.54-23.33c-10.72-2.82-21.53-5.29-32.44-7.29v.91c10.82,2,21.56,4.45,32.21,7.27C60.36,431,85,439.47,109.68,447.72s49.44,16.41,74.69,22.84c12.62,3.23,25.36,6,38.19,8.2l4.83.78,2.41.39,2.42.34,4.83.69,4.85.6,2.43.29,2.43.26,4.86.5,4.86.41c.82.06,1.63.14,2.44.19l2.44.16,4.87.3,4.88.2,2.45.1,2.44,0,4.88.09h7.33l2.44,0,4.88-.13c1.63-.06,3.26-.15,4.88-.22,3.26-.13,6.5-.4,9.75-.63,1.63-.1,3.24-.29,4.87-.44s3.24-.29,4.86-.48l4.85-.58,2.42-.29,2.42-.35,4.83-.71c1.61-.23,3.21-.53,4.82-.79a346.61,346.61,0,0,0,38.07-8.69l4.68-1.39c1.56-.47,3.13-.92,4.67-1.43l4.65-1.51,2.32-.75,2.3-.8c6.17-2.1,12.25-4.44,18.33-6.75q12-4.61,24-9h.14Q463,440.21,488,432.47c3.11-1,6.21-1.93,9.33-2.85l9.38-2.7c6.24-1.85,12.54-3.45,18.82-5.14,1.57-.41,3.14-.85,4.72-1.24l4.74-1.15,9.48-2.32c1.57-.4,3.17-.72,4.75-1.08l4.77-1.06,4.76-1.05,1.84-.41,1.33-.28c.53-.12,1.06-.23,1.6-.33q3.75-.78,7.51-1.51,12.93-2.5,25.94-4.54v-.91q-16.87,2.67-33.62,6.14C561.78,412.34,560.19,412.72,558.6,413.07Z"/><path class="cls-2" d="M589,402.77l-9.68,1.53c-1.61.24-3.21.57-4.82.85l-4.82.89-4.82.88c-1.61.3-3.22.57-4.81.92-25.63,5.1-51,11.56-76,19.06-22.33,6.7-44.4,14.23-66.23,22.38h1q-4.42,1.64-8.83,3.31L400.77,456c-1.52.59-3.07,1.11-4.61,1.63l-4.64,1.59c-1.53.54-3.1,1-4.65,1.51l-4.67,1.47c-3.12,1-6.26,1.83-9.39,2.75a346.78,346.78,0,0,1-38.24,8.3c-1.62.24-3.22.53-4.84.74l-4.85.64-2.43.31-2.43.26-4.87.52c-1.62.16-3.25.27-4.87.41s-3.25.29-4.88.36c-3.26.18-6.51.4-9.77.47-1.64.05-3.27.11-4.9.14l-4.89,0-2.45,0-2.44,0-4.89-.09-4.89-.2-2.45-.09-2.44-.16-4.88-.31-4.87-.41-2.44-.21-2.43-.26-4.87-.52-4.85-.63-2.43-.31-2.42-.37-4.83-.73-4.83-.82c-1.61-.26-3.21-.56-4.81-.87s-3.21-.6-4.8-.92q-9.6-1.95-19.1-4.3c-6.32-1.6-12.63-3.26-18.89-5.1-25.08-7.28-49.59-16.33-74.06-25.44s-49-18.21-74.14-25.33q-9.45-2.65-19-4.9Q7.83,404,3,403v.77c3.17.65,6.32,1.33,9.47,2.06q9.52,2.25,19,4.9C56.54,417.85,81,427,105.5,436.07s49,18.12,74.13,25.38c6.27,1.84,12.59,3.5,18.93,5.1s12.72,3,19.13,4.27c1.6.32,3.21.61,4.81.91s3.21.61,4.83.87l4.83.81,4.85.72,2.42.36,2.43.31,4.86.62,4.88.51,2.43.26,2.44.2,4.89.4,4.89.31,2.45.14,2.45.1,4.89.18,4.9.08,2.45,0h2.45l4.9-.05c1.64,0,3.27-.1,4.9-.15,3.27-.07,6.53-.31,9.79-.49,1.63-.07,3.26-.25,4.89-.37s3.25-.26,4.88-.42l4.87-.53,2.43-.26,2.43-.33,4.86-.65c1.62-.21,3.23-.5,4.84-.75a347,347,0,0,0,38.27-8.36c3.13-.93,6.28-1.8,9.4-2.77L387,461c1.56-.5,3.12-1,4.66-1.52l4.63-1.59c1.55-.53,3.09-1,4.62-1.63l9.18-3.42q4.77-1.82,9.55-3.59h.08c21.28-7.9,42.79-15.19,64.54-21.69,25-7.48,50.34-13.9,75.94-19,1.6-.35,3.21-.62,4.81-.92l4.82-.88,4.81-.88c.62-.1,1.24-.22,1.85-.33s1.31-.23,2-.34l1-.17.32-.05,9.32-1.47,4.84-.76c1-.15,2.05-.28,3.08-.42h0v-.8c-1.06.14-2.12.27-3.18.43Z"/><path class="cls-2" d="M585.67,398.8l-4.87.69c-1.62.23-3.25.46-4.86.75l-9.7,1.62-4.85.82-4.83.92c-25.77,4.85-51.28,11.1-76.45,18.45s-50,15.8-74.55,25.06c-2.32.87-4.67,1.71-7,2.55l1,0c-10.3,3.71-20.73,7.07-31.31,9.9a340.39,340.39,0,0,1-38.46,8c-6.47,1-13,1.67-19.51,2.27-1.63.13-3.27.23-4.9.34s-3.27.25-4.91.3c-3.27.13-6.54.31-9.81.33-6.55.16-13.1,0-19.65-.27l-4.9-.29-2.45-.14-2.45-.21-4.89-.4-4.89-.53c-26-2.88-51.64-9.07-76.53-17.21s-49.2-18.07-73.46-28S52.82,404,27.68,396.43c-6.27-1.91-12.61-3.61-19-5.17-1.89-.47-3.8-.91-5.7-1.34v.61c1.86.42,3.71.85,5.56,1.31,6.36,1.56,12.69,3.26,19,5.16,25.1,7.53,49.44,17.38,73.7,27.26s48.55,19.86,73.5,28c6.24,2,12.52,3.92,18.83,5.72s12.66,3.4,19.06,4.85,12.82,2.78,19.29,3.85l2.43.41c.8.14,1.62.25,2.43.38l4.86.73,4.88.63,2.44.32,2.44.26,4.89.51,4.91.4,2.45.2,2.45.14,4.91.28c6.56.24,13.12.41,19.67.24,3.28,0,6.56-.21,9.83-.35,1.64-.05,3.28-.2,4.91-.31s3.27-.21,4.91-.35c6.53-.6,13.05-1.29,19.53-2.3a341.54,341.54,0,0,0,38.49-8c10.81-2.91,21.47-6.38,32-10.2h0c1.81-.65,3.63-1.3,5.43-2,24.52-9.24,49.36-17.66,74.52-25s50.65-13.54,76.4-18.36l4.82-.93,4.85-.8,9.69-1.62c1.62-.29,3.23-.51,4.86-.74l4.86-.69c3.25-.44,6.48-.94,9.73-1.35L597,398h0v-.74l-1.59.18C592.16,397.85,588.92,398.35,585.67,398.8Z"/><path class="cls-2" d="M553,399.3a773.27,773.27,0,0,0-76.92,17.88c-25.33,7.2-50.3,15.63-75,24.81q-12.34,4.59-25,8.35l1.2,0a342.37,342.37,0,0,1-52.47,11.55c-3.25.49-6.53.8-9.8,1.18-1.63.2-3.27.31-4.91.45l-4.92.41c-6.56.4-13.13.72-19.71.69s-13.16-.23-19.72-.61c-3.28-.27-6.56-.46-9.83-.84-1.64-.17-3.28-.32-4.91-.51l-4.89-.63c-1.64-.19-3.26-.45-4.89-.7s-3.25-.47-4.87-.76c-3.24-.57-6.48-1.11-9.7-1.79-6.46-1.25-12.86-2.77-19.23-4.41l-4.77-1.27-4.74-1.35-2.37-.68-2.36-.72c-1.57-.48-3.15-.94-4.72-1.44q-9.41-3-18.68-6.35C145,433.54,121,422.66,97,412s-48.22-21.26-73.35-29.22c-6.28-2-12.6-3.83-19-5.42L3,376.9v.48l1.54.37c6.38,1.59,12.7,3.44,19,5.41,25.1,7.95,49.27,18.5,73.31,29.19s48.05,21.59,72.82,30.57q9.29,3.34,18.7,6.35c1.57.5,3.15,1,4.73,1.45l2.36.71,2.37.68,4.75,1.35,4.78,1.26c6.38,1.64,12.79,3.15,19.25,4.4,3.23.67,6.48,1.21,9.72,1.78,1.62.28,3.25.5,4.88.76s3.26.5,4.89.69l4.9.62c1.64.19,3.27.33,4.91.51,3.27.37,6.56.55,9.85.82,6.57.38,13.15.65,19.74.58s13.16-.3,19.73-.71l4.93-.41c1.64-.15,3.28-.26,4.91-.47,3.27-.37,6.55-.69,9.81-1.19A348.77,348.77,0,0,0,387,447.43l3.58-1.18,2.42-.84c2.75-1,5.5-1.92,8.23-2.93,24.67-9.16,49.63-17.56,75-24.74a772.2,772.2,0,0,1,76.88-17.81q21.84-3.85,43.9-6.29V393Q574.89,395.39,553,399.3Z"/><path class="cls-2" d="M594.07,485c-1.7.85-3.4,1.69-5.09,2.55-11.71,5.91-23.33,12-34.9,18.18l-5.24,2.81h2.61l3.22-1.69q17.45-9.07,35.07-17.77c2.42-1.19,4.84-2.36,7.26-3.53v-2.19l-3.11,1.54Z"/><path class="cls-2" d="M585.42,480l.24.13c-19.15,9.08-38,18.68-56.85,28.39h2.25q11.93-6.08,23.92-12c11.74-5.77,23.54-11.41,35.43-16.83,2.19-1,4.39-2,6.59-3v-2.05c-2.43,1.1-4.86,2.2-7.29,3.33C588.28,478.63,586.85,479.31,585.42,480Z"/><path class="cls-2" d="M576.09,475l.27.14Q565.61,480,555,485q-8.85,4.2-17.65,8.5t-17.56,8.69q-6.27,3.12-12.53,6.28h2q5.48-2.75,11-5.47c23.4-11.57,47-22.72,71.09-32.79,1.92-.8,3.84-1.58,5.76-2.37V466q-3.19,1.32-6.37,2.67C585.76,470.7,580.92,472.83,576.09,475Z"/><path class="cls-2" d="M55,502.6c-12.78-1.77-25.58-3.42-38.42-4.76-4.53-.48-9.07-.9-13.61-1.29v1.7c17.31,1.51,34.57,3.67,51.79,6.06,9.61,1.34,19.2,2.76,28.79,4.19h12l-2.24-.33C80.57,506.27,67.81,504.37,55,502.6Z"/><path class="cls-2" d="M90.4,496.11c-12.71-2.24-25.42-4.46-38.17-6.5s-25.52-3.9-38.35-5.41Q8.45,483.57,3,483v1.55c16.39,1.66,32.71,4,49,6.61,25.46,4.09,50.81,8.9,76.26,13.2q12.62,2.14,25.28,4.12h10.25q-17.67-2.64-35.26-5.7C115.8,500.61,103.1,498.34,90.4,496.11Z"/><path class="cls-2" d="M125.19,491.75,87.26,484c-12.65-2.58-25.32-5.11-38-7.42q-9.52-1.73-19.1-3.27c-6.38-1-12.77-2-19.18-2.79-2.65-.34-5.3-.65-7.95-1V471c15.39,1.78,30.72,4.23,46,7,25.38,4.63,50.6,10.16,75.92,15.23s50.74,9.81,76.37,13.14q9.15,1.2,18.33,2.13H234.2q-16.42-1.31-32.76-3.48C175.86,501.65,150.48,496.89,125.19,491.75Z"/><path class="cls-2" d="M585.39,508.5H589q4-2.24,8-4.45v-2.16c-3,1.68-6,3.35-8.91,5.05Z"/><path class="cls-2" d="M567.7,508.5h3.22q9.15-4.94,18.36-9.77c2.57-1.35,5.14-2.68,7.72-4v-2.18c-2.86,1.52-5.72,3.06-8.57,4.59Q578,502.75,567.7,508.5Z"/></svg>