<svg id="Layer_1" data-name="Layer 1" xmlns="http://www.w3.org/2000/svg" viewBox="0 0 600 600"><defs><style>.cls-1{fill:#011e41;}.cls-2{fill:#75cae8;}</style></defs><title>Graphic_Language_Portrait_Pattern2</title><rect class="cls-1" x="94.95" y="8.5" width="410.1" height="580"/><path class="cls-2" d="M505.05,588.5v-1.91l-2.57,1.91Z"/><path class="cls-2" d="M500.44,588.5c1.53-1.14,3.06-2.26,4.61-3.37v-1.91q-3.69,2.58-7.28,5.28Z"/><path class="cls-2" d="M495.58,588.5c3.12-2.31,6.27-4.58,9.47-6.76v-1.8c-4.11,2.74-8.11,5.62-12.07,8.56Z"/><path class="cls-2" d="M489.81,587.24l-1.69,1.26h2.51l.07,0c4.12-3,8.29-6,12.55-8.83l1.8-1.17v-1.7c-.87.55-1.73,1.11-2.59,1.67C498.16,581.24,494,584.21,489.81,587.24Z"/><path class="cls-2" d="M486.56,586c-1.14.82-2.27,1.66-3.4,2.49h2.45l1.79-1.32c4.16-3,8.34-5.95,12.63-8.75,1.66-1.09,3.33-2.14,5-3.18v-1.59c-1.95,1.17-3.87,2.37-5.78,3.61C495,580.07,490.73,583,486.56,586Z"/><path class="cls-2" d="M483.68,584.48c-1.88,1.33-3.74,2.67-5.6,4h2.4c1.33-1,2.66-1.93,4-2.88,4.17-3,8.39-5.87,12.69-8.64,2.59-1.66,5.22-3.28,7.88-4.83v-1.49q-4.37,2.49-8.6,5.2C492.12,578.63,487.87,581.52,483.68,584.48Z"/><path class="cls-2" d="M480.91,582.85q-4,2.79-8,5.65h2.31c2.13-1.53,4.28-3,6.43-4.55a261.26,261.26,0,0,1,23.38-14.79v-1.4c-3.85,2.07-7.61,4.28-11.31,6.6C489.39,577.08,485.12,579.93,480.91,582.85Z"/><path class="cls-2" d="M478.28,581.11c-3.57,2.42-7.11,4.9-10.62,7.39h2.25c3-2.14,6-4.26,9.09-6.33a253.36,253.36,0,0,1,26.05-15.93v-1.3l-.46.22A253,253,0,0,0,478.28,581.11Z"/><path class="cls-2" d="M475.8,579.24c-4.27,2.83-8.49,5.73-12.69,8.66l-.85.6h2.19c4-2.79,8-5.55,12-8.24a259.77,259.77,0,0,1,26.28-15.71l2.29-1.12V562.2c-.93.44-1.87.89-2.79,1.35A259.66,259.66,0,0,0,475.8,579.24Z"/><path class="cls-2" d="M501.86,561l-1.74.84a263.77,263.77,0,0,0-26.62,15.42c-4.3,2.79-8.55,5.65-12.78,8.54-1.32.89-2.64,1.8-4,2.7h2.09l2.52-1.74c4.22-2.89,8.46-5.75,12.75-8.54a261.8,261.8,0,0,1,26.46-15.43l1.72-.84,1.74-.8,1-.46v-1.16l-1.44.66Z"/><path class="cls-2" d="M501.68,558.41l-1.76.79-1.74.83a264.42,264.42,0,0,0-26.81,15.13q-6.51,4.11-12.89,8.4c-2.14,1.41-4.25,2.87-6.39,4.27l-1,.67h2.07c2-1.33,4-2.68,6-4,4.26-2.85,8.53-5.67,12.85-8.42a262.59,262.59,0,0,1,26.67-15.13l1.73-.83,1.74-.79c.59-.26,1.16-.53,1.75-.78l1.21-.51V557l-1.6.67Z"/><path class="cls-2" d="M501.72,555.78c-.6.24-1.19.51-1.78.76l-1.77.78-1.75.81a264.14,264.14,0,0,0-27,14.82c-4.37,2.69-8.7,5.46-13,8.27-2.15,1.39-4.28,2.83-6.44,4.21l-4.8,3.07h2l3.38-2.17c2.15-1.39,4.27-2.82,6.42-4.22,4.29-2.81,8.6-5.59,13-8.28A263.53,263.53,0,0,1,496.83,559l1.74-.81,1.75-.77c.59-.26,1.17-.53,1.76-.77l1.78-.73,1.19-.47v-1c-.52.19-1,.39-1.55.61Z"/><path class="cls-2" d="M502.86,552.79l-.9.36c-1.2.48-2.4.94-3.58,1.45s-2.37,1-3.54,1.55a262.08,262.08,0,0,0-27.25,14.5c-4.42,2.64-8.78,5.37-13.12,8.13l-6.5,4.16L441.45,587c-.85.51-1.7,1-2.55,1.49H441l1-.6,6.54-4.1,6.48-4.17q6.5-4.15,13.08-8.14A263.41,263.41,0,0,1,495.21,557c1.16-.54,2.34-1,3.52-1.54s2.37-1,3.56-1.46l.89-.36.9-.32,1-.35V552l-1.28.45Z"/><path class="cls-2" d="M502.4,550.53c-.61.21-1.22.42-1.82.66-2.41.92-4.81,1.89-7.17,2.91a266.42,266.42,0,0,0-27.5,14.18c-4.45,2.59-8.86,5.27-13.24,8l-6.55,4.1-6.58,4q-3.6,2.11-7.26,4.12h2.06c1.91-1.07,3.82-2.15,5.7-3.27l6.6-4,6.54-4.11c4.36-2.73,8.76-5.41,13.2-8a262.56,262.56,0,0,1,27.37-14.18q3.53-1.54,7.13-2.92c.6-.24,1.21-.44,1.81-.66l1.81-.63.55-.2v-.88l-.82.28Z"/><path class="cls-2" d="M503,547.93l-3.67,1.25-3.64,1.38L492.12,552a266.6,266.6,0,0,0-27.75,13.83c-4.5,2.54-8.95,5.17-13.37,7.85q-3.31,2-6.6,4l-6.65,4q-6.19,3.57-12.57,6.81h2.08q5.55-2.88,11-6l6.66-4c2.19-1.36,4.39-2.72,6.59-4.06,4.41-2.68,8.84-5.31,13.33-7.86a265.82,265.82,0,0,1,27.63-13.84L496,551.3l3.61-1.37,3.65-1.25c.59-.2,1.18-.42,1.78-.59v-.82l-.18.05C504.24,547.5,503.64,547.73,503,547.93Z"/><path class="cls-2" d="M501.94,545.93l-3.69,1.23c-.62.2-1.23.43-1.83.65l-1.83.67c-1.22.45-2.42.94-3.63,1.41a266,266,0,0,0-28,13.48c-4.55,2.49-9,5.06-13.51,7.69q-3.35,2-6.67,4c-2.22,1.32-4.46,2.6-6.7,3.9l-1.68,1-.84.48c-.27.17-.56.31-.85.46l-3.43,1.81c-2.29,1.19-4.55,2.44-6.9,3.51l-3.5,1.67-1.36.65h2.06l3.19-1.52c2.36-1.07,4.63-2.33,6.93-3.53l3.44-1.82.85-.46.84-.49,1.69-1c2.23-1.31,4.48-2.6,6.71-3.92s4.43-2.68,6.65-4c4.46-2.63,8.94-5.21,13.47-7.7a263.5,263.5,0,0,1,27.91-13.49c4.52-1.82,9.12-3.46,13.8-4.82V545l-1.24.36C503.18,545.55,502.56,545.72,501.94,545.93Z"/><path class="cls-2" d="M501,543.91l-3.71,1.2c-.62.21-1.25.39-1.86.62l-1.84.66c-1.22.42-2.43.89-3.65,1.36a264.61,264.61,0,0,0-28.29,13.11q-6.9,3.64-13.65,7.54-3.37,1.94-6.73,3.92c-1.12.67-2.25,1.3-3.38,1.94l-3.38,1.91-3.39,1.91-3.46,1.77-3.46,1.76-1.73.89-1.77.81-7.07,3.24-4.78,2H411l2.94-1.19,7.1-3.24c.59-.28,1.19-.54,1.77-.82l1.74-.89,3.47-1.78,3.47-1.77,3.4-1.93,3.39-1.92c1.13-.64,2.27-1.28,3.38-2q3.34-2,6.72-3.92,6.75-3.89,13.61-7.56a264,264,0,0,1,28.19-13.11c1.21-.47,2.41-.94,3.64-1.37l1.83-.66c.6-.22,1.22-.41,1.84-.61l3.69-1.2,3.74-1.07.13,0v-.7l-.31.08Z"/><path class="cls-2" d="M500.13,541.9l-.95.26-.93.3-1.87.59c-1.24.39-2.49.77-3.72,1.22s-2.47.85-3.68,1.31a265.44,265.44,0,0,0-28.58,12.74c-4.64,2.37-9.23,4.85-13.79,7.38s-9.05,5.18-13.6,7.71-9.21,4.83-13.92,7-9.53,4.18-14.39,6q-2.82,1.06-5.67,2h2.28a213,213,0,0,0,32.07-14.43c4.57-2.54,9-5.19,13.59-7.72s9.13-5,13.76-7.39a262.89,262.89,0,0,1,28.48-12.75c1.21-.47,2.44-.89,3.67-1.32s2.46-.83,3.7-1.22l1.86-.59.93-.29.94-.27,3.76-1c.32-.09.65-.16,1-.24v-.65l-1.14.28Z"/><path class="cls-2" d="M502.21,539.11l-.95.26-1.89.51-1.9.51c-.63.18-1.25.39-1.88.58-1.25.39-2.5.76-3.75,1.17s-2.48.83-3.72,1.27a265,265,0,0,0-28.86,12.36q-7,3.48-13.94,7.22l-3.44,1.88-3.44,1.9c-2.27,1.29-4.56,2.55-6.85,3.81-4.6,2.46-9.28,4.79-14,6.95s-9.6,4.1-14.51,5.89-9.89,3.35-14.92,4.75l-1.26.33h2.58c4.66-1.31,9.29-2.76,13.84-4.42q7.38-2.69,14.56-5.9c4.78-2.15,9.46-4.51,14.07-7,2.3-1.27,4.59-2.53,6.86-3.82l3.43-1.91,3.44-1.88q6.89-3.74,13.91-7.23A263.69,263.69,0,0,1,488.33,544l3.7-1.27c1.24-.41,2.49-.78,3.74-1.18.62-.18,1.24-.39,1.87-.57l1.88-.51,1.89-.52.95-.25c.31-.09.63-.16.95-.23l1.74-.41v-.59l-1.88.43Z"/><path class="cls-2" d="M502.51,536.91l-1.92.44-1.91.5-1.91.5c-.63.17-1.27.33-1.89.53L491.1,540c-1.26.38-2.5.82-3.75,1.23a266.73,266.73,0,0,0-29.15,12q-7.12,3.38-14.1,7-3.48,1.83-7,3.71l-3.46,1.89-3.46,1.86a207.91,207.91,0,0,1-28.76,12.65,192.08,192.08,0,0,1-28.32,7.51l-.69-.06-1.11.2c-1,.17-1.91.32-2.86.47h6.42l1.59-.31-1.14-.1a194.89,194.89,0,0,0,26.33-7.1,205.15,205.15,0,0,0,28.85-12.69l3.47-1.87,3.45-1.89q3.45-1.89,6.94-3.71,7-3.66,14.06-7.06a268.43,268.43,0,0,1,29.07-12c1.24-.4,2.48-.84,3.74-1.22l3.76-1.14c.62-.2,1.26-.35,1.89-.52l1.9-.51,1.9-.5,1.92-.44,1.91-.45.5-.1v-.55l-.61.13Z"/><path class="cls-2" d="M471,544.73c-11.09,4.44-21.88,9.57-32.47,15.07-5.31,2.72-10.49,5.67-15.88,8.22s-10.83,4.94-16.4,7.05-11.24,4-17,5.52-11.57,2.84-17.44,3.84c-3.61.62-7.23,1.11-10.86,1.52l-.62-.12a209.66,209.66,0,0,1-23.77,1.22,287.09,287.09,0,0,1-35.63-2.5c-11.82-1.51-23.57-3.55-35.27-5.86-23.39-4.62-46.64-10-70.08-14.49a593.65,593.65,0,0,0-70.89-9.64c-6-.46-11.94-.6-17.91-.59q-5.77,0-11.56.3v.18H95v.43h.32v.2a255.53,255.53,0,0,1,29.42.14q8.92.59,17.82,1.47t17.76,2.11c5.9.79,11.79,1.71,17.68,2.68s11.75,2,17.61,3.13c11.71,2.22,23.39,4.65,35,7.17s23.32,5.06,35,7.39,23.44,4.46,35.28,6a288,288,0,0,0,35.7,2.71,209.65,209.65,0,0,0,27-1.44l-.85-.17q4.63-.55,9.23-1.33,8.83-1.49,17.5-3.83c5.76-1.56,11.45-3.42,17-5.52s11.08-4.47,16.46-7.07,10.58-5.53,15.88-8.25c10.57-5.51,21.34-10.64,32.4-15.08,5.53-2.22,11.13-4.27,16.8-6.07a170,170,0,0,1,17-4.39v-.49a163.62,163.62,0,0,0-17.17,4.39C482.18,540.47,476.57,542.51,471,544.73Z"/><path class="cls-2" d="M487,536.58c-5.76,1.73-11.43,3.72-17,5.87-11.21,4.32-22.15,9.32-32.88,14.72-2.68,1.34-5.34,2.72-8,4.11l-4,2-1,.51-1,.48-2,1c-5.42,2.55-10.94,4.89-16.57,7a180.39,180.39,0,0,1-34.77,8.91,193.67,193.67,0,0,1-19.55,1.93l-.57-.18q-7.69.35-15.4.14a288.05,288.05,0,0,1-35.77-3.42c-11.85-1.83-23.62-4.18-35.33-6.79-23.43-5.21-46.7-11.11-70.23-15.9s-47.32-8.44-71.3-9.9c-6-.4-12-.54-18-.47q-4.14,0-8.28.22V547H95v.38h.32v.2a252.76,252.76,0,0,1,26.26.12q9,.52,17.93,1.41t17.87,2.13c5.94.81,11.86,1.77,17.77,2.79s11.81,2.14,17.69,3.33c11.76,2.38,23.47,5,35.15,7.77s23.35,5.57,35.06,8.19,23.47,5.07,35.33,7a287.18,287.18,0,0,0,35.85,3.62c6,.19,12,.15,18-.17l-.66-.2c6.13-.32,12.24-.92,18.31-1.84a179.91,179.91,0,0,0,34.87-8.91q8.47-3.09,16.63-7l2-1,1-.49,1-.51,4-2c2.66-1.38,5.32-2.77,8-4.11,10.71-5.41,21.63-10.41,32.81-14.73,5.59-2.16,11.26-4.15,17-5.88a171.47,171.47,0,0,1,17.45-4.29l.44-.08v-.44l-.52.09A169.05,169.05,0,0,0,487,536.58Z"/><path class="cls-2" d="M469,540.21c-11.34,4.19-22.41,9.07-33.29,14.35-5.44,2.62-10.77,5.48-16.25,8s-11,4.84-16.74,6.84a176,176,0,0,1-35.12,8.47,189.72,189.72,0,0,1-27.27,1.64l-.56-.23q-4,0-8-.24a285.63,285.63,0,0,1-35.91-4.32c-11.88-2.14-23.66-4.82-35.38-7.72s-23.41-6-35.12-8.93-23.45-5.85-35.26-8.4c-23.61-5.1-47.56-8.88-71.72-10.19q-11.57-.63-23.15-.21v.18H95v.34h.32v.2q11.55-.48,23.12.1,9,.48,18.06,1.35c6,.59,12,1.33,18,2.17,1.5.22,3,.42,4.48.65l4.47.71c3,.5,6,1,8.93,1.55q8.91,1.62,17.76,3.52c11.81,2.55,23.55,5.39,35.25,8.39s23.38,6.08,35.1,9,23.49,5.68,35.39,7.88a284.19,284.19,0,0,0,36,4.51q5,.27,10.1.31l-.53-.21a186.75,186.75,0,0,0,26.32-1.59,177.06,177.06,0,0,0,35.22-8.46c5.7-2,11.3-4.31,16.79-6.86s10.81-5.39,16.24-8c10.86-5.3,21.91-10.18,33.23-14.39a203.11,203.11,0,0,1,34.8-9.81l1.11-.18v-.35l-1.17.19A203,203,0,0,0,469,540.21Z"/><path class="cls-2" d="M485.44,532.47q-8.81,2.44-17.41,5.5c-11.48,4-22.69,8.81-33.7,14-5.52,2.57-10.92,5.38-16.45,7.88l-2.08.93-1,.47-1.05.44-4.21,1.74L405.25,565c-1.43.53-2.87,1-4.3,1.52a172.41,172.41,0,0,1-35.46,8.07,188.57,188.57,0,0,1-34.59.74l-.56-.26c-.3,0-.61,0-.91-.06a277.65,277.65,0,0,1-36-5.22c-11.9-2.45-23.69-5.44-35.43-8.63s-23.42-6.54-35.16-9.75-23.49-6.32-35.35-9c-23.7-5.44-47.83-9.33-72.15-10.49q-10-.49-20-.18v.17H95v.3h.32v.19q10-.35,20,.09,9.11.4,18.18,1.29c6.05.57,12.08,1.33,18.1,2.2s12,1.88,18,3,11.92,2.4,17.85,3.75,11.83,2.8,17.72,4.3,11.77,3.08,17.63,4.7c11.72,3.24,23.4,6.61,35.14,9.82s23.51,6.28,35.42,8.78a279.69,279.69,0,0,0,36.1,5.41l2.79.18-.47-.21a188.37,188.37,0,0,0,33.83-.76,172.11,172.11,0,0,0,35.56-8,175.55,175.55,0,0,0,17-6.73c5.54-2.52,10.93-5.33,16.44-7.9,11-5.18,22.19-10,33.65-14,5.73-2,11.52-3.88,17.37-5.51s11.79-2.95,17.78-4c.58-.1,1.17-.18,1.75-.27v-.31l-1.8.27C497.25,529.53,491.31,530.88,485.44,532.47Z"/><path class="cls-2" d="M484.68,530.43c-5.93,1.55-11.79,3.34-17.59,5.31A366.39,366.39,0,0,0,433,549.36q-4.18,1.89-8.33,3.88l-2.07,1-2.08,1-2.08,1-1,.49-1.05.45a179.94,179.94,0,0,1-17.11,6.62,168.16,168.16,0,0,1-35.82,7.65,184.81,184.81,0,0,1-36.66-.09c-1.78-.17-3.55-.37-5.32-.59l-.62-.31A294.16,294.16,0,0,1,290.9,565c-11.93-2.76-23.72-6.06-35.46-9.54-23.48-7-46.82-14.47-70.65-20.25s-48.09-9.81-72.6-10.82c-5.64-.25-11.28-.29-16.92-.15v.17H95v.25h.32v.19c5.63-.16,11.27-.14,16.89.08a331.62,331.62,0,0,1,36.54,3.48c12.11,1.79,24.11,4.27,36,7.13q8.94,2.15,17.79,4.59c2.18.6,4.35,1.22,6.52,1.83q5.43,1.54,10.84,3.14c6.34,1.88,12.68,3.81,19,5.74q8.22,2.5,16.46,5c11.74,3.49,23.52,6.87,35.45,9.68a288.69,288.69,0,0,0,31.73,5.79l-.4-.21c1.52.19,3.05.35,4.58.5a184.66,184.66,0,0,0,36.72.14,168.09,168.09,0,0,0,35.9-7.63,175.43,175.43,0,0,0,17.15-6.62l1.06-.46,1-.48,2.08-1,2.08-1,2.07-1q4.14-2,8.31-3.89A366.79,366.79,0,0,1,467.18,536c5.8-2,11.65-3.76,17.57-5.33s11.91-2.84,17.95-3.81l2.35-.34v-.27c-.8.12-1.59.22-2.39.35C496.61,527.6,490.61,528.88,484.68,530.43Z"/><path class="cls-2" d="M466.16,533.52c-11.74,3.82-23.25,8.31-34.55,13.27-2.83,1.23-5.64,2.51-8.44,3.8s-5.6,2.58-8.41,3.84a184.81,184.81,0,0,1-17.31,6.49,162.91,162.91,0,0,1-36.18,7.24,182.26,182.26,0,0,1-36.92-.8c-4.41-.52-8.81-1.19-13.18-2l-.69-.36c-7.41-1.33-14.77-3-22.06-4.85-11.95-3.07-23.75-6.67-35.49-10.45-23.48-7.56-46.84-15.6-70.76-21.72s-48.38-10.31-73.07-11.18q-6.91-.26-13.83-.13v.17H95v.21h.32v.17q6.9-.15,13.81.09l4.62.18,4.61.26c1.54.08,3.08.23,4.61.34l2.31.18,2.3.22c1.53.16,3.07.28,4.6.47l4.59.53,4.58.62c1.53.19,3,.45,4.58.67q9.13,1.41,18.19,3.31t18,4.2q8.82,2.25,17.56,4.81t17.68,5.4c11.76,3.72,23.46,7.65,35.2,11.44l.09,0,.2.07c11.74,3.78,23.53,7.46,35.48,10.57,7.88,2.05,15.83,3.85,23.86,5.27l-.37-.19c4.16.73,8.34,1.37,12.53,1.87a182.76,182.76,0,0,0,37,.84,162.91,162.91,0,0,0,36.25-7.22,180.58,180.58,0,0,0,17.34-6.49q4.23-1.89,8.42-3.86c2.8-1.29,5.6-2.57,8.43-3.8,11.29-5,22.79-9.46,34.51-13.29A226,226,0,0,1,502.13,525c1-.15,1.94-.27,2.92-.4v-.23c-1,.13-2,.26-3,.41A225.28,225.28,0,0,0,466.16,533.52Z"/><path class="cls-2" d="M465.26,531.35c-11.87,3.69-23.52,8.08-35,12.91q-4.29,1.82-8.55,3.71l-4.25,1.92-4.27,1.87c-5.72,2.41-11.56,4.57-17.49,6.4a159.56,159.56,0,0,1-36.56,6.8A179.14,179.14,0,0,1,322,563.47c-7.72-1.08-15.36-2.59-22.93-4.4l-.93-.47q-6.12-1.49-12.19-3.18c-12-3.37-23.76-7.28-35.5-11.35-23.48-8.15-46.85-16.74-70.87-23.22a359.94,359.94,0,0,0-36.43-8q-9.21-1.51-18.5-2.41c-6.19-.59-12.4-1-18.62-1.19q-5.37-.17-10.75-.09v.16H95v.15h.32v.17c3.58-.05,7.16,0,10.74.06,6.21.15,12.41.56,18.59,1.14s12.35,1.35,18.49,2.35a348.75,348.75,0,0,1,36.41,7.9c3,.8,6,1.63,8.92,2.5,8.87,2.58,17.67,5.4,26.41,8.37,11.78,4,23.48,8.18,35.22,12.27l5.51,1.89c10,3.43,20.08,6.76,30.27,9.66q7,2,14.05,3.69l-.34-.18c7.41,1.76,14.88,3.23,22.42,4.29a178.85,178.85,0,0,0,37.21,1.52,160.06,160.06,0,0,0,36.61-6.79c5.94-1.83,11.78-4,17.51-6.39l4.27-1.88,4.25-1.92c2.83-1.27,5.69-2.5,8.54-3.72,11.45-4.83,23.1-9.22,35-12.92A235.06,235.06,0,0,1,501.57,523c1.16-.17,2.32-.32,3.48-.46v-.14c-1.17.14-2.33.29-3.5.45A236.57,236.57,0,0,0,465.26,531.35Z"/><path class="cls-2" d="M501,521a248.67,248.67,0,0,0-36.65,8.17c-12,3.58-23.81,7.83-35.41,12.54-2.9,1.19-5.79,2.39-8.67,3.64-1.44.61-2.87,1.25-4.31,1.87l-4.32,1.84c-.72.3-1.44.61-2.17.9l-2.19.84-2.19.84c-.74.27-1.46.57-2.21.81L398.46,554l-1.11.38-1.13.34-2.25.67-2.25.67c-.75.22-1.51.4-2.27.6l-2.27.59c-.76.19-1.51.41-2.28.57l-4.58,1c-.77.18-1.54.3-2.31.45l-2.31.41a157.92,157.92,0,0,1-18.65,2.12,177,177,0,0,1-37.43-2.2c-6.18-1-12.32-2.27-18.41-3.74s-12.11-3.2-18.1-5l-3.12-1-.32-.14-1.48-.67q-6.31-2-12.56-4.21c-5.91-2-11.79-4.2-17.67-6.38-23.47-8.72-46.84-17.85-71-24.71-6-1.74-12.1-3.29-18.2-4.7s-12.26-2.63-18.44-3.67l-4.64-.75-4.65-.64c-1.55-.24-3.11-.4-4.67-.58l-2.33-.26L122.9,503l-1.17-.1-4.68-.42c-.78-.07-1.57-.11-2.35-.16l-2.34-.15L110,502c-.78-.06-1.56-.06-2.35-.1l-4.7-.17c-1.56,0-3.13,0-4.7-.05l-2.35,0h-.64v.16H95v.1h.32v.17h3c1.57,0,3.13,0,4.7,0l4.69.16c.78,0,1.56,0,2.34.09l2.34.14,2.35.14c.78,0,1.56.09,2.34.17l4.68.4,1.16.1,1.17.13,2.33.26c1.56.18,3.12.33,4.66.56l4.66.63,4.63.74c6.18,1,12.33,2.2,18.43,3.63s12.17,2.94,18.19,4.67q4.38,1.24,8.75,2.58c3,.92,5.95,1.86,8.91,2.84q8.92,2.94,17.76,6.13c11.79,4.24,23.49,8.72,35.23,13.09q4.78,1.78,9.6,3.52,4.17,1.51,8.35,3c5.11,1.8,10.24,3.53,15.4,5.15l-.32-.14,2.48.77c6,1.84,12,3.55,18.1,5s12.23,2.75,18.41,3.75a176.65,176.65,0,0,0,37.46,2.22,160,160,0,0,0,18.66-2.11l2.32-.42c.77-.14,1.54-.26,2.3-.44l4.59-1c.77-.16,1.52-.38,2.28-.57l2.28-.59c.76-.2,1.52-.38,2.27-.6l2.25-.67,2.25-.67,1.13-.34,1.11-.37L403,552.6c.75-.24,1.47-.55,2.21-.82l2.19-.84,2.2-.83,2.16-.91,4.33-1.84,4.3-1.88c2.88-1.25,5.77-2.45,8.66-3.64,11.6-4.71,23.4-9,35.41-12.55a246.82,246.82,0,0,1,36.62-8.2c1.34-.18,2.68-.34,4-.49v-.09C503.71,520.67,502.36,520.83,501,521Z"/><path class="cls-2" d="M160.62,587.24c-10.32-1.21-20.63-2.48-31-3.21A279.76,279.76,0,0,0,98.42,584c-1,0-2.1.12-3.15.19v.2l-.32,0V585l.32,0v.23c1.07-.07,2.14-.15,3.21-.21a277.79,277.79,0,0,1,31.08-.13c10.34.67,20.67,1.87,31,3l5.2.61h4.92l-2.31-.3Z"/><path class="cls-2" d="M173.58,581.68c-5.16-.71-10.33-1.36-15.5-2s-10.36-1.2-15.54-1.73c-2.59-.26-5.19-.52-7.78-.76l-3.9-.35-1-.08-1-.06-2-.11a277,277,0,0,0-31.3.08l-.38,0v.19l-.32,0v.58l.32,0v.24l.45,0a277.37,277.37,0,0,1,31.19-.27l1.94.1,1,0,1,.08,3.89.33c2.59.22,5.19.46,7.78.71,5.18.5,10.36,1.06,15.54,1.65q15.53,1.79,31,4.07c9.08,1.31,18.14,2.71,27.2,4.13h2.92c-10-1.58-20-3.17-30-4.63C183.91,583.1,178.75,582.38,173.58,581.68Z"/><path class="cls-2" d="M186.73,576.47c-20.67-3.19-41.43-5.92-62.33-7.32a274.81,274.81,0,0,0-29.13.08v.19H95V570l.32,0v.22a276.75,276.75,0,0,1,29.09-.26c5.21.25,10.42.75,15.62,1.21s10.4,1,15.6,1.62,10.38,1.26,15.56,2,10.35,1.46,15.52,2.26c10.33,1.58,20.65,3.32,31,5.09s20.6,3.63,30.92,5.38l6.39,1.08h2.92c-3.08-.5-6.16-1-9.24-1.52C228,583.51,207.41,579.67,186.73,576.47Z"/><path class="cls-2" d="M184.51,569.1c-20.73-3.39-41.58-6.1-62.57-7.41q-13.32-.62-26.67.06v.18L95,562v.47h.32v.21q13.31-.76,26.64-.21c5.23.28,10.46.69,15.69,1.16s10.44,1,15.66,1.61,10.41,1.29,15.61,2,10.39,1.53,15.57,2.37c10.36,1.69,20.69,3.55,31,5.5s20.62,4,30.93,6,20.64,3.91,31,5.59q6.17,1,12.36,1.87h4.78c-16.11-2-32.11-4.86-48.07-7.88C225.83,576.69,205.24,572.5,184.51,569.1Z"/></svg>