<svg id="Layer_1" data-name="Layer 1" xmlns="http://www.w3.org/2000/svg" viewBox="0 0 600 600"><defs><style>.cls-1{fill:#011e41;}.cls-2{fill:#75cae8;}</style></defs><title>Graphic_Language_Use_Photography_Portrait_No_Image</title><rect class="cls-1" x="95.09" y="10.21" width="409.82" height="579.59"/><path class="cls-2" d="M495.49,558.16l-3.14,1.26-3.11,1.31-5.87,2.47.08,0,.22.1-.59.25-6.17,2.73c-4.13,1.8-8.2,3.71-12.29,5.57-2,.94-4.07,1.92-6.11,2.87s-4.07,1.91-6.09,2.89c-8.34,4-16.63,8.06-24.91,12.14h1.19c3.93-1.93,7.86-3.88,11.81-5.78l6.06-2.94,6.09-2.91q15.84-7.53,32-14.36h0l5-2.09,1.33-.55c3.65-1.49,7.31-3,11-4.38l1.57-.59,1.37-.52h0v-1.24l-3.16,1.21Z"/><path class="cls-2" d="M488.11,557.91c-2.08.84-4.17,1.65-6.24,2.51l-2.43,1,.33.15-4,1.71-3.1,1.31-3.08,1.34-6.16,2.7-6.14,2.76-3.06,1.38-3.06,1.41C440,579.28,429,584.54,418,589.79h1.22l7.79-3.73c4-1.92,8.09-3.86,12.15-5.75l6.09-2.84,6.12-2.8Q465.88,568,480.69,562l0,0,1.53-.63c2.07-.85,4.16-1.66,6.24-2.5,1.19-.48,2.4-.94,3.6-1.41,3-1.14,5.93-2.27,8.91-3.36,1.29-.5,2.59-1,3.9-1.41V551.5c-1.42.51-2.84,1-4.24,1.56C496.47,554.66,492.26,556.21,488.11,557.91Z"/><path class="cls-2" d="M475.21,559.66l.36.14-1.13.45c-2.08.83-4.13,1.71-6.2,2.56s-4.13,1.71-6.19,2.59c-4.11,1.78-8.22,3.52-12.31,5.35-14,6.17-27.89,12.61-41.78,19h1.25l16.28-7.57c4.06-1.86,8.12-3.75,12.2-5.57l6.12-2.74,6.14-2.7,3.07-1.35,3.08-1.32,6.17-2.62c2.05-.87,4.13-1.71,6.2-2.56s4.12-1.72,6.21-2.52l1.75-.68.08,0q9.19-3.66,18.48-7l4.8-1.7c1.7-.6,3.41-1.18,5.12-1.76v-1.14c-1.82.63-3.63,1.26-5.43,1.91Q487.24,554.81,475.21,559.66Z"/><path class="cls-2" d="M491.83,550l-6.3,2.27-3.15,1.13-3.13,1.18L473,557l-2.33.91.38.15-4.21,1.67c-2.07.83-4.16,1.63-6.21,2.49-4.13,1.7-8.26,3.39-12.37,5.15-16.44,6.95-32.71,14.3-49,21.66l-1.79.8h1.25l.75-.34q12.18-5.55,24.39-11c4.08-1.81,8.16-3.63,12.25-5.4l6.14-2.65c2.05-.88,4.11-1.74,6.17-2.61,4.1-1.75,8.24-3.41,12.37-5.09,2.06-.85,4.15-1.65,6.22-2.46l4.82-1.88.09,0,1.39-.54,6.25-2.35,3.14-1.18,3.15-1.13,5.76-2.06.5-.18c2.11-.72,4.22-1.41,6.34-2.12s4.29-1.43,6.45-2.11v-1.08c-2.25.72-4.5,1.45-6.74,2.23S493.94,549.27,491.83,550Z"/><path class="cls-2" d="M496.77,545.21c-4.26,1.32-8.47,2.79-12.69,4.23-2.12.7-4.21,1.47-6.31,2.22l-6.29,2.27-5.78,2.18.41.14c-6.52,2.49-13,5-19.48,7.68-16.51,6.71-32.85,13.85-49.14,21.06l-3.06,1.35c-1,.46-2.05.87-3.07,1.3l-5.15,2.15h1.29l4.05-1.7c1-.44,2.06-.85,3.08-1.31l3.05-1.36q12.21-5.45,24.47-10.76c8.18-3.53,16.38-7,24.65-10.32,2.06-.84,4.12-1.68,6.2-2.49l6.23-2.42,3.11-1.21,3.13-1.17,1.42-.53.11,0,4.79-1.8,6.28-2.25c2.1-.75,4.19-1.52,6.3-2.22s4.21-1.43,6.32-2.13,4.21-1.39,6.33-2,4.25-1.34,6.38-2l1.51-.44v-1l-1.77.53C501,543.84,498.89,544.54,496.77,545.21Z"/><path class="cls-2" d="M501.65,540.64l-6.4,1.92c-11.78,3.56-23.41,7.56-34.95,11.82l.45.13c-1.13.41-2.26.82-3.38,1.25l-6.25,2.35-6.22,2.42-3.11,1.22-3.1,1.24-6.19,2.49-12.35,5.1q-12.31,5.14-24.57,10.47c-4.07,1.8-8.21,3.44-12.32,5.13l-1.54.64c-.52.2-1.05.38-1.57.57L377,588.52l-3.13,1.13-.41.14H375l2.19-.8,3.13-1.15c.52-.19,1.05-.37,1.57-.58l1.54-.64c4.12-1.71,8.26-3.36,12.32-5.17q12.24-5.34,24.55-10.52,6.15-2.56,12.34-5.08l6.2-2.47,3.11-1.24,3.11-1.2,6.22-2.41,6.26-2.33c1.31-.5,2.64-1,4-1.46l.11,0c8.23-3,16.5-5.88,24.84-8.55l1.49-.48q3.13-1,6.28-2l1.26-.37,6.4-1.89c1-.31,2-.58,3-.86v-1h-.05C503.79,540,502.71,540.31,501.65,540.64Z"/><path class="cls-2" d="M492,540.34l-1.6.48-3.19,1c-2.13.65-4.27,1.27-6.39,2l-6.36,2-3.18,1-3.16,1.08L461.81,550c-2.1.73-4.19,1.5-6.29,2.24l-1.19.43.49.12-2.38.85c-1.05.37-2.09.75-3.14,1.15l-6.25,2.34c-2.09.76-4.16,1.57-6.24,2.38L430.59,562l-6.2,2.47c-2.06.83-4.14,1.64-6.2,2.49-4.11,1.68-8.24,3.34-12.34,5.07l-6.17,2.57-6.14,2.6c-2.05.87-4.1,1.74-6.15,2.59L384.31,581l-3.11,1.21c-4.14,1.62-8.34,3.08-12.55,4.49-3.36,1.1-6.75,2.11-10.15,3.07h2q4.18-1.23,8.33-2.59l3.16-1.09c1.05-.37,2.11-.72,3.15-1.12,2.09-.77,4.18-1.52,6.25-2.35l3.11-1.22,3.08-1.29c2.06-.84,4.1-1.73,6.15-2.6,16.37-7,32.81-13.79,49.49-20q6.18-2.31,12.38-4.52l.12,0,.1,0c2.09-.74,4.18-1.51,6.28-2.23l6.32-2.14,3.16-1.07,3.17-1,6.35-2c2.12-.67,4.26-1.29,6.39-1.94l2.49-.75,3.87-1.12q5.54-1.58,11.09-3v-.92q-5.67,1.5-11.29,3.11Z"/><path class="cls-2" d="M447.12,551.34l.58.1-.33.11-6.28,2.25c-1,.37-2.09.76-3.13,1.15l-3.13,1.17-6.26,2.34-6.22,2.41-3.12,1.2-3.11,1.22c-4.13,1.64-8.27,3.27-12.39,5l-6.18,2.52-6.17,2.56c-2.06.85-4.11,1.71-6.17,2.54l-3.09,1.26L379,578.32c-4.15,1.59-8.37,3-12.59,4.41q-12.71,4.08-25.76,6.86l-1,.2h2.71c8.16-1.84,16.25-4,24.2-6.62,4.23-1.41,8.44-2.87,12.59-4.48l3.11-1.2,3.1-1.26c2.06-.84,4.11-1.7,6.16-2.56,16.43-6.86,32.94-13.5,49.69-19.52l6.29-2.24,1-.35.16,0c13.77-4.82,27.69-9.24,41.74-13.15l1.67-.47q6.39-1.73,12.84-3.29v-.87q-6.54,1.61-13,3.38C476.79,541.34,461.87,546.13,447.12,551.34Z"/><path class="cls-2" d="M496.53,532.84c-2.16.54-4.33,1-6.48,1.63-17.25,4.5-34.27,9.82-51.1,15.7l-.45.16.64.07-.13,0-6.29,2.26c-2.09.76-4.2,1.49-6.28,2.28l-6.26,2.34-3.13,1.17-3.11,1.2-6.24,2.4c-2.08.8-4.14,1.64-6.21,2.45L395.28,567l-6.19,2.52c-2.06.84-4.12,1.69-6.19,2.51l-3.1,1.24-3.12,1.17c-1.05.38-2.08.79-3.13,1.15l-3.16,1.1-1.57.54-1.59.52-3.17,1a259.51,259.51,0,0,1-55.81,11h6.69c7.85-.92,15.66-2.16,23.39-3.79a260.55,260.55,0,0,0,25.85-6.8l3.18-1.05,1.59-.52,1.57-.55,3.16-1.12c1.05-.36,2.08-.78,3.13-1.16l3.13-1.18,3.1-1.25c2.07-.82,4.13-1.67,6.19-2.51,16.47-6.76,33.08-13.23,49.89-19.09l.85-.29h.14c15.2-5.26,30.56-10.06,46.09-14.22l4-1c2.15-.59,4.32-1.08,6.48-1.61l6.49-1.56,1.73-.38v-.83l-1.89.42Z"/><path class="cls-2" d="M502.78,528.31l-1.63.37-6.53,1.48c-1.09.26-2.18.48-3.26.76l-3.25.81c-17.32,4.28-34.45,9.36-51.34,15.1-2.67.91-5.32,1.85-8,2.79l.72,0q-21.6,7.58-42.82,16.13c-2.07.83-4.14,1.66-6.22,2.47l-3.11,1.22-3.14,1.15c-1.05.38-2.08.78-3.14,1.14l-3.17,1.07-1.58.54-1.59.51-3.19,1a251,251,0,0,1-25.91,6.51c-2.18.45-4.38.81-6.57,1.2-1.1.2-2.2.35-3.3.53l-3.3.5-3.31.44-1.66.21-1.66.19-3.32.37-3.33.3c-8.87.81-17.78,1.11-26.68,1-1.12,0-2.23,0-3.34,0s-2.23,0-3.34-.08c-2.23-.09-4.46-.15-6.68-.29-4.45-.22-8.89-.59-13.32-1q-13.31-1.26-26.5-3.42c-17.6-2.83-35-6.68-52.37-10.76s-34.68-8.34-52.18-11.9q-6.56-1.34-13.15-2.5t-13.22-2.11l-3.32-.43v.92c9.89,1.3,19.73,3,29.51,5,17.46,3.55,34.77,7.86,52.15,11.9s34.81,7.88,52.44,10.69c8.82,1.41,17.67,2.56,26.57,3.37,4.44.39,8.89.73,13.35.94,2.23.13,4.46.18,6.69.27l3.35.06c1.12,0,2.23,0,3.35,0,8.93,0,17.86-.3,26.75-1.15l3.33-.31,3.33-.39,1.66-.19,1.66-.22,3.32-.46c1.1-.15,2.2-.34,3.3-.51s2.21-.33,3.31-.54c2.19-.4,4.39-.77,6.58-1.23a251.22,251.22,0,0,0,25.93-6.61l3.19-1,1.59-.51,1.58-.54,3.16-1.1c1.06-.35,2.1-.76,3.15-1.14l3.14-1.16,3.11-1.23c2.08-.81,4.15-1.64,6.21-2.47,14.35-5.79,28.8-11.3,43.4-16.39l.23,0c2.18-.76,4.36-1.54,6.55-2.28q23.7-8,48-14.19l3.29-.82,3.24-.8c1.08-.27,2.17-.49,3.26-.74l6.52-1.46,1.63-.37,1.64-.33.36-.07v-.78l-.49.1Z"/><path class="cls-2" d="M482.81,529.7l-1.64.38-1.62.41-6.5,1.65-3.25.84-3.23.89-6.46,1.77c-2.15.6-4.29,1.26-6.44,1.88s-4.28,1.25-6.42,1.92l-6.39,2-3.2,1c-1.07.34-2.12.71-3.18,1q-8.3,2.73-16.52,5.64l.79,0q-17.43,6.14-34.59,12.93c-2.08.81-4.16,1.63-6.25,2.43-1,.4-2.07.81-3.12,1.2l-3.15,1.13c-2.09.78-4.22,1.47-6.33,2.18l-1.59.53-1.6.49-3.2,1a247,247,0,0,1-26,6.32c-4.38.84-8.8,1.49-13.22,2.11s-8.86,1-13.31,1.35-8.91.54-13.37.66c-2.23,0-4.46.09-6.69.06l-3.35,0-3.35-.09-1.67,0-1.67-.07-3.34-.15-3.34-.2-1.67-.1-1.67-.14-3.34-.26-3.33-.31c-1.11-.1-2.22-.22-3.33-.35l-3.32-.37q-13.29-1.62-26.44-4.16c-17.54-3.35-34.85-7.79-52.11-12.41s-34.48-9.39-51.93-13.3c-8.73-2-17.51-3.68-26.36-5l-1-.14v.82c9.12,1.35,18.19,3.12,27.18,5.14,17.43,3.91,34.64,8.72,51.91,13.3s34.6,9,52.17,12.35q13.17,2.52,26.51,4.11l3.33.36c1.11.13,2.22.24,3.34.34l3.34.3,3.34.26,1.67.12,1.68.1,3.35.19,3.35.14,1.67.06,1.68,0,3.35.07h3.35c2.24,0,4.48,0,6.71-.07,4.47-.14,8.94-.34,13.4-.71s8.9-.84,13.34-1.4,8.84-1.3,13.23-2.16a247.76,247.76,0,0,0,26-6.42c4.27-1.32,8.52-2.7,12.72-4.24l3.15-1.14c1.05-.38,2.09-.8,3.13-1.2,2.09-.8,4.16-1.62,6.24-2.44q17.44-6.93,35.14-13.17h.17q7.51-2.64,15.09-5.12c1.07-.35,2.12-.71,3.19-1.05l3.19-1,6.39-2c2.13-.66,4.28-1.27,6.42-1.91s4.28-1.27,6.43-1.87l6.46-1.77,3.23-.88c1.08-.29,2.16-.55,3.24-.83l6.5-1.64,1.62-.41,1.63-.37,2.05-.48,1.19-.27q9.32-2.15,18.71-3.94v-.74q-9.45,1.85-18.84,4Z"/><path class="cls-2" d="M497.1,523.4l-3.3.64-1.65.32c-.55.1-1.09.23-1.64.34l-6.57,1.42-3.29.71-3.26.78-6.54,1.56c-1.09.25-2.17.54-3.26.82l-3.25.85c-2.17.57-4.34,1.11-6.5,1.7l-6.47,1.82-3.23.91c-1.08.3-2.14.64-3.22,1-4.28,1.3-8.59,2.54-12.84,3.94q-13,4.13-25.76,8.72h.75q-12.85,4.58-25.56,9.54l-6.27,2.4c-1.05.39-2.09.81-3.15,1.17l-3.16,1.12c-4.22,1.49-8.49,2.84-12.78,4.11A240.88,240.88,0,0,1,330,573.37c-4.4.81-8.83,1.42-13.27,2l-3.33.36c-1.12.11-2.23.25-3.34.33-2.23.18-4.46.39-6.69.51-4.46.3-8.94.4-13.41.46h-5l-1.68,0-3.35-.09-3.35-.15-1.68-.07-1.67-.11-3.35-.21-3.34-.28-1.67-.14-1.67-.17-3.34-.34-3.33-.4-1.66-.2-1.67-.22-3.32-.46q-13.27-2-26.38-4.91c-17.47-3.9-34.66-8.92-51.8-14.09S137.43,544.66,120,540.4c-2.17-.54-4.35-1-6.54-1.54s-4.37-1-6.57-1.42-4.39-.87-6.59-1.3l-5.22-.9V536c1.7.28,3.39.58,5.08.88,2.2.43,4.4.83,6.59,1.3s4.37.94,6.55,1.42,4.36,1,6.53,1.54c17.39,4.25,34.49,9.57,51.65,14.7s34.37,10.16,51.87,14q13.11,2.92,26.43,4.88l3.33.44,1.67.23,1.67.19,3.34.39,3.34.33,1.68.17,1.67.13,3.35.27,3.36.21,1.67.1,1.68.07,3.36.14,3.36.07,1.68,0H290c4.47-.07,9-.18,13.43-.5,2.24-.12,4.47-.34,6.7-.52,1.12-.09,2.23-.23,3.34-.35s2.23-.23,3.34-.37c4.45-.57,8.89-1.2,13.29-2a241.6,241.6,0,0,0,26.14-6.22c4.29-1.28,8.56-2.65,12.78-4.15l3.16-1.12c1.06-.37,2.1-.79,3.15-1.18l6.27-2.41q13-5.08,26.11-9.76h.15q12.12-4.29,24.39-8.2c4.25-1.4,8.55-2.64,12.84-3.93,1.07-.32,2.13-.66,3.21-.95l3.23-.91,6.47-1.81c2.15-.59,4.33-1.13,6.49-1.69l3.25-.85c1.08-.27,2.16-.57,3.25-.82l6.54-1.54,3.26-.78,3.28-.71h.06q10.35-2.24,20.78-4.06V522l-1.21.2C501.5,522.54,499.3,523,497.1,523.4Z"/><path class="cls-2" d="M478.42,524l-3.29.74-3.29.73c-1.1.25-2.2.47-3.28.75L462,527.78l-3.27.8c-1.09.27-2.17.57-3.26.86-4.34,1.16-8.69,2.28-13,3.56L436,534.86c-2.15.64-4.29,1.32-6.44,2q-17.91,5.53-35.53,12h.72q-8,2.91-16,6c-4.2,1.59-8.39,3.19-12.65,4.63l-1.58.55-1.61.51-3.2,1c-1.07.36-2.15.67-3.22,1l-3.23,1A237.58,237.58,0,0,1,327,569.4c-1.11.18-2.21.38-3.32.54l-3.33.48-1.67.23-1.67.2-3.34.39c-1.11.13-2.23.22-3.35.33s-2.23.23-3.35.29c-2.24.15-4.47.34-6.72.41-1.11.05-2.23.11-3.36.15l-3.36.08-1.68,0h-5.05l-3.36-.07-1.68,0-1.68-.07-3.36-.15-3.36-.21-1.68-.11-1.67-.14-3.36-.29-3.34-.36-1.67-.17-1.67-.21-3.34-.42-3.33-.48-1.66-.24-1.66-.28-3.32-.54c-4.42-.78-8.83-1.62-13.21-2.58s-8.75-2-13.09-3.11C203,558.61,185.92,553,168.9,547.26s-34-11.51-51.43-16.1c-7.39-1.95-14.85-3.65-22.38-5v.63c7.47,1.37,14.88,3.07,22.22,5,17.36,4.58,34.36,10.4,51.38,16.09s34.11,11.33,51.53,15.76c8.71,2.23,17.5,4.14,26.36,5.66l3.32.54,1.67.26,1.67.24,3.33.48,3.35.41,1.67.2,1.68.18,3.35.34,3.36.28,1.68.14,1.68.1,3.36.21,3.37.14,1.69.07,1.68,0,3.37.07h5.05l1.69,0,3.37-.09,3.36-.15c2.25-.09,4.49-.28,6.73-.44,1.12-.06,2.24-.2,3.36-.3s2.24-.2,3.35-.33l3.35-.4,1.67-.2,1.67-.25,3.33-.48c1.11-.16,2.22-.37,3.33-.55a241,241,0,0,0,26.26-6l3.23-1c1.08-.33,2.16-.64,3.22-1l3.21-1,1.6-.52,1.59-.55c4.25-1.45,8.45-3.06,12.64-4.65q8.25-3.19,16.56-6.2h.09q17-6.15,34.26-11.49c2.14-.66,4.28-1.33,6.43-2l6.47-1.86c4.31-1.27,8.66-2.38,13-3.54,1.09-.29,2.17-.59,3.26-.86l3.27-.8,6.53-1.59c1.09-.28,2.19-.5,3.29-.75l3.28-.73,3.29-.73,1.27-.28.91-.19,1.11-.23c1.72-.36,3.45-.7,5.18-1q8.92-1.72,17.9-3.13V519q-11.66,1.85-23.2,4.24C480.61,523.45,479.51,523.72,478.42,524Z"/><path class="cls-2" d="M499.37,516.85l-6.67,1.06c-1.12.16-2.22.39-3.33.58l-3.32.61-3.33.61c-1.11.21-2.22.4-3.32.64-17.68,3.52-35.17,8-52.43,13.15-15.41,4.62-30.63,9.82-45.7,15.44H382l-6.09,2.28-6.33,2.35c-1.06.4-2.12.76-3.19,1.12l-3.19,1.09c-1.07.38-2.14.7-3.22,1.05l-3.22,1c-2.15.66-4.32,1.26-6.48,1.9a237.89,237.89,0,0,1-26.38,5.72c-1.11.17-2.22.37-3.34.51l-3.35.44-1.67.22-1.68.18-3.35.36c-1.13.11-2.25.18-3.37.28s-2.24.2-3.37.25c-2.24.12-4.49.28-6.74.32-1.12,0-2.25.08-3.37.1l-3.38,0h-1.69l-1.68,0-3.38-.05-3.37-.14-1.69-.07-1.68-.1-3.37-.22-3.36-.28-1.69-.15-1.67-.18-3.36-.36-3.35-.43-1.67-.22-1.67-.25-3.34-.5-3.33-.57c-1.11-.18-2.21-.39-3.32-.6s-2.21-.41-3.31-.63q-6.62-1.35-13.18-3c-4.36-1.1-8.71-2.25-13-3.52-17.3-5-34.21-11.27-51.09-17.55s-33.8-12.57-51.16-17.48q-6.51-1.82-13.09-3.38-3.31-.76-6.66-1.44v.53q3.28.68,6.54,1.42,6.57,1.56,13.07,3.38c17.33,4.91,34.22,11.22,51.11,17.48s33.82,12.5,51.14,17.51c4.33,1.26,8.69,2.41,13.06,3.51s8.78,2.06,13.2,2.95c1.1.22,2.21.42,3.32.63s2.22.42,3.33.6l3.33.56,3.35.49,1.67.25,1.68.21,3.35.43,3.36.35,1.69.18,1.68.14,3.37.28,3.38.21,1.68.1,1.69.06,3.38.13,3.38.05,1.69,0h1.69l3.38,0,3.38-.11c2.26-.05,4.51-.21,6.75-.34,1.13,0,2.25-.17,3.38-.25s2.24-.18,3.36-.29l3.37-.37,1.68-.18,1.67-.22,3.35-.45c1.12-.15,2.23-.35,3.34-.52A238.59,238.59,0,0,0,350.3,560c2.16-.64,4.33-1.24,6.48-1.91l3.22-1c1.08-.34,2.15-.67,3.22-1l3.19-1.09c1.07-.37,2.13-.73,3.19-1.13l6.33-2.36,6.59-2.48h.06c14.68-5.44,29.52-10.48,44.53-15,17.25-5.16,34.73-9.59,52.39-13.09,1.1-.24,2.21-.43,3.32-.63l3.32-.61,3.32-.6,1.28-.24,1.35-.23.7-.12.22,0,6.43-1,3.34-.52,2.13-.29h0V516c-.73.09-1.47.19-2.2.3Z"/><path class="cls-2" d="M497.09,514.11l-3.36.48c-1.12.16-2.24.31-3.35.51l-6.69,1.12-3.35.56-3.33.65c-17.78,3.34-35.38,7.65-52.74,12.72s-34.51,10.9-51.44,17.29c-1.6.6-3.22,1.18-4.84,1.76h.69c-7.11,2.56-14.3,4.88-21.6,6.83a235.17,235.17,0,0,1-26.53,5.5c-4.47.69-9,1.16-13.47,1.56-1.12.1-2.25.16-3.38.24s-2.25.17-3.38.21c-2.26.09-4.51.21-6.77.22-4.52.12-9,0-13.55-.18l-3.39-.2-1.69-.1-1.69-.14-3.37-.28-3.37-.36a263.3,263.3,0,0,1-52.81-11.88c-17.2-5.59-33.94-12.46-50.68-19.3s-33.54-13.62-50.88-18.83c-4.33-1.32-8.7-2.49-13.1-3.57-1.3-.33-2.61-.63-3.93-.93v.43q1.92.42,3.84.9c4.38,1.07,8.75,2.25,13.07,3.56,17.32,5.2,34.11,12,50.85,18.81s33.5,13.7,50.71,19.3c4.3,1.4,8.64,2.7,13,3.94s8.74,2.35,13.15,3.35,8.85,1.92,13.31,2.66l1.67.28c.56.1,1.12.18,1.68.26l3.36.51,3.36.44,1.68.21,1.69.18,3.38.36,3.38.27,1.69.14,1.69.1,3.39.19c4.52.17,9,.28,13.57.16,2.26,0,4.52-.14,6.78-.24,1.13,0,2.26-.14,3.39-.21s2.26-.15,3.38-.24c4.51-.42,9-.9,13.48-1.59a237.41,237.41,0,0,0,26.55-5.54c7.47-2,14.82-4.4,22.08-7h0c1.25-.45,2.5-.89,3.74-1.36,16.92-6.37,34.06-12.18,51.42-17.24s34.94-9.34,52.71-12.67l3.33-.63,3.34-.56,6.69-1.12c1.11-.19,2.23-.35,3.35-.51l3.35-.47c2.24-.31,4.47-.65,6.72-.93l1-.12h0v-.51l-1.1.12C501.57,513.45,499.33,513.8,497.09,514.11Z"/><path class="cls-2" d="M474.54,514.45a535.73,535.73,0,0,0-53.07,12.34c-17.48,5-34.71,10.78-51.73,17.12q-8.52,3.17-17.25,5.76l.83,0a237.18,237.18,0,0,1-36.2,8c-2.25.34-4.51.55-6.76.81-1.13.14-2.26.22-3.39.32l-3.39.28c-4.53.27-9.07.49-13.61.47s-9.07-.15-13.6-.42c-2.26-.18-4.53-.32-6.78-.58-1.13-.11-2.26-.22-3.39-.35l-3.37-.43c-1.13-.13-2.25-.31-3.37-.48s-2.25-.33-3.37-.53c-2.23-.4-4.47-.77-6.69-1.23-4.45-.87-8.87-1.92-13.27-3.05l-3.28-.87-3.28-.94-1.63-.46-1.63-.5c-1.09-.33-2.18-.65-3.26-1-4.32-1.37-8.62-2.84-12.89-4.38-17.07-6.19-33.63-13.7-50.21-21.09S126.68,508.51,109.34,503c-4.33-1.36-8.7-2.64-13.11-3.74L95.09,499v.33l1.07.26c4.4,1.1,8.76,2.37,13.08,3.73,17.32,5.48,34,12.76,50.58,20.14s33.15,14.89,50.24,21.09c4.27,1.54,8.57,3,12.91,4.38l3.25,1,1.63.49,1.64.47,3.28.93,3.29.87c4.4,1.13,8.83,2.17,13.29,3,2.22.46,4.47.83,6.7,1.22,1.12.2,2.25.35,3.37.53s2.24.34,3.37.47l3.38.43c1.13.13,2.26.23,3.39.35,2.26.26,4.53.39,6.79.57,4.54.26,9.08.45,13.62.4s9.09-.21,13.62-.49l3.4-.28c1.13-.1,2.26-.18,3.39-.32,2.25-.26,4.51-.48,6.76-.83a240.28,240.28,0,0,0,42.91-10.12l2.47-.82,1.67-.57c1.9-.66,3.79-1.32,5.68-2,17-6.32,34.24-12.12,51.71-17.07a532.13,532.13,0,0,1,53-12.29q15.06-2.65,30.29-4.34h0v-.46Q489.66,511.76,474.54,514.45Z"/><path class="cls-2" d="M502.88,573.56l-3.5,1.75q-12.13,6.12-24.08,12.55l-3.62,1.93h1.8l2.22-1.16c8-4.17,16.09-8.28,24.2-12.26l5-2.44v-1.51l-2.15,1.06Z"/><path class="cls-2" d="M496.92,570.12l.16.09c-13.21,6.26-26.23,12.88-39.22,19.58h1.55q8.23-4.18,16.51-8.29,12.15-6,24.44-11.61c1.52-.69,3-1.37,4.55-2v-1.42l-5,2.3Z"/><path class="cls-2" d="M490.48,566.67l.18.09q-7.41,3.35-14.76,6.84-6.12,2.89-12.18,5.87t-12.11,6L443,589.79h1.36l7.57-3.77c16.14-8,32.43-15.68,49.05-22.62l4-1.64v-1.32l-4.4,1.85C497.15,563.72,493.82,565.18,490.48,566.67Z"/><path class="cls-2" d="M131,585.72c-8.82-1.22-17.65-2.35-26.51-3.28-3.13-.33-6.26-.62-9.39-.89v1.17c11.94,1,23.85,2.53,35.74,4.19,6.62.92,13.24,1.9,19.86,2.88H159l-1.55-.22C148.61,588.26,139.81,586.94,131,585.72Z"/><path class="cls-2" d="M155.39,581.25c-8.77-1.55-17.54-3.08-26.33-4.49s-17.61-2.69-26.46-3.73q-3.75-.43-7.51-.82v1.08c11.31,1.14,22.57,2.75,33.8,4.55,17.56,2.83,35.05,6.14,52.61,9.11q8.7,1.49,17.44,2.84H206q-12.18-1.81-24.33-3.93C172.92,584.35,164.16,582.79,155.39,581.25Z"/><path class="cls-2" d="M179.4,578.24l-26.18-5.38c-8.72-1.78-17.46-3.52-26.23-5.12-4.39-.79-8.78-1.55-13.18-2.25s-8.81-1.35-13.23-1.93l-5.49-.66v1c10.62,1.24,21.19,2.93,31.72,4.84,17.51,3.2,34.91,7,52.38,10.51s35,6.77,52.69,9.06c4.2.56,8.42,1,12.64,1.47H254.6q-11.32-.88-22.6-2.4C214.35,585.07,196.84,581.78,179.4,578.24Z"/><path class="cls-2" d="M496.9,589.79h2.47l5.54-3.07v-1.48c-2.05,1.16-4.11,2.31-6.15,3.48Z"/><path class="cls-2" d="M484.69,589.79h2.22q6.31-3.39,12.67-6.74,2.66-1.39,5.33-2.77v-1.5c-2,1.05-4,2.1-5.92,3.17C494.21,584.53,489.44,587.16,484.69,589.79Z"/></svg>