<svg id="Layer_1" data-name="Layer 1" xmlns="http://www.w3.org/2000/svg" viewBox="0 0 600 600"><defs><style>.cls-1{fill:#d8d8d8;}.cls-2,.cls-4,.cls-5,.cls-6{fill:none;stroke-miterlimit:10;stroke-width:0.68px;}.cls-2{stroke:#8b8b8b;}.cls-3{fill:#fff;}.cls-4,.cls-5,.cls-6{stroke:#b1b1b1;}.cls-5{stroke-dasharray:33.26 33.26;}.cls-6{stroke-dasharray:33.21 33.21;}.cls-7{fill:#75cae8;}</style></defs><title>Graphic_Language_Use_Photography_Landscape_Full</title><rect class="cls-1" x="10.28" y="158.99" width="579.1" height="282.02"/><rect class="cls-2" x="10.28" y="158.99" width="579.1" height="282.02"/><rect class="cls-3" x="33.77" y="175.14" width="532.1" height="249.95"/><rect class="cls-4" x="33.77" y="175.14" width="532.1" height="249.95"/><rect class="cls-4" x="33.77" y="175.03" width="43.72" height="249.95"/><rect class="cls-4" x="255.77" y="175.03" width="43.72" height="249.95"/><rect class="cls-4" x="78.17" y="175.03" width="43.72" height="249.95"/><rect class="cls-4" x="300.16" y="175.03" width="43.72" height="249.95"/><rect class="cls-4" x="122.57" y="175.03" width="43.72" height="249.95"/><rect class="cls-4" x="344.56" y="175.03" width="43.72" height="249.95"/><rect class="cls-4" x="166.97" y="175.03" width="43.72" height="249.95"/><rect class="cls-4" x="388.96" y="175.03" width="43.72" height="249.95"/><rect class="cls-4" x="477.76" y="175.03" width="43.72" height="249.95"/><rect class="cls-4" x="211.37" y="175.03" width="43.72" height="249.95"/><rect class="cls-4" x="433.36" y="175.03" width="43.72" height="249.95"/><rect class="cls-4" x="522.16" y="175.03" width="43.72" height="249.95"/><rect class="cls-3" x="33.77" y="192.29" width="532.1" height="3.47"/><line class="cls-5" x1="515.99" y1="192.29" x2="67.03" y2="192.29"/><line class="cls-5" x1="83.66" y1="195.77" x2="532.62" y2="195.77"/><path class="cls-4" d="M549.25,195.77h16.62v-3.48H549.25m-498.85,0H33.77v3.48H50.4"/><rect class="cls-3" x="33.77" y="234.68" width="532.1" height="3.47"/><line class="cls-5" x1="515.99" y1="234.68" x2="67.03" y2="234.68"/><line class="cls-5" x1="83.66" y1="238.16" x2="532.62" y2="238.16"/><path class="cls-4" d="M549.25,238.15h16.62v-3.47H549.25m-498.85,0H33.77v3.47H50.4"/><rect class="cls-3" x="33.77" y="277.07" width="532.1" height="3.47"/><line class="cls-5" x1="515.99" y1="277.07" x2="67.03" y2="277.07"/><line class="cls-5" x1="83.66" y1="280.54" x2="532.62" y2="280.54"/><path class="cls-4" d="M549.25,280.54h16.62v-3.47H549.25m-498.85,0H33.77v3.47H50.4"/><rect class="cls-3" x="33.77" y="319.45" width="532.1" height="3.47"/><line class="cls-5" x1="515.99" y1="319.46" x2="67.03" y2="319.46"/><line class="cls-5" x1="83.66" y1="322.93" x2="532.62" y2="322.93"/><path class="cls-4" d="M549.25,322.93h16.62v-3.47H549.25m-498.85,0H33.77v3.47H50.4"/><rect class="cls-3" x="33.77" y="361.84" width="532.1" height="3.47"/><line class="cls-5" x1="515.99" y1="361.84" x2="67.03" y2="361.84"/><line class="cls-5" x1="83.66" y1="365.32" x2="532.62" y2="365.32"/><path class="cls-4" d="M549.25,365.32h16.62v-3.48H549.25m-498.85,0H33.77v3.48H50.4"/><rect class="cls-3" x="33.77" y="213.49" width="532.1" height="3.47"/><rect class="cls-4" x="33.77" y="213.49" width="532.1" height="3.47"/><rect class="cls-3" x="33.77" y="255.87" width="532.1" height="3.47"/><rect class="cls-4" x="33.77" y="255.87" width="532.1" height="3.47"/><rect class="cls-3" x="33.77" y="298.26" width="532.1" height="3.47"/><rect class="cls-4" x="33.77" y="298.26" width="532.1" height="3.47"/><rect class="cls-3" x="33.77" y="340.65" width="532.1" height="3.47"/><rect class="cls-4" x="33.77" y="340.65" width="532.1" height="3.47"/><polyline class="cls-4" points="33.83 386.51 565.88 386.51 565.88 383.04 33.83 383.04"/><rect class="cls-3" x="33.77" y="404.23" width="532.1" height="3.47"/><line class="cls-5" x1="515.99" y1="404.23" x2="67.03" y2="404.23"/><line class="cls-5" x1="83.66" y1="407.7" x2="532.62" y2="407.7"/><path class="cls-4" d="M549.25,407.7h16.62v-3.47H549.25m-498.85,0H33.77v3.47H50.4"/><rect class="cls-3" x="34.72" y="404.23" width="531.16" height="3.47"/><line class="cls-6" x1="516.08" y1="404.23" x2="67.92" y2="404.23"/><line class="cls-6" x1="84.52" y1="407.7" x2="532.68" y2="407.7"/><path class="cls-4" d="M549.28,407.7h16.6v-3.47h-16.6m-498,0H34.72v3.47h16.6"/><path class="cls-7" d="M576.73,396.57l-4.43,1.78-4.4,1.86-8.31,3.49.12.06.31.14-.84.36-8.73,3.87c-5.84,2.54-11.6,5.24-17.39,7.88-2.89,1.33-5.75,2.71-8.64,4.06s-5.76,2.71-8.62,4.09c-11.79,5.64-23.52,11.41-35.23,17.19h1.69c5.55-2.74,11.11-5.49,16.69-8.19l8.59-4.17,8.6-4.11q22.41-10.67,45.26-20.33h0l0,0,7-2.95,1.88-.79q7.74-3.16,15.54-6.19l2.22-.84,1.93-.73h0v-1.76L585.6,393Z"/><path class="cls-7" d="M566.3,396.22c-2.94,1.19-5.9,2.34-8.83,3.55L554,401.21l.46.2-5.72,2.42-4.38,1.86-4.36,1.9-8.72,3.81-8.68,3.91-4.33,2-4.32,2c-15.71,7.21-31.31,14.65-46.9,22.09h1.73l11-5.28c5.73-2.73,11.44-5.47,17.2-8.14l8.61-4,8.65-4q20.57-9.4,41.5-17.95l.06,0,2.16-.89c2.93-1.21,5.89-2.36,8.83-3.53,1.69-.69,3.39-1.34,5.1-2,4.19-1.62,8.38-3.21,12.6-4.77,1.82-.7,3.67-1.35,5.51-2v-1.68c-2,.71-4,1.43-6,2.2C578.13,391.61,572.18,393.82,566.3,396.22Z"/><path class="cls-7" d="M548.05,398.69l.5.21-1.59.64c-2.94,1.16-5.85,2.41-8.78,3.62s-5.84,2.42-8.75,3.67c-5.81,2.51-11.63,5-17.41,7.56-19.82,8.74-39.47,17.85-59.11,27h1.77l23-10.73c5.76-2.63,11.49-5.3,17.27-7.87l8.65-3.89,8.69-3.82,4.34-1.91,4.36-1.86,8.73-3.71c2.91-1.24,5.84-2.42,8.77-3.62s5.83-2.43,8.79-3.57l2.48-1,.11,0q13-5.16,26.15-10l6.78-2.4c2.41-.85,4.82-1.67,7.24-2.49V383c-2.56.88-5.13,1.77-7.68,2.69Q565.07,391.82,548.05,398.69Z"/><path class="cls-7" d="M571.57,385l-8.92,3.21-4.46,1.6-4.43,1.67-8.86,3.36c-1.11.42-2.21.87-3.31,1.3l.55.21-6,2.36c-2.94,1.17-5.88,2.31-8.79,3.53-5.84,2.4-11.69,4.79-17.49,7.28-23.26,9.85-46.28,20.25-69.28,30.66-.84.39-1.69.75-2.54,1.14h1.77l1.07-.49q17.22-7.86,34.5-15.62c5.77-2.55,11.53-5.13,17.33-7.63l8.69-3.76c2.9-1.25,5.81-2.45,8.72-3.68,5.8-2.49,11.66-4.83,17.51-7.21,2.91-1.21,5.86-2.33,8.79-3.49l6.82-2.66.13.05,2-.76,8.85-3.34,4.43-1.66,4.46-1.6,8.16-2.92.7-.25c3-1,6-2,9-3s6.07-2,9.12-3v-1.53c-3.18,1-6.36,2.06-9.52,3.16C577.55,383,574.55,384,571.57,385Z"/><path class="cls-7" d="M578.54,378.25c-6,1.87-12,3.95-17.95,6-3,1-6,2.09-8.92,3.15l-8.9,3.21-8.18,3.08.59.2c-9.23,3.52-18.43,7.11-27.56,10.87-23.37,9.5-46.47,19.6-69.53,29.8l-4.32,1.92c-1.44.65-2.9,1.23-4.35,1.84l-7.28,3.05H424l5.72-2.41c1.45-.62,2.92-1.21,4.35-1.86l4.32-1.92q17.26-7.71,34.62-15.24c11.57-5,23.18-9.89,34.87-14.6,2.92-1.18,5.84-2.38,8.77-3.53l8.81-3.42,4.41-1.71,4.42-1.65,2-.76.15.06,6.77-2.54,8.9-3.2c3-1.05,5.92-2.14,8.91-3.13l8.94-3c3-1,6-2,9-2.87s6-1.91,9-2.82l2.14-.63v-1.45l-2.5.74C584.55,376.31,581.55,377.29,578.54,378.25Z"/><path class="cls-7" d="M585.45,371.77l-9.06,2.72c-16.65,5-33.11,10.7-49.43,16.73l.62.19c-1.59.59-3.18,1.16-4.77,1.76L514,396.5l-8.8,3.44-4.41,1.71-4.38,1.76-8.76,3.53-17.47,7.21q-17.43,7.29-34.76,14.82c-5.76,2.55-11.61,4.87-17.42,7.27l-2.19.89c-.73.29-1.47.54-2.21.81l-4.44,1.6-4.44,1.6-.57.21h2.15l3.1-1.14,4.44-1.63c.74-.27,1.48-.53,2.21-.82l2.19-.9c5.82-2.42,11.68-4.76,17.43-7.32Q453,422,470.36,414.66q8.72-3.66,17.47-7.2l8.77-3.5,4.39-1.75,4.4-1.7,8.81-3.41,8.85-3.3c1.86-.71,3.73-1.38,5.61-2.06l.15.05q17.46-6.39,35.14-12.11l2.11-.67c3-.94,5.92-1.85,8.88-2.75l1.78-.53,9-2.68c1.42-.44,2.86-.81,4.29-1.21v-1.38l-.06,0C588.48,370.9,587,371.31,585.45,371.77Z"/><path class="cls-7" d="M571.82,371.35l-2.27.68L565,373.4c-3,.93-6,1.8-9,2.76l-9,2.9-4.49,1.45L538,382l-8.94,3c-3,1-5.94,2.11-8.9,3.16l-1.69.6.69.18-3.37,1.21q-2.22.78-4.43,1.62l-8.85,3.31c-2.95,1.08-5.89,2.23-8.82,3.37L484.92,402l-8.77,3.5c-2.92,1.18-5.85,2.32-8.76,3.52-5.83,2.38-11.67,4.74-17.47,7.18l-8.72,3.63-8.69,3.69c-2.9,1.22-5.8,2.46-8.7,3.66l-4.36,1.8-4.4,1.72c-5.86,2.29-11.8,4.35-17.76,6.35-4.75,1.55-9.54,3-14.35,4.35h2.79c3.94-1.17,7.87-2.38,11.78-3.68l4.47-1.54c1.49-.52,3-1,4.45-1.58,2.95-1.09,5.92-2.15,8.84-3.33l4.4-1.73,4.36-1.81c2.92-1.21,5.81-2.45,8.7-3.68,23.16-9.87,46.43-19.52,70-28.3q8.73-3.27,17.52-6.4l.16,0,.14,0c3-1,5.92-2.12,8.89-3.14l8.94-3,4.47-1.51,4.49-1.44,9-2.89c3-.95,6-1.82,9-2.74l3.52-1.06c1.82-.54,3.65-1.08,5.48-1.6q7.82-2.22,15.68-4.26V366.3q-8,2.11-16,4.4Z"/><path class="cls-7" d="M508.3,386.93l.83.13-.47.16-8.88,3.19c-1.49.52-3,1.07-4.44,1.62l-4.43,1.66L482.07,397l-8.81,3.41-4.41,1.69-4.39,1.74c-5.85,2.32-11.71,4.62-17.54,7l-8.75,3.56L429.45,418c-2.91,1.2-5.81,2.43-8.73,3.6l-4.37,1.78-4.4,1.69c-5.88,2.25-11.83,4.28-17.81,6.24q-18,5.77-36.45,9.71l-1.42.29h3.83c11.55-2.61,23-5.7,34.24-9.38,6-2,11.93-4.06,17.81-6.34l4.41-1.7,4.37-1.79c2.92-1.18,5.82-2.4,8.72-3.61,23.24-9.71,46.61-19.11,70.3-27.63l8.9-3.17,1.42-.5.22,0c19.48-6.83,39.17-13.09,59-18.62l2.35-.66q9.06-2.44,18.17-4.66v-1.24q-9.24,2.28-18.43,4.79C550.28,372.77,529.18,379.55,508.3,386.93Z"/><path class="cls-7" d="M578.21,360.74c-3.06.76-6.13,1.46-9.17,2.31-24.4,6.37-48.49,13.89-72.29,22.21l-.64.24.91.09-.19.06-8.89,3.19c-3,1.08-5.94,2.11-8.89,3.23l-8.85,3.31L465.77,397l-4.41,1.7-8.82,3.39c-2.94,1.14-5.86,2.32-8.79,3.48l-8.78,3.5-8.75,3.56c-2.92,1.19-5.84,2.39-8.76,3.55L413.07,418l-4.42,1.66c-1.48.54-2.94,1.12-4.43,1.63l-4.46,1.55-2.23.78-2.24.72-4.5,1.46a364.8,364.8,0,0,1-36.54,9.45,374.2,374.2,0,0,1-42.4,6.13h9.46c11.1-1.31,22.15-3.07,33.1-5.37A366.23,366.23,0,0,0,391,426.35l4.49-1.48,2.25-.74,2.23-.78,4.46-1.58c1.49-.51,2.95-1.1,4.43-1.65l4.42-1.67,4.39-1.76c2.93-1.17,5.84-2.36,8.76-3.56,23.3-9.57,46.79-18.72,70.58-27l1.21-.41.2,0c21.5-7.45,43.23-14.24,65.2-20.13l5.67-1.49c3-.83,6.11-1.52,9.17-2.27l9.18-2.21,2.44-.54V357.9l-2.66.6Z"/><path class="cls-7" d="M587.05,354.33l-2.31.52L575.5,357c-1.53.36-3.08.68-4.61,1.07l-4.59,1.14c-24.51,6.06-48.74,13.26-72.63,21.38-3.78,1.29-7.53,2.62-11.29,3.94l1,.07q-30.54,10.72-60.58,22.83-4.4,1.75-8.79,3.49l-4.4,1.73-4.44,1.63c-1.48.53-2.95,1.1-4.45,1.6l-4.48,1.53-2.23.76-2.26.71-4.5,1.43a355.94,355.94,0,0,1-36.66,9.2c-3.09.65-6.2,1.15-9.3,1.71-1.55.29-3.11.49-4.67.74s-3.11.49-4.67.71l-4.69.62-2.34.31-2.35.26-4.69.52-4.71.44c-12.55,1.14-25.16,1.57-37.76,1.47-1.57,0-3.15-.05-4.72-.08s-3.15-.05-4.73-.11c-3.14-.13-6.29-.22-9.44-.41-6.29-.32-12.57-.83-18.85-1.4q-18.81-1.8-37.49-4.84c-24.89-4-49.53-9.46-74.08-15.24S77,402.36,52.29,397.32q-9.28-1.89-18.61-3.54t-18.7-3c-1.56-.22-3.13-.4-4.69-.61v1.3c14,1.84,27.91,4.3,41.74,7.12,24.71,5,49.19,11.13,73.78,16.85s49.25,11.15,74.19,15.12q18.7,3,37.58,4.78c6.29.54,12.59,1,18.9,1.32,3.15.19,6.31.27,9.46.38,1.58.06,3.16.07,4.74.1s3.16.07,4.74.06c12.63,0,25.26-.42,37.84-1.62l4.71-.45,4.71-.54,2.35-.27,2.35-.32,4.69-.64c1.56-.22,3.12-.49,4.68-.73s3.12-.47,4.67-.76c3.11-.57,6.22-1.09,9.31-1.74a355.93,355.93,0,0,0,36.69-9.36l4.51-1.45,2.25-.73,2.24-.77,4.47-1.54c1.5-.51,3-1.09,4.45-1.63l4.44-1.63,4.41-1.74c2.94-1.15,5.86-2.33,8.79-3.51,20.29-8.18,40.73-16,61.39-23.18l.33,0c3.09-1.08,6.16-2.18,9.26-3.22Q527.5,370,561.85,361.32l4.65-1.17,4.6-1.12c1.52-.39,3.07-.7,4.6-1.06l9.23-2.07,2.31-.51,2.32-.47.5-.1v-1.11l-.69.14Z"/><path class="cls-7" d="M558.8,356.3l-2.32.53-2.29.59L545,359.75c-1.54.39-3.07.77-4.6,1.18l-4.57,1.26-9.14,2.52c-3.05.84-6.07,1.77-9.11,2.66s-6.07,1.77-9.08,2.71l-9.05,2.84-4.53,1.43c-1.5.47-3,1-4.5,1.48q-11.73,3.85-23.36,8l1.11,0q-24.65,8.68-48.94,18.29-4.41,1.74-8.83,3.45c-1.47.56-2.94,1.14-4.42,1.69l-4.46,1.61c-3,1.1-6,2.07-9,3.08l-2.24.75-2.27.7-4.52,1.4a349.72,349.72,0,0,1-36.8,8.94c-6.2,1.19-12.45,2.12-18.7,3s-12.54,1.48-18.83,1.92-12.61.76-18.92.94c-3.15,0-6.31.13-9.46.08l-4.74,0-4.73-.12-2.37-.06-2.36-.1-4.73-.21-4.73-.29-2.36-.15-2.36-.18-4.72-.37-4.71-.45c-1.57-.14-3.14-.31-4.71-.49l-4.71-.53q-18.79-2.28-37.4-5.88c-24.82-4.75-49.31-11-73.72-17.56S73.69,390,49,384.43c-12.34-2.77-24.77-5.21-37.28-7.09-.48-.08-1-.13-1.43-.2v1.16c12.9,1.91,25.72,4.42,38.45,7.27,24.65,5.54,49,12.35,73.43,18.83s49,12.75,73.81,17.47c12.43,2.38,24.93,4.35,37.5,5.83l4.72.51c1.57.17,3.14.34,4.72.47l4.72.44,4.73.35,2.37.18,2.36.14,4.74.27,4.74.19,2.37.1,2.38,0,4.74.11h4.74c3.17,0,6.33-.07,9.49-.11,6.33-.19,12.65-.47,18.95-1s12.6-1.2,18.87-2,12.52-1.83,18.73-3.05a347.67,347.67,0,0,0,36.82-9.09c6-1.86,12.06-3.82,18-6l4.46-1.61c1.48-.55,2.94-1.14,4.42-1.71q4.43-1.71,8.83-3.45,24.67-9.81,49.71-18.64h.24q10.64-3.72,21.36-7.25c1.5-.49,3-1,4.5-1.48l4.52-1.41,9-2.84c3-.93,6.06-1.79,9.08-2.69s6.06-1.81,9.1-2.65l9.14-2.51,4.57-1.25c1.52-.4,3.06-.78,4.58-1.17l9.19-2.32,2.29-.58,2.31-.53,2.9-.67,1.69-.39q13.17-3,26.46-5.58v-1q-13.37,2.61-26.65,5.7Z"/><path class="cls-7" d="M579,347.38l-4.67.9-2.34.45c-.77.15-1.55.33-2.32.49l-9.29,2-4.65,1-4.62,1.11-9.25,2.2c-1.54.35-3.07.77-4.61,1.16l-4.6,1.2c-3.06.81-6.14,1.57-9.19,2.42l-9.15,2.57-4.58,1.28c-1.52.43-3,.91-4.55,1.36-6.07,1.84-12.16,3.6-18.17,5.59q-18.34,5.83-36.45,12.33l1.07,0Q433.47,390,415.49,397l-8.88,3.39c-1.48.55-2.95,1.15-4.44,1.67l-4.48,1.58c-6,2.11-12,4-18.08,5.82a341.56,341.56,0,0,1-36.95,8.67c-6.22,1.14-12.5,2-18.77,2.8-1.57.19-3.15.34-4.72.51s-3.15.36-4.72.47c-3.16.26-6.31.55-9.47.72-6.31.43-12.64.57-19,.65l-4.74,0H278.9l-2.38-.06-4.74-.11-4.74-.21-2.37-.11-2.37-.15-4.73-.31-4.73-.39-2.37-.2-2.36-.23-4.72-.49-4.71-.56-2.36-.28L234,419.8l-4.7-.65q-18.78-2.77-37.32-6.95c-24.71-5.52-49-12.63-73.28-19.95s-48.49-14.78-73.13-20.81c-3.07-.77-6.16-1.46-9.25-2.19s-6.19-1.38-9.3-2-6.22-1.24-9.33-1.84c-2.46-.43-4.91-.87-7.37-1.27v1c2.4.39,4.79.82,7.19,1.24,3.1.61,6.21,1.18,9.31,1.84s6.18,1.33,9.27,2,6.17,1.42,9.24,2.18c24.6,6,48.8,13.54,73.07,20.81s48.62,14.38,73.38,19.87c12.37,2.76,24.85,5.09,37.4,6.9l4.71.63,2.36.32,2.36.28,4.72.55,4.73.46,2.37.24,2.37.19,4.74.38,4.74.29,2.38.14,2.37.1,4.76.2,4.75.11,2.38,0H286c6.34-.11,12.68-.27,19-.72,3.17-.17,6.32-.47,9.48-.74,1.59-.12,3.16-.32,4.73-.48s3.16-.34,4.73-.53c6.29-.81,12.57-1.7,18.8-2.86a342.62,342.62,0,0,0,37-8.8c6.07-1.82,12.11-3.75,18.08-5.87l4.47-1.6c1.5-.51,3-1.11,4.45-1.67l8.87-3.41q18.36-7.19,36.94-13.81h.21q17.16-6.09,34.51-11.61c6-2,12.1-3.74,18.16-5.57,1.51-.44,3-.92,4.55-1.35l4.57-1.28,9.14-2.56c3.06-.84,6.13-1.6,9.2-2.4l4.59-1.19c1.53-.39,3.06-.81,4.6-1.16l9.24-2.19,4.62-1.1,4.64-1,.09,0q14.64-3.17,29.39-5.75v-1l-1.7.29C585.24,346.16,582.13,346.79,579,347.38Z"/><path class="cls-7" d="M552.59,348.16l-4.66,1-4.65,1c-1.55.36-3.11.67-4.64,1.07l-9.26,2.27-4.63,1.13c-1.55.38-3.08.81-4.61,1.22-6.14,1.65-12.29,3.23-18.38,5l-9.17,2.64c-3,.91-6.07,1.87-9.1,2.8-16.91,5.21-33.66,10.91-50.27,17h1q-11.39,4.11-22.67,8.45c-5.95,2.25-11.88,4.51-17.89,6.55l-2.25.78-2.27.73-4.53,1.46c-1.51.5-3,.93-4.55,1.39l-4.57,1.35a339.29,339.29,0,0,1-37.12,8.4c-1.57.25-3.13.54-4.7.77l-4.71.67-2.36.34-2.36.27-4.73.56c-1.58.18-3.16.31-4.74.46s-3.15.32-4.74.41c-3.17.22-6.33.48-9.5.59-1.58.07-3.17.16-4.75.21l-4.76.11-2.38.05h-7.14l-4.76-.11-2.38-.05-2.38-.1-4.75-.21-4.75-.31-2.37-.15-2.38-.2-4.74-.41-4.73-.5-2.37-.25-2.36-.3-4.72-.59-4.71-.68-2.35-.34-2.35-.39-4.7-.77c-6.25-1.1-12.48-2.29-18.68-3.65s-12.38-2.8-18.53-4.39c-24.6-6.3-48.73-14.28-72.81-22.38S66.54,364.86,42,358.36c-10.46-2.76-21-5.17-31.66-7.13v.9c10.56,1.95,21,4.35,31.43,7.09,24.55,6.49,48.6,14.72,72.69,22.78s48.26,16,72.9,22.3c12.32,3.16,24.75,5.86,37.28,8l4.71.76,2.35.38,2.37.34,4.72.67,4.73.58,2.36.29,2.38.25,4.74.48,4.75.4,2.38.2,2.38.15,4.76.29,4.76.2,2.38.09,2.39.05,4.76.09h7.16l2.38-.06,4.76-.12c1.59-.06,3.18-.15,4.77-.22,3.18-.12,6.34-.39,9.51-.61,1.59-.1,3.17-.29,4.75-.43s3.17-.29,4.74-.47l4.74-.57,2.37-.29,2.35-.34,4.72-.68c1.57-.23,3.14-.52,4.71-.78a339.6,339.6,0,0,0,37.15-8.48l4.57-1.36c1.52-.46,3.05-.9,4.56-1.4l4.53-1.47,2.27-.73,2.25-.79c6-2.05,11.95-4.33,17.89-6.58q11.65-4.51,23.42-8.77h.13c16-5.8,32.18-11.26,48.46-16.27,3-.92,6.07-1.88,9.11-2.78l9.15-2.63c6.09-1.81,12.25-3.37,18.38-5,1.53-.4,3.06-.83,4.6-1.21l4.63-1.13,9.25-2.26c1.53-.39,3.09-.7,4.64-1.06l4.65-1,4.64-1,1.81-.4,1.29-.27,1.56-.33q3.66-.75,7.33-1.46,12.62-2.46,25.32-4.44v-.89q-16.47,2.61-32.81,6C555.68,347.45,554.14,347.82,552.59,348.16Z"/><path class="cls-7" d="M582.23,338.1l-9.44,1.5c-1.58.23-3.14.56-4.71.83l-4.7.87-4.71.86c-1.57.29-3.14.56-4.7.9-25,5-49.75,11.28-74.17,18.61-21.8,6.54-43.34,13.89-64.65,21.85h1c-2.88,1.07-5.75,2.14-8.61,3.23l-9,3.32c-1.49.57-3,1.08-4.5,1.59l-4.52,1.55c-1.5.53-3,1-4.55,1.47l-4.55,1.44c-3.05.93-6.12,1.78-9.17,2.68a333.16,333.16,0,0,1-37.33,8.1c-1.57.24-3.14.52-4.72.73l-4.73.62-2.37.31-2.38.25-4.74.51c-1.59.16-3.18.26-4.76.4s-3.18.28-4.77.35c-3.18.17-6.35.4-9.54.46-1.59.05-3.18.11-4.77.14l-4.78,0H284l-2.39,0-4.77-.08-4.78-.19-2.38-.1-2.39-.15-4.76-.3-4.76-.4-2.38-.21L253,409l-4.75-.51-4.74-.61-2.36-.31-2.36-.36-4.73-.71-4.71-.8c-1.57-.26-3.13-.55-4.69-.85s-3.13-.59-4.69-.9q-9.36-1.9-18.64-4.2c-6.17-1.56-12.33-3.18-18.44-5-24.47-7.1-48.4-15.95-72.28-24.84s-47.81-17.79-72.37-24.74Q29,342.59,19.7,340.39q-4.69-1.09-9.41-2.05v.76q4.64.94,9.24,2,9.3,2.19,18.49,4.79c24.52,6.93,48.42,15.87,72.31,24.72s47.85,17.7,72.36,24.79c6.12,1.79,12.29,3.41,18.47,5s12.42,2.92,18.67,4.17c1.56.32,3.13.6,4.7.9s3.13.59,4.71.84l4.72.79,4.73.71,2.36.35,2.38.3,4.74.6,4.76.51,2.38.24,2.38.2,4.77.4,4.77.29,2.39.15,2.39.09,4.78.18,4.78.07,2.39,0,2.4,0,4.78,0,4.78-.15c3.19-.07,6.37-.3,9.55-.48,1.6-.07,3.18-.24,4.77-.36s3.18-.25,4.77-.41l4.75-.52,2.38-.26,2.37-.31,4.74-.64c1.58-.21,3.15-.49,4.73-.73a335.52,335.52,0,0,0,37.35-8.17c3.06-.9,6.13-1.76,9.17-2.7l4.56-1.44c1.52-.49,3-1,4.55-1.48l4.52-1.56c1.51-.51,3-1,4.51-1.6l9-3.33q4.65-1.77,9.32-3.51H417c20.77-7.71,41.77-14.83,63-21.18,24.41-7.3,49.14-13.57,74.13-18.53,1.56-.33,3.13-.6,4.69-.89l4.7-.86,4.7-.86,1.8-.33,1.92-.33,1-.16.31-.05,9.1-1.43,4.72-.75,3-.4h0v-.79c-1,.14-2.07.27-3.1.42Z"/><path class="cls-7" d="M579,334.23l-4.75.68c-1.58.22-3.17.44-4.74.72L560,337.22l-4.73.79-4.72.91c-25.16,4.73-50.05,10.83-74.61,18s-48.83,15.43-72.77,24.47c-2.27.85-4.56,1.68-6.84,2.5l1,0c-10.06,3.63-20.23,6.91-30.56,9.67a331.19,331.19,0,0,1-37.54,7.79c-6.32,1-12.68,1.64-19,2.21-1.6.13-3.19.23-4.79.34s-3.19.24-4.78.29c-3.2.13-6.39.31-9.59.32-6.39.16-12.78,0-19.17-.26l-4.78-.28-2.39-.14-2.39-.2-4.78-.4-4.77-.51c-25.43-2.81-50.41-8.86-74.7-16.81s-48-17.64-71.7-27.31-47.45-19.29-72-26.66c-6.13-1.87-12.31-3.53-18.53-5.06q-2.78-.69-5.56-1.3v.59c1.81.41,3.62.83,5.42,1.28,6.21,1.52,12.38,3.18,18.5,5,24.5,7.36,48.25,17,71.94,26.62s47.39,19.39,71.74,27.32c6.08,2,12.21,3.83,18.37,5.58s12.36,3.33,18.61,4.74,12.51,2.71,18.83,3.76l2.36.41c.79.13,1.58.24,2.38.36l4.74.72,4.76.62,2.38.3,2.39.25,4.78.51,4.78.39,2.39.19,2.4.14,4.79.28c6.4.23,12.8.4,19.2.22,3.2,0,6.4-.2,9.6-.33,1.6-.06,3.19-.2,4.79-.3s3.19-.22,4.79-.35c6.37-.59,12.74-1.26,19.06-2.24a334.57,334.57,0,0,0,37.57-7.85c10.55-2.84,20.95-6.22,31.23-10h0c1.77-.64,3.54-1.26,5.3-1.92,23.94-9,48.18-17.25,72.74-24.4s49.43-13.23,74.57-17.93l4.71-.9,4.73-.79,9.46-1.58c1.57-.28,3.15-.5,4.74-.72l4.74-.68c3.17-.43,6.33-.92,9.5-1.31l1.46-.17h0v-.72l-1.55.18C585.33,333.3,582.17,333.79,579,334.23Z"/><path class="cls-7" d="M547.1,334.71A757.21,757.21,0,0,0,472,352.17c-24.73,7-49.1,15.27-73.18,24.23q-12.06,4.49-24.4,8.16l1.16,0a333.57,333.57,0,0,1-51.21,11.27c-3.17.48-6.37.79-9.56,1.16-1.59.19-3.2.3-4.8.44l-4.8.4c-6.4.39-12.82.7-19.24.67s-12.84-.22-19.25-.6c-3.2-.26-6.4-.45-9.59-.81-1.6-.17-3.2-.32-4.79-.51l-4.78-.61c-1.59-.18-3.18-.44-4.76-.68s-3.18-.46-4.76-.74c-3.16-.56-6.33-1.09-9.47-1.75-6.3-1.22-12.55-2.71-18.77-4.31l-4.65-1.24-4.63-1.32-2.32-.66-2.3-.7c-1.53-.47-3.07-.92-4.61-1.41q-9.17-2.91-18.23-6.2c-24.16-8.77-47.58-19.39-71-29.85S55,326.31,30.44,318.54c-6.13-1.94-12.3-3.74-18.54-5.3l-1.61-.39v.46l1.5.36C18,315.23,24.19,317,30.31,319c24.5,7.76,48.09,18.06,71.55,28.5s46.9,21.08,71.08,29.85q9.06,3.27,18.25,6.2c1.53.49,3.07.94,4.61,1.41l2.31.71,2.31.66,4.64,1.31,4.66,1.23c6.23,1.61,12.49,3.08,18.8,4.3,3.14.66,6.32,1.18,9.48,1.74,1.58.27,3.18.49,4.76.74s3.18.49,4.78.67l4.78.6c1.6.19,3.19.34,4.79.5,3.2.37,6.41.55,9.61.81,6.42.37,12.84.63,19.27.57s12.85-.3,19.26-.69l4.81-.41c1.6-.14,3.2-.26,4.8-.45,3.19-.37,6.39-.68,9.56-1.17a341.06,341.06,0,0,0,60.71-14.32l3.49-1.16,2.37-.81c2.68-.93,5.36-1.88,8-2.87,24.09-8.94,48.45-17.15,73.17-24.16a756,756,0,0,1,75-17.39q21.31-3.76,42.85-6.14v-.67Q568.49,330.91,547.1,334.71Z"/><path class="cls-7" d="M587.2,418.36c-1.66.83-3.31,1.65-5,2.49-11.44,5.77-22.78,11.72-34.07,17.76l-5.12,2.74h2.55l3.14-1.65C560.1,433.8,571.5,428,583,422.35c2.35-1.16,4.72-2.31,7.08-3.45v-2.14l-3,1.5Z"/><path class="cls-7" d="M578.76,413.5l.23.13c-18.68,8.86-37.12,18.23-55.48,27.72h2.19q11.65-5.93,23.35-11.74c11.46-5.63,23-11.14,34.58-16.44l6.43-2.89v-2c-2.37,1.08-4.75,2.16-7.11,3.25Z"/><path class="cls-7" d="M569.66,408.62l.25.13q-10.5,4.72-20.89,9.68-8.64,4.1-17.23,8.3t-17.14,8.49q-6.12,3-12.22,6.13h1.91L515.05,436c22.84-11.3,45.89-22.19,69.39-32l5.62-2.32v-1.86c-2.07.86-4.15,1.73-6.22,2.61C579.09,404.44,574.37,406.52,569.66,408.62Z"/><path class="cls-7" d="M61.07,435.59c-12.47-1.73-25-3.34-37.5-4.65-4.43-.47-8.85-.88-13.28-1.26v1.66c16.89,1.48,33.74,3.58,50.55,5.92,9.37,1.3,18.73,2.69,28.1,4.09h11.7L98.46,441C86,439.17,73.55,437.31,61.07,435.59Z"/><path class="cls-7" d="M95.59,429.25c-12.4-2.19-24.81-4.35-37.25-6.35s-24.91-3.81-37.43-5.28q-5.31-.62-10.62-1.16V418c16,1.63,31.93,3.9,47.81,6.45,24.84,4,49.59,8.7,74.43,12.9q12.32,2.09,24.67,4h10q-17.25-2.58-34.42-5.57C120.38,433.65,108,431.43,95.59,429.25Z"/><path class="cls-7" d="M129.55,425l-37-7.6c-12.35-2.53-24.71-5-37.12-7.25-6.2-1.12-12.41-2.2-18.64-3.2S24.3,405,18,404.22c-2.58-.33-5.17-.63-7.75-.93v1.43c15,1.74,30,4.13,44.86,6.85,24.78,4.52,49.4,9.91,74.11,14.86s49.52,9.59,74.54,12.84q8.92,1.17,17.89,2.08H236q-16-1.28-32-3.4C179,434.66,154.24,430,129.55,425Z"/><path class="cls-7" d="M578.73,441.35h3.5l7.83-4.35v-2.1c-2.9,1.64-5.8,3.27-8.69,4.93Z"/><path class="cls-7" d="M561.46,441.35h3.14q8.94-4.82,17.93-9.54c2.5-1.32,5-2.62,7.53-3.92v-2.13q-4.18,2.22-8.37,4.48Q571.53,435.73,561.46,441.35Z"/></svg>