<svg id="Layer_1" data-name="Layer 1" xmlns="http://www.w3.org/2000/svg" viewBox="0 0 600 600"><defs><style>.cls-1{fill:#011e41;}.cls-2{fill:#75cae8;}</style></defs><title>Graphic_Language_Landscape_Pattern3</title><rect class="cls-1" x="10" y="93.45" width="580" height="410.1"/><path class="cls-2" d="M65.6,485.29l-2.29-.55A220.39,220.39,0,0,0,10,478.45v.91a220.17,220.17,0,0,1,53.1,6.27l2.29.55c14.16,3.39,28.8,6.9,43.49,10.13,11.91,2.62,24.11,4.87,36.46,6.75h6.24c-14.42-2-28.66-4.6-42.5-7.64C94.4,492.19,79.76,488.68,65.6,485.29Z"/><path class="cls-2" d="M65.66,491.11l-8.46-2A227,227,0,0,0,10,483v1a226.34,226.34,0,0,1,47,6.09l8.46,2c12.09,2.85,24.6,5.8,37.12,8.56,3.89.86,7.83,1.67,11.79,2.45h5.1q-8.43-1.57-16.69-3.39C90.25,496.91,77.75,494,65.66,491.11Z"/><path class="cls-2" d="M51.1,493.51A233.46,233.46,0,0,0,10,487.73v1a233.55,233.55,0,0,1,40.87,5.75l13.6,3.15c7.69,1.79,15.58,3.62,23.52,5.42h4.62c-9.41-2.11-18.8-4.28-27.91-6.4Z"/><path class="cls-2" d="M45,497.89a240.85,240.85,0,0,0-35-5.28v1.06a241.84,241.84,0,0,1,34.76,5.25q9,2,18.11,4.14h4.75l-3.71-.85Q54.39,500,45,497.89Z"/><path class="cls-2" d="M10,497.63v1.12a248.63,248.63,0,0,1,27.24,4.31h5.19l-3.55-.79A249.31,249.31,0,0,0,10,497.63Z"/><path class="cls-2" d="M551.21,384.27c-34.31,7-66.34,20.68-97.32,33.93-11.55,4.94-22.69,9.7-33.64,14l-3.41,1.56c-4.91,1.89-9.79,3.68-14.65,5.33-55.09,18.73-114.66,35.07-177,27.9-34.34-3.95-69.32-11-106.95-21.67C101.4,440.55,85.94,438,71,437.48A152.43,152.43,0,0,0,12.12,447l-2.12.79v.49l2.28-.85A152.13,152.13,0,0,1,71,437.94c14.9.5,30.32,3.06,47.14,7.81,37.65,10.65,72.66,17.75,107,21.7,62.41,7.18,122-9.18,177.18-27.92,2.85-1,5.71-2,8.57-3l-2.65,1.21c14.94-5.36,30.08-11.84,46-18.65,30.94-13.23,62.93-26.92,97.14-33.88A207,207,0,0,1,590,381.05v-.91A207.21,207.21,0,0,0,551.21,384.27Z"/><path class="cls-2" d="M543.46,391.65c-34.1,6.67-66,19.87-96.88,32.64-18,7.44-35,14.47-51.8,20l-3.31,1.08-2,.89c-53.54,17.32-111.13,31.84-170.88,25-19.27-2.22-39.15-5.51-59.07-9.79-15.35-3.29-31.3-7.24-47.4-11.72C74.9,439.39,41.44,439.51,10,450v.54c31.39-10.55,64.8-10.69,102-.39,16.1,4.49,32.06,8.43,47.42,11.73,19.94,4.28,39.83,7.57,59.12,9.79,58.3,6.71,114.53-6.91,166.94-23.64l-1.85.84c3.83-1.21,7.65-2.45,11.44-3.69,16.87-5.54,33.87-12.57,51.86-20,30.83-12.75,62.7-25.94,96.7-32.59A211.29,211.29,0,0,1,590,388.71v-1A212.42,212.42,0,0,0,543.46,391.65Z"/><path class="cls-2" d="M535.71,399c-33.89,6.37-65.7,19.07-96.46,31.36-18,7.18-35,14-51.8,19.29q-8.61,2.73-17.37,5.36l-1.77.79C318.8,470.53,266.13,481.66,212,475.42c-19.27-2.22-39.05-5.5-58.79-9.75-15.3-3.29-31.18-7.19-47.19-11.59-34.76-9.42-66.29-9.89-96-1.47v.58c29.71-8.44,61.19-8,95.9,1.43,16,4.4,31.91,8.3,47.22,11.6,19.76,4.25,39.56,7.53,58.85,9.75a274,274,0,0,0,31.49,1.78c41.72,0,82.36-8.93,121.1-20.24l-1.73.77c8.4-2.43,16.72-5,24.94-7.58,16.88-5.34,33.88-12.13,51.87-19.32,30.72-12.27,62.48-25,96.27-31.31a216.06,216.06,0,0,1,54.09-3.3v-1.06A216.73,216.73,0,0,0,535.71,399Z"/><path class="cls-2" d="M528,406.41c-33.68,6.06-65.38,18.27-96,30.08-18,6.93-34.95,13.46-51.8,18.6-9.62,2.93-19.38,5.79-29.25,8.49l-1.69.73c-46,12.43-94.39,21-143.74,15.32-19.29-2.23-39-5.49-58.51-9.71-14.56-3.14-29.93-6.89-47-11.46-32.19-8.63-61.77-9.6-89.94-3v.62c28.12-6.65,57.64-5.69,89.79,2.93,17.06,4.57,32.44,8.32,47,11.47,19.55,4.21,39.26,7.49,58.57,9.72,48.06,5.54,95.23-2.43,140.1-14.31l-1.61.7c12.38-3.24,24.59-6.8,36.6-10.46,16.88-5.14,33.87-11.69,51.87-18.62,30.61-11.79,62.26-24,95.83-30A218.68,218.68,0,0,1,590,405.21v-1.14A219.72,219.72,0,0,0,528,406.41Z"/><path class="cls-2" d="M520.2,413.79c-33.47,5.76-65.07,17.48-95.62,28.81-18,6.66-34.94,12.95-51.78,17.89-13.13,3.84-26.49,7.56-40.05,10.91l-1.65.69c-42.65,10.41-87.19,17-132.25,11.76-19.3-2.24-38.89-5.49-58.23-9.68-14.14-3.06-29.45-6.77-46.78-11.33C64.05,455,36.43,453.63,10,458.69v.67c26.37-5.07,53.94-3.71,83.67,4.12,17.35,4.56,32.66,8.27,46.81,11.34,19.36,4.18,39,7.44,58.3,9.68,43.77,5.06,87-1,128.57-10.83l-1.57.66c16.07-3.78,31.88-8.14,47.36-12.68C390,456.71,407,450.4,425,443.74c30.5-11.31,62.05-23,95.41-28.76A223.39,223.39,0,0,1,590,413.8v-1.22A224.5,224.5,0,0,0,520.2,413.79Z"/><path class="cls-2" d="M512.45,421.17c-33.22,5.54-64.68,16.72-95.11,27.54-18,6.39-35,12.44-51.87,17.18C349,470.52,332.15,475,315,478.73l-1.68.66c-39.35,8.54-80.12,13.41-121.1,8.67-19.3-2.24-38.8-5.48-57.95-9.64-13.81-3-28.61-6.56-46.58-11.2-27.43-7.09-53.08-8.77-77.73-5.07v.72c24.59-3.71,50.18-2,77.56,5,18,4.64,32.78,8.2,46.6,11.21,19.17,4.16,38.69,7.4,58,9.64,39.66,4.59,79.11.2,117.28-7.81l-1.6.63c19.71-4.08,39.07-9.14,57.95-14.45,16.93-4.76,33.94-10.81,52-17.21,30.37-10.8,61.78-22,94.89-27.48a230.63,230.63,0,0,1,77.34.34v-1.19A234.37,234.37,0,0,0,512.45,421.17Z"/><path class="cls-2" d="M504.7,428.55c-33,5.25-64.38,15.94-94.71,26.28-18,6.13-35,11.92-51.85,16.46-19.92,5.37-40.38,10.47-61.17,14.45l-1.76.65c-35.87,6.76-72.71,10.15-109.54,5.88C166.38,490,147,486.8,128,482.67c-17.18-3.74-33.81-7.88-46.37-11.07C56.88,465.33,32.91,463.45,10,466v.76c22.84-2.5,46.76-.63,71.44,5.63,12.57,3.19,29.21,7.33,46.4,11.08,19,4.13,38.43,7.36,57.74,9.6,35.43,4.11,70.85,1.15,105.39-5.08l-1.65.6c23.55-4.17,46.7-9.88,69.17-15.93,16.93-4.56,33.94-10.36,51.94-16.49,30.28-10.32,61.58-21,94.49-26.23,25.4-4,55.84-3.21,85.08,2.52v-1.74A237.73,237.73,0,0,0,504.7,428.55Z"/><path class="cls-2" d="M497,435.93c-32.81,5-64.07,15.16-94.3,25-18,5.86-34.95,11.4-51.84,15.75-23.79,6.13-48.33,11.88-73.24,15.87-.66.22-1.3.41-1.95.62-31.83,5-64.26,7-96.54,3.29-19.28-2.24-38.58-5.45-57.39-9.56C105.59,483.4,90,479.58,75.52,476,53,470.38,31.09,468.35,10,469.9v.81c21-1.55,42.87.47,65.33,6.06,14.47,3.6,30.08,7.42,46.19,10.94,18.83,4.11,38.16,7.33,57.47,9.58,30.65,3.56,61.43,1.9,91.7-2.53l-1.81.57c28-4,55.63-10.38,82.29-17.25,16.93-4.35,33.93-9.9,51.92-15.77,30.18-9.84,61.38-20,94.08-25a242.65,242.65,0,0,1,92.83,4.2v-1.47A244,244,0,0,0,497,435.93Z"/><path class="cls-2" d="M489.21,443.31c-32.63,4.68-63.79,14.39-93.93,23.77-17.95,5.59-34.92,10.88-51.79,15-28.68,7-58.41,13.56-88.5,17.2l-2.36.61c-26.6,3.08-53.48,3.89-80.14.79-19.3-2.25-38.51-5.46-57.11-9.53-15.6-3.42-31.26-7.21-46-10.81A214.52,214.52,0,0,0,10,474.07v.86a213.39,213.39,0,0,1,59.21,6.27c14.71,3.59,30.38,7.39,46,10.81,18.62,4.08,37.86,7.29,57.19,9.54q8.76,1,17.79,1.51H226c6.61-.34,13.38-.88,20.3-1.58l-2.22.53c34-3.27,67.55-10.52,99.8-18.45,16.92-4.15,33.9-9.44,51.88-15,30.08-9.37,61.19-19.06,93.69-23.72A252.55,252.55,0,0,1,590,451.27v-1.56A251,251,0,0,0,489.21,443.31Z"/><path class="cls-2" d="M481.46,450.69C449,455.08,418,464.3,387.91,473.21,370,478.54,353,483.56,336.16,487.5c-28,6.54-56.91,12.58-86.15,16.05h11.64c20.88-3,45.42-7.62,74.87-14.51,16.92-4,33.88-9,51.84-14.31,30-8.9,61-18.1,93.31-22.48,32.49-4.4,72.66-1.43,108.33,9v-1.69l-.63-.2A257.88,257.88,0,0,0,481.46,450.69Z"/><path class="cls-2" d="M473.71,458.07c-32.25,4.11-63.23,12.84-93.18,21.28-17.92,5-34.83,9.82-51.69,13.55-20.35,4.52-38.33,8-54.36,10.65h9.75c13.6-2.41,28.5-5.38,45-9C346.1,490.77,363,486,381,480.94c29.91-8.43,60.83-17.14,92.95-21.23A263.45,263.45,0,0,1,590,471.35v-1.72A265,265,0,0,0,473.71,458.07Z"/><path class="cls-2" d="M466,465.45c-32.08,3.82-63,12.07-92.87,20.05-17.87,4.77-34.75,9.28-51.58,12.8-9.3,2-18.07,3.69-26.41,5.25h9.22c5.65-1.1,11.48-2.28,17.54-3.55,16.88-3.54,33.78-8.05,51.68-12.83,29.82-8,60.67-16.2,92.62-20A270,270,0,0,1,590,481.9V480c-5.73-2.13-11.67-4.1-17.78-5.85A272.28,272.28,0,0,0,466,465.45Z"/><path class="cls-2" d="M458.22,472.83c-31.91,3.53-62.74,11.3-92.56,18.82-17.56,4.42-34.16,8.6-50.71,11.9h8.84c13.8-3,27.72-6.48,42.31-10.15,29.76-7.51,60.53-15.26,92.32-18.78,49.06-5.43,96.17,3.16,131.58,17.75v-1.92C554.38,475.92,507.26,467.4,458.22,472.83Z"/><path class="cls-2" d="M450.48,480.21c-31.76,3.24-62.54,10.54-92.3,17.6-8.4,2-16.57,3.92-24.63,5.74H342q8.21-1.91,16.65-3.92c29.71-7,60.42-14.32,92.06-17.56,52.54-5.37,103.11,5,139.33,21.3v-2.11a245.85,245.85,0,0,0-35-12.35A289.25,289.25,0,0,0,450.48,480.21Z"/><path class="cls-2" d="M442.73,487.59c-31,2.89-61.05,9.49-90.18,16h9c26.38-5.81,53.53-11.42,81.34-14,45.38-4.25,87.59,2.49,120.9,14h5.73C535.24,490.83,490.74,483.09,442.73,487.59Z"/><path class="cls-2" d="M435,495a578.62,578.62,0,0,0-59.16,8.58H387c15.83-2.81,31.89-5.19,48.15-6.57a305.8,305.8,0,0,1,93.55,6.57h8.53A309.74,309.74,0,0,0,435,495Z"/><path class="cls-2" d="M427.25,502.34q-6.6.51-13.16,1.21h73.5A321.41,321.41,0,0,0,427.25,502.34Z"/></svg>