<svg id="Layer_1" data-name="Layer 1" xmlns="http://www.w3.org/2000/svg" viewBox="0 0 600 600"><defs><style>.cls-1{fill:#d8d8d8;}.cls-2,.cls-4,.cls-5,.cls-6{fill:none;stroke-miterlimit:10;stroke-width:0.48px;}.cls-2{stroke:#8b8b8b;}.cls-3{fill:#fff;}.cls-4,.cls-5,.cls-6{stroke:#b1b1b1;}.cls-5{stroke-dasharray:24.13 24.13;}.cls-6{stroke-dasharray:24.09 24.09;}.cls-7{fill:#011e41;}.cls-8{fill:#75cae8;}</style></defs><title>Graphic_Language_Use_Photography_Portrait_1-2</title><rect class="cls-1" x="95.09" y="11.11" width="409.83" height="577.78"/><rect class="cls-2" x="95.09" y="11.11" width="409.83" height="577.78"/><rect class="cls-3" x="118.52" y="34.55" width="363.27" height="530.91"/><rect class="cls-4" x="118.52" y="34.55" width="363.27" height="530.91"/><rect class="cls-4" x="118.36" y="521.65" width="363.27" height="43.8"/><rect class="cls-4" x="118.36" y="300.24" width="363.27" height="43.8"/><rect class="cls-4" x="118.36" y="477.37" width="363.27" height="43.8"/><rect class="cls-4" x="118.36" y="255.96" width="363.27" height="43.8"/><rect class="cls-4" x="118.36" y="433.09" width="363.27" height="43.8"/><rect class="cls-4" x="118.36" y="211.68" width="363.27" height="43.8"/><rect class="cls-4" x="118.36" y="388.81" width="363.27" height="43.8"/><rect class="cls-4" x="118.36" y="167.39" width="363.27" height="43.8"/><rect class="cls-4" x="118.36" y="78.83" width="363.27" height="43.8"/><rect class="cls-4" x="118.36" y="344.52" width="363.27" height="43.8"/><rect class="cls-4" x="118.36" y="123.11" width="363.27" height="43.8"/><rect class="cls-4" x="118.36" y="34.55" width="363.27" height="43.8"/><rect class="cls-3" x="143.42" y="34.55" width="5.55" height="530.91"/><line class="cls-5" x1="143.42" y1="70.74" x2="143.42" y2="541.32"/><line class="cls-5" x1="148.97" y1="529.26" x2="148.97" y2="58.68"/><path class="cls-4" d="M149,46.61V34.55h-5.55V46.61m0,506.78v12.07H149V553.39"/><rect class="cls-3" x="204.94" y="34.55" width="5.55" height="530.91"/><line class="cls-5" x1="204.94" y1="70.74" x2="204.94" y2="541.32"/><line class="cls-5" x1="210.49" y1="529.26" x2="210.49" y2="58.68"/><path class="cls-4" d="M210.49,46.61V34.55h-5.55V46.61m0,506.78v12.07h5.55V553.39"/><rect class="cls-3" x="266.46" y="34.55" width="5.55" height="530.91"/><line class="cls-5" x1="266.46" y1="70.74" x2="266.46" y2="541.32"/><line class="cls-5" x1="272.01" y1="529.26" x2="272.01" y2="58.68"/><path class="cls-4" d="M272,46.61V34.55h-5.55V46.61m0,506.78v12.07H272V553.39"/><rect class="cls-3" x="327.98" y="34.55" width="5.55" height="530.91"/><line class="cls-5" x1="327.98" y1="70.74" x2="327.98" y2="541.32"/><line class="cls-5" x1="333.53" y1="529.26" x2="333.53" y2="58.68"/><path class="cls-4" d="M333.54,46.61V34.55H328V46.61m0,506.78v12.07h5.56V553.39"/><rect class="cls-3" x="389.5" y="34.55" width="5.55" height="530.91"/><line class="cls-5" x1="389.51" y1="70.74" x2="389.51" y2="541.32"/><line class="cls-5" x1="395.06" y1="529.26" x2="395.06" y2="58.68"/><path class="cls-4" d="M395.06,46.61V34.55h-5.55V46.61m0,506.78v12.07h5.55V553.39"/><rect class="cls-3" x="174.18" y="34.55" width="5.55" height="530.91"/><rect class="cls-4" x="174.18" y="34.55" width="5.55" height="530.91"/><rect class="cls-3" x="235.7" y="34.55" width="5.55" height="530.91"/><rect class="cls-4" x="235.7" y="34.55" width="5.55" height="530.91"/><rect class="cls-3" x="297.22" y="34.55" width="5.55" height="530.91"/><rect class="cls-4" x="297.22" y="34.55" width="5.55" height="530.91"/><rect class="cls-3" x="358.74" y="34.55" width="5.55" height="530.91"/><rect class="cls-4" x="358.74" y="34.55" width="5.55" height="530.91"/><polyline class="cls-4" points="425.82 565.3 425.82 34.54 420.26 34.54 420.26 565.3"/><rect class="cls-3" x="451.03" y="34.55" width="5.55" height="530.91"/><line class="cls-5" x1="451.03" y1="70.74" x2="451.03" y2="541.32"/><line class="cls-5" x1="456.58" y1="529.26" x2="456.58" y2="58.68"/><path class="cls-4" d="M456.58,46.61V34.55H451V46.61m0,506.78v12.07h5.55V553.39"/><rect class="cls-3" x="451.03" y="34.54" width="5.55" height="529.97"/><line class="cls-6" x1="451.03" y1="70.68" x2="451.03" y2="540.42"/><line class="cls-6" x1="456.58" y1="528.38" x2="456.58" y2="58.63"/><path class="cls-4" d="M456.58,46.59V34.54H451V46.59m0,505.87v12h5.55v-12"/><rect class="cls-7" x="95.34" y="300" width="409.82" height="288.72"/><path class="cls-8" d="M495.73,557.08l-3.13,1.26-3.11,1.31-5.87,2.47.08,0,.22.1-.59.25-6.17,2.74C473,567,469,569,464.87,570.82c-2.05.94-4.07,1.91-6.11,2.86s-4.07,1.91-6.1,2.89q-12.5,6-24.9,12.15H429c3.93-1.94,7.86-3.88,11.8-5.79l6.07-2.94,6.09-2.91q15.82-7.53,32-14.36h0l5-2.08,1.33-.56q5.46-2.24,11-4.37l1.57-.6,1.36-.51h0v-1.23c-1,.4-2.1.79-3.15,1.2Z"/><path class="cls-8" d="M488.36,556.83c-2.08.84-4.17,1.66-6.24,2.51l-2.43,1,.33.14-4,1.71-3.09,1.31-3.08,1.35-6.17,2.69-6.13,2.76-3.07,1.39-3.05,1.4c-11.1,5.1-22.13,10.35-33.15,15.61h1.23l7.78-3.74c4.05-1.92,8.09-3.86,12.16-5.74l6.09-2.85,6.11-2.8q14.53-6.65,29.33-12.69l.05,0,1.53-.64c2.07-.85,4.16-1.66,6.23-2.49,1.2-.49,2.41-.95,3.61-1.42q4.44-1.71,8.91-3.36c1.29-.5,2.59-1,3.89-1.41v-1.19c-1.41.51-2.83,1-4.24,1.56C496.72,553.58,492.51,555.13,488.36,556.83Z"/><path class="cls-8" d="M475.46,558.58l.35.14-1.12.46c-2.08.82-4.14,1.7-6.21,2.55s-4.13,1.71-6.18,2.59c-4.11,1.78-8.23,3.53-12.31,5.35-14,6.17-27.9,12.61-41.78,19.05h1.25l16.27-7.58c4.07-1.86,8.13-3.75,12.21-5.57l6.11-2.74,6.14-2.7,3.07-1.35,3.09-1.32,6.17-2.62c2.05-.87,4.13-1.7,6.19-2.56s4.13-1.71,6.22-2.51l1.75-.69.08,0q9.18-3.66,18.48-7l4.79-1.69,5.12-1.77v-1.13q-2.72.93-5.43,1.9Q487.5,553.73,475.46,558.58Z"/><path class="cls-8" d="M492.08,548.92l-6.3,2.27-3.15,1.13-3.14,1.19-6.26,2.37-2.34.92.39.14-4.21,1.67c-2.08.83-4.16,1.63-6.22,2.49-4.13,1.7-8.26,3.39-12.36,5.15-16.44,7-32.71,14.3-49,21.66-.59.28-1.2.53-1.79.81H399l.76-.35q12.18-5.55,24.39-11c4.08-1.81,8.15-3.63,12.25-5.39l6.14-2.66c2.05-.88,4.11-1.73,6.16-2.6,4.11-1.76,8.25-3.42,12.38-5.1,2.06-.85,4.15-1.64,6.22-2.46l4.82-1.88.09,0,1.39-.54,6.25-2.35,3.13-1.18,3.15-1.12,5.77-2.07.49-.17c2.11-.73,4.23-1.42,6.35-2.13s4.29-1.43,6.44-2.11v-1.08c-2.25.72-4.5,1.45-6.73,2.23S494.19,548.19,492.08,548.92Z"/><path class="cls-8" d="M497,544.13c-4.25,1.33-8.46,2.8-12.69,4.23-2.11.7-4.2,1.48-6.3,2.22l-6.29,2.27L465.94,555l.42.14c-6.52,2.49-13,5-19.48,7.68-16.52,6.71-32.85,13.85-49.15,21.06l-3.05,1.35c-1,.46-2.05.87-3.08,1.3l-5.14,2.16h1.29L391.8,587c1-.44,2.06-.85,3.07-1.31l3.06-1.36q12.19-5.45,24.46-10.76c8.18-3.52,16.39-7,24.65-10.32,2.07-.83,4.13-1.68,6.2-2.49l6.23-2.42,3.12-1.21,3.12-1.17,1.43-.53.11,0,4.78-1.8,6.29-2.25c2.1-.74,4.19-1.52,6.3-2.21s4.21-1.44,6.32-2.14,4.21-1.39,6.33-2,4.24-1.35,6.37-2l1.51-.44v-1l-1.76.53C501.26,542.77,499.14,543.46,497,544.13Z"/><path class="cls-8" d="M501.89,539.56l-6.4,1.92c-11.77,3.56-23.4,7.56-34.94,11.82l.44.13c-1.12.42-2.25.82-3.37,1.25L451.37,557l-6.22,2.43L442,560.67l-3.09,1.24-6.2,2.5-12.35,5.09q-12.31,5.16-24.57,10.47c-4.07,1.8-8.2,3.44-12.31,5.14l-1.55.63c-.51.2-1,.38-1.56.57l-3.14,1.13-3.14,1.13-.4.15h1.52l2.19-.81,3.14-1.15c.52-.19,1.05-.37,1.57-.58l1.54-.64c4.11-1.71,8.26-3.36,12.32-5.17q12.24-5.34,24.54-10.51,6.16-2.58,12.35-5.08l6.2-2.48,3.1-1.23,3.11-1.21,6.23-2.41,6.25-2.33c1.32-.5,2.65-1,4-1.45l.11,0c8.22-3,16.5-5.88,24.84-8.55l1.49-.48q3.13-1,6.28-1.94l1.26-.38,6.39-1.89c1-.31,2-.57,3-.85v-1h0C504,538.94,503,539.23,501.89,539.56Z"/><path class="cls-8" d="M492.26,539.26l-1.6.48-3.2,1c-2.13.65-4.26,1.27-6.38,1.95l-6.36,2.05-3.18,1-3.16,1.08L462.06,549c-2.1.72-4.19,1.49-6.29,2.23l-1.19.43.49.12-2.38.86c-1.05.37-2.1.75-3.14,1.14l-6.25,2.34c-2.09.77-4.16,1.57-6.24,2.38l-6.22,2.41-6.2,2.48c-2.07.83-4.14,1.63-6.2,2.48-4.12,1.68-8.25,3.35-12.35,5.07l-6.16,2.57-6.14,2.6c-2.05.87-4.1,1.75-6.15,2.59L384.55,580l-3.1,1.21c-4.14,1.61-8.34,3.07-12.56,4.48-3.36,1.1-6.74,2.11-10.14,3.08h2c2.79-.83,5.57-1.69,8.33-2.6l3.16-1.09c1.05-.37,2.1-.72,3.15-1.11,2.08-.78,4.18-1.53,6.24-2.36l3.11-1.22,3.09-1.28c2.06-.85,4.1-1.73,6.14-2.6,16.38-7,32.82-13.79,49.5-20q6.17-2.31,12.38-4.52l.12,0,.09,0c2.1-.74,4.19-1.5,6.29-2.23l6.32-2.14,3.16-1.07,3.17-1,6.35-2c2.12-.67,4.26-1.29,6.38-1.93l2.49-.75,3.88-1.13q5.52-1.57,11.08-3v-.93q-5.65,1.5-11.29,3.11Z"/><path class="cls-8" d="M447.36,550.27l.59.09-.33.11-6.28,2.26c-1,.37-2.1.75-3.14,1.14L435.07,555l-6.25,2.34-6.23,2.41-3.11,1.2-3.11,1.22c-4.13,1.64-8.28,3.27-12.39,5l-6.19,2.52-6.16,2.56c-2.06.85-4.11,1.71-6.17,2.54l-3.09,1.26-3.12,1.19c-4.15,1.6-8.36,3-12.58,4.41a264.35,264.35,0,0,1-25.77,6.86c-.33.08-.67.14-1,.21h2.7c8.17-1.85,16.25-4,24.21-6.63,4.22-1.41,8.43-2.87,12.58-4.48l3.12-1.2,3.09-1.26c2.07-.84,4.12-1.7,6.17-2.56,16.42-6.86,32.94-13.5,49.69-19.52l6.29-2.23,1-.36.16,0c13.77-4.83,27.68-9.25,41.74-13.16l1.66-.47q6.4-1.73,12.84-3.29v-.87q-6.52,1.6-13,3.38C477,540.27,462.12,545.05,447.36,550.27Z"/><path class="cls-8" d="M496.78,531.76c-2.17.54-4.34,1-6.49,1.63-17.24,4.51-34.27,9.82-51.09,15.7l-.46.17.65.06-.14,0L433,551.62c-2.1.76-4.2,1.49-6.28,2.28l-6.26,2.34-3.13,1.17-3.12,1.2L408,561c-2.08.8-4.14,1.64-6.22,2.45l-6.2,2.48-6.19,2.52c-2.06.84-4.12,1.68-6.19,2.5l-3.1,1.24-3.13,1.17c-1,.38-2.07.79-3.13,1.15l-3.15,1.1-1.58.55-1.58.51-3.18,1a261,261,0,0,1-25.83,6.68,265.73,265.73,0,0,1-30,4.33h6.68c7.85-.93,15.67-2.17,23.4-3.79a262.06,262.06,0,0,0,25.85-6.81l3.18-1,1.58-.53,1.58-.55,3.15-1.12c1.06-.36,2.09-.78,3.14-1.16l3.12-1.18,3.1-1.24c2.08-.83,4.13-1.68,6.19-2.52,16.48-6.76,33.08-13.22,49.9-19.09l.85-.29h.14c15.2-5.26,30.56-10.06,46.09-14.22l4-1.05c2.15-.59,4.32-1.08,6.48-1.61l6.49-1.56,1.72-.38v-.83l-1.88.42Z"/><path class="cls-8" d="M503,527.24l-1.63.36-6.53,1.49c-1.08.25-2.17.48-3.25.75l-3.25.81C471,534.93,453.91,540,437,545.75c-2.67.91-5.32,1.86-8,2.79l.71,0q-21.58,7.59-42.82,16.13c-2.07.83-4.14,1.66-6.21,2.47l-3.11,1.22-3.14,1.15c-1.05.38-2.09.79-3.14,1.14l-3.17,1.08-1.58.53-1.59.51-3.19,1a251,251,0,0,1-25.91,6.5c-2.18.45-4.38.81-6.57,1.2-1.1.21-2.2.35-3.3.53s-2.2.35-3.31.5l-3.31.44-1.65.22-1.66.18-3.32.37-3.33.31c-8.87.8-17.78,1.11-26.69,1-1.11,0-2.22,0-3.34-.06s-2.22,0-3.34-.08c-2.22-.09-4.45-.15-6.67-.29-4.45-.22-8.89-.58-13.32-1q-13.3-1.28-26.5-3.43c-17.6-2.83-35-6.68-52.37-10.76s-34.69-8.34-52.18-11.9q-6.56-1.33-13.15-2.5T98.65,553l-3.31-.43v.92c9.89,1.3,19.73,3,29.51,5,17.46,3.56,34.77,7.87,52.14,11.9s34.82,7.88,52.45,10.69c8.81,1.42,17.67,2.56,26.56,3.37,4.45.39,8.9.74,13.36.94,2.23.13,4.46.19,6.69.27,1.12,0,2.23,0,3.35.07s2.23,0,3.35,0c8.92,0,17.86-.3,26.74-1.14l3.34-.32,3.32-.39,1.67-.19,1.65-.22,3.32-.45c1.11-.16,2.21-.35,3.31-.52s2.21-.33,3.3-.54c2.2-.4,4.4-.76,6.58-1.23a252.06,252.06,0,0,0,25.94-6.61l3.18-1,1.6-.52,1.58-.54,3.16-1.09c1.06-.36,2.1-.77,3.14-1.15l3.14-1.16,3.12-1.22,6.21-2.48c14.34-5.78,28.79-11.3,43.4-16.38h.23l6.54-2.28c15.81-5.34,31.82-10.11,48-14.19l3.28-.82,3.25-.8c1.08-.27,2.17-.49,3.26-.74l6.52-1.46,1.63-.37,1.64-.33.35-.07v-.78l-.49.1Z"/><path class="cls-8" d="M483.06,528.63l-1.64.37-1.62.42-6.5,1.65c-1.08.27-2.17.54-3.25.83l-3.23.89-6.46,1.78c-2.16.59-4.29,1.25-6.44,1.88s-4.29,1.25-6.42,1.91l-6.4,2-3.19,1c-1.07.33-2.12.7-3.19,1q-8.28,2.72-16.51,5.64l.78,0Q401.58,554.22,384.4,561l-6.24,2.43-3.12,1.2-3.15,1.13c-2.1.78-4.22,1.47-6.34,2.18l-1.58.53-1.6.49-3.2,1a247.57,247.57,0,0,1-26,6.32c-4.39.84-8.8,1.5-13.22,2.11s-8.87,1-13.32,1.35-8.91.54-13.36.66c-2.24,0-4.47.09-6.7.06l-3.34,0-3.35-.08-1.67,0-1.67-.07-3.35-.15-3.34-.2-1.67-.1-1.66-.13-3.34-.27-3.33-.31c-1.11-.1-2.22-.22-3.33-.35l-3.33-.37q-13.27-1.62-26.44-4.16c-17.54-3.35-34.85-7.79-52.1-12.41s-34.49-9.39-51.94-13.3c-8.72-2-17.5-3.68-26.35-5l-1-.14v.82c9.12,1.35,18.19,3.12,27.18,5.14,17.42,3.91,34.63,8.72,51.9,13.3s34.61,9,52.18,12.35c8.78,1.68,17.62,3.07,26.5,4.11l3.34.36c1.11.13,2.22.24,3.33.34l3.34.3,3.35.26,1.67.12,1.67.1,3.35.19,3.35.14,1.68.06,1.68,0,3.35.08h3.35c2.24,0,4.47-.05,6.71-.08,4.47-.14,8.94-.33,13.39-.71s8.91-.84,13.34-1.4,8.85-1.3,13.24-2.16a247.76,247.76,0,0,0,26-6.42c4.27-1.31,8.52-2.7,12.72-4.23l3.15-1.14c1.05-.39,2.08-.81,3.13-1.21,2.08-.8,4.16-1.62,6.24-2.44,11.62-4.61,23.33-9,35.14-13.16h.16c5-1.75,10.05-3.47,15.1-5.12,1.06-.35,2.12-.71,3.18-1l3.2-1,6.39-2c2.13-.66,4.28-1.27,6.42-1.9s4.28-1.28,6.43-1.87l6.46-1.77,3.23-.89c1.08-.29,2.16-.55,3.24-.83l6.49-1.64,1.63-.41,1.63-.37,2.05-.48,1.19-.27q9.32-2.14,18.7-3.94v-.74q-9.45,1.85-18.83,4Z"/><path class="cls-8" d="M497.35,522.33l-3.3.63-1.65.32c-.55.1-1.1.23-1.64.35L484.18,525l-3.28.71-3.27.78-6.53,1.56c-1.09.25-2.18.54-3.26.82l-3.25.85c-2.17.57-4.34,1.11-6.5,1.7l-6.47,1.82-3.23.91c-1.08.3-2.15.64-3.22,1-4.29,1.3-8.59,2.54-12.85,3.94q-13,4.13-25.76,8.72h.76q-12.85,4.57-25.56,9.54l-6.28,2.4c-1.05.39-2.08.81-3.14,1.17l-3.16,1.12c-4.22,1.49-8.49,2.84-12.78,4.11a240.88,240.88,0,0,1-26.12,6.13c-4.4.81-8.84,1.42-13.27,2-1.11.13-2.23.24-3.34.36s-2.22.25-3.33.33c-2.23.19-4.46.39-6.7.51-4.46.3-8.93.4-13.4.46h-5l-1.68,0-3.35-.08-3.36-.15-1.67-.08-1.67-.11-3.35-.21-3.34-.28-1.67-.14-1.67-.17-3.34-.34-3.33-.39-1.67-.2-1.66-.23-3.32-.46q-13.27-1.95-26.38-4.91c-17.47-3.9-34.66-8.92-51.8-14.09s-34.27-10.45-51.69-14.7c-2.17-.55-4.36-1-6.54-1.55s-4.37-1-6.57-1.42-4.4-.87-6.6-1.3c-1.74-.3-3.47-.61-5.21-.9v.73c1.7.28,3.39.58,5.08.88,2.2.43,4.39.83,6.58,1.3s4.37.94,6.56,1.42,4.36,1,6.53,1.54c17.38,4.25,34.49,9.57,51.64,14.71s34.37,10.15,51.88,14c8.74,2,17.56,3.6,26.43,4.88l3.33.45,1.67.22,1.67.19,3.33.39,3.35.33,1.67.17,1.68.13,3.35.27,3.35.21,1.68.1,1.68.07,3.36.14,3.36.07,1.68,0h5c4.48-.08,9-.19,13.43-.51,2.24-.12,4.47-.33,6.71-.52,1.11-.09,2.23-.23,3.34-.34s2.23-.24,3.34-.38c4.44-.57,8.88-1.2,13.29-2a244.51,244.51,0,0,0,26.14-6.21c4.29-1.29,8.55-2.65,12.78-4.16l3.16-1.12c1.06-.37,2.1-.79,3.15-1.18l6.26-2.41q13-5.07,26.12-9.76h.14q12.13-4.29,24.39-8.2c4.26-1.39,8.56-2.63,12.84-3.93,1.07-.32,2.14-.65,3.22-1l3.23-.91,6.46-1.81c2.16-.59,4.33-1.13,6.5-1.69l3.25-.84c1.08-.28,2.16-.58,3.25-.82l6.53-1.55,3.27-.78,3.28-.7.06,0q10.35-2.24,20.77-4.06v-.7l-1.2.21C501.74,521.46,499.55,521.91,497.35,522.33Z"/><path class="cls-8" d="M478.66,522.88l-3.28.73-3.29.73c-1.1.25-2.2.47-3.29.75l-6.54,1.61-3.27.8c-1.09.27-2.18.57-3.26.86-4.34,1.16-8.69,2.28-13,3.56l-6.47,1.87c-2.15.64-4.29,1.31-6.44,2q-17.93,5.54-35.53,12H395q-8,2.91-16,6c-4.2,1.59-8.39,3.19-12.64,4.63l-1.59.55-1.6.52-3.2,1c-1.07.35-2.15.66-3.22,1l-3.23,1a238.62,238.62,0,0,1-26.24,5.94c-1.11.18-2.21.38-3.32.54l-3.33.48-1.67.23-1.67.2-3.34.4c-1.12.12-2.23.21-3.35.32s-2.23.23-3.35.29c-2.24.15-4.48.34-6.72.42-1.12,0-2.24.11-3.36.14l-3.36.08-1.68,0h-5.05l-3.36-.07-1.68,0-1.69-.07-3.36-.15-3.35-.21-1.68-.11-1.68-.14-3.35-.29-3.34-.35-1.68-.18-1.67-.21-3.33-.42-3.33-.48-1.67-.24-1.66-.27-3.32-.55c-4.41-.78-8.82-1.62-13.2-2.58s-8.75-2-13.1-3.1c-17.39-4.45-34.45-10.09-51.47-15.81s-34-11.51-51.42-16.1c-7.39-2-14.86-3.65-22.38-5v.63c7.47,1.38,14.87,3.07,22.22,5,17.35,4.58,34.35,10.4,51.38,16.09s34.11,11.33,51.53,15.76c8.71,2.23,17.49,4.14,26.35,5.66l3.33.54,1.66.26,1.67.24,3.34.48,3.34.41,1.68.2,1.67.18,3.36.34,3.35.28,1.68.14,1.69.11,3.36.2,3.37.14,1.68.07,1.69,0,3.37.06h5.05l1.69,0,3.37-.09,3.36-.15c2.25-.09,4.49-.28,6.73-.43,1.12-.07,2.23-.21,3.35-.31s2.24-.2,3.36-.33l3.34-.4,1.68-.2,1.66-.24,3.34-.49c1.11-.16,2.21-.37,3.32-.55a238.29,238.29,0,0,0,26.27-6l3.23-1c1.07-.32,2.15-.63,3.22-1l3.2-1,1.61-.52,1.59-.55c4.25-1.45,8.44-3.06,12.64-4.65q8.25-3.18,16.55-6.2h.1q17-6.15,34.25-11.49c2.15-.65,4.29-1.33,6.44-2l6.47-1.86c4.31-1.27,8.66-2.38,13-3.54,1.08-.29,2.16-.59,3.25-.86l3.27-.79,6.54-1.6c1.09-.28,2.19-.5,3.28-.75l3.29-.73,3.28-.72,1.28-.29L481,523l1.1-.23c1.73-.36,3.46-.7,5.19-1q8.91-1.73,17.89-3.13v-.63q-11.64,1.85-23.19,4.24C480.85,522.38,479.76,522.64,478.66,522.88Z"/><path class="cls-8" d="M499.62,515.77,493,516.83c-1.12.16-2.22.39-3.33.59l-3.33.61-3.32.6c-1.11.21-2.22.4-3.32.64-17.69,3.52-35.17,8-52.44,13.15-15.4,4.62-30.63,9.82-45.69,15.44h.68q-3.06,1.14-6.09,2.29l-6.34,2.34c-1,.4-2.12.76-3.18,1.12l-3.2,1.1c-1.06.37-2.14.7-3.21,1l-3.22,1c-2.15.66-4.32,1.26-6.48,1.9a237.57,237.57,0,0,1-26.39,5.72c-1.11.17-2.22.37-3.33.51l-3.35.45-1.67.21-1.68.18-3.36.36c-1.12.11-2.24.19-3.36.28s-2.24.2-3.37.25c-2.25.12-4.49.28-6.74.32-1.13,0-2.25.08-3.38.1l-3.37,0h-1.69l-1.69,0-3.37-.06-3.38-.14-1.68-.07-1.69-.1-3.36-.21-3.37-.29-1.68-.15-1.68-.17-3.35-.37-3.35-.43-1.67-.21-1.67-.26-3.34-.5-3.33-.56c-1.11-.19-2.22-.39-3.32-.61s-2.21-.41-3.31-.63c-4.42-.9-8.81-1.88-13.18-3s-8.72-2.25-13-3.52c-17.3-5-34.21-11.26-51.1-17.55s-33.79-12.56-51.15-17.47q-6.51-1.83-13.1-3.39-3.31-.76-6.65-1.44v.53q3.27.67,6.54,1.42,6.56,1.56,13.06,3.39c17.34,4.9,34.22,11.21,51.12,17.47s33.82,12.5,51.14,17.51c4.33,1.27,8.69,2.41,13.06,3.51s8.78,2.06,13.2,3c1.1.22,2.21.42,3.32.63s2.21.42,3.33.6l3.33.56,3.35.5,1.67.24,1.67.22,3.36.42,3.36.36,1.68.17,1.69.14,3.37.28,3.37.21,1.69.1,1.69.07,3.38.13,3.38,0,1.69,0h1.69l3.38,0c1.13,0,2.25-.07,3.38-.11,2.25,0,4.5-.21,6.75-.33,1.13-.05,2.25-.18,3.37-.26s2.25-.18,3.37-.29l3.36-.37,1.68-.18,1.68-.22,3.35-.45c1.12-.15,2.23-.35,3.34-.52a237.92,237.92,0,0,0,26.4-5.77c2.16-.64,4.34-1.24,6.49-1.9l3.22-1c1.07-.34,2.15-.67,3.21-1l3.2-1.1c1.07-.37,2.13-.73,3.18-1.13l6.34-2.35q3.29-1.26,6.59-2.49h.05c14.69-5.44,29.53-10.47,44.53-15,17.26-5.16,34.74-9.59,52.4-13.09,1.1-.24,2.21-.43,3.32-.63l3.32-.61,3.32-.6,1.27-.24,1.36-.23.7-.12.22,0,6.43-1,3.34-.53,2.12-.28h0v-.56l-2.19.3Z"/><path class="cls-8" d="M497.34,513l-3.36.48c-1.12.16-2.24.32-3.35.51l-6.7,1.13-3.34.56-3.34.64c-17.78,3.34-35.37,7.65-52.74,12.72S390,540,373.08,546.36q-2.41.9-4.84,1.76h.69c-7.11,2.56-14.3,4.88-21.6,6.83a237.14,237.14,0,0,1-26.54,5.51c-4.46.68-9,1.15-13.46,1.56l-3.38.24c-1.13.07-2.25.17-3.38.2-2.26.09-4.52.21-6.78.23-4.52.11-9,0-13.55-.19l-3.38-.2-1.69-.1-1.69-.14-3.38-.28-3.37-.36a264,264,0,0,1-52.8-11.87c-17.2-5.6-33.94-12.47-50.68-19.3s-33.54-13.63-50.88-18.84c-4.33-1.32-8.7-2.49-13.1-3.57-1.31-.33-2.62-.63-3.93-.92v.42c1.28.29,2.56.58,3.83.9,4.39,1.07,8.76,2.25,13.08,3.56,17.32,5.2,34.11,12,50.85,18.81s33.49,13.7,50.71,19.3c4.3,1.41,8.63,2.7,13,4s8.74,2.34,13.16,3.34,8.84,1.92,13.31,2.66l1.67.29,1.68.25,3.35.51,3.37.44,1.68.21,1.69.18,3.37.36,3.38.27,1.7.14,1.69.1,3.39.19c4.52.17,9,.28,13.57.16,2.26,0,4.52-.14,6.78-.24,1.13,0,2.26-.13,3.39-.21l3.38-.24c4.51-.42,9-.9,13.48-1.59a235.65,235.65,0,0,0,26.55-5.54c7.46-2,14.81-4.4,22.08-7h0c1.24-.45,2.5-.89,3.74-1.36,16.92-6.37,34.06-12.18,51.41-17.23s34.95-9.35,52.71-12.67l3.33-.64,3.35-.56,6.68-1.12c1.12-.19,2.23-.35,3.35-.5l3.36-.48c2.24-.31,4.47-.65,6.71-.93l1-.12h0V512l-1.09.13C501.81,512.38,499.58,512.72,497.34,513Z"/><path class="cls-8" d="M474.79,513.38a532.88,532.88,0,0,0-53.07,12.33c-17.48,5-34.71,10.79-51.73,17.12q-8.52,3.17-17.25,5.76l.82,0a234.56,234.56,0,0,1-36.2,8c-2.24.34-4.5.56-6.75.81-1.13.14-2.26.22-3.39.32l-3.4.28c-4.53.27-9.06.5-13.6.47s-9.08-.15-13.6-.42c-2.27-.18-4.53-.31-6.79-.57-1.12-.12-2.25-.22-3.38-.36l-3.38-.43c-1.12-.13-2.25-.31-3.37-.48s-2.24-.33-3.36-.53c-2.23-.39-4.47-.76-6.69-1.23-4.46-.87-8.88-1.91-13.27-3l-3.29-.87-3.27-.93-1.64-.47-1.63-.5c-1.08-.33-2.17-.65-3.25-1q-6.5-2.05-12.89-4.37c-17.08-6.2-33.63-13.7-50.22-21.1s-33.27-14.66-50.6-20.15c-4.34-1.37-8.7-2.65-13.11-3.75l-1.14-.27v.32l1.06.26c4.41,1.1,8.76,2.37,13.09,3.74,17.32,5.48,34,12.75,50.58,20.13s33.15,14.9,50.24,21.09c4.27,1.54,8.57,3,12.9,4.38,1.09.35,2.17.67,3.26,1l1.63.5,1.64.46,3.28.93,3.29.87c4.4,1.13,8.82,2.18,13.29,3,2.22.46,4.46.83,6.7,1.23,1.12.19,2.24.34,3.37.52s2.24.34,3.37.47l3.38.43c1.13.14,2.26.24,3.39.35,2.26.26,4.53.39,6.79.57,4.54.26,9.08.45,13.62.41s9.08-.22,13.62-.49l3.39-.29c1.13-.1,2.27-.18,3.4-.32,2.25-.26,4.51-.48,6.76-.82a241.38,241.38,0,0,0,42.91-10.13l2.47-.81,1.67-.58q2.85-1,5.67-2c17-6.32,34.25-12.12,51.72-17.07a532.58,532.58,0,0,1,53-12.29q15.08-2.65,30.29-4.34h0V509Q489.91,510.68,474.79,513.38Z"/><path class="cls-8" d="M503.13,572.48l-3.51,1.75q-12.12,6.12-24.08,12.55l-3.61,1.94h1.8l2.22-1.17c8-4.17,16.08-8.28,24.2-12.26q2.49-1.23,5-2.43v-1.52L503,572.4Z"/><path class="cls-8" d="M497.17,569l.16.09c-13.21,6.26-26.24,12.88-39.22,19.59h1.55q8.23-4.19,16.51-8.3,12.13-6,24.44-11.61c1.51-.69,3-1.36,4.54-2v-1.42l-5,2.3Z"/><path class="cls-8" d="M490.73,565.59l.18.09q-7.41,3.35-14.77,6.84-6.11,2.9-12.17,5.87t-12.12,6l-8.64,4.34h1.35l7.57-3.78c16.15-8,32.44-15.68,49.05-22.62l4-1.64v-1.32l-4.39,1.85C497.4,562.64,494.06,564.11,490.73,565.59Z"/><path class="cls-8" d="M131.24,584.65c-8.82-1.22-17.66-2.36-26.51-3.29-3.13-.33-6.26-.62-9.39-.89v1.17c11.94,1.05,23.85,2.53,35.73,4.19,6.63.92,13.24,1.9,19.86,2.89h8.28l-1.55-.23C148.86,587.18,140.05,585.87,131.24,584.65Z"/><path class="cls-8" d="M155.64,580.17c-8.77-1.55-17.54-3.08-26.33-4.49S111.7,573,102.85,572c-2.5-.29-5-.56-7.51-.81v1.07c11.3,1.14,22.57,2.75,33.79,4.56,17.57,2.82,35.06,6.14,52.61,9.11q8.72,1.47,17.45,2.84h7.07c-8.13-1.21-16.23-2.54-24.33-3.93C173.16,583.28,164.4,581.71,155.64,580.17Z"/><path class="cls-8" d="M179.64,577.16l-26.17-5.37c-8.73-1.79-17.47-3.53-26.23-5.13-4.39-.79-8.78-1.55-13.18-2.25s-8.82-1.35-13.24-1.92c-1.82-.24-3.65-.45-5.48-.66v1c10.62,1.24,21.19,2.93,31.71,4.85,17.52,3.19,34.92,7,52.39,10.5s35,6.77,52.68,9.07q6.31.82,12.65,1.47h10.08q-11.32-.9-22.6-2.4C214.6,584,197.09,580.7,179.64,577.16Z"/><path class="cls-8" d="M497.15,588.72h2.47l5.53-3.08v-1.48c-2,1.16-4.1,2.31-6.14,3.48Z"/><path class="cls-8" d="M484.94,588.72h2.22q6.31-3.4,12.67-6.74c1.77-.93,3.55-1.86,5.32-2.77V577.7l-5.91,3.17C494.45,583.45,489.69,586.08,484.94,588.72Z"/></svg>