<svg id="Layer_1" data-name="Layer 1" xmlns="http://www.w3.org/2000/svg" viewBox="0 0 600 600"><defs><style>.cls-1{fill:#011e41;}.cls-2{fill:#75cae8;}</style></defs><title>Graphic_Language_Portrait_Pattern3</title><rect class="cls-1" x="91.41" y="3.5" width="417.17" height="590"/><path class="cls-2" d="M131.41,580.37l-1.65-.4a158.45,158.45,0,0,0-38.35-4.52v.65a158.23,158.23,0,0,1,38.2,4.51l1.64.4c10.19,2.43,20.72,5,31.28,7.28,8.57,1.88,17.35,3.51,26.23,4.86h4.48c-10.36-1.47-20.61-3.31-30.56-5.5C152.12,585.33,141.59,582.81,131.41,580.37Z"/><path class="cls-2" d="M131.45,584.56l-6.08-1.44a164.43,164.43,0,0,0-34-4.4v.7a162.21,162.21,0,0,1,33.8,4.38l6.08,1.43c8.7,2,17.69,4.17,26.7,6.16q4.2.92,8.48,1.76h3.66q-6.06-1.14-12-2.44C149.13,588.72,140.14,586.6,131.45,584.56Z"/><path class="cls-2" d="M121,586.28a168.08,168.08,0,0,0-29.56-4.16v.73a168.25,168.25,0,0,1,29.4,4.13l9.78,2.27c5.54,1.29,11.21,2.6,16.92,3.9h3.32c-6.77-1.52-13.52-3.08-20.07-4.61Q125.84,587.4,121,586.28Z"/><path class="cls-2" d="M116.58,589.43a173.81,173.81,0,0,0-25.17-3.8v.77a172.61,172.61,0,0,1,25,3.77q6.48,1.47,13,3h3.42l-2.67-.62Q123.34,591,116.58,589.43Z"/><path class="cls-2" d="M91.41,589.24v.81a177.07,177.07,0,0,1,19.6,3.1h3.73l-2.55-.57A178.36,178.36,0,0,0,91.41,589.24Z"/><path class="cls-2" d="M480.69,507.7c-24.68,5-47.72,14.88-70,24.41-8.31,3.56-16.32,7-24.2,10.07L384,543.3c-3.53,1.36-7,2.65-10.54,3.84-39.62,13.47-82.47,25.22-127.29,20.07a484.15,484.15,0,0,1-76.93-15.6,141.52,141.52,0,0,0-34-5.63,109.44,109.44,0,0,0-42.35,6.85l-1.53.56v.35l1.65-.6a109.18,109.18,0,0,1,42.22-6.83,141.29,141.29,0,0,1,33.91,5.62,483.6,483.6,0,0,0,77,15.6c44.89,5.17,87.78-6.6,127.44-20.08,2.05-.7,4.11-1.44,6.17-2.19l-1.92.87c10.75-3.86,21.64-8.51,33.09-13.41,22.25-9.52,45.26-19.37,69.87-24.37a147.79,147.79,0,0,1,27.77-3v-.66A150.09,150.09,0,0,0,480.69,507.7Z"/><path class="cls-2" d="M475.11,513c-24.52,4.8-47.48,14.3-69.68,23.48-12.94,5.35-25.15,10.41-37.26,14.38l-2.38.77-1.41.65c-38.51,12.45-79.94,22.89-122.91,18-13.86-1.6-28.16-4-42.49-7-11-2.37-22.51-5.21-34.09-8.43-26.79-7.42-50.86-7.33-73.48.24v.39c22.58-7.59,46.62-7.69,73.38-.28,11.59,3.23,23.06,6.07,34.11,8.44,14.34,3.07,28.65,5.44,42.53,7,41.93,4.82,82.37-5,120.07-17l-1.34.61q4.14-1.31,8.24-2.66c12.13-4,24.35-9,37.3-14.39,22.17-9.17,45.09-18.65,69.55-23.44a151.9,151.9,0,0,1,33.34-2.81v-.71A152.6,152.6,0,0,0,475.11,513Z"/><path class="cls-2" d="M469.54,518.32c-24.38,4.58-47.26,13.72-69.38,22.56-12.93,5.16-25.15,10-37.26,13.88q-6.19,1.95-12.49,3.85l-1.28.57c-35.61,10.57-73.49,18.57-112.4,14.09-13.87-1.6-28.09-4-42.29-7-11-2.37-22.43-5.18-33.94-8.34-25-6.78-47.68-7.12-69.09-1.06v.42c21.38-6.07,44-5.74,69,1,11.53,3.17,23,6,34,8.35,14.21,3.05,28.45,5.41,42.32,7a198.93,198.93,0,0,0,22.65,1.27c30,0,59.24-6.42,87.1-14.56l-1.24.56q9.07-2.62,17.94-5.46c12.14-3.84,24.37-8.72,37.31-13.89,22.09-8.83,44.94-18,69.24-22.52a155,155,0,0,1,38.91-2.37v-.77A156.1,156.1,0,0,0,469.54,518.32Z"/><path class="cls-2" d="M464,523.63c-24.22,4.36-47,13.14-69.07,21.64-12.93,5-25.15,9.68-37.26,13.37-6.92,2.11-13.94,4.17-21,6.11l-1.21.53c-33.07,8.94-67.9,15.11-103.39,11-13.88-1.61-28-4-42.09-7-10.47-2.26-21.52-4.95-33.79-8.24-23.16-6.21-44.43-6.91-64.7-2.13v.45c20.23-4.79,41.46-4.1,64.58,2.1,12.28,3.29,23.34,6,33.82,8.25,14.06,3,28.24,5.39,42.13,7,34.56,4,68.49-1.74,100.77-10.29l-1.16.51c8.9-2.34,17.68-4.89,26.32-7.53,12.14-3.7,24.37-8.4,37.31-13.39,22-8.48,44.78-17.25,68.93-21.6a157.46,157.46,0,0,1,44.48-1.66V522A158.17,158.17,0,0,0,464,523.63Z"/><path class="cls-2" d="M458.38,528.94c-24.07,4.15-46.8,12.57-68.78,20.72-12.92,4.79-25.12,9.32-37.24,12.87-9.44,2.76-19.05,5.44-28.8,7.84l-1.19.5c-30.68,7.49-62.72,12.2-95.12,8.46-13.89-1.61-28-4-41.88-7-10.18-2.2-21.19-4.87-33.65-8.15-21.43-5.64-41.3-6.63-60.31-3v.49c19-3.65,38.8-2.67,60.19,3,12.47,3.28,23.48,6,33.67,8.15,13.92,3,28,5.36,41.92,7,31.49,3.64,62.61-.69,92.48-7.79l-1.13.47c11.56-2.71,22.93-5.85,34.07-9.12,12.14-3.55,24.36-8.09,37.3-12.88,21.94-8.14,44.63-16.55,68.62-20.69a161,161,0,0,1,50.06-.85v-.87A161.4,161.4,0,0,0,458.38,528.94Z"/><path class="cls-2" d="M452.81,534.25c-23.9,4-46.53,12-68.41,19.8-12.95,4.6-25.17,9-37.31,12.36-11.85,3.33-24,6.53-36.27,9.23l-1.21.48c-28.31,6.15-57.63,9.65-87.1,6.24-13.89-1.61-27.91-3.94-41.68-6.93-9.94-2.16-20.58-4.72-33.51-8.06-19.73-5.1-38.18-6.31-55.91-3.65v.52c17.69-2.67,36.09-1.47,55.79,3.62,12.93,3.34,23.58,5.91,33.52,8.07,13.79,3,27.83,5.32,41.73,6.93,28.53,3.31,56.9.14,84.35-5.62l-1.14.46c14.17-2.94,28.1-6.58,41.68-10.4,12.17-3.42,24.41-7.77,37.37-12.37,21.84-7.77,44.44-15.8,68.25-19.77a165.72,165.72,0,0,1,55.63.25v-.86A168.47,168.47,0,0,0,452.81,534.25Z"/><path class="cls-2" d="M447.24,539.55c-23.75,3.78-46.31,11.47-68.13,18.91C366.18,562.87,354,567,341.82,570.3c-14.33,3.86-29.05,7.52-44,10.39l-1.27.47c-25.79,4.86-52.29,7.3-78.78,4.23-13.88-1.61-27.83-3.94-41.48-6.91-12.36-2.69-24.32-5.67-33.36-8a145.19,145.19,0,0,0-51.52-4.07V567a144.48,144.48,0,0,1,51.39,4c9,2.29,21,5.27,33.37,8,13.67,3,27.64,5.29,41.53,6.91,25.48,3,51,.82,75.8-3.66-.39.14-.79.3-1.18.43,16.94-3,33.59-7.1,49.75-11.46,12.17-3.27,24.41-7.44,37.36-11.86,21.77-7.42,44.29-15.09,68-18.86,18.27-2.91,40.17-2.31,61.2,1.81v-1.25A171.1,171.1,0,0,0,447.24,539.55Z"/><path class="cls-2" d="M441.66,544.86c-23.6,3.58-46.09,10.91-67.83,18-12.93,4.22-25.14,8.2-37.28,11.33-17.12,4.4-34.76,8.54-52.68,11.41l-1.41.45c-22.89,3.58-46.22,5.06-69.43,2.37-13.87-1.62-27.75-3.93-41.28-6.88-11.58-2.53-22.8-5.28-33.21-7.87a149.21,149.21,0,0,0-47.13-4.37v.58a149,149,0,0,1,47,4.36c10.41,2.59,21.64,5.33,33.23,7.87,13.54,2.95,27.45,5.27,41.33,6.89,22,2.56,44.18,1.36,66-1.82l-1.3.41c20.16-2.87,40-7.47,59.19-12.41,12.17-3.13,24.4-7.12,37.34-11.34,21.7-7.08,44.15-14.4,67.67-18a174.85,174.85,0,0,1,66.77,3v-1.06A175.64,175.64,0,0,0,441.66,544.86Z"/><path class="cls-2" d="M436.09,550.17c-23.47,3.37-45.88,10.35-67.56,17.1-12.91,4-25.11,7.82-37.25,10.8-20.62,5.07-42,9.75-63.65,12.38l-1.7.43c-19.14,2.22-38.46,2.8-57.64.57-13.88-1.62-27.7-3.93-41.08-6.85-11.22-2.46-22.48-5.19-33.06-7.78a154.07,154.07,0,0,0-42.74-4.52v.62a153.37,153.37,0,0,1,42.59,4.5c10.58,2.59,21.85,5.32,33.08,7.78,13.4,2.93,27.24,5.24,41.14,6.86q6.28.74,12.79,1.09h25.74q7.14-.37,14.6-1.14l-1.59.38c24.42-2.35,48.58-7.57,71.78-13.27,12.17-3,24.38-6.79,37.32-10.82,21.63-6.74,44-13.7,67.38-17.06a181.64,181.64,0,0,1,72.35,4.66v-1.13A180.76,180.76,0,0,0,436.09,550.17Z"/><path class="cls-2" d="M430.52,555.48c-23.33,3.16-45.68,9.79-67.29,16.2-12.9,3.83-25.09,7.44-37.22,10.28-20.11,4.7-40.94,9-62,11.54h8.37c15-2.15,32.66-5.48,53.85-10.44,12.17-2.84,24.37-6.46,37.29-10.29,21.57-6.4,43.87-13,67.11-16.17s52.26-1,77.92,6.49v-1.22l-.46-.14A185.28,185.28,0,0,0,430.52,555.48Z"/><path class="cls-2" d="M424.94,560.79c-23.19,3-45.47,9.23-67,15.3-12.88,3.63-25.05,7.06-37.18,9.75-14.63,3.25-27.57,5.75-39.1,7.66h7c9.78-1.73,20.5-3.87,32.34-6.5,12.16-2.69,24.34-6.13,37.24-9.76C379.75,571.18,402,564.91,425.1,562a189.5,189.5,0,0,1,83.49,8.37V569.1A190.67,190.67,0,0,0,424.94,560.79Z"/><path class="cls-2" d="M419.37,566.09c-23.07,2.75-45.3,8.69-66.79,14.43-12.86,3.43-25,6.67-37.1,9.21-6.69,1.4-13,2.65-19,3.77h6.63c4.07-.79,8.26-1.64,12.62-2.56,12.14-2.54,24.3-5.79,37.17-9.22,21.45-5.73,43.64-11.65,66.62-14.39a194.32,194.32,0,0,1,89.07,10.59v-1.37c-4.13-1.53-8.4-2.94-12.79-4.2A195.91,195.91,0,0,0,419.37,566.09Z"/><path class="cls-2" d="M413.8,571.4c-22.95,2.54-45.13,8.13-66.57,13.54-12.63,3.18-24.57,6.19-36.48,8.56h6.36c9.93-2.14,19.94-4.66,30.44-7.3,21.4-5.4,43.53-11,66.4-13.51,35.28-3.91,69.16,2.28,94.64,12.77v-1.39C483,573.63,449.07,567.5,413.8,571.4Z"/><path class="cls-2" d="M408.23,576.71c-22.84,2.34-45,7.58-66.38,12.66-6,1.43-11.92,2.82-17.72,4.13h6.05c3.94-.91,7.92-1.86,12-2.82,21.36-5.06,43.45-10.3,66.21-12.63,37.79-3.86,74.17,3.6,100.22,15.32v-1.52A178.38,178.38,0,0,0,483.45,583,208,208,0,0,0,408.23,576.71Z"/><path class="cls-2" d="M402.66,582c-22.26,2.08-43.91,6.83-64.87,11.48h6.5c19-4.18,38.51-8.21,58.5-10.09a209.74,209.74,0,0,1,87,10.09h4.13C469.2,584.35,437.19,578.78,402.66,582Z"/><path class="cls-2" d="M397.09,587.33a414.67,414.67,0,0,0-42.55,6.17h8c11.39-2,22.94-3.73,34.64-4.72a219.71,219.71,0,0,1,67.28,4.72h6.13A222.66,222.66,0,0,0,397.09,587.33Z"/><path class="cls-2" d="M391.52,592.63c-3.16.24-6.32.54-9.46.87h52.87A230.94,230.94,0,0,0,391.52,592.63Z"/></svg>