<svg xmlns="http://www.w3.org/2000/svg" viewBox="0 0 707.29 104.35"><title>Courage</title><g id="Layer_2" data-name="Layer 2"><g id="Layer_1-2" data-name="Layer 1"><path d="M51.43,104.35C21.63,104.35,0,82.38,0,52.11S21.63,0,51.43,0C66.85,0,78.18,4.66,88.2,15.1l.54.57L74.62,32.15,74,31.37c-6-7.13-13.63-10.75-22.53-10.75-17,0-28.79,13-28.79,31.49S34.48,83.73,51.43,83.73a29,29,0,0,0,22.79-11l.66-.8L89,88.4l-.52.57C78.9,99.46,67.13,104.35,51.43,104.35Zm0-102.61C22.64,1.74,1.74,22.92,1.74,52.11s20.9,50.5,49.69,50.5c14.89,0,26.11-4.54,35.24-14.25L74.9,74.62A30.49,30.49,0,0,1,51.43,85.47c-18,0-30.53-13.72-30.53-33.36S33.46,18.88,51.43,18.88A30,30,0,0,1,74.62,29.47L86.39,15.74C76.86,6.07,66.05,1.74,51.43,1.74Z" style="fill:#041e42"/><path d="M143.76,104.35c-14.4,0-27.57-5.23-37.07-14.73S91.92,66.87,91.92,52.38C91.92,22,113.73,0,143.76,0c14.36,0,27.51,5.27,37,14.84S195.6,37.78,195.6,52.38s-5.26,27.7-14.82,37.24S158.12,104.35,143.76,104.35Zm0-102.61c-29,0-50.09,21.3-50.09,50.64,0,29.1,21.07,50.23,50.09,50.23,13.89,0,26.6-5,35.79-14.23s14.31-22,14.31-36-5.08-27-14.31-36.31S157.66,1.74,143.76,1.74Zm0,83.73c-17.92,0-30.94-13.91-30.94-33.09,0-19.73,12.73-33.5,30.94-33.5s30.81,13.77,30.81,33.5C174.57,71.56,161.61,85.47,143.76,85.47Zm0-64.85c-17.19,0-29.19,13.06-29.19,31.76,0,18.46,12,31.35,29.19,31.35s29.06-12.89,29.06-31.35C172.82,33.68,160.87,20.62,143.76,20.62Z" style="fill:#041e42"/><path d="M249.36,104.35c-25.37,0-40.51-14.29-40.51-38.22V1.75h22.37v63c0,11.87,6.78,19,18.14,19s18.14-7.08,18.14-19v-63h22.37V66.13C289.87,90.06,274.73,104.35,249.36,104.35ZM210.59,3.5V66.13c0,22.84,14.49,36.48,38.77,36.48S288.13,89,288.13,66.13V3.5H269.24V64.78c0,12.77-7.62,20.7-19.88,20.7-12.45,0-19.88-7.74-19.88-20.7V3.5Z" style="fill:#041e42"/><path d="M390.23,102.6H364.06L343.3,67.68H331V102.6H308.67V1.75h40c21.15,0,35.92,13.56,35.92,33,0,13-6.43,23.46-17.69,29Zm-25.18-1.75h22.1L364.38,62.91l.89-.4c11.32-5.16,17.56-15,17.56-27.8,0-21.44-17.72-31.21-34.18-31.21H310.42v97.35H329.3V65.93h15Zm-18.43-51H329.3V19.55h17.32c10.52,0,17.05,5.81,17.05,15.16S357.3,49.88,346.62,49.88ZM331,48.13h15.58c9.59,0,15.31-5,15.31-13.42s-5.72-13.42-15.31-13.42H331Z" style="fill:#041e42"/><path d="M493.81,102.6H468.92l-6.33-15.24H425.86l-6.47,15.24H394.64L443.34,0H445Zm-23.72-1.75h21L444.16,2.33,397.4,100.85h20.83l6.47-15.23h39.05ZM458,71.18H430.44l13.71-32.64Zm-24.95-1.74h22.32L444.16,43Z" style="fill:#041e42"/><path d="M545,104.35c-30.82,0-53.19-22-53.19-52.24S513.41,0,543.13,0C558.64,0,570,4.66,580,15.1l.55.57L566.46,32.15l-.67-.78c-6-7.13-13.67-10.75-22.66-10.75-17.14,0-28.65,12.65-28.65,31.49S526.75,83.73,545,83.73a28.85,28.85,0,0,0,15.31-4.46V64.58H539V45H582.7v45.2l-.27.26C572.82,99.69,560.24,104.35,545,104.35ZM543.13,1.74c-28.71,0-49.55,21.18-49.55,50.37s21.63,50.5,51.44,50.5c14.61,0,26.7-4.42,35.94-13.12V46.78H540.77v16h21.3v17.4l-.4.25a30.59,30.59,0,0,1-16.65,5c-19,0-32.29-13.72-32.29-33.36s12.5-33.23,30.4-33.23a30.16,30.16,0,0,1,23.32,10.59l11.77-13.73C568.58,5.94,558,1.74,543.13,1.74Z" style="fill:#041e42"/><path d="M667.44,102.6H600.57V1.75h65.79V22.37H622.94V41.8H660.7V61.21H622.94V82h44.5Zm-65.12-1.75H665.7V83.72H621.2V59.46H659V43.54H621.2V20.63h43.42V3.5h-62.3Z" style="fill:#041e42"/><path d="M707.29,90.81A12.27,12.27,0,1,1,695,78.54,11.83,11.83,0,0,1,707.29,90.81Z" style="fill:#041e42"/></g></g></svg>