<svg xmlns="http://www.w3.org/2000/svg" viewBox="0 0 856.57 102.76"><title>Inclusivity</title><g id="Layer_2" data-name="Layer 2"><g id="Layer_1-2" data-name="Layer 1"><path d="M22,101H0V1.73H22ZM1.72,99.32H20.31V3.44H1.72Z" style="fill:#041e42"/><path d="M121.44,102.76H119.7L63.28,47.9V101h-22V0H43l.25.24L99.4,54.73v-53h22ZM61.56,43.84l58.16,56.54V3.44h-18.6V58.78L43,2.37V99.32H61.56Z" style="fill:#041e42"/><path d="M186.22,102.76c-29.35,0-50.65-21.64-50.65-51.45S156.87,0,186.22,0c15.18,0,26.34,4.59,36.2,14.87l.54.56L209.05,31.66l-.65-.77c-6-7-13.42-10.59-22.18-10.59-16.69,0-28.35,12.76-28.35,31s11.66,31.14,28.35,31.14a28.6,28.6,0,0,0,22.44-10.84l.65-.78,13.9,16.22-.51.56C213.27,97.94,201.68,102.76,186.22,102.76Zm0-101c-28.35,0-48.93,20.86-48.93,49.59S157.87,101,186.22,101c14.66,0,25.71-4.46,34.7-14l-11.6-13.53a30.1,30.1,0,0,1-23.1,10.69c-17.71,0-30.07-13.51-30.07-32.86s12.36-32.72,30.07-32.72A29.57,29.57,0,0,1,209.05,29L220.64,15.5C211.26,6,200.61,1.72,186.22,1.72Z" style="fill:#041e42"/><path d="M296.8,101H233.21V1.73h22V81.39H296.8Zm-61.87-1.71h60.15V83.11H253.52V3.44H234.93Z" style="fill:#041e42"/><path d="M344.61,102.76c-25,0-39.89-14.07-39.89-37.64V1.73h22V63.79c0,11.69,6.68,18.66,17.86,18.66s17.86-7,17.86-18.66V1.73h22V65.12C384.51,88.69,369.59,102.76,344.61,102.76ZM306.43,3.44V65.12c0,22.49,14.28,35.92,38.18,35.92s38.18-13.43,38.18-35.92V3.44h-18.6V63.79c0,12.57-7.5,20.38-19.58,20.38-12.26,0-19.58-7.62-19.58-20.38V3.44Z" style="fill:#041e42"/><path d="M433.65,102.76c-15,0-28.66-4.7-38.41-13.23l-.56-.49,12-18.26.74.79c6.38,6.77,16.93,11.15,26.86,11.15,9.72,0,15.07-3.66,15.07-10.3,0-4.86-3-8.48-18.16-11.5C407.72,56,398.13,47.3,398.13,31c0-18,15.33-31,36.45-31C447.82,0,460.73,3.88,470,10.65l.62.46L460.06,29.76l-.78-.6c-7.85-6.05-16.2-9.12-24.84-9.12-6.9,0-14.27,2.56-14.27,9.76,0,5.05,2.6,8,17.37,11.11,24.38,5,33.88,13.26,33.88,29.52C471.42,90.07,456.59,102.76,433.65,102.76Zm-36.71-14c9.39,7.94,22.39,12.31,36.71,12.31,21.9,0,36.05-12,36.05-30.61,0-17.65-12.44-23.74-32.51-27.84-14.19-3-18.74-6.1-18.74-12.79,0-7.08,6.13-11.48,16-11.48,8.73,0,17.17,3,25.1,8.88l8.83-15.6c-8.94-6.29-21.2-9.88-33.79-9.88-20.45,0-34.73,12-34.73,29.28,0,11.2,3.84,22.37,31.72,28.24,14.23,2.84,19.53,6.42,19.53,13.18,0,7.64-6.12,12-16.79,12-10,0-20.61-4.26-27.35-10.92Z" style="fill:#041e42"/><path d="M507.66,101h-22V1.73h22Zm-20.32-1.71h18.6V3.44h-18.6Z" style="fill:#041e42"/><path d="M565.78,102.49h-1.62L516.61,1.73H541l.22.52L565,57.51,589,1.73h24.23Zm-46.46-99L565,100.18,610.48,3.44H590.09L565,61.85,539.84,3.44Z" style="fill:#041e42"/><path d="M644.4,101h-22V1.73h22Zm-20.32-1.71h18.6V3.44h-18.6Z" style="fill:#041e42"/><path d="M708,101h-22V21.37h-31.6V1.73h85.24V21.37H708Zm-20.31-1.71h18.6V19.65h31.6V3.44h-81.8V19.65h31.6Z" style="fill:#041e42"/><path d="M803.17,101h-22V60.85L744.75,1.73h25.66l21.68,36.73L813.51,1.73H839.3L803.17,60.45Zm-20.31-1.71h18.6V60l.12-.2L836.23,3.44H814.49L792.1,41.86,769.43,3.44H747.82l35,56.92Z" style="fill:#041e42"/><path d="M856.57,89.42a12.09,12.09,0,1,1-12.08-12.09A11.65,11.65,0,0,1,856.57,89.42Z" style="fill:#041e42"/></g></g></svg>