<svg xmlns="http://www.w3.org/2000/svg" viewBox="0 0 741.15 103.94"><title>Integrity</title><g id="Layer_2" data-name="Layer 2"><g id="Layer_1-2" data-name="Layer 1"><path d="M22.29,102.2H0V1.75H22.29ZM1.74,100.46H20.55v-97H1.74Z" style="fill:#041e42"/><path d="M122.84,103.94h-1.76l-.25-.24L64,48.45V102.2H41.72V0h1.76l57.07,55.36V1.75h22.29ZM62.27,44.34l58.83,57.2V3.48H102.29v56L43.46,2.4v98.06H62.27Z" style="fill:#041e42"/><path d="M187.3,102.2H165V21.61h-32V1.75h86.22V21.61h-32Zm-20.55-1.74h18.81V19.88h32V3.48H134.79v16.4h32Z" style="fill:#041e42"/><path d="M296.09,102.2H229.48V1.75H295V22.29H251.77V41.63h37.6V61h-37.6V81.66h44.32Zm-64.87-1.74h63.13V83.39H250V59.23h37.61V43.37H250V20.55h43.25V3.48H231.22Z" style="fill:#041e42"/><path d="M357.55,103.94c-30.7,0-53-21.88-53-52S326.06,0,355.67,0c15.44,0,26.78,4.64,36.75,15l.55.57L378.9,32l-.66-.77c-6-7.11-13.62-10.71-22.57-10.71-17.08,0-28.55,12.6-28.55,31.37S339.35,83.4,357.55,83.4A28.68,28.68,0,0,0,372.79,79V64.32H351.57V44.86h43.51v45l-.27.26C385.24,99.3,372.7,103.94,357.55,103.94ZM355.67,1.74c-28.61,0-49.37,21.1-49.37,50.17s21.55,50.3,51.25,50.3c14.55,0,26.59-4.4,35.79-13.07V46.59h-40v16h21.22V79.91l-.4.26a30.48,30.48,0,0,1-16.58,5c-18.94,0-32.17-13.67-32.17-33.23S337.84,18.8,355.67,18.8A30,30,0,0,1,378.9,29.36l11.72-13.68C381,5.92,370.52,1.74,355.67,1.74Z" style="fill:#041e42"/><path d="M494.05,102.2H468L447.3,67.41H435.1V102.2H412.81V1.75h39.82c21.07,0,35.79,13.5,35.79,32.83,0,12.9-6.41,23.37-17.63,28.85ZM469,100.46h22L468.31,62.67l.88-.41c11.28-5.14,17.49-15,17.49-27.68,0-21.37-17.65-31.1-34.05-31.1H414.55v97h18.81V65.68h14.93ZM450.62,49.68H433.36V19.47h17.26c10.47,0,17,5.79,17,15.11S461.25,49.68,450.62,49.68ZM435.1,48h15.52c9.55,0,15.25-5,15.25-13.37s-5.7-13.37-15.25-13.37H435.1Z" style="fill:#041e42"/><path d="M526.53,102.2H504.25V1.75h22.28ZM506,100.46H524.8v-97H506Z" style="fill:#041e42"/><path d="M590.83,102.2H568.55V21.61h-32V1.75H622.8V21.61h-32Zm-20.55-1.74H589.1V19.88h32V3.48H538.32v16.4h32Z" style="fill:#041e42"/><path d="M687.14,102.2H664.86V61.55L628,1.75h26l21.93,37.16L697.59,1.75h26.1l-36.55,59.4Zm-20.55-1.74h18.82V60.66l.13-.21,35-57h-22L675.94,42.34,653,3.48H631.15l35.44,57.58Z" style="fill:#041e42"/><path d="M741.15,90.45a12.22,12.22,0,1,1-12.22-12.22A11.77,11.77,0,0,1,741.15,90.45Z" style="fill:#041e42"/></g></g></svg>