<svg xmlns="http://www.w3.org/2000/svg" viewBox="0 0 498.51 702.66"><title>Layout example 4</title><g id="Layer_2" data-name="Layer 2"><g id="Layer_1-2" data-name="Layer 1"><rect width="498.51" height="702.66" style="fill:#011e41;opacity:0.5"/><rect x="28.29" y="509.52" width="129.54" height="6.93" style="fill:#fff;opacity:0.5"/><rect x="28.29" y="567.92" width="129.54" height="6.93" style="fill:#fff;opacity:0.5"/><rect x="28.29" y="526.41" width="129.54" height="6.93" style="fill:#fff;opacity:0.5"/><rect x="28.29" y="584.8" width="129.54" height="6.93" style="fill:#fff;opacity:0.5"/><rect x="28.29" y="559.16" width="129.54" height="6.93" style="fill:#fff;opacity:0.5"/><rect x="28.29" y="501.37" width="137.08" height="6.93" style="fill:#fff;opacity:0.5"/><rect x="28.29" y="493.21" width="139.53" height="6.93" style="fill:#fff;opacity:0.5"/><rect x="28.29" y="517.68" width="139.53" height="6.93" style="fill:#fff;opacity:0.5"/><rect x="28.29" y="576.07" width="139.53" height="6.93" style="fill:#fff;opacity:0.5"/><rect x="28.29" y="485.06" width="139.53" height="6.93" style="fill:#fff;opacity:0.5"/><rect x="28.29" y="476.5" width="131.87" height="6.93" style="fill:#fff;opacity:0.5"/><rect x="250.12" y="46.55" width="131.87" height="6.93" style="fill:#fff;opacity:0.5"/><rect x="28.29" y="467.94" width="141.87" height="6.93" style="fill:#fff;opacity:0.5"/><rect x="250.12" y="38" width="141.87" height="6.93" style="fill:#fff;opacity:0.5"/><rect x="28.29" y="459.39" width="135.49" height="6.93" style="fill:#fff;opacity:0.5"/><rect x="250.12" y="29.44" width="135.49" height="6.93" style="fill:#fff;opacity:0.5"/><rect x="401.46" y="29.44" width="69.06" height="6.93" style="fill:#fff;opacity:0.5"/><rect x="28.29" y="81.82" width="443.66" height="323.25" style="fill:#fff;opacity:0.5"/><rect x="28.29" y="631.22" width="75.07" height="42.99" style="fill:#fff;opacity:0.5"/></g></g></svg>