<svg xmlns="http://www.w3.org/2000/svg" width="1170" height="587" viewBox="0 0 1170 587">
    <g fill="none" fill-rule="evenodd">
        <path fill="#D8D8D8" d="M3.428 586.29H346.99V342.652H3.428z"/>
        <path stroke="#8B8B8B" stroke-width=".5" d="M3.428 586.29H346.99V342.65H3.428z"/>
        <path fill="#D8D8D8" d="M356.593 530.86h264.842V342.617H356.593z"/>
        <path stroke="#8B8B8B" stroke-width=".5" d="M356.593 530.86h264.842V342.617H356.593z"/>
        <path fill="#D8D8D8" d="M630.554 531.218h195.442V342.26H630.554z"/>
        <path stroke="#8B8B8B" stroke-width=".5" d="M630.554 531.218h195.442V342.26H630.554z"/>
        <path fill="#D8D8D8" d="M833.982 503.667h334.836v-161.05H833.982z"/>
        <path stroke="#8B8B8B" stroke-width=".5" d="M833.982 503.667h334.836v-161.05H833.982z"/>
        <path fill="#FFF" d="M17.355 572.369h315.706V356.386H17.355z"/>
        <path stroke="#B1B1B1" stroke-width=".5" d="M17.355 572.369h315.706V356.386H17.355z"/>
        <path fill="#FFF" d="M367.793 519.594h242.444V353.738H367.793z"/>
        <path stroke="#B1B1B1" stroke-width=".5" d="M367.793 519.594h242.444V353.738H367.793z"/>
        <path fill="#FFF" d="M641.847 520.082h172.492V353.286H641.847z"/>
        <path stroke="#B1B1B1" stroke-width=".5" d="M641.847 520.082h172.492V353.286H641.847z"/>
        <path fill="#FFF" d="M843.547 494.043h315.705V352.116H843.547z"/>
        <path stroke="#B1B1B1" stroke-width=".5" d="M843.547 494.043h315.705V352.116H843.547zM306.85 572.463h26.211V356.48H306.85zM590.13 519.666h20.108V353.811H590.13zM800.395 520.082h14.308V353.395h-14.308z"/>
        <path stroke="#B1B1B1" stroke-width=".5" d="M1133.04 494.105h26.212V352.177h-26.212zM175.26 572.463h26.212V356.48H175.26zM489.067 519.666h20.108V353.811h-20.108zM728.328 520.082h14.308V353.395h-14.308zM1001.453 494.105h26.212V352.177h-26.212zM280.531 572.463h26.212V356.48h-26.212zM569.918 519.666h20.106V353.811h-20.106zM785.982 520.082h14.308V353.395h-14.308zM1106.722 494.105h26.212V352.177h-26.212zM148.943 572.463h26.212V356.48h-26.212zM468.855 519.666h20.107V353.811h-20.107zM713.915 520.082h14.308V353.395h-14.308zM975.136 494.105h26.212V352.177h-26.212zM254.213 572.463h26.213V356.48h-26.213zM549.705 519.666h20.106V353.811h-20.106zM771.568 520.082h14.309V353.395h-14.309zM1080.405 494.105h26.212V352.177h-26.212zM122.625 572.463h26.212V356.48h-26.212zM448.643 519.666h20.106V353.811h-20.106zM699.5 520.082h14.31V353.395H699.5zM948.817 494.105h26.212V352.177h-26.212zM227.896 572.463h26.212V356.48h-26.212zM529.493 519.666H549.6V353.811h-20.107zM757.154 520.082h14.308V353.395h-14.308zM1054.087 494.105h26.212V352.177h-26.212zM96.308 572.463h26.212V356.48H96.308zM428.43 519.666h20.108V353.811H428.43zM685.087 520.082h14.308V353.395h-14.308zM922.498 494.105h26.212V352.177h-26.212zM43.674 572.463h26.212V356.48H43.674zM388.003 519.666h20.108V353.811h-20.108zM656.26 520.082h14.308V353.395H656.26zM869.864 494.105h26.212V352.177h-26.212zM201.579 572.463h26.212V356.48h-26.212zM509.28 519.666h20.107V353.811h-20.108zM742.742 520.082h14.308V353.395h-14.308zM1027.769 494.105h26.213V352.177h-26.213zM69.99 572.463h26.213V356.48H69.99zM408.217 519.666h20.108V353.811h-20.108zM670.675 520.082h14.308V353.395h-14.308zM896.182 494.105h26.212V352.177h-26.212zM17.355 572.463h26.212V356.48H17.355zM367.792 519.666h20.107V353.811h-20.107zM641.847 520.082h14.308V353.395h-14.308zM843.547 494.105h26.212V352.177h-26.212z"/>
        <path fill="#FFF" d="M17.355 557.576h315.706V554.1H17.355z"/>
        <path stroke="#B1B1B1" stroke-dasharray="9.86584610038704,9.86584610038704" stroke-width=".5" d="M32.154 557.575h291.042M318.263 554.098H27.22"/>
        <path stroke="#B1B1B1" stroke-width=".5" d="M328.129 557.575h4.933v-3.478h-4.933m-305.841 0h-4.932v3.478h4.932"/>
        <path fill="#FFF" d="M367.793 508.232h242.444v-2.647H367.793z"/>
        <path stroke="#B1B1B1" stroke-dasharray="10.10174780625563,10.10174780625563" stroke-width=".5" d="M382.945 508.232h217.191M595.085 505.585H377.893"/>
        <path stroke="#B1B1B1" stroke-width=".5" d="M605.187 508.232h5.05v-2.647h-5.05m-232.344 0h-5.05v2.647h5.05"/>
        <path fill="#FFF" d="M641.847 508.59h172.856v-2.66H641.847z"/>
        <path stroke="#B1B1B1" stroke-dasharray="9.603083417132185,9.603083417132185" stroke-width=".5" d="M656.252 508.59H805.1M800.299 505.93h-148.85"/>
        <path stroke="#B1B1B1" stroke-width=".5" d="M809.902 508.59h4.8v-2.66h-4.8m-163.254 0h-4.8v2.66h4.8"/>
        <path fill="#FFF" d="M843.547 484.32h315.705v-2.25H843.547z"/>
        <path stroke="#B1B1B1" stroke-dasharray="9.86584610038704,9.86584610038704" stroke-width=".5" d="M858.345 484.32h291.043M1144.454 482.07H853.41"/>
        <path stroke="#B1B1B1" stroke-width=".5" d="M1154.32 484.32h4.933v-2.25h-4.933m-305.841 0h-4.932v2.25h4.932"/>
        <path fill="#FFF" d="M17.355 521.028h315.706v-3.477H17.355z"/>
        <path stroke="#B1B1B1" stroke-dasharray="9.86584610038704,9.86584610038704" stroke-width=".5" d="M32.154 521.03h291.042M318.263 517.552H27.22"/>
        <path stroke="#B1B1B1" stroke-width=".5" d="M328.129 521.03h4.933v-3.479h-4.933m-305.841 0h-4.932v3.479h4.932"/>
        <path fill="#FFF" d="M367.793 480.164h242.444v-2.647H367.793z"/>
        <path stroke="#B1B1B1" stroke-dasharray="10.10174780625563,10.10174780625563" stroke-width=".5" d="M382.945 480.164h217.191M595.085 477.517H377.893"/>
        <path stroke="#B1B1B1" stroke-width=".5" d="M605.187 480.164h5.05v-2.647h-5.05m-232.344 0h-5.05v2.647h5.05"/>
        <path fill="#FFF" d="M641.847 480.382h172.856v-2.66H641.847z"/>
        <path stroke="#B1B1B1" stroke-dasharray="9.603083417132185,9.603083417132185" stroke-width=".5" d="M656.252 480.382H805.1M800.299 477.721h-148.85"/>
        <path stroke="#B1B1B1" stroke-width=".5" d="M809.902 480.382h4.8v-2.66h-4.8m-163.254 0h-4.8v2.66h4.8"/>
        <path fill="#FFF" d="M843.547 460.298h315.705v-2.25H843.547z"/>
        <path stroke="#B1B1B1" stroke-dasharray="9.86584610038704,9.86584610038704" stroke-width=".5" d="M858.345 460.299h291.043M1144.454 458.049H853.41"/>
        <path stroke="#B1B1B1" stroke-width=".5" d="M1154.32 460.299h4.933v-2.25h-4.933m-305.841 0h-4.932v2.25h4.932"/>
        <path fill="#FFF" d="M17.355 484.484h315.706v-3.478H17.355z"/>
        <path stroke="#B1B1B1" stroke-dasharray="9.86584610038704,9.86584610038704" stroke-width=".5" d="M32.154 484.483h291.042M318.263 481.005H27.22"/>
        <path stroke="#B1B1B1" stroke-width=".5" d="M328.129 484.483h4.933v-3.477h-4.933m-305.841 0h-4.932v3.477h4.932"/>
        <path fill="#FFF" d="M367.793 452.095h242.444v-2.647H367.793z"/>
        <path stroke="#B1B1B1" stroke-dasharray="10.10174780625563,10.10174780625563" stroke-width=".5" d="M382.945 452.096h217.191M595.085 449.449H377.893"/>
        <path stroke="#B1B1B1" stroke-width=".5" d="M605.187 452.096h5.05v-2.648h-5.05m-232.344 0h-5.05v2.648h5.05"/>
        <path fill="#FFF" d="M641.847 452.173h172.856v-2.66H641.847z"/>
        <path stroke="#B1B1B1" stroke-dasharray="9.603083417132185,9.603083417132185" stroke-width=".5" d="M656.252 452.173H805.1M800.299 449.512h-148.85"/>
        <path stroke="#B1B1B1" stroke-width=".5" d="M809.902 452.173h4.8v-2.66h-4.8m-163.254 0h-4.8v2.66h4.8"/>
        <path fill="#FFF" d="M843.547 436.278h315.705v-2.25H843.547z"/>
        <path stroke="#B1B1B1" stroke-dasharray="9.86584610038704,9.86584610038704" stroke-width=".5" d="M858.345 436.277h291.043M1144.454 434.027H853.41"/>
        <path stroke="#B1B1B1" stroke-width=".5" d="M1154.32 436.277h4.933v-2.25h-4.933m-305.841 0h-4.932v2.25h4.932"/>
        <path fill="#FFF" d="M17.355 447.937h315.706v-3.477H17.355z"/>
        <path stroke="#B1B1B1" stroke-dasharray="9.86584610038704,9.86584610038704" stroke-width=".5" d="M32.154 447.937h291.042M318.263 444.459H27.22"/>
        <path stroke="#B1B1B1" stroke-width=".5" d="M328.129 447.937h4.933v-3.478h-4.933m-305.841 0h-4.932v3.478h4.932"/>
        <path fill="#FFF" d="M367.793 424.028h242.444v-2.647H367.793z"/>
        <path stroke="#B1B1B1" stroke-dasharray="10.10174780625563,10.10174780625563" stroke-width=".5" d="M382.945 424.027h217.191M595.085 421.38H377.893"/>
        <path stroke="#B1B1B1" stroke-width=".5" d="M605.187 424.027h5.05v-2.647h-5.05m-232.344 0h-5.05v2.647h5.05"/>
        <path fill="#FFF" d="M641.847 423.965h172.856v-2.66H641.847z"/>
        <path stroke="#B1B1B1" stroke-dasharray="9.603083417132185,9.603083417132185" stroke-width=".5" d="M656.252 423.963H805.1M800.299 421.304h-148.85"/>
        <path stroke="#B1B1B1" stroke-width=".5" d="M809.902 423.963h4.8v-2.659h-4.8m-163.254 0h-4.8v2.66h4.8"/>
        <path fill="#FFF" d="M843.547 412.256h315.705v-2.25H843.547z"/>
        <path stroke="#B1B1B1" stroke-dasharray="9.86584610038704,9.86584610038704" stroke-width=".5" d="M858.345 412.256h291.043M1144.454 410.006H853.41"/>
        <path stroke="#B1B1B1" stroke-width=".5" d="M1154.32 412.256h4.933v-2.25h-4.933m-305.841 0h-4.932v2.25h4.932"/>
        <path fill="#FFF" d="M17.355 411.39h315.706v-3.477H17.355z"/>
        <path stroke="#B1B1B1" stroke-dasharray="9.86584610038704,9.86584610038704" stroke-width=".5" d="M32.154 411.39h291.042M318.263 407.913H27.22"/>
        <path stroke="#B1B1B1" stroke-width=".5" d="M328.129 411.39h4.933v-3.477h-4.933m-305.841 0h-4.932v3.478h4.932"/>
        <path fill="#FFF" d="M367.793 395.96h242.444v-2.648H367.793z"/>
        <path stroke="#B1B1B1" stroke-dasharray="10.10174780625563,10.10174780625563" stroke-width=".5" d="M382.945 395.959h217.191M595.085 393.312H377.893"/>
        <path stroke="#B1B1B1" stroke-width=".5" d="M605.187 395.959h5.05v-2.648h-5.05m-232.344 0h-5.05v2.648h5.05"/>
        <path fill="#FFF" d="M641.847 395.755h172.856v-2.66H641.847z"/>
        <path stroke="#B1B1B1" stroke-dasharray="9.603083417132185,9.603083417132185" stroke-width=".5" d="M656.252 395.755H805.1M800.299 393.095h-148.85"/>
        <path stroke="#B1B1B1" stroke-width=".5" d="M809.902 395.755h4.8v-2.66h-4.8m-163.254 0h-4.8v2.66h4.8"/>
        <path fill="#FFF" d="M843.547 388.234h315.705v-2.25H843.547z"/>
        <path stroke="#B1B1B1" stroke-dasharray="9.86584610038704,9.86584610038704" stroke-width=".5" d="M858.345 388.234h291.043M1144.454 385.984H853.41"/>
        <path stroke="#B1B1B1" stroke-width=".5" d="M1154.32 388.234h4.933v-2.249h-4.933m-305.841 0h-4.932v2.25h4.932"/>
        <path fill="#FFF" d="M17.355 539.302h315.706v-3.478H17.355z"/>
        <path stroke="#B1B1B1" stroke-width=".5" d="M17.355 539.302h315.706v-3.478H17.355z"/>
        <path fill="#FFF" d="M367.793 494.198h242.444v-2.647H367.793z"/>
        <path stroke="#B1B1B1" stroke-width=".5" d="M367.793 494.198h242.444v-2.647H367.793z"/>
        <path fill="#FFF" d="M641.847 494.486h172.856v-2.66H641.847z"/>
        <path stroke="#B1B1B1" stroke-width=".5" d="M641.847 494.486h172.856v-2.66H641.847z"/>
        <path fill="#FFF" d="M843.547 472.31h315.705v-2.25H843.547z"/>
        <path stroke="#B1B1B1" stroke-width=".5" d="M843.547 472.31h315.705v-2.25H843.547z"/>
        <path fill="#FFF" d="M17.355 502.756h315.706v-3.477H17.355z"/>
        <path stroke="#B1B1B1" stroke-width=".5" d="M17.355 502.756h315.706v-3.477H17.355z"/>
        <path fill="#FFF" d="M367.793 466.13h242.444v-2.648H367.793z"/>
        <path stroke="#B1B1B1" stroke-width=".5" d="M367.793 466.13h242.444v-2.648H367.793z"/>
        <path fill="#FFF" d="M641.847 466.277h172.856v-2.66H641.847z"/>
        <path stroke="#B1B1B1" stroke-width=".5" d="M641.847 466.277h172.856v-2.66H641.847z"/>
        <path fill="#FFF" d="M843.547 448.288h315.705v-2.25H843.547z"/>
        <path stroke="#B1B1B1" stroke-width=".5" d="M843.547 448.288h315.705v-2.25H843.547z"/>
        <path fill="#FFF" d="M17.355 466.21h315.706v-3.478H17.355z"/>
        <path stroke="#B1B1B1" stroke-width=".5" d="M17.355 466.21h315.706v-3.478H17.355z"/>
        <path fill="#FFF" d="M367.793 438.061h242.444v-2.647H367.793z"/>
        <path stroke="#B1B1B1" stroke-width=".5" d="M367.793 438.061h242.444v-2.647H367.793z"/>
        <path fill="#FFF" d="M641.847 438.068h172.856v-2.66H641.847z"/>
        <path stroke="#B1B1B1" stroke-width=".5" d="M641.847 438.068h172.856v-2.66H641.847z"/>
        <path fill="#FFF" d="M843.547 424.267h315.705v-2.25H843.547z"/>
        <path stroke="#B1B1B1" stroke-width=".5" d="M843.547 424.267h315.705v-2.25H843.547z"/>
        <path fill="#FFF" d="M17.355 429.664h315.706v-3.478H17.355z"/>
        <path stroke="#B1B1B1" stroke-width=".5" d="M17.355 429.664h315.706v-3.478H17.355z"/>
        <path fill="#FFF" d="M367.793 409.993h242.444v-2.648H367.793z"/>
        <path stroke="#B1B1B1" stroke-width=".5" d="M367.793 409.993h242.444v-2.648H367.793z"/>
        <path fill="#FFF" d="M641.847 409.86h172.856v-2.66H641.847z"/>
        <path stroke="#B1B1B1" stroke-width=".5" d="M641.847 409.86h172.856v-2.66H641.847z"/>
        <path fill="#FFF" d="M843.547 400.245h315.705v-2.25H843.547z"/>
        <path stroke="#B1B1B1" stroke-width=".5" d="M843.547 400.245h315.705v-2.25H843.547zM333.114 389.64H17.355v3.477h315.759M610.29 379.278H367.792v2.647H610.29M814.757 378.99h-172.91v2.66h172.91M1159.305 373.975H843.546v2.249h315.759"/>
        <path fill="#FFF" d="M17.355 374.845h315.706v-3.478H17.355z"/>
        <path stroke="#B1B1B1" stroke-dasharray="9.86584610038704,9.86584610038704" stroke-width=".5" d="M32.154 374.844h291.042M318.263 371.366H27.22"/>
        <path stroke="#B1B1B1" stroke-width=".5" d="M328.129 374.844h4.933v-3.477h-4.933m-305.841 0h-4.932v3.477h4.932"/>
        <path fill="#FFF" d="M367.793 367.89h242.444v-2.645H367.793z"/>
        <path stroke="#B1B1B1" stroke-dasharray="10.10174780625563,10.10174780625563" stroke-width=".5" d="M382.945 367.89h217.191M595.085 365.243H377.893"/>
        <path stroke="#B1B1B1" stroke-width=".5" d="M605.187 367.89h5.05v-2.647h-5.05m-232.344 0h-5.05v2.648h5.05"/>
        <path fill="#FFF" d="M641.847 367.547h172.856v-2.66H641.847z"/>
        <path stroke="#B1B1B1" stroke-dasharray="9.603083417132185,9.603083417132185" stroke-width=".5" d="M656.252 367.546H805.1M800.299 364.887h-148.85"/>
        <path stroke="#B1B1B1" stroke-width=".5" d="M809.902 367.546h4.8v-2.66h-4.8m-163.254 0h-4.8v2.66h4.8"/>
        <path fill="#FFF" d="M843.547 364.213h315.705v-2.25H843.547z"/>
        <path stroke="#B1B1B1" stroke-dasharray="9.86584610038704,9.86584610038704" stroke-width=".5" d="M858.345 364.213h291.043M1144.454 361.964H853.41"/>
        <path stroke="#B1B1B1" stroke-width=".5" d="M1154.32 364.213h4.933v-2.25h-4.933m-305.841 0h-4.932v2.25h4.932"/>
        <path fill="#FFF" d="M17.355 374.845h315.146v-3.478H17.355z"/>
        <path stroke="#B1B1B1" stroke-dasharray="9.848328216926202,9.848328216926202" stroke-width=".5" d="M32.128 374.844h290.524M317.728 371.366H27.203"/>
        <path stroke="#B1B1B1" stroke-width=".5" d="M327.576 374.844h4.924v-3.477h-4.924m-305.297 0h-4.923v3.477h4.923"/>
        <path fill="#D8D8D8" d="M1.046 305.21h214.63V2.814H1.046z"/>
        <path stroke="#8B8B8B" stroke-width=".5" d="M1.044 305.211h214.63V2.815H1.044z"/>
        <path fill="#FFF" d="M13.142 292.952H203.41V15.075H13.142z"/>
        <path stroke="#B1B1B1" stroke-width=".5" d="M13.142 292.952H203.41V15.075H13.142z"/>
        <path stroke="#B1B1B1" stroke-width=".5" d="M13.226 38.15h190.268V15.074H13.226zM13.226 153.968h190.268v-23.074H13.226zM13.226 61.311h190.268V38.237H13.226zM13.226 177.132h190.268v-23.075H13.226zM13.226 84.476h190.268V61.402H13.226zM13.226 200.296h190.268v-23.075H13.226zM13.226 107.64h190.268V84.566H13.226zM13.226 223.46h190.268v-23.074H13.226zM13.226 269.787h190.268v-23.074H13.226zM13.226 130.805h190.268V107.73H13.226zM13.226 246.624h190.268v-23.075H13.226zM13.226 292.952h190.268v-23.075H13.226z"/>
        <path fill="#FFF" d="M187.314 292.952h3.065V15.075h-3.065z"/>
        <path stroke="#B1B1B1" stroke-dasharray="9.927741730963435,9.927741730963435" stroke-width=".5" d="M190.38 278.064V25M187.313 29.96v253.066"/>
        <path stroke="#B1B1B1" stroke-width=".5" d="M190.38 20.036v-4.963h-3.066v4.963m0 267.953v4.962h3.065v-4.962"/>
        <path fill="#FFF" d="M155.119 292.952h3.065V15.075h-3.065z"/>
        <path stroke="#B1B1B1" stroke-dasharray="9.927741730963435,9.927741730963435" stroke-width=".5" d="M158.185 278.064V25M155.119 29.96v253.066"/>
        <path stroke="#B1B1B1" stroke-width=".5" d="M158.185 20.036v-4.963h-3.066v4.963m0 267.953v4.962h3.066v-4.962"/>
        <path fill="#FFF" d="M122.924 292.952h3.066V15.075h-3.066z"/>
        <path stroke="#B1B1B1" stroke-dasharray="9.927741730963435,9.927741730963435" stroke-width=".5" d="M125.99 278.064V25M122.924 29.96v253.066"/>
        <path stroke="#B1B1B1" stroke-width=".5" d="M125.99 20.036v-4.963h-3.066v4.963m0 267.953v4.962h3.066v-4.962"/>
        <path fill="#FFF" d="M90.73 292.952h3.066V15.075H90.73z"/>
        <path stroke="#B1B1B1" stroke-dasharray="9.927741730963435,9.927741730963435" stroke-width=".5" d="M93.796 278.064V25M90.73 29.96v253.066"/>
        <path stroke="#B1B1B1" stroke-width=".5" d="M93.796 20.036v-4.963H90.73v4.963m0 267.953v4.962h3.066v-4.962"/>
        <path fill="#FFF" d="M58.536 292.952H61.6V15.075h-3.065z"/>
        <path stroke="#B1B1B1" stroke-dasharray="9.927741730963435,9.927741730963435" stroke-width=".5" d="M61.601 278.064V25M58.535 29.96v253.066"/>
        <path stroke="#B1B1B1" stroke-width=".5" d="M61.601 20.036v-4.963h-3.065v4.963m0 267.953v4.962H61.6v-4.962"/>
        <path fill="#FFF" d="M171.216 292.952h3.066V15.075h-3.066z"/>
        <path stroke="#B1B1B1" stroke-width=".5" d="M171.216 292.952h3.066V15.075h-3.066z"/>
        <path fill="#FFF" d="M139.021 292.952h3.066V15.075h-3.066z"/>
        <path stroke="#B1B1B1" stroke-width=".5" d="M139.021 292.952h3.066V15.075h-3.066z"/>
        <path fill="#FFF" d="M106.828 292.952h3.065V15.075h-3.065z"/>
        <path stroke="#B1B1B1" stroke-width=".5" d="M106.828 292.952h3.065V15.075h-3.065z"/>
        <path fill="#FFF" d="M74.633 292.952h3.066V15.075h-3.066z"/>
        <path stroke="#B1B1B1" stroke-width=".5" d="M74.633 292.952h3.066V15.075h-3.066zM42.438 15.028v277.923h3.066V15.028"/>
        <path fill="#FFF" d="M26.342 292.952h3.066V15.075h-3.066z"/>
        <path stroke="#B1B1B1" stroke-dasharray="9.927741730963435,9.927741730963435" stroke-width=".5" d="M29.407 278.064V25M26.34 29.96v253.066"/>
        <path stroke="#B1B1B1" stroke-width=".5" d="M29.407 20.036v-4.963H26.34v4.963m0 267.953v4.962h3.066v-4.962"/>
        <path fill="#FFF" d="M26.342 292.95h3.066V15.568h-3.066z"/>
        <path stroke="#B1B1B1" stroke-dasharray="9.911392151892603,9.911392151892603" stroke-width=".5" d="M29.407 278.09V25.474M26.34 30.427v252.617"/>
        <path stroke="#B1B1B1" stroke-width=".5" d="M29.407 20.52v-4.952H26.34v4.953m0 267.476v4.954h3.066v-4.954"/>
        <path fill="#D8D8D8" d="M225.061 234.827h164.681V2.805h-164.68z"/>
        <path stroke="#8B8B8B" stroke-width=".5" d="M225.061 234.827h164.681V2.805h-164.68z"/>
        <path fill="#FFF" d="M234.343 225.418h145.989V12.21H234.343z"/>
        <path stroke="#B1B1B1" stroke-width=".5" d="M234.343 225.418h145.989V12.21H234.343z"/>
        <path stroke="#B1B1B1" stroke-width=".5" d="M234.408 29.915h145.988V12.21H234.408zM234.408 118.78h145.988v-17.704H234.408zM234.408 47.687h145.988V29.984H234.408zM234.408 136.554h145.988v-17.705H234.408zM234.408 65.461h145.988V47.757H234.408zM234.408 154.328h145.988v-17.705H234.408zM234.408 83.234h145.988V65.53H234.408zM234.408 172.1h145.988v-17.705H234.408zM234.408 207.646h145.988v-17.704H234.408zM234.408 101.008h145.988V83.304H234.408zM234.408 189.874h145.988V172.17H234.408zM234.408 225.42h145.988v-17.704H234.408z"/>
        <path fill="#FFF" d="M367.98 225.418h2.354V12.21h-2.353z"/>
        <path stroke="#B1B1B1" stroke-dasharray="9.695342710801771,9.695342710801771" stroke-width=".5" d="M370.334 210.882V21.901M367.981 26.747V215.73"/>
        <path stroke="#B1B1B1" stroke-width=".5" d="M370.334 17.056v-4.845h-2.353v4.845m0 203.517v4.846h2.353v-4.846"/>
        <path fill="#FFF" d="M343.279 225.418h2.353V12.21h-2.353z"/>
        <path stroke="#B1B1B1" stroke-dasharray="9.695342710801771,9.695342710801771" stroke-width=".5" d="M345.631 210.882V21.901M343.279 26.747V215.73"/>
        <path stroke="#B1B1B1" stroke-width=".5" d="M345.631 17.056v-4.845h-2.353v4.845m0 203.517v4.846h2.353v-4.846"/>
        <path fill="#FFF" d="M318.578 225.418h2.352V12.21h-2.352z"/>
        <path stroke="#B1B1B1" stroke-dasharray="9.695342710801771,9.695342710801771" stroke-width=".5" d="M320.93 210.882V21.901M318.577 26.747V215.73"/>
        <path stroke="#B1B1B1" stroke-width=".5" d="M320.93 17.056v-4.845h-2.353v4.845m0 203.517v4.846h2.353v-4.846"/>
        <path fill="#FFF" d="M293.875 225.418h2.352V12.21h-2.352z"/>
        <path stroke="#B1B1B1" stroke-dasharray="9.695342710801771,9.695342710801771" stroke-width=".5" d="M296.227 210.882V21.901M293.875 26.747V215.73"/>
        <path stroke="#B1B1B1" stroke-width=".5" d="M296.227 17.056v-4.845h-2.353v4.845m0 203.517v4.846h2.353v-4.846"/>
        <path fill="#FFF" d="M269.173 225.418h2.352V12.21h-2.352z"/>
        <path stroke="#B1B1B1" stroke-dasharray="9.695342710801771,9.695342710801771" stroke-width=".5" d="M271.525 210.882V21.901M269.173 26.747V215.73"/>
        <path stroke="#B1B1B1" stroke-width=".5" d="M271.525 17.056v-4.845h-2.353v4.845m0 203.517v4.846h2.353v-4.846"/>
        <path fill="#FFF" d="M355.63 225.418h2.353V12.21h-2.353z"/>
        <path stroke="#B1B1B1" stroke-width=".5" d="M355.63 225.418h2.353V12.21h-2.353z"/>
        <path fill="#FFF" d="M330.928 225.418h2.353V12.21h-2.353z"/>
        <path stroke="#B1B1B1" stroke-width=".5" d="M330.928 225.418h2.353V12.21h-2.353z"/>
        <path fill="#FFF" d="M306.226 225.418h2.353V12.21h-2.353z"/>
        <path stroke="#B1B1B1" stroke-width=".5" d="M306.226 225.418h2.353V12.21h-2.353z"/>
        <path fill="#FFF" d="M281.524 225.418h2.353V12.21h-2.353z"/>
        <path stroke="#B1B1B1" stroke-width=".5" d="M281.524 225.418h2.353V12.21h-2.353zM256.821 12.176V225.42h2.354V12.176"/>
        <path fill="#FFF" d="M244.47 225.418h2.354V12.21h-2.353z"/>
        <path stroke="#B1B1B1" stroke-dasharray="9.695342710801771,9.695342710801771" stroke-width=".5" d="M246.823 210.882V21.901M244.47 26.747V215.73"/>
        <path stroke="#B1B1B1" stroke-width=".5" d="M246.823 17.056v-4.845h-2.352v4.845m0 203.517v4.846h2.352v-4.846"/>
        <path fill="#FFF" d="M244.47 225.42h2.354V12.59h-2.353z"/>
        <path stroke="#B1B1B1" stroke-dasharray="9.677824827340933,9.677824827340933" stroke-width=".5" d="M246.823 210.908V22.263M244.47 27.1v188.645"/>
        <path stroke="#B1B1B1" stroke-width=".5" d="M246.823 17.426v-4.838h-2.352v4.838m0 203.156v4.838h2.352v-4.838"/>
        <path fill="#D8D8D8" d="M697.42 300.563h165.486V2.805H697.42z"/>
        <path stroke="#8B8B8B" stroke-width=".5" d="M697.42 300.563h165.486V2.805H697.42z"/>
        <path fill="#FFF" d="M707.105 290.632h145.989V12.734H707.105z"/>
        <path stroke="#B1B1B1" stroke-width=".5" d="M707.105 290.632h145.989V12.734H707.105z"/>
        <path stroke="#B1B1B1" stroke-width=".5" d="M707.168 35.828h145.989V12.734H707.168zM707.168 151.648h145.989v-23.095H707.168zM707.168 58.992h145.989V35.897H707.168zM707.168 174.812h145.989v-23.094H707.168zM707.168 82.156h145.989V59.062H707.168zM707.168 197.975h145.989v-23.093H707.168zM707.168 105.32h145.989V82.227H707.168zM707.168 221.141h145.989v-23.094H707.168zM707.168 267.468h145.989v-23.095H707.168zM707.168 128.484h145.989V105.39H707.168zM707.168 244.303h145.989V221.21H707.168zM707.168 290.631h145.989v-23.093H707.168z"/>
        <path fill="#FFF" d="M840.741 290.632h2.354V12.734h-2.354z"/>
        <path stroke="#B1B1B1" stroke-dasharray="9.928908921621897,9.928908921621897" stroke-width=".5" d="M843.095 275.744V22.66M840.742 27.622v253.086"/>
        <path stroke="#B1B1B1" stroke-width=".5" d="M843.095 17.697v-4.963h-2.353v4.963m0 267.972v4.964h2.353v-4.964"/>
        <path fill="#FFF" d="M816.04 290.632h2.353V12.734h-2.354z"/>
        <path stroke="#B1B1B1" stroke-dasharray="9.928908921621897,9.928908921621897" stroke-width=".5" d="M818.392 275.744V22.66M816.04 27.622v253.086"/>
        <path stroke="#B1B1B1" stroke-width=".5" d="M818.392 17.697v-4.963h-2.353v4.963m0 267.972v4.964h2.353v-4.964"/>
        <path fill="#FFF" d="M791.337 290.632h2.354V12.734h-2.354z"/>
        <path stroke="#B1B1B1" stroke-dasharray="9.928908921621897,9.928908921621897" stroke-width=".5" d="M793.69 275.744V22.66M791.338 27.622v253.086"/>
        <path stroke="#B1B1B1" stroke-width=".5" d="M793.69 17.697v-4.963h-2.352v4.963m0 267.972v4.964h2.352v-4.964"/>
        <path fill="#FFF" d="M766.635 290.632h2.354V12.734h-2.354z"/>
        <path stroke="#B1B1B1" stroke-dasharray="9.928908921621897,9.928908921621897" stroke-width=".5" d="M768.989 275.744V22.66M766.636 27.622v253.086"/>
        <path stroke="#B1B1B1" stroke-width=".5" d="M768.989 17.697v-4.963h-2.353v4.963m0 267.972v4.964h2.353v-4.964"/>
        <path fill="#FFF" d="M741.933 290.632h2.354V12.734h-2.354z"/>
        <path stroke="#B1B1B1" stroke-dasharray="9.928908921621897,9.928908921621897" stroke-width=".5" d="M744.287 275.744V22.66M741.934 27.622v253.086"/>
        <path stroke="#B1B1B1" stroke-width=".5" d="M744.287 17.697v-4.963h-2.354v4.963m0 267.972v4.964h2.354v-4.964"/>
        <path fill="#FFF" d="M828.39 290.632h2.354V12.734h-2.354z"/>
        <path stroke="#B1B1B1" stroke-width=".5" d="M828.39 290.632h2.354V12.734h-2.354z"/>
        <path fill="#FFF" d="M803.688 290.632h2.354V12.734h-2.354z"/>
        <path stroke="#B1B1B1" stroke-width=".5" d="M803.688 290.632h2.354V12.734h-2.354z"/>
        <path fill="#FFF" d="M778.986 290.632h2.354V12.734h-2.354z"/>
        <path stroke="#B1B1B1" stroke-width=".5" d="M778.986 290.632h2.354V12.734h-2.354z"/>
        <path fill="#FFF" d="M754.284 290.632h2.354V12.734h-2.354z"/>
        <path stroke="#B1B1B1" stroke-width=".5" d="M754.284 290.632h2.354V12.734h-2.354zM729.582 12.7v277.933h2.354V12.699"/>
        <path fill="#FFF" d="M717.231 290.632h2.354V12.734h-2.354z"/>
        <path stroke="#B1B1B1" stroke-dasharray="9.928908921621897,9.928908921621897" stroke-width=".5" d="M719.584 275.744V22.66M717.231 27.622v253.086"/>
        <path stroke="#B1B1B1" stroke-width=".5" d="M719.584 17.697v-4.963h-2.353v4.963m0 267.972v4.964h2.353v-4.964"/>
        <path fill="#FFF" d="M717.231 290.632h2.354V13.228h-2.354z"/>
        <path stroke="#B1B1B1" stroke-dasharray="9.911392151892603,9.911392151892603" stroke-width=".5" d="M719.584 275.77V23.136M717.231 28.089v252.636"/>
        <path stroke="#B1B1B1" stroke-width=".5" d="M719.584 18.181v-4.954h-2.353v4.954m0 267.497v4.954h2.353v-4.954"/>
        <path fill="#D8D8D8" d="M871.113 300.563h124.023V2.805H871.113z"/>
        <path stroke="#8B8B8B" stroke-width=".5" d="M871.113 300.563h124.023V2.805H871.113z"/>
        <path fill="#FFF" d="M878.363 293.031h109.428V10.335H878.363z"/>
        <path stroke="#B1B1B1" stroke-width=".5" d="M878.363 293.031h109.428V10.335H878.363z"/>
        <path stroke="#B1B1B1" stroke-width=".5" d="M878.411 33.829h109.427V10.335H878.411zM878.411 151.65h109.427v-23.495H878.411zM878.411 57.394h109.427V33.899H878.411zM878.411 175.212h109.427v-23.494H878.411zM878.411 80.957h109.427V57.463H878.411zM878.411 198.776h109.427v-23.494H878.411zM878.411 104.521h109.427V81.028H878.411zM878.411 222.34h109.427v-23.495H878.411zM878.411 269.467h109.427v-23.494H878.411zM878.411 128.085h109.427V104.59H878.411zM878.411 245.904h109.427v-23.495H878.411zM878.411 293.032h109.427v-23.495H878.411z"/>
        <path fill="#FFF" d="M978.548 293.031h1.747V10.335h-1.747z"/>
        <path stroke="#B1B1B1" stroke-dasharray="10.10058061559717,10.10058061559717" stroke-width=".5" d="M980.295 277.887V20.432M978.549 25.48v257.456"/>
        <path stroke="#B1B1B1" stroke-width=".5" d="M980.295 15.383v-5.048h-1.747v5.048m0 272.6v5.05h1.747v-5.05"/>
        <path fill="#FFF" d="M960.03 293.031h1.746V10.335h-1.746z"/>
        <path stroke="#B1B1B1" stroke-dasharray="10.10058061559717,10.10058061559717" stroke-width=".5" d="M961.776 277.887V20.432M960.03 25.48v257.456"/>
        <path stroke="#B1B1B1" stroke-width=".5" d="M961.776 15.383v-5.048h-1.747v5.048m0 272.6v5.05h1.747v-5.05"/>
        <path fill="#FFF" d="M941.51 293.031h1.747V10.335h-1.747z"/>
        <path stroke="#B1B1B1" stroke-dasharray="10.10058061559717,10.10058061559717" stroke-width=".5" d="M943.257 277.887V20.432M941.51 25.48v257.456"/>
        <path stroke="#B1B1B1" stroke-width=".5" d="M943.257 15.383v-5.048h-1.747v5.048m0 272.6v5.05h1.747v-5.05"/>
        <path fill="#FFF" d="M922.992 293.031h1.746V10.335h-1.746z"/>
        <path stroke="#B1B1B1" stroke-dasharray="10.10058061559717,10.10058061559717" stroke-width=".5" d="M924.738 277.887V20.432M922.992 25.48v257.456"/>
        <path stroke="#B1B1B1" stroke-width=".5" d="M924.738 15.383v-5.048h-1.747v5.048m0 272.6v5.05h1.747v-5.05"/>
        <path fill="#FFF" d="M904.472 293.031h1.747V10.335h-1.747z"/>
        <path stroke="#B1B1B1" stroke-dasharray="10.10058061559717,10.10058061559717" stroke-width=".5" d="M906.22 277.887V20.432M904.473 25.48v257.456"/>
        <path stroke="#B1B1B1" stroke-width=".5" d="M906.22 15.383v-5.048h-1.748v5.048m0 272.6v5.05h1.747v-5.05"/>
        <path fill="#FFF" d="M969.288 293.031h1.747V10.335h-1.747z"/>
        <path stroke="#B1B1B1" stroke-width=".5" d="M969.288 293.031h1.747V10.335h-1.747z"/>
        <path fill="#FFF" d="M950.77 293.031h1.747V10.335h-1.747z"/>
        <path stroke="#B1B1B1" stroke-width=".5" d="M950.77 293.031h1.747V10.335h-1.747z"/>
        <path fill="#FFF" d="M932.25 293.031h1.747V10.335h-1.747z"/>
        <path stroke="#B1B1B1" stroke-width=".5" d="M932.25 293.031h1.747V10.335h-1.747z"/>
        <path fill="#FFF" d="M913.732 293.031h1.747V10.335h-1.747z"/>
        <path stroke="#B1B1B1" stroke-width=".5" d="M913.732 293.031h1.747V10.335h-1.747zM895.214 10.3v282.73h1.746V10.3"/>
        <path fill="#FFF" d="M885.955 293.031h1.746V10.335h-1.746z"/>
        <path stroke="#B1B1B1" stroke-dasharray="10.10058061559717,10.10058061559717" stroke-width=".5" d="M887.7 277.887V20.432M885.955 25.48v257.456"/>
        <path stroke="#B1B1B1" stroke-width=".5" d="M887.7 15.383v-5.048h-1.746v5.048m0 272.6v5.05h1.747v-5.05"/>
        <path fill="#FFF" d="M885.955 293.032h1.746V10.837h-1.746z"/>
        <path stroke="#B1B1B1" stroke-dasharray="10.08306273213633,10.08306273213633" stroke-width=".5" d="M887.7 277.914V20.915M885.955 25.955v256.998"/>
        <path stroke="#B1B1B1" stroke-width=".5" d="M887.7 15.876v-5.039h-1.746v5.04m0 272.115v5.04h1.747v-5.04"/>
        <path fill="#D8D8D8" d="M525.737 165.773h163.04V2.805h-163.04z"/>
        <path stroke="#8B8B8B" stroke-width=".5" d="M525.737 165.773h163.04V2.805h-163.04z"/>
        <path fill="#FFF" d="M534.581 157.052h145.115V11.523H534.581z"/>
        <path stroke="#B1B1B1" stroke-width=".5" d="M534.581 157.052h145.115V11.523H534.581z"/>
        <path stroke="#B1B1B1" stroke-width=".5" d="M534.99 23.587h144.533V11.523H534.99zM534.99 84.254h144.533V72.19H534.99zM534.99 35.721h144.533V23.657H534.99zM534.99 96.387h144.533V84.323H534.99zM534.99 47.855h144.533V35.791H534.99zM534.99 108.52h144.533V96.455H534.99zM534.99 59.986h144.533V47.923H534.99zM534.99 120.654h144.533v-12.065H534.99zM534.99 144.92h144.533v-12.064H534.99zM534.99 72.122h144.533V60.058H534.99zM534.99 132.787h144.533v-12.064H534.99zM534.99 157.053h144.533V144.99H534.99z"/>
        <path fill="#FFF" d="M667.233 157.052h2.329V11.523h-2.329z"/>
        <path stroke="#B1B1B1" stroke-dasharray="10.39954514270062,10.39954514270062" stroke-width=".5" d="M669.561 141.46V21.92M667.232 27.117v119.541"/>
        <path stroke="#B1B1B1" stroke-width=".5" d="M669.561 16.721v-5.197h-2.329v5.197m0 135.135v5.197h2.33v-5.197"/>
        <path fill="#FFF" d="M642.776 157.052h2.329V11.523h-2.329z"/>
        <path stroke="#B1B1B1" stroke-dasharray="10.39954514270062,10.39954514270062" stroke-width=".5" d="M645.105 141.46V21.92M642.776 27.117v119.541"/>
        <path stroke="#B1B1B1" stroke-width=".5" d="M645.105 16.721v-5.197h-2.329v5.197m0 135.135v5.197h2.33v-5.197"/>
        <path fill="#FFF" d="M618.32 157.052h2.33V11.523h-2.33z"/>
        <path stroke="#B1B1B1" stroke-dasharray="10.39954514270062,10.39954514270062" stroke-width=".5" d="M620.65 141.46V21.92M618.32 27.117v119.541"/>
        <path stroke="#B1B1B1" stroke-width=".5" d="M620.65 16.721v-5.197h-2.33v5.197m0 135.135v5.197h2.33v-5.197"/>
        <path fill="#FFF" d="M593.864 157.052h2.329V11.523h-2.329z"/>
        <path stroke="#B1B1B1" stroke-dasharray="10.39954514270062,10.39954514270062" stroke-width=".5" d="M596.193 141.46V21.92M593.864 27.117v119.541"/>
        <path stroke="#B1B1B1" stroke-width=".5" d="M596.193 16.721v-5.197h-2.329v5.197m0 135.135v5.197h2.329v-5.197"/>
        <path fill="#FFF" d="M569.408 157.052h2.33V11.523h-2.33z"/>
        <path stroke="#B1B1B1" stroke-dasharray="10.39954514270062,10.39954514270062" stroke-width=".5" d="M571.737 141.46V21.92M569.409 27.117v119.541"/>
        <path stroke="#B1B1B1" stroke-width=".5" d="M571.737 16.721v-5.197h-2.329v5.197m0 135.135v5.197h2.329v-5.197"/>
        <path fill="#FFF" d="M655.005 157.052h2.328V11.523h-2.328z"/>
        <path stroke="#B1B1B1" stroke-width=".5" d="M655.005 157.052h2.328V11.523h-2.328z"/>
        <path fill="#FFF" d="M630.548 157.052h2.329V11.523h-2.329z"/>
        <path stroke="#B1B1B1" stroke-width=".5" d="M630.548 157.052h2.329V11.523h-2.329z"/>
        <path fill="#FFF" d="M606.092 157.052h2.329V11.523h-2.329z"/>
        <path stroke="#B1B1B1" stroke-width=".5" d="M606.092 157.052h2.329V11.523h-2.329z"/>
        <path fill="#FFF" d="M581.637 157.052h2.328V11.523h-2.328z"/>
        <path stroke="#B1B1B1" stroke-width=".5" d="M581.637 157.052h2.328V11.523h-2.328zM557.18 11.49v145.564h2.33V11.49"/>
        <path fill="#FFF" d="M544.953 157.052h2.329V11.523h-2.33z"/>
        <path stroke="#B1B1B1" stroke-dasharray="10.39954514270062,10.39954514270062" stroke-width=".5" d="M547.28 141.46V21.92M544.953 27.117v119.541"/>
        <path stroke="#B1B1B1" stroke-width=".5" d="M547.28 16.721v-5.197h-2.328v5.197m0 135.135v5.197h2.329v-5.197"/>
        <path fill="#FFF" d="M544.953 157.052h2.329V11.782h-2.33z"/>
        <path stroke="#B1B1B1" stroke-dasharray="10.38086006858132,10.38086006858132" stroke-width=".5" d="M547.28 141.489V22.159M544.953 27.347v119.33"/>
        <path stroke="#B1B1B1" stroke-width=".5" d="M547.28 16.97v-5.187h-2.328v5.188m0 134.894v5.189h2.329v-5.189"/>
        <path fill="#D8D8D8" d="M1003.336 202.076h165.5V1.034h-165.5z"/>
        <path stroke="#8B8B8B" stroke-width=".5" d="M1003.336 202.076h165.5V1.034h-165.5z"/>
        <path fill="#FFF" d="M1013.027 192.299h145.988V10.81h-145.988z"/>
        <path stroke="#B1B1B1" stroke-width=".5" d="M1013.027 192.299h145.988V10.81h-145.988z"/>
        <path stroke="#B1B1B1" stroke-width=".5" d="M1013.09 25.871h145.988v-15.06H1013.09zM1013.09 101.52h145.988V86.46H1013.09zM1013.09 41h145.988V25.942H1013.09zM1013.09 116.65h145.988v-15.06H1013.09zM1013.09 56.13h145.988V41.072H1013.09zM1013.09 131.78h145.988v-15.06H1013.09zM1013.09 71.26h145.988V56.2H1013.09zM1013.09 146.91h145.988v-15.06H1013.09zM1013.09 177.169h145.988v-15.06H1013.09zM1013.09 86.39h145.988V71.33H1013.09zM1013.09 162.04h145.988v-15.06H1013.09zM1013.09 192.297h145.988v-15.06H1013.09z"/>
        <path fill="#FFF" d="M1146.663 192.299h2.353V10.81h-2.353z"/>
        <path stroke="#B1B1B1" stroke-dasharray="10.08656653157481,10.08656653157481" stroke-width=".5" d="M1149.017 177.174V20.894M1146.665 25.936v156.28"/>
        <path stroke="#B1B1B1" stroke-width=".5" d="M1149.017 15.853v-5.041h-2.353v5.04m0 171.406v5.04h2.353v-5.04"/>
        <path fill="#FFF" d="M1121.961 192.299h2.353V10.81h-2.353z"/>
        <path stroke="#B1B1B1" stroke-dasharray="10.08656653157481,10.08656653157481" stroke-width=".5" d="M1124.315 177.174V20.894M1121.963 25.936v156.28"/>
        <path stroke="#B1B1B1" stroke-width=".5" d="M1124.315 15.853v-5.041h-2.353v5.04m0 171.406v5.04h2.353v-5.04"/>
        <path fill="#FFF" d="M1097.26 192.299h2.354V10.81h-2.354z"/>
        <path stroke="#B1B1B1" stroke-dasharray="10.08656653157481,10.08656653157481" stroke-width=".5" d="M1099.613 177.174V20.894M1097.26 25.936v156.28"/>
        <path stroke="#B1B1B1" stroke-width=".5" d="M1099.613 15.853v-5.041h-2.353v5.04m0 171.406v5.04h2.353v-5.04"/>
        <path fill="#FFF" d="M1072.557 192.299h2.353V10.81h-2.353z"/>
        <path stroke="#B1B1B1" stroke-dasharray="10.08656653157481,10.08656653157481" stroke-width=".5" d="M1074.91 177.174V20.894M1072.558 25.936v156.28"/>
        <path stroke="#B1B1B1" stroke-width=".5" d="M1074.91 15.853v-5.041h-2.353v5.04m0 171.406v5.04h2.354v-5.04"/>
        <path fill="#FFF" d="M1047.856 192.299h2.354V10.81h-2.354z"/>
        <path stroke="#B1B1B1" stroke-dasharray="10.08656653157481,10.08656653157481" stroke-width=".5" d="M1050.208 177.174V20.894M1047.857 25.936v156.28"/>
        <path stroke="#B1B1B1" stroke-width=".5" d="M1050.208 15.853v-5.041h-2.352v5.04m0 171.406v5.04h2.352v-5.04"/>
        <path fill="#FFF" d="M1134.313 192.299h2.354V10.81h-2.354z"/>
        <path stroke="#B1B1B1" stroke-width=".5" d="M1134.313 192.299h2.354V10.81h-2.354z"/>
        <path fill="#FFF" d="M1109.611 192.299h2.354V10.81h-2.354z"/>
        <path stroke="#B1B1B1" stroke-width=".5" d="M1109.611 192.299h2.354V10.81h-2.354z"/>
        <path fill="#FFF" d="M1084.908 192.299h2.353V10.81h-2.353z"/>
        <path stroke="#B1B1B1" stroke-width=".5" d="M1084.908 192.299h2.353V10.81h-2.353z"/>
        <path fill="#FFF" d="M1060.207 192.299h2.352V10.81h-2.352z"/>
        <path stroke="#B1B1B1" stroke-width=".5" d="M1060.207 192.299h2.352V10.81h-2.352zM1035.505 10.776V192.3h2.354V10.776"/>
        <path fill="#FFF" d="M1023.154 192.299h2.354V10.81h-2.354z"/>
        <path stroke="#B1B1B1" stroke-dasharray="10.08656653157481,10.08656653157481" stroke-width=".5" d="M1025.507 177.174V20.894M1023.154 25.936v156.28"/>
        <path stroke="#B1B1B1" stroke-width=".5" d="M1025.507 15.853v-5.041h-2.353v5.04m0 171.406v5.04h2.353v-5.04"/>
        <path fill="#FFF" d="M1023.154 192.299h2.354V11.134h-2.354z"/>
        <path stroke="#B1B1B1" stroke-dasharray="10.06904864811397,10.06904864811397" stroke-width=".5" d="M1025.507 177.202V21.197M1023.154 26.23v156.004"/>
        <path stroke="#B1B1B1" stroke-width=".5" d="M1025.507 16.166v-5.033h-2.353v5.033m0 171.1v5.033h2.353v-5.033"/>
        <path fill="#D8D8D8" d="M398.534 165.784H516.7V2.794H398.534z"/>
        <path stroke="#8B8B8B" stroke-width=".5" d="M398.534 165.784H516.7V2.794H398.534z"/>
        <path fill="#FFF" d="M405.194 159.176h104.754V9.402H405.194z"/>
        <path stroke="#B1B1B1" stroke-width=".5" d="M405.194 159.176h104.754V9.402H405.194z"/>
        <path stroke="#B1B1B1" stroke-width=".5" d="M405.24 21.838h104.754V9.402H405.239zM405.24 84.263h104.754V71.828H405.239zM405.24 34.323h104.754V21.887H405.239zM405.24 96.75h104.754V84.313H405.239zM405.24 46.808h104.754V34.373H405.239zM405.24 109.234h104.754V96.798H405.239zM405.24 59.293h104.754V46.857H405.239zM405.24 121.72h104.754v-12.435H405.239zM405.24 146.69h104.754v-12.436H405.239zM405.24 71.778h104.754V59.342H405.239zM405.24 134.205h104.754V121.77H405.239zM405.24 159.174h104.754V146.74H405.239z"/>
        <path fill="#FFF" d="M501.084 159.176h1.69V9.402h-1.69z"/>
        <path stroke="#B1B1B1" stroke-dasharray="9.36484621621512,9.36484621621512" stroke-width=".5" d="M502.774 145.134V18.763M501.086 23.444v126.371"/>
        <path stroke="#B1B1B1" stroke-width=".5" d="M502.774 14.082v-4.68h-1.689v4.68m0 140.414v4.68h1.689v-4.68"/>
        <path fill="#FFF" d="M483.36 159.176h1.688V9.402h-1.689z"/>
        <path stroke="#B1B1B1" stroke-dasharray="9.36484621621512,9.36484621621512" stroke-width=".5" d="M485.049 145.134V18.763M483.36 23.444v126.371"/>
        <path stroke="#B1B1B1" stroke-width=".5" d="M485.049 14.082v-4.68h-1.689v4.68m0 140.414v4.68h1.689v-4.68"/>
        <path fill="#FFF" d="M465.635 159.176h1.689V9.402h-1.69z"/>
        <path stroke="#B1B1B1" stroke-dasharray="9.36484621621512,9.36484621621512" stroke-width=".5" d="M467.324 145.134V18.763M465.635 23.444v126.371"/>
        <path stroke="#B1B1B1" stroke-width=".5" d="M467.324 14.082v-4.68h-1.689v4.68m0 140.414v4.68h1.689v-4.68"/>
        <path fill="#FFF" d="M447.91 159.176h1.688V9.402h-1.688z"/>
        <path stroke="#B1B1B1" stroke-dasharray="9.36484621621512,9.36484621621512" stroke-width=".5" d="M449.599 145.134V18.763M447.91 23.444v126.371"/>
        <path stroke="#B1B1B1" stroke-width=".5" d="M449.599 14.082v-4.68h-1.689v4.68m0 140.414v4.68h1.689v-4.68"/>
        <path fill="#FFF" d="M430.184 159.176h1.689V9.402h-1.689z"/>
        <path stroke="#B1B1B1" stroke-dasharray="9.36484621621512,9.36484621621512" stroke-width=".5" d="M431.873 145.134V18.763M430.185 23.444v126.371"/>
        <path stroke="#B1B1B1" stroke-width=".5" d="M431.873 14.082v-4.68h-1.688v4.68m0 140.414v4.68h1.688v-4.68"/>
        <path fill="#FFF" d="M492.223 159.176h1.689V9.402h-1.69z"/>
        <path stroke="#B1B1B1" stroke-width=".5" d="M492.223 159.176h1.689V9.402h-1.69z"/>
        <path fill="#FFF" d="M474.498 159.176h1.688V9.402h-1.688z"/>
        <path stroke="#B1B1B1" stroke-width=".5" d="M474.498 159.176h1.688V9.402h-1.688z"/>
        <path fill="#FFF" d="M456.772 159.176h1.689V9.402h-1.689z"/>
        <path stroke="#B1B1B1" stroke-width=".5" d="M456.772 159.176h1.689V9.402h-1.689z"/>
        <path fill="#FFF" d="M439.048 159.176h1.689V9.402h-1.689z"/>
        <path stroke="#B1B1B1" stroke-width=".5" d="M439.048 159.176h1.689V9.402h-1.689zM421.323 9.377v149.798h1.688V9.377"/>
        <path fill="#FFF" d="M412.46 159.176h1.689V9.402h-1.689z"/>
        <path stroke="#B1B1B1" stroke-dasharray="9.36484621621512,9.36484621621512" stroke-width=".5" d="M414.148 145.134V18.763M412.46 23.444v126.371"/>
        <path stroke="#B1B1B1" stroke-width=".5" d="M414.148 14.082v-4.68h-1.689v4.68m0 140.414v4.68h1.69v-4.68"/>
        <path fill="#FFF" d="M412.46 159.177h1.689V9.669h-1.689z"/>
        <path stroke="#B1B1B1" stroke-dasharray="9.34849663714429,9.34849663714429" stroke-width=".5" d="M414.148 145.16V19.012M412.46 23.684v126.147"/>
        <path stroke="#B1B1B1" stroke-width=".5" d="M414.148 14.34V9.668h-1.689v4.672m0 140.164v4.671h1.69v-4.671"/>
        <path fill="#FFF" d="M367.792 367.89h242.015v-2.645H367.792z"/>
        <path stroke="#B1B1B1" stroke-dasharray="10.08423103652634,10.08423103652634" stroke-width=".5" d="M382.918 367.89h216.804M594.68 365.243H377.876"/>
        <path stroke="#B1B1B1" stroke-width=".5" d="M604.765 367.89h5.041v-2.647h-5.041m-231.93 0h-5.043v2.648h5.042"/>
        <path fill="#FFF" d="M641.847 367.547h172.55v-2.66h-172.55z"/>
        <path stroke="#B1B1B1" stroke-dasharray="9.586733838061354,9.586733838061354" stroke-width=".5" d="M656.226 367.546H804.81M800.017 364.887H651.434"/>
        <path stroke="#B1B1B1" stroke-width=".5" d="M809.603 367.546h4.793v-2.66h-4.793m-162.963 0h-4.793v2.66h4.793"/>
        <path fill="#FFF" d="M843.547 364.213h315.144v-2.25H843.547z"/>
        <path stroke="#B1B1B1" stroke-dasharray="9.848328216926202,9.848328216926202" stroke-width=".5" d="M858.319 364.213h290.524M1143.919 361.964H853.395"/>
        <path stroke="#B1B1B1" stroke-width=".5" d="M1153.768 364.213h4.923v-2.25h-4.923m-305.297 0h-4.925v2.25h4.925"/>
    </g>
</svg>
