<svg id="Layer_1" data-name="Layer 1" xmlns="http://www.w3.org/2000/svg" viewBox="0 0 553.21 779.77"><defs><style>.cls-1{fill:#011e41;}.cls-2{fill:#fff;}</style></defs><title>Grid_Layout_Example_04</title><rect class="cls-1" width="553.21" height="779.77"/><rect class="cls-2" x="31.4" y="565.43" width="143.75" height="7.69"/><rect class="cls-2" x="31.4" y="630.24" width="143.75" height="7.69"/><rect class="cls-2" x="31.4" y="584.17" width="143.75" height="7.69"/><rect class="cls-2" x="31.4" y="648.97" width="143.75" height="7.69"/><rect class="cls-2" x="31.4" y="620.52" width="143.75" height="7.69"/><rect class="cls-2" x="31.4" y="556.38" width="152.12" height="7.69"/><rect class="cls-2" x="31.4" y="547.33" width="154.84" height="7.69"/><rect class="cls-2" x="31.4" y="574.48" width="154.84" height="7.69"/><rect class="cls-2" x="31.4" y="639.28" width="154.84" height="7.69"/><rect class="cls-2" x="31.4" y="538.28" width="154.84" height="7.69"/><rect class="cls-2" x="31.4" y="528.79" width="146.34" height="7.69"/><rect class="cls-2" x="277.57" y="51.66" width="146.34" height="7.69"/><rect class="cls-2" x="31.4" y="519.29" width="157.44" height="7.69"/><rect class="cls-2" x="277.57" y="42.17" width="157.44" height="7.69"/><rect class="cls-2" x="31.4" y="509.8" width="150.35" height="7.69"/><rect class="cls-2" x="277.57" y="32.67" width="150.35" height="7.69"/><rect class="cls-2" x="445.51" y="32.67" width="76.63" height="7.69"/><rect class="cls-2" x="31.4" y="90.8" width="492.34" height="358.72"/><rect class="cls-2" x="31.4" y="700.49" width="83.31" height="47.71"/></svg>