<svg id="Layer_1" data-name="Layer 1" xmlns="http://www.w3.org/2000/svg" xmlns:xlink="http://www.w3.org/1999/xlink" viewBox="0 0 553.99 780"><defs><style>.cls-1,.cls-16,.cls-3,.cls-5,.cls-6,.cls-7{fill:none;}.cls-2{fill:#d8d8d8;}.cls-3{stroke:#8b8b8b;}.cls-3,.cls-5,.cls-6,.cls-7{stroke-miterlimit:10;stroke-width:0.23px;}.cls-4{fill:#fff;}.cls-5,.cls-6,.cls-7{stroke:#b1b1b1;}.cls-6{stroke-dasharray:11.17 11.17;}.cls-7{stroke-dasharray:11.15 11.15;}.cls-8{clip-path:url(#clip-path);}.cls-9{fill:#071533;}.cls-10{fill:#14e8ff;}.cls-11{opacity:0.9;}.cls-12{clip-path:url(#clip-path-2);}.cls-13{fill:#e1e1e1;opacity:0.5;}.cls-14{clip-path:url(#clip-path-3);}.cls-15{fill:#011e41;}.cls-16{stroke:#011e41;stroke-miterlimit:14.12;stroke-width:0.77px;}</style><clipPath id="clip-path"><rect class="cls-1" x="444.61" y="712.88" width="76.67" height="34.03"/></clipPath><clipPath id="clip-path-2"><rect class="cls-1" x="155" y="151.04" width="398.99" height="239.9"/></clipPath><clipPath id="clip-path-3"><rect class="cls-1" x="155" y="395.34" width="398.99" height="241.44"/></clipPath></defs><title>Grid_Our Grid_02</title><rect class="cls-2" x="1.06" y="1.06" width="551.88" height="777.88"/><rect class="cls-3" x="1.06" y="1.06" width="551.88" height="777.88"/><rect class="cls-4" x="32.59" y="32.59" width="489.23" height="714.81"/><rect class="cls-5" x="32.59" y="32.59" width="489.23" height="714.81"/><rect class="cls-5" x="32.38" y="688.05" width="489.23" height="59.35"/><rect class="cls-5" x="32.38" y="390.12" width="489.23" height="59.35"/><rect class="cls-5" x="32.38" y="628.46" width="489.23" height="59.35"/><rect class="cls-5" x="32.38" y="330.53" width="489.23" height="59.35"/><rect class="cls-5" x="32.38" y="568.88" width="489.23" height="59.35"/><rect class="cls-5" x="32.38" y="270.94" width="489.23" height="59.35"/><rect class="cls-5" x="32.38" y="509.29" width="489.23" height="59.35"/><rect class="cls-5" x="32.38" y="211.35" width="489.23" height="59.35"/><rect class="cls-5" x="32.38" y="92.18" width="489.23" height="59.35"/><rect class="cls-5" x="32.38" y="449.7" width="489.23" height="59.35"/><rect class="cls-5" x="32.38" y="151.77" width="489.23" height="59.35"/><rect class="cls-5" x="32.38" y="32.59" width="489.23" height="59.35"/><rect class="cls-4" x="66.1" y="32.59" width="7.88" height="714.81"/><line class="cls-6" x1="66.1" y1="49.35" x2="66.1" y2="736.24"/><line class="cls-6" x1="73.98" y1="730.65" x2="73.98" y2="43.76"/><path class="cls-5" d="M74,38.18V32.59H66.1v5.59m0,703.64v5.59H74v-5.59"/><rect class="cls-4" x="148.88" y="32.59" width="7.88" height="714.81"/><line class="cls-6" x1="148.88" y1="49.35" x2="148.88" y2="736.24"/><line class="cls-6" x1="156.77" y1="730.65" x2="156.77" y2="43.76"/><path class="cls-5" d="M156.77,38.18V32.59h-7.89v5.59m0,703.64v5.59h7.89v-5.59"/><rect class="cls-4" x="231.66" y="32.59" width="7.88" height="714.81"/><line class="cls-6" x1="231.66" y1="49.35" x2="231.66" y2="736.24"/><line class="cls-6" x1="239.55" y1="730.65" x2="239.55" y2="43.76"/><path class="cls-5" d="M239.55,38.18V32.59h-7.89v5.59m0,703.64v5.59h7.89v-5.59"/><rect class="cls-4" x="314.45" y="32.59" width="7.88" height="714.81"/><line class="cls-6" x1="314.45" y1="49.35" x2="314.45" y2="736.24"/><line class="cls-6" x1="322.33" y1="730.65" x2="322.33" y2="43.76"/><path class="cls-5" d="M322.33,38.18V32.59h-7.88v5.59m0,703.64v5.59h7.88v-5.59"/><rect class="cls-4" x="397.23" y="32.59" width="7.88" height="714.81"/><line class="cls-6" x1="397.23" y1="49.35" x2="397.23" y2="736.24"/><line class="cls-6" x1="405.11" y1="730.65" x2="405.11" y2="43.76"/><path class="cls-5" d="M405.11,38.18V32.59h-7.88v5.59m0,703.64v5.59h7.88v-5.59"/><rect class="cls-4" x="107.49" y="32.59" width="7.88" height="714.81"/><rect class="cls-5" x="107.49" y="32.59" width="7.88" height="714.81"/><rect class="cls-4" x="190.27" y="32.59" width="7.88" height="714.81"/><rect class="cls-5" x="190.27" y="32.59" width="7.88" height="714.81"/><rect class="cls-4" x="273.06" y="32.59" width="7.88" height="714.81"/><rect class="cls-5" x="273.06" y="32.59" width="7.88" height="714.81"/><rect class="cls-4" x="355.84" y="32.59" width="7.88" height="714.81"/><rect class="cls-5" x="355.84" y="32.59" width="7.88" height="714.81"/><polyline class="cls-5" points="446.5 747.52 446.5 32.59 438.62 32.59 438.62 747.52"/><rect class="cls-4" x="480.01" y="32.59" width="7.88" height="714.81"/><line class="cls-6" x1="480.01" y1="49.35" x2="480.01" y2="736.24"/><line class="cls-6" x1="487.89" y1="730.65" x2="487.89" y2="43.76"/><path class="cls-5" d="M487.89,38.18V32.59H480v5.59m0,703.64v5.59h7.88v-5.59"/><rect class="cls-4" x="480.01" y="32.59" width="7.88" height="713.54"/><line class="cls-7" x1="480.01" y1="49.32" x2="480.01" y2="734.99"/><line class="cls-7" x1="487.89" y1="729.41" x2="487.89" y2="43.74"/><path class="cls-5" d="M487.89,38.17V32.59H480v5.58m0,702.39v5.58h7.88v-5.58"/><g class="cls-8"><path class="cls-9" d="M488,740.32a7.85,7.85,0,0,1-6.17,2.82c-4.52,0-9.71-4-9.71-9.56a6.29,6.29,0,0,1,1-3.68l-.28-.52a10,10,0,0,0-4.15,7.82c0,5.47,4.34,9.76,10.23,9.76,4.52,0,7.68-2.31,9.66-6.5Z"/><path class="cls-9" d="M465.49,722.22c0-5.75-4.43-9.38-14.09-8.91v.8c6.27.24,8.34,4.15,8.34,8.11s-1.84,7.77-7.78,8.2l10.18,16h6.55l-10.27-15.88c3.63-1.18,7.07-3.86,7.07-8.29"/><path class="cls-10" d="M521.3,721.46a2.46,2.46,0,1,0-2.46,2.45,2.46,2.46,0,0,0,2.46-2.45"/><path class="cls-9" d="M481.51,725.85c3.72-.9,6.83-3.25,6.83-7,0-3.44-2.78-6-7.58-5.89v.61c2,.43,3.34,2.78,3.34,5.47,0,3.25-1.13,5-2.82,6.27Z"/><path class="cls-9" d="M493.58,739.94c8.48,0,16.87-4,23.7-14.89l-.66-.43c-5.94,9.29-13.38,12.91-20.92,12.91-9.76,0-18.81-8-18.81-17.48,0-3,.76-5.61,2.92-6.41V713c-4.57.61-7.68,4.76-7.68,9.52,0,9.66,9.71,17.39,21.45,17.39"/><polygon class="cls-9" points="508.94 746.39 514.83 746.39 502.34 713.22 501.64 713.22 499.09 719.96 508.94 746.39"/><polygon class="cls-9" points="489.24 746.39 490.61 746.39 499.19 723.25 498.57 721.42 489.24 746.39"/><rect class="cls-9" x="444.6" y="713.31" width="5.76" height="33.08"/></g><g class="cls-11"><g class="cls-12"><rect class="cls-13" x="155.94" y="151.98" width="397.11" height="238.02"/></g></g><g class="cls-11"><g class="cls-14"><rect class="cls-13" x="155.94" y="396.28" width="397.11" height="239.55"/></g></g><path class="cls-15" d="M73.3,160.16H57.42v39.65H51.14V160.16H35.32v-5.6h38Z"/><path class="cls-15" d="M83.21,172.29a11.75,11.75,0,0,1,9.48-4c7.45,0,11.7,5.29,11.7,13.23v18.29h-6V181.89c0-4.68-2.77-7.88-7.14-7.88-3.64,0-6.1,2.22-8,4.93v20.87h-6V153h6Z"/><path class="cls-15" d="M138.19,184.11v2.4H115.54c.37,5.54,3.69,8.68,9.48,8.68,4.06,0,7-1.72,8.55-3.88l4,3.33A15.27,15.27,0,0,1,125,200.42c-9.54,0-15.58-6.71-15.58-16s6.1-16.13,14.78-16.13C133.45,168.29,138.19,175.43,138.19,184.11Zm-22.65-2.52h16.68c-.18-4.87-3-8.13-8-8.13S115.84,176.66,115.54,181.59Z"/><path class="cls-15" d="M203.39,199.81h-6.28v-25l-15.27,25.37h-.43l-15.33-25.37v25H159.8V153.76h.25L181.6,189l21.54-35.21h.25Z"/><path class="cls-15" d="M233.37,172.66l.25-3.76h5.48v30.91h-5.48l-.25-3.76c-1.78,2.34-4.86,4.37-9.66,4.37-8.44,0-14-6.77-14-16.06s5.6-16.07,14-16.07C228.51,168.29,231.59,170.32,233.37,172.66Zm-17.6,11.7c0,6.4,3.69,10.71,9,10.71,4.06,0,6.4-2.22,8.25-5.24v-11c-1.85-3-4.19-5.24-8.25-5.24C219.46,173.64,215.77,178,215.77,184.36Z"/><path class="cls-15" d="M233.38,212.12l3.2-4.68a7.49,7.49,0,0,0,4.86,1.79c3,0,5.17-2.22,5.17-5.79V168.9h6v34.48a11,11,0,0,1-11.38,11.2A12.4,12.4,0,0,1,233.38,212.12Zm20.19-53.19a3.85,3.85,0,0,1-3.94,3.94,3.81,3.81,0,0,1-3.94-3.94,3.85,3.85,0,0,1,3.94-3.94A3.9,3.9,0,0,1,253.57,158.93Z"/><path class="cls-15" d="M289.34,184.42c0,9.29-6.71,16-15.89,16s-15.82-6.71-15.82-16,6.65-16.13,15.82-16.13S289.34,175.12,289.34,184.42Zm-25.61,0c0,6.15,4.06,10.65,9.72,10.65s9.79-4.5,9.79-10.65-4.12-10.78-9.79-10.78S263.73,178.2,263.73,184.42Z"/><path class="cls-15" d="M309.59,174.32H309c-3.82,0-6.28,2.16-8.37,5.17v20.32h-6V168.9h5.48l.31,4.19a10.55,10.55,0,0,1,9.17-4.8Z"/><path class="cls-15" d="M75.58,240.57l-4,4.56a16.19,16.19,0,0,0-12.19-5.36c-9.61,0-16.26,7.45-16.26,17.67s6.65,17.61,16.26,17.61a16.12,16.12,0,0,0,12.49-5.67l3.94,4.68c-4.24,4.62-9.72,6.77-16.43,6.77-13.12,0-22.6-10-22.6-23.39S46.27,234,59.39,234A21.37,21.37,0,0,1,75.58,240.57Z"/><path class="cls-15" d="M86.05,252.51a11.72,11.72,0,0,1,9.48-4c7.45,0,11.69,5.3,11.69,13.24V280h-6V262.12c0-4.68-2.77-7.88-7.14-7.88-3.63,0-6.1,2.21-8,4.92V280H80V233.25h6Z"/><path class="cls-15" d="M136,252.88l.25-3.75h5.48V280h-5.48l-.25-3.75c-1.78,2.34-4.86,4.37-9.66,4.37-8.43,0-14-6.77-14-16.07s5.61-16.07,14-16.07C131.11,248.51,134.19,250.54,136,252.88Zm-17.6,11.7c0,6.4,3.69,10.71,9,10.71,4.06,0,6.4-2.21,8.25-5.23v-11c-1.85-3-4.19-5.23-8.25-5.23C122.06,253.87,118.37,258.18,118.37,264.58Z"/><path class="cls-15" d="M196.06,261.75V280H190V262.12c0-4.68-2.59-7.88-6.71-7.88-3.51,0-6,2.21-7.94,5.05.06.67.12,1.35.12,2V280h-6V262.12c0-4.68-2.59-7.88-6.71-7.88-3.51,0-5.85,2.21-7.82,4.86V280h-6v-30.9h5.48l.25,3.75a12,12,0,0,1,9.66-4.37,10.06,10.06,0,0,1,9.55,5.67,13,13,0,0,1,11.08-5.67C191.94,248.51,196.06,253.81,196.06,261.75Z"/><path class="cls-15" d="M233,264.58c0,9.3-5.78,16.07-14.28,16.07-4.62,0-7.76-1.79-9.6-3.94v17.48h-6V249.13h5.48l.25,3.75c1.78-2.34,5.05-4.37,9.91-4.37C227.22,248.51,233,255.28,233,264.58Zm-23.88-5.48v11c1.84,3,4.37,5.23,8.49,5.23,5.42,0,9.3-4.31,9.3-10.71s-3.88-10.71-9.3-10.71C213.49,253.87,211,256.08,209.12,259.1Z"/><path class="cls-15" d="M245.2,239.16a3.86,3.86,0,0,1-3.94,3.94,3.94,3.94,0,0,1,0-7.88A3.89,3.89,0,0,1,245.2,239.16ZM244.27,280h-6v-30.9h6Z"/><path class="cls-15" d="M281,264.64c0,9.3-6.71,16-15.88,16s-15.82-6.71-15.82-16,6.65-16.13,15.82-16.13S281,255.35,281,264.64Zm-25.61,0c0,6.16,4.07,10.65,9.73,10.65s9.79-4.49,9.79-10.65-4.13-10.77-9.79-10.77S255.35,258.42,255.35,264.64Z"/><path class="cls-15" d="M313.47,261.75V280h-6V262.12c0-4.68-2.77-7.88-7.14-7.88-3.64,0-6.1,2.21-8,4.92V280h-6v-30.9h5.48l.25,3.75a12.11,12.11,0,0,1,9.78-4.37C309.22,248.51,313.47,253.81,313.47,261.75Z"/><path class="cls-15" d="M341.36,251.53l-2.52,4.8a14.75,14.75,0,0,0-8.38-2.58c-3.2,0-5.41,1-5.41,3.57s1.78,3.2,6.28,4.24c7.38,1.79,10.65,4.74,10.65,9.36,0,5.91-4.81,9.73-12.38,9.73a19.15,19.15,0,0,1-11.76-3.57l2.77-4.87a13.72,13.72,0,0,0,9.05,3.2c3.7,0,6.22-1.23,6.22-3.87S334,268,329.54,267c-7.45-1.72-10.53-4.25-10.53-9.05,0-5.91,4.5-9.42,11.7-9.42A19.67,19.67,0,0,1,341.36,251.53Z"/><path class="cls-15" d="M353.24,252.51a11.75,11.75,0,0,1,9.48-4c7.45,0,11.7,5.3,11.7,13.24V280h-6V262.12c0-4.68-2.77-7.88-7.14-7.88-3.64,0-6.1,2.21-8,4.92V280h-6V233.25h6Z"/><path class="cls-15" d="M388.21,239.16a3.94,3.94,0,1,1-3.94-3.94A3.85,3.85,0,0,1,388.21,239.16ZM387.29,280h-6v-30.9h6Z"/><path class="cls-15" d="M424.35,264.58c0,9.3-5.79,16.07-14.28,16.07-4.62,0-7.76-1.79-9.61-3.94v17.48h-6V249.13h5.48l.25,3.75c1.78-2.34,5-4.37,9.91-4.37C418.56,248.51,424.35,255.28,424.35,264.58Zm-23.89-5.48v11c1.85,3,4.38,5.23,8.5,5.23,5.42,0,9.3-4.31,9.3-10.71s-3.88-10.71-9.3-10.71C404.84,253.87,402.31,256.08,400.46,259.1Z"/><path class="cls-15" d="M450.46,251.53l-2.53,4.8a14.72,14.72,0,0,0-8.37-2.58c-3.2,0-5.42,1-5.42,3.57s1.79,3.2,6.28,4.24c7.39,1.79,10.65,4.74,10.65,9.36,0,5.91-4.8,9.73-12.37,9.73a19.13,19.13,0,0,1-11.76-3.57l2.77-4.87a13.72,13.72,0,0,0,9.05,3.2c3.69,0,6.22-1.23,6.22-3.87s-1.85-3.51-6.34-4.56c-7.45-1.72-10.53-4.25-10.53-9.05,0-5.91,4.49-9.42,11.7-9.42A19.69,19.69,0,0,1,450.46,251.53Z"/><path class="cls-16" d="M56.86,404.71l7.82,17.49H49.05ZM57,390.86h-.25L35.93,436.91h6.71l4.07-9.23H67l4.07,9.23H77.8Z"/><path class="cls-16" d="M96,410.75c5.42,0,9.29,4.31,9.29,10.71s-3.87,10.71-9.29,10.71c-4.13,0-6.65-2.21-8.5-5.23V416C89.38,413,91.9,410.75,96,410.75Zm1.11-5.36c-4.87,0-8.13,2-9.92,4.37L87,406H81.5v45.06h6V433.59c1.85,2.15,5,3.94,9.61,3.94,8.49,0,14.28-6.77,14.28-16.07S105.63,405.39,97.14,405.39Z"/><path class="cls-16" d="M131.77,405.39a10.55,10.55,0,0,0-9.17,4.8l-.31-4.18h-5.48v30.9h6V416.6c2.09-3,4.55-5.18,8.37-5.18h.55Z"/><path class="cls-16" d="M141.56,406h-6v30.9h6Zm-3-13.92A3.85,3.85,0,0,0,134.6,396a3.94,3.94,0,1,0,7.88,0A3.89,3.89,0,0,0,138.54,392.09Z"/><rect class="cls-16" x="148.73" y="390.12" width="6.03" height="46.79"/><rect class="cls-16" x="176.19" y="417.77" width="29.24" height="5.6"/><path class="cls-16" d="M244,404.71l7.82,17.49H236.16Zm.12-13.85h-.24L223,436.91h6.72l4.06-9.23h20.32l4.06,9.23h6.71Z"/><path class="cls-16" d="M293.68,406h-6v20.87c-1.91,2.65-4.19,4.92-8.06,4.92-4.07,0-6.53-3.14-6.53-7.69V406h-6v18.41c0,7.88,3.94,13.11,11,13.11,5,0,8.06-2,9.91-4.37l.25,3.75h5.48Z"/><path class="cls-16" d="M314.46,410.75c4.12,0,6.65,2.21,8.5,5.23v11c-1.85,3-4.38,5.23-8.5,5.23-5.42,0-9.3-4.31-9.3-10.71S309,410.75,314.46,410.75Zm-1.11-5.36c-8.49,0-14.28,6.77-14.28,16.07s5.79,16.07,14.28,16.07c4.62,0,7.76-1.79,9.61-3.94v2.65c0,6.09-3.7,10.09-9.61,10.09a12.74,12.74,0,0,1-10.16-5.05l-4,3.94a17.69,17.69,0,0,0,14.22,6.47c9.42,0,15.58-5.91,15.58-15.58V406h-5.48l-.25,3.75C321.48,407.42,318.22,405.39,313.35,405.39Z"/><path class="cls-16" d="M362.55,406h-6v20.87c-1.91,2.65-4.19,4.92-8.07,4.92-4.06,0-6.53-3.14-6.53-7.69V406h-6v18.41c0,7.88,3.94,13.11,11,13.11,5,0,8.07-2,9.91-4.37l.25,3.75h5.48Z"/><path class="cls-16" d="M380.15,405.39c-7.2,0-11.7,3.51-11.7,9.42,0,4.8,3.08,7.33,10.53,9.05,4.5,1.05,6.34,2,6.34,4.56s-2.52,3.88-6.22,3.88a13.67,13.67,0,0,1-9.05-3.21L367.28,434A19.09,19.09,0,0,0,379,437.53c7.58,0,12.38-3.82,12.38-9.73,0-4.62-3.26-7.57-10.65-9.36-4.5-1-6.28-1.78-6.28-4.24s2.21-3.58,5.42-3.58a14.72,14.72,0,0,1,8.37,2.59l2.52-4.8A19.56,19.56,0,0,0,380.15,405.39Z"/><path class="cls-16" d="M405.86,395.54h-6V406h-6v5.17h6v15.39c0,7.14,4.25,11,10.83,11a12.38,12.38,0,0,0,6.65-1.66l-1.72-4.93a9.72,9.72,0,0,1-4.62,1.11c-3,0-5.11-2-5.11-5.48V411.18h9.73V406h-9.73Z"/><path class="cls-15" d="M302.31,101.07c0,6.57-4.56,11.35-10.83,11.35s-10.84-4.78-10.84-11.35,4.54-11.37,10.84-11.37S302.31,94.54,302.31,101.07Zm-20.12,0c0,5.74,3.85,9.92,9.29,9.92s9.31-4.18,9.31-9.92-3.91-9.94-9.31-9.94S282.19,95.37,282.19,101.07Z"/><path class="cls-15" d="M317.42,112H316l0-2.12a6.47,6.47,0,0,1-5.22,2.42c-3.28,0-5.25-2.45-5.25-6.06V97.19H307v9c0,2.81,1.58,4.72,4,4.72s3.64-1.11,4.92-2.78v-11h1.47Z"/><path class="cls-15" d="M327.45,98.36h-.15c-1.94,0-3.23,1-4.36,2.77V112h-1.43V97.19h1.34l.06,2.18a5.23,5.23,0,0,1,4.54-2.48Z"/><path class="cls-15" d="M350,104.45v.68H337.8c.12,3.53,2.18,5.89,5.89,5.89a5.81,5.81,0,0,0,4.89-2.36l1.05.8a6.94,6.94,0,0,1-5.94,2.87c-4.66,0-7.35-3.22-7.35-7.7s2.81-7.74,6.93-7.74C347.54,96.89,350,100.18,350,104.45Zm-12.15-.6h10.72c-.12-3.28-2-5.64-5.25-5.64S338,100.54,337.8,103.85Z"/><path class="cls-15" d="M357.72,112.33h-.12l-7.11-15.14H352l5.65,12.21,5.67-12.21h1.52Z"/><path class="cls-15" d="M379,104.45v.68H366.82c.12,3.53,2.18,5.89,5.88,5.89a5.83,5.83,0,0,0,4.9-2.36l1,.8a6.92,6.92,0,0,1-5.94,2.87c-4.66,0-7.34-3.22-7.34-7.7s2.8-7.74,6.92-7.74C376.55,96.89,379,100.18,379,104.45Zm-12.15-.6h10.72c-.12-3.28-2-5.64-5.26-5.64S367,100.54,366.82,103.85Z"/><path class="cls-15" d="M394.28,103v9h-1.43v-8.9c0-2.86-1.76-4.83-4.45-4.83-2.18,0-3.58,1.13-4.92,2.8V112H382V97.19h1.35l.06,2.15a6.68,6.68,0,0,1,5.19-2.45C392.19,96.89,394.28,99.4,394.28,103Z"/><path class="cls-15" d="M400.49,97.19h5.11v1.32h-5.11v9.13c0,2.18,1.29,3.35,3.05,3.35a4.72,4.72,0,0,0,2.41-.57l.51,1.19a5.44,5.44,0,0,1-2.95.72c-2.66,0-4.45-1.58-4.45-4.69V98.51h-3.14V97.19h3.14V92.06h1.43Z"/><path class="cls-15" d="M418.19,98.39l-.65,1.16a7.18,7.18,0,0,0-4.18-1.34c-2,0-3.59.84-3.59,2.72,0,1.64,1.14,2.2,3.89,2.83,3.46.81,5,2,5,4.21,0,2.6-2.15,4.36-5.37,4.36a8.44,8.44,0,0,1-5.41-1.76l.75-1.2a7.24,7.24,0,0,0,4.69,1.65c2.24,0,3.91-1,3.91-3,0-1.67-1.29-2.36-4-3-3.47-.8-4.93-1.82-4.93-4.09,0-2.65,2.12-4.12,5.05-4.12A8.55,8.55,0,0,1,418.19,98.39Z"/><path class="cls-15" d="M38.93,567.76v-3.62h.5V569h0l-3.08-3.7v3.62h-.5v-4.88h0Z"/><path class="cls-15" d="M43.64,567.31a1.65,1.65,0,1,1-1.65-1.7A1.61,1.61,0,0,1,43.64,567.31Zm-2.81,0A1.17,1.17,0,1,0,42,566,1.17,1.17,0,0,0,40.83,567.31Z"/><path class="cls-15" d="M45,566.08a1.35,1.35,0,0,1,1.09-.47,1.71,1.71,0,0,1,0,3.39,1.35,1.35,0,0,1-1.11-.5l0,.44h-.44v-5H45Zm0,.55V568a1.27,1.27,0,1,0,0-1.35Z"/><path class="cls-15" d="M49,564.62a.34.34,0,1,1-.34-.35A.34.34,0,0,1,49,564.62Zm-.1,4.32h-.47v-3.26h.47Z"/><path class="cls-15" d="M52,565.94l-.2.37a1.6,1.6,0,0,0-.9-.28c-.39,0-.68.15-.68.49s.22.42.76.54c.77.18,1.12.46,1.12,1s-.49,1-1.24,1a2,2,0,0,1-1.22-.38l.22-.39a1.53,1.53,0,0,0,1,.36c.44,0,.76-.18.76-.54s-.24-.44-.78-.56c-.77-.18-1.09-.42-1.09-.93s.46-.95,1.16-.95A1.93,1.93,0,0,1,52,565.94Z"/><path class="cls-15" d="M55,565.94l-.2.37a1.6,1.6,0,0,0-.9-.28c-.39,0-.69.15-.69.49s.23.42.77.54c.77.18,1.11.46,1.11,1s-.49,1-1.24,1a1.94,1.94,0,0,1-1.21-.38l.22-.39a1.5,1.5,0,0,0,1,.36c.45,0,.77-.18.77-.54s-.25-.44-.78-.56c-.78-.18-1.1-.42-1.1-.93s.47-.95,1.17-.95A1.93,1.93,0,0,1,55,565.94Z"/><path class="cls-15" d="M58.68,567.28v.2H56.14a1.07,1.07,0,0,0,1.15,1.11,1.17,1.17,0,0,0,1-.47l.32.26a1.53,1.53,0,0,1-1.31.62,1.7,1.7,0,0,1-.08-3.39A1.49,1.49,0,0,1,58.68,567.28Zm-2.54-.2h2.07a1,1,0,0,0-1-1.05A1,1,0,0,0,56.14,567.08Z"/><path class="cls-15" d="M60.94,566.09h0a1.07,1.07,0,0,0-.92.58v2.27H59.5v-3.26h.43l0,.46a1.12,1.12,0,0,1,1-.53Z"/><path class="cls-15" d="M64.29,568.94h-.43l0-.43a1.37,1.37,0,0,1-1.09.49c-.74,0-1.16-.55-1.16-1.35v-2h.47v2a.82.82,0,0,0,.79.92,1.15,1.15,0,0,0,1-.57v-2.3h.47Z"/><path class="cls-15" d="M70.28,567v2H69.8V567a.83.83,0,0,0-.81-.94,1.19,1.19,0,0,0-1,.58,1.6,1.6,0,0,1,0,.3v2h-.48V567a.84.84,0,0,0-.82-.94,1.16,1.16,0,0,0-.94.56v2.31h-.47v-3.26h.43l0,.43a1.37,1.37,0,0,1,1.07-.5,1.08,1.08,0,0,1,1,.63,1.44,1.44,0,0,1,1.2-.63C69.83,565.61,70.28,566.16,70.28,567Z"/><path class="cls-15" d="M75.07,566.11v-.43h.44v4.76H75v-1.9A1.36,1.36,0,0,1,74,569a1.71,1.71,0,0,1,0-3.39A1.36,1.36,0,0,1,75.07,566.11Zm-2.15,1.2A1.13,1.13,0,0,0,75,568v-1.35a1.13,1.13,0,0,0-2.12.68Z"/><path class="cls-15" d="M79.24,568.94H78.8v-.43a1.38,1.38,0,0,1-1.1.49c-.73,0-1.16-.55-1.16-1.35v-2H77v2a.81.81,0,0,0,.79.92,1.12,1.12,0,0,0,1-.57v-2.3h.48Z"/><path class="cls-15" d="M80.86,564.62a.34.34,0,1,1-.34-.35A.34.34,0,0,1,80.86,564.62Zm-.1,4.32h-.47v-3.26h.47Z"/><path class="cls-15" d="M85.52,566.11v-.43H86v3.26h-.44v-.44a1.3,1.3,0,0,1-1.08.5,1.71,1.71,0,0,1,0-3.39A1.3,1.3,0,0,1,85.52,566.11Zm-2.09,1.2a1.12,1.12,0,0,0,1.08,1.26,1.09,1.09,0,0,0,1-.59v-1.35a1.09,1.09,0,0,0-1-.59A1.13,1.13,0,0,0,83.43,567.31Z"/><path class="cls-15" d="M89.69,568.94h-.43l0-.43a1.37,1.37,0,0,1-1.09.49c-.74,0-1.16-.55-1.16-1.35v-2h.47v2a.82.82,0,0,0,.79.92,1.13,1.13,0,0,0,1-.57v-2.3h.47Z"/><path class="cls-15" d="M93.6,568.94h-.43l0-.44a1.33,1.33,0,0,1-1.1.5,1.71,1.71,0,0,1,0-3.39,1.34,1.34,0,0,1,1.08.47V564h.47ZM91,567.31a1.13,1.13,0,0,0,2.12.67v-1.35a1.13,1.13,0,0,0-2.12.68Z"/><path class="cls-15" d="M95.23,564.62a.34.34,0,1,1-.34-.35A.34.34,0,0,1,95.23,564.62Zm-.1,4.32h-.47v-3.26h.47Z"/><path class="cls-15" d="M98.25,565.94l-.2.37a1.6,1.6,0,0,0-.9-.28c-.39,0-.68.15-.68.49s.22.42.76.54c.77.18,1.12.46,1.12,1s-.49,1-1.24,1a2,2,0,0,1-1.22-.38l.22-.39a1.55,1.55,0,0,0,1,.36c.44,0,.76-.18.76-.54s-.24-.44-.78-.56c-.77-.18-1.09-.42-1.09-.93s.46-.95,1.17-.95A1.9,1.9,0,0,1,98.25,565.94Z"/><path class="cls-15" d="M102.87,566.11v-.43h.44v3.26h-.44v-.44a1.3,1.3,0,0,1-1.08.5,1.71,1.71,0,0,1,0-3.39A1.3,1.3,0,0,1,102.87,566.11Zm-2.09,1.2a1.12,1.12,0,0,0,1.08,1.26,1.09,1.09,0,0,0,1-.59v-1.35a1.09,1.09,0,0,0-1-.59A1.13,1.13,0,0,0,100.78,567.31Z"/><path class="cls-15" d="M109.31,567v2h-.48V567a.83.83,0,0,0-.82-.94,1.18,1.18,0,0,0-1,.58,1.56,1.56,0,0,1,0,.3v2h-.47V567a.84.84,0,0,0-.82-.94,1.16,1.16,0,0,0-.94.56v2.31h-.47v-3.26h.43l0,.43a1.35,1.35,0,0,1,1.07-.5,1.08,1.08,0,0,1,1,.63,1.43,1.43,0,0,1,1.2-.63C108.86,565.61,109.31,566.16,109.31,567Z"/><path class="cls-15" d="M114.09,566.11l0-.43h.44v4.76h-.48v-1.9A1.37,1.37,0,0,1,113,569a1.71,1.71,0,0,1,0-3.39A1.33,1.33,0,0,1,114.09,566.11Zm-2.14,1.2a1.13,1.13,0,0,0,2.12.67v-1.35a1.13,1.13,0,0,0-2.12.68Z"/><path class="cls-15" d="M118.27,568.94h-.44v-.43a1.38,1.38,0,0,1-1.1.49c-.74,0-1.16-.55-1.16-1.35v-2H116v2a.81.81,0,0,0,.79.92,1.12,1.12,0,0,0,1-.57v-2.3h.48Z"/><path class="cls-15" d="M119.89,564.62a.35.35,0,0,1-.69,0,.35.35,0,1,1,.69,0Zm-.11,4.32h-.47v-3.26h.47Z"/><path class="cls-15" d="M125.06,568.94h-.44v-.44a1.36,1.36,0,0,1-1.11.5,1.71,1.71,0,0,1,0-3.39,1.31,1.31,0,0,1,1.08.47V564h.48Zm-2.6-1.63a1.14,1.14,0,0,0,1.11,1.26,1.13,1.13,0,0,0,1-.59v-1.35a1.13,1.13,0,0,0-1-.59A1.15,1.15,0,0,0,122.46,567.31Z"/><path class="cls-15" d="M126.69,564.62a.35.35,0,0,1-.69,0,.35.35,0,1,1,.69,0Zm-.11,4.32h-.47v-3.26h.47Z"/><path class="cls-15" d="M130,566.11v-.43h.44v3.26H130v-.44a1.31,1.31,0,0,1-1.08.5,1.71,1.71,0,0,1,0-3.39A1.31,1.31,0,0,1,130,566.11Zm-2.1,1.2a1.13,1.13,0,0,0,1.09,1.26,1.09,1.09,0,0,0,1-.59v-1.35a1.09,1.09,0,0,0-1-.59A1.14,1.14,0,0,0,127.87,567.31Z"/><path class="cls-15" d="M132.22,565.68h1.08v.41h-1.08v1.82a.59.59,0,0,0,.61.66,1,1,0,0,0,.51-.12l.14.39a1.24,1.24,0,0,1-.67.16,1,1,0,0,1-1.06-1.09v-1.82h-.66v-.41h.66v-1.11h.47Z"/><path class="cls-15" d="M136.41,566.11l0-.43h.43v4.76h-.47v-1.9a1.38,1.38,0,0,1-1.09.46,1.71,1.71,0,0,1,0-3.39A1.33,1.33,0,0,1,136.41,566.11Zm-2.14,1.2a1.13,1.13,0,0,0,2.12.67v-1.35a1.13,1.13,0,0,0-2.12.68Z"/><path class="cls-15" d="M140.59,568.94h-.44v-.43a1.4,1.4,0,0,1-1.1.49c-.74,0-1.16-.55-1.16-1.35v-2h.48v2c0,.54.3.92.78.92a1.13,1.13,0,0,0,1-.57v-2.3h.48Z"/><path class="cls-15" d="M144.43,567.28v.2H141.9a1.07,1.07,0,0,0,1.15,1.11,1.2,1.2,0,0,0,1-.47l.32.26a1.54,1.54,0,0,1-1.31.62,1.7,1.7,0,0,1-.09-3.39A1.49,1.49,0,0,1,144.43,567.28Zm-2.53-.2H144a1,1,0,0,0-1-1.05A1,1,0,0,0,141.9,567.08Z"/><path class="cls-15" d="M38.39,575.64l-.33.26a1.15,1.15,0,0,0-1-.54,1.28,1.28,0,1,0,1,2l.33.26a1.47,1.47,0,0,1-1.29.7,1.7,1.7,0,0,1,0-3.39A1.47,1.47,0,0,1,38.39,575.64Z"/><path class="cls-15" d="M42.16,576.64a1.65,1.65,0,1,1-1.65-1.7A1.62,1.62,0,0,1,42.16,576.64Zm-2.81,0a1.17,1.17,0,1,0,2.33,0,1.17,1.17,0,1,0-2.33,0Z"/><path class="cls-15" d="M45.77,576.32v1.95H45.3v-1.93a.85.85,0,0,0-.87-.94,1.21,1.21,0,0,0-1,.56v2.31H43V575h.44v.43a1.4,1.4,0,0,1,1.09-.5A1.22,1.22,0,0,1,45.77,576.32Z"/><path class="cls-15" d="M48.86,575.27l-.2.38a1.53,1.53,0,0,0-.9-.29c-.39,0-.68.15-.68.49s.22.42.76.54c.77.18,1.11.46,1.11,1s-.48,1-1.24,1A1.94,1.94,0,0,1,46.5,578l.22-.39a1.51,1.51,0,0,0,1,.35c.45,0,.77-.17.77-.53s-.24-.44-.78-.56c-.77-.18-1.09-.42-1.09-.93s.46-.95,1.16-.95A1.93,1.93,0,0,1,48.86,575.27Z"/><path class="cls-15" d="M52.56,576.61v.2H50a1.05,1.05,0,0,0,1.15,1.1,1.19,1.19,0,0,0,1-.46l.32.26a1.68,1.68,0,1,1-1.4-2.77A1.49,1.49,0,0,1,52.56,576.61Zm-2.53-.2h2.06a1,1,0,0,0-1-1A1,1,0,0,0,50,576.41Z"/><path class="cls-15" d="M55.79,575.44V575h.44v4.76h-.48v-1.9a1.34,1.34,0,0,1-1.08.46,1.71,1.71,0,0,1,0-3.39A1.35,1.35,0,0,1,55.79,575.44Zm-2.14,1.2a1.13,1.13,0,0,0,2.11.68V576a1.13,1.13,0,0,0-1-.59A1.15,1.15,0,0,0,53.65,576.64Z"/><path class="cls-15" d="M60,578.27h-.43l0-.43a1.34,1.34,0,0,1-1.09.49c-.74,0-1.16-.54-1.16-1.35v-2h.47v2a.82.82,0,0,0,.79.92,1.17,1.17,0,0,0,1-.56V575H60Z"/><path class="cls-15" d="M63.38,575.44V575h.44v3.26h-.44v-.44a1.29,1.29,0,0,1-1.08.5,1.71,1.71,0,0,1,0-3.39A1.31,1.31,0,0,1,63.38,575.44Zm-2.1,1.2a1.13,1.13,0,0,0,1.09,1.26,1.1,1.1,0,0,0,1-.58V576a1.09,1.09,0,0,0-1-.59A1.14,1.14,0,0,0,61.28,576.64Z"/><path class="cls-15" d="M69.81,576.32v1.95h-.47v-1.93a.83.83,0,0,0-.82-.94,1.18,1.18,0,0,0-1,.58,1.56,1.56,0,0,1,0,.3v2h-.47v-1.93a.84.84,0,0,0-.83-.94,1.13,1.13,0,0,0-.93.56v2.31h-.47V575h.43l0,.43a1.35,1.35,0,0,1,1.07-.5,1.09,1.09,0,0,1,1,.63,1.43,1.43,0,0,1,1.2-.63C69.37,574.94,69.81,575.5,69.81,576.32Z"/><path class="cls-15" d="M74.71,575.44V575h.44v4.76h-.48v-1.9a1.34,1.34,0,0,1-1.08.46,1.71,1.71,0,0,1,0-3.39A1.36,1.36,0,0,1,74.71,575.44Zm-2.15,1.2a1.14,1.14,0,0,0,2.12.68V576a1.13,1.13,0,0,0-1-.59A1.15,1.15,0,0,0,72.56,576.64Z"/><path class="cls-15" d="M78.88,578.27h-.44v-.43a1.35,1.35,0,0,1-1.1.49c-.73,0-1.16-.54-1.16-1.35v-2h.48v2a.82.82,0,0,0,.79.92,1.14,1.14,0,0,0,1-.56V575h.48Z"/><path class="cls-15" d="M80.5,574a.34.34,0,0,1-.68,0,.34.34,0,1,1,.68,0Zm-.1,4.32h-.47V575h.47Z"/><path class="cls-15" d="M81.93,575.41a1.34,1.34,0,0,1,1.08-.47,1.71,1.71,0,0,1,0,3.39,1.3,1.3,0,0,1-1.1-.5l0,.44h-.44v-5h.48Zm0,.55v1.36a1.15,1.15,0,0,0,1,.58,1.27,1.27,0,1,0-1-1.94Z"/><path class="cls-15" d="M88,578.27H87.6l0-.43a1.33,1.33,0,0,1-1.09.49c-.74,0-1.16-.54-1.16-1.35v-2h.47v2a.82.82,0,0,0,.79.92,1.14,1.14,0,0,0,1-.56V575H88Z"/><path class="cls-15" d="M91.18,575.27l-.21.38a1.51,1.51,0,0,0-.9-.29c-.39,0-.68.15-.68.49s.22.42.76.54c.77.18,1.12.46,1.12,1s-.49,1-1.24,1a2,2,0,0,1-1.22-.38l.23-.39a1.49,1.49,0,0,0,1,.35c.44,0,.76-.17.76-.53s-.24-.44-.78-.56c-.77-.18-1.09-.42-1.09-.93s.46-.95,1.17-.95A2,2,0,0,1,91.18,575.27Z"/><path class="cls-15" d="M95.9,575.44V575h.44v3.26h-.44v-.44a1.29,1.29,0,0,1-1.09.5,1.71,1.71,0,0,1,0-3.39A1.32,1.32,0,0,1,95.9,575.44Zm-2.1,1.2a1.13,1.13,0,0,0,1.09,1.26,1.11,1.11,0,0,0,1-.58V576a1.1,1.1,0,0,0-1-.59A1.14,1.14,0,0,0,93.8,576.64Z"/><path class="cls-15" d="M100.08,575.64l-.34.26a1.12,1.12,0,0,0-.95-.54,1.28,1.28,0,0,0,0,2.55,1.11,1.11,0,0,0,1-.54l.34.26a1.48,1.48,0,0,1-1.3.7,1.7,1.7,0,0,1,0-3.39A1.47,1.47,0,0,1,100.08,575.64Z"/><path class="cls-15" d="M103.58,576.61v.2H101a1.06,1.06,0,0,0,1.15,1.1,1.16,1.16,0,0,0,1-.46l.32.26a1.53,1.53,0,0,1-1.31.62,1.7,1.7,0,0,1-.08-3.39A1.49,1.49,0,0,1,103.58,576.61Zm-2.54-.2h2.07a1,1,0,0,0-1-1A1,1,0,0,0,101,576.41Z"/><path class="cls-15" d="M105.84,575.42h0a1.09,1.09,0,0,0-.92.58v2.27h-.47V575h.43l0,.46a1.12,1.12,0,0,1,1-.53Z"/><path class="cls-15" d="M109.19,578.27h-.44v-.43a1.34,1.34,0,0,1-1.09.49c-.74,0-1.17-.54-1.17-1.35v-2H107v2a.82.82,0,0,0,.79.92,1.17,1.17,0,0,0,1-.56V575h.47Z"/><path class="cls-15" d="M113.31,576.64a1.55,1.55,0,0,1-1.51,1.69,1.38,1.38,0,0,1-1.09-.46v1.9h-.47V575h.43l0,.43a1.33,1.33,0,0,1,1.11-.5A1.55,1.55,0,0,1,113.31,576.64Zm-2.6-.68v1.36a1.15,1.15,0,0,0,1,.58,1.27,1.27,0,1,0-1-1.94Z"/><path class="cls-15" d="M114.83,575h1.08v.41h-1.08v1.82a.59.59,0,0,0,.61.66,1,1,0,0,0,.51-.12l.14.39a1.24,1.24,0,0,1-.67.16,1,1,0,0,1-1.06-1.09v-1.82h-.66V575h.66V573.9h.47Z"/><path class="cls-15" d="M119,575.44l0-.43h.43v3.26H119l0-.44a1.27,1.27,0,0,1-1.08.5,1.71,1.71,0,0,1,0-3.39A1.3,1.3,0,0,1,119,575.44Zm-2.09,1.2a1.11,1.11,0,0,0,2.07.68V576a1.11,1.11,0,0,0-1-.59A1.13,1.13,0,0,0,116.88,576.64Z"/><path class="cls-15" d="M121.23,575h1.07v.41h-1.07v1.82a.59.59,0,0,0,.6.66,1,1,0,0,0,.51-.12l.15.39a1.29,1.29,0,0,1-.67.16,1,1,0,0,1-1.06-1.09v-1.82h-.67V575h.67V573.9h.47Z"/><path class="cls-15" d="M125.8,576.61v.2h-2.53a1.06,1.06,0,0,0,1.15,1.1,1.16,1.16,0,0,0,1-.46l.32.26a1.64,1.64,0,0,1-2.93-1.07,1.56,1.56,0,0,1,1.54-1.7A1.48,1.48,0,0,1,125.8,576.61Zm-2.53-.2h2.06a1,1,0,0,0-1-1A1,1,0,0,0,123.27,576.41Z"/><path class="cls-15" d="M131.57,576.32v1.95h-.48v-1.93a.83.83,0,0,0-.82-.94,1.18,1.18,0,0,0-1,.58,1.6,1.6,0,0,1,0,.3v2h-.48v-1.93a.84.84,0,0,0-.82-.94,1.16,1.16,0,0,0-.94.56v2.31h-.47V575h.43l0,.43a1.37,1.37,0,0,1,1.07-.5,1.08,1.08,0,0,1,1,.63,1.44,1.44,0,0,1,1.2-.63C131.12,574.94,131.57,575.5,131.57,576.32Z"/><path class="cls-15" d="M38.51,585.94v.2H36a1.07,1.07,0,0,0,1.15,1.11,1.17,1.17,0,0,0,1-.47l.32.26a1.53,1.53,0,0,1-1.31.62,1.7,1.7,0,0,1-.08-3.39A1.5,1.5,0,0,1,38.51,585.94Zm-2.54-.2H38a1,1,0,0,0-1-1A1,1,0,0,0,36,585.74Z"/><path class="cls-15" d="M42.1,585.65v2h-.47v-1.93a.85.85,0,0,0-.86-.94,1.19,1.19,0,0,0-1,.57v2.3h-.47v-3.26h.43l0,.43a1.4,1.4,0,0,1,1.09-.5A1.22,1.22,0,0,1,42.1,585.65Z"/><path class="cls-15" d="M43.81,584.34h1.08v.41H43.81v1.82a.59.59,0,0,0,.61.66,1.06,1.06,0,0,0,.51-.12l.14.39a1.27,1.27,0,0,1-.67.16,1,1,0,0,1-1.06-1.09v-1.82h-.66v-.41h.66v-1.11h.47Z"/><path class="cls-15" d="M49.12,582.88l-.2.38a.63.63,0,0,0-.47-.19.59.59,0,0,0-.58.67v.6h.91v.41h-.91v2.85H47.4v-2.85h-.6v-.41h.6v-.57a1.05,1.05,0,0,1,1.72-.89Z"/><path class="cls-15" d="M51.77,584.77v-.43h.44v3.26h-.44v-.44a1.29,1.29,0,0,1-1.08.5,1.71,1.71,0,0,1,0-3.39A1.31,1.31,0,0,1,51.77,584.77Zm-2.1,1.2a1.13,1.13,0,0,0,1.09,1.26,1.08,1.08,0,0,0,1-.58v-1.36a1.09,1.09,0,0,0-1-.59A1.14,1.14,0,0,0,49.67,586Z"/><path class="cls-15" d="M56,585l-.33.26a1.14,1.14,0,0,0-1-.53,1.27,1.27,0,1,0,1,2L56,587a1.48,1.48,0,0,1-1.29.69,1.7,1.7,0,0,1,0-3.39A1.47,1.47,0,0,1,56,585Z"/><path class="cls-15" d="M59.33,585l-.33.26a1.14,1.14,0,0,0-1-.53,1.28,1.28,0,0,0,0,2.54,1.16,1.16,0,0,0,1-.53l.34.26a1.51,1.51,0,0,1-1.3.69,1.7,1.7,0,0,1,0-3.39A1.47,1.47,0,0,1,59.33,585Z"/><path class="cls-15" d="M62.39,584.77l0-.43h.43v3.26h-.43l0-.44a1.27,1.27,0,0,1-1.08.5,1.71,1.71,0,0,1,0-3.39A1.3,1.3,0,0,1,62.39,584.77ZM60.3,586a1.11,1.11,0,0,0,2.07.68v-1.36a1.1,1.1,0,0,0-2.07.68Z"/><path class="cls-15" d="M66.68,585.94v.2H64.15a1.07,1.07,0,0,0,1.15,1.11,1.18,1.18,0,0,0,1-.47l.32.26A1.64,1.64,0,0,1,63.68,586a1.56,1.56,0,0,1,1.53-1.7A1.49,1.49,0,0,1,66.68,585.94Zm-2.53-.2h2.06a1,1,0,0,0-1-1A1,1,0,0,0,64.15,585.74Z"/><path class="cls-15" d="M69.58,584.6l-.21.38a1.51,1.51,0,0,0-.9-.28c-.39,0-.68.14-.68.49s.22.41.76.53c.77.18,1.12.46,1.12.95s-.49,1-1.24,1a2,2,0,0,1-1.22-.38l.23-.39a1.5,1.5,0,0,0,1,.36c.44,0,.76-.18.76-.54s-.24-.44-.78-.56c-.77-.18-1.09-.42-1.09-.93s.46-1,1.17-1A2,2,0,0,1,69.58,584.6Z"/><path class="cls-15" d="M71.29,584.34h1.07v.41H71.29v1.82a.59.59,0,0,0,.6.66,1,1,0,0,0,.51-.12l.15.39a1.29,1.29,0,0,1-.67.16,1,1,0,0,1-1.06-1.09v-1.82h-.67v-.41h.67v-1.11h.47Z"/><path class="cls-15" d="M76.14,586a1.65,1.65,0,1,1-1.65-1.7A1.62,1.62,0,0,1,76.14,586Zm-2.82,0a1.17,1.17,0,1,0,1.17-1.27A1.18,1.18,0,0,0,73.32,586Z"/><path class="cls-15" d="M81.48,586a1.65,1.65,0,1,1-3.29,0,1.65,1.65,0,1,1,3.29,0Zm-2.81,0A1.17,1.17,0,1,0,81,586a1.17,1.17,0,1,0-2.33,0Z"/><path class="cls-15" d="M87.25,585.65v2h-.47v-1.93a.83.83,0,0,0-.82-.94,1.17,1.17,0,0,0-1,.59,1.46,1.46,0,0,1,0,.3v2h-.47v-1.93a.84.84,0,0,0-.82-.94,1.15,1.15,0,0,0-.94.56v2.31h-.47v-3.26h.43l0,.43a1.35,1.35,0,0,1,1.07-.5,1.08,1.08,0,0,1,1,.63,1.43,1.43,0,0,1,1.2-.63C86.81,584.27,87.25,584.83,87.25,585.65Z"/><path class="cls-15" d="M91.06,585.65v2h-.47v-1.93a.85.85,0,0,0-.87-.94,1.19,1.19,0,0,0-1,.57v2.3h-.46v-3.26h.43l0,.43a1.36,1.36,0,0,1,1.08-.5A1.22,1.22,0,0,1,91.06,585.65Z"/><path class="cls-15" d="M92.64,583.28a.33.33,0,0,1-.34.34.34.34,0,0,1-.35-.34.35.35,0,0,1,.35-.34A.34.34,0,0,1,92.64,583.28Zm-.1,4.32h-.47v-3.26h.47Z"/><path class="cls-15" d="M95.66,584.6l-.2.38a1.53,1.53,0,0,0-.9-.28c-.39,0-.69.14-.69.49s.23.41.77.53c.77.18,1.11.46,1.11.95s-.49,1-1.24,1a1.94,1.94,0,0,1-1.21-.38l.22-.39a1.52,1.52,0,0,0,1,.36c.45,0,.77-.18.77-.54s-.24-.44-.78-.56c-.78-.18-1.1-.42-1.1-.93s.47-1,1.17-1A1.93,1.93,0,0,1,95.66,584.6Z"/><path class="cls-15" d="M100.38,584.77l0-.43h.43v3.26h-.43l0-.44a1.27,1.27,0,0,1-1.08.5,1.71,1.71,0,0,1,0-3.39A1.3,1.3,0,0,1,100.38,584.77ZM98.29,586a1.11,1.11,0,0,0,2.07.68v-1.36a1.1,1.1,0,0,0-2.07.68Z"/><path class="cls-15" d="M104.55,587.6h-.43l0-.43a1.33,1.33,0,0,1-1.09.49c-.74,0-1.16-.54-1.16-1.35v-2h.47v1.95a.81.81,0,0,0,.79.92,1.14,1.14,0,0,0,1-.56v-2.31h.47Z"/><path class="cls-15" d="M108.46,587.6H108v-.44a1.33,1.33,0,0,1-1.11.5,1.71,1.71,0,0,1,0-3.39,1.31,1.31,0,0,1,1.08.47v-2.1h.48Zm-2.6-1.63a1.14,1.14,0,0,0,1.11,1.26,1.12,1.12,0,0,0,1-.58v-1.36a1.13,1.13,0,0,0-1-.59A1.15,1.15,0,0,0,105.86,586Z"/><path class="cls-15" d="M110.09,583.28a.35.35,0,0,1-.69,0,.35.35,0,0,1,.69,0ZM110,587.6h-.47v-3.26H110Z"/><path class="cls-15" d="M111.78,584.34h1.08v.41h-1.08v1.82a.59.59,0,0,0,.61.66,1,1,0,0,0,.5-.12l.15.39a1.29,1.29,0,0,1-.67.16,1,1,0,0,1-1.06-1.09v-1.82h-.67v-.41h.67v-1.11h.47Z"/><path class="cls-15" d="M115.92,584.77v-.43h.44v3.26h-.44v-.44a1.29,1.29,0,0,1-1.09.5,1.71,1.71,0,0,1,0-3.39A1.32,1.32,0,0,1,115.92,584.77Zm-2.1,1.2a1.13,1.13,0,0,0,1.09,1.26,1.1,1.1,0,0,0,1-.58v-1.36a1.1,1.1,0,0,0-1-.59A1.14,1.14,0,0,0,113.82,586Z"/><path class="cls-15" d="M118.17,584.34h1.08v.41h-1.08v1.82a.59.59,0,0,0,.61.66,1,1,0,0,0,.51-.12l.14.39a1.27,1.27,0,0,1-.67.16,1,1,0,0,1-1.06-1.09v-1.82H117v-.41h.66v-1.11h.47Z"/><path class="cls-15" d="M120.64,583.28a.35.35,0,0,1-.69,0,.35.35,0,0,1,.69,0Zm-.11,4.32h-.46v-3.26h.46Z"/><path class="cls-15" d="M124.24,587.6h-.44v-.43a1.34,1.34,0,0,1-1.09.49c-.74,0-1.17-.54-1.17-1.35v-2H122v1.95a.81.81,0,0,0,.79.92,1.17,1.17,0,0,0,1-.56v-2.31h.47Z"/><path class="cls-15" d="M126.72,584.75h0a1.08,1.08,0,0,0-.92.58v2.27h-.47v-3.26h.43l0,.46a1.11,1.11,0,0,1,1-.53Z"/><path class="cls-15" d="M127.63,587.28a.41.41,0,0,1-.06.23l-.44,1.06h0v-1.64l.14,0A.38.38,0,0,1,127.63,587.28Z"/><path class="cls-15" d="M38.79,595.31a1.65,1.65,0,1,1-1.65-1.71A1.64,1.64,0,0,1,38.79,595.31Zm-2.82,0a1.17,1.17,0,1,0,2.34,0,1.17,1.17,0,1,0-2.34,0Z"/><path class="cls-15" d="M42.48,596.93h-.43l0-.44a1.32,1.32,0,0,1-1.11.5,1.71,1.71,0,0,1,0-3.39,1.35,1.35,0,0,1,1.09.47V592h.47Zm-2.59-1.63a1.14,1.14,0,0,0,1.1,1.26,1.15,1.15,0,0,0,1-.58v-1.36a1.13,1.13,0,0,0-2.12.68Z"/><path class="cls-15" d="M44.11,592.61a.34.34,0,1,1-.68,0,.34.34,0,1,1,.68,0Zm-.1,4.32h-.47v-3.26H44Z"/><path class="cls-15" d="M48.11,595.31a1.65,1.65,0,1,1-1.65-1.71A1.64,1.64,0,0,1,48.11,595.31Zm-2.82,0a1.17,1.17,0,1,0,2.34,0,1.17,1.17,0,1,0-2.34,0Z"/><path class="cls-15" d="M51,593.93l-.2.38a1.55,1.55,0,0,0-.9-.28c-.4,0-.69.14-.69.49s.22.41.76.53c.77.18,1.12.46,1.12,1s-.49,1-1.24,1a1.9,1.9,0,0,1-1.21-.38l.22-.38a1.55,1.55,0,0,0,1,.35c.44,0,.76-.18.76-.54s-.24-.44-.77-.56c-.78-.18-1.1-.42-1.1-.92s.46-1,1.17-1A2,2,0,0,1,51,593.93Z"/><path class="cls-15" d="M52.72,593.67h1.07v.42H52.72v1.82a.58.58,0,0,0,.6.65,1,1,0,0,0,.51-.12l.15.39a1.31,1.31,0,0,1-.68.16,1,1,0,0,1-1-1.08v-1.82h-.67v-.42h.67v-1.11h.47Z"/><path class="cls-15" d="M57.51,594.08h0a1.09,1.09,0,0,0-.92.58v2.27h-.47v-3.26h.44l0,.46a1.12,1.12,0,0,1,1-.53Z"/><path class="cls-15" d="M60.88,595.27v.2H58.35a1.06,1.06,0,0,0,1.14,1.11,1.2,1.2,0,0,0,1-.47l.31.27a1.65,1.65,0,0,1-2.93-1.07,1.57,1.57,0,0,1,1.54-1.71A1.5,1.5,0,0,1,60.88,595.27Zm-2.53-.2h2.06a1,1,0,0,0-1-1.05A1,1,0,0,0,58.35,595.07Z"/><path class="cls-15" d="M66.64,595v1.95h-.48V595c0-.57-.32-1-.81-1a1.2,1.2,0,0,0-1,.59,1.53,1.53,0,0,1,0,.3v2h-.48V595a.84.84,0,0,0-.82-1,1.16,1.16,0,0,0-.94.56v2.31H61.7v-3.26h.43l0,.43a1.38,1.38,0,0,1,1.07-.5,1.08,1.08,0,0,1,1,.64,1.44,1.44,0,0,1,1.2-.64C66.2,593.6,66.64,594.16,66.64,595Z"/><path class="cls-15" d="M71.53,594.11l0-.44H72v4.76h-.47v-1.9a1.34,1.34,0,0,1-1.08.46,1.71,1.71,0,0,1,0-3.39A1.3,1.3,0,0,1,71.53,594.11Zm-2.14,1.19a1.14,1.14,0,0,0,2.12.68v-1.36a1.13,1.13,0,0,0-2.12.68Z"/><path class="cls-15" d="M75.71,596.93h-.44v-.43a1.37,1.37,0,0,1-1.1.49c-.74,0-1.16-.54-1.16-1.35v-2h.48v2c0,.55.3.93.78.93a1.15,1.15,0,0,0,1-.57v-2.31h.48Z"/><path class="cls-15" d="M77.33,592.61a.35.35,0,0,1-.69,0,.35.35,0,0,1,.69,0Zm-.11,4.32h-.47v-3.26h.47Z"/><path class="cls-15" d="M80.35,593.93l-.2.38a1.53,1.53,0,0,0-.9-.28c-.39,0-.69.14-.69.49s.22.41.77.53c.77.18,1.11.46,1.11,1s-.49,1-1.24,1a1.92,1.92,0,0,1-1.21-.38l.22-.38a1.55,1.55,0,0,0,1,.35c.44,0,.76-.18.76-.54s-.24-.44-.77-.56c-.78-.18-1.1-.42-1.1-.92s.47-1,1.17-1A1.93,1.93,0,0,1,80.35,593.93Z"/><path class="cls-15" d="M83.35,593.93l-.21.38a1.51,1.51,0,0,0-.9-.28c-.39,0-.68.14-.68.49s.22.41.76.53c.77.18,1.12.46,1.12,1s-.49,1-1.24,1a1.9,1.9,0,0,1-1.21-.38l.22-.38a1.55,1.55,0,0,0,1,.35c.44,0,.76-.18.76-.54s-.24-.44-.77-.56c-.78-.18-1.1-.42-1.1-.92s.46-1,1.17-1A2,2,0,0,1,83.35,593.93Z"/><path class="cls-15" d="M84.8,592.61a.35.35,0,0,1-.69,0,.35.35,0,0,1,.69,0Zm-.11,4.32h-.47v-3.26h.47Z"/><path class="cls-15" d="M86.49,593.67h1.08v.42H86.49v1.82a.58.58,0,0,0,.61.65,1,1,0,0,0,.5-.12l.15.39a1.29,1.29,0,0,1-.67.16A1,1,0,0,1,86,595.91v-1.82h-.67v-.42H86v-1.11h.47Z"/><path class="cls-15" d="M90.33,596.93h-.47v-5h.47Z"/><path class="cls-15" d="M93.75,594.1v-.43h.44v3.26h-.44v-.44a1.29,1.29,0,0,1-1.08.5,1.71,1.71,0,0,1,0-3.39A1.31,1.31,0,0,1,93.75,594.1Zm-2.1,1.2a1.13,1.13,0,0,0,1.09,1.26,1.08,1.08,0,0,0,1-.58v-1.36a1.09,1.09,0,0,0-1-.59A1.14,1.14,0,0,0,91.65,595.3Z"/><path class="cls-15" d="M97.92,596.93h-.44v-.43a1.35,1.35,0,0,1-1.1.49c-.73,0-1.16-.54-1.16-1.35v-2h.48v2a.82.82,0,0,0,.79.93,1.14,1.14,0,0,0,1-.57v-2.31h.48Z"/><path class="cls-15" d="M99.72,593.67h1.08v.42H99.72v1.82a.59.59,0,0,0,.61.65,1,1,0,0,0,.51-.12l.14.39a1.24,1.24,0,0,1-.67.16,1,1,0,0,1-1.06-1.08v-1.82h-.66v-.42h.66v-1.11h.47Z"/><path class="cls-15" d="M104.3,595.27v.2h-2.53a1.07,1.07,0,0,0,1.15,1.11,1.2,1.2,0,0,0,1-.47l.32.27a1.68,1.68,0,1,1-1.4-2.78A1.5,1.5,0,0,1,104.3,595.27Zm-2.53-.2h2.06a1,1,0,0,0-1-1.05A1,1,0,0,0,101.77,595.07Z"/><path class="cls-15" d="M107.9,595v1.95h-.47V595a.86.86,0,0,0-.87-1,1.19,1.19,0,0,0-1,.57v2.3h-.46v-3.26h.43l0,.44a1.33,1.33,0,0,1,1.08-.51A1.22,1.22,0,0,1,107.9,595Z"/><path class="cls-15" d="M111.78,596.93h-.44v-.44a1.33,1.33,0,0,1-1.11.5,1.71,1.71,0,0,1,0-3.39,1.33,1.33,0,0,1,1.08.47V592h.48Zm-2.6-1.63a1.14,1.14,0,0,0,1.11,1.26,1.12,1.12,0,0,0,1-.58v-1.36a1.13,1.13,0,0,0-1-.59A1.15,1.15,0,0,0,109.18,595.3Z"/><path class="cls-15" d="M113.4,592.61a.34.34,0,1,1-.68,0,.34.34,0,0,1,.68,0Zm-.1,4.32h-.47v-3.26h.47Z"/><path class="cls-15" d="M115.1,593.67h1.07v.42H115.1v1.82a.58.58,0,0,0,.6.65,1,1,0,0,0,.51-.12l.14.39a1.24,1.24,0,0,1-.67.16,1,1,0,0,1-1.05-1.08v-1.82H114v-.42h.67v-1.11h.47Z"/><path class="cls-15" d="M117.5,596.61a.52.52,0,0,1-.06.23L117,597.9h0v-1.64h.14A.37.37,0,0,1,117.5,596.61Z"/><path class="cls-15" d="M122.58,594.3l-.34.26a1.11,1.11,0,0,0-.95-.53,1.27,1.27,0,1,0,1,2l.34.26a1.5,1.5,0,0,1-1.3.69,1.7,1.7,0,0,1,0-3.39A1.47,1.47,0,0,1,122.58,594.3Z"/><path class="cls-15" d="M126.35,595.31a1.65,1.65,0,1,1-1.65-1.71A1.64,1.64,0,0,1,126.35,595.31Zm-2.82,0a1.17,1.17,0,1,0,2.34,0,1.17,1.17,0,1,0-2.34,0Z"/><path class="cls-15" d="M128.62,594.08h-.05a1.09,1.09,0,0,0-.92.58v2.27h-.47v-3.26h.43l0,.46a1.12,1.12,0,0,1,1-.53Z"/><path class="cls-15" d="M129.86,592.61a.33.33,0,0,1-.34.34.33.33,0,0,1-.34-.34.33.33,0,0,1,.34-.34A.34.34,0,0,1,129.86,592.61Zm-.11,4.32h-.46v-3.26h.46Z"/><path class="cls-15" d="M36.93,606.33h0L35.28,603h.51l1.13,2.39L38.06,603h.49Z"/><path class="cls-15" d="M42.12,604.64a1.65,1.65,0,1,1-1.65-1.71A1.64,1.64,0,0,1,42.12,604.64Zm-2.82,0a1.17,1.17,0,1,0,2.33,0,1.17,1.17,0,1,0-2.33,0Z"/><path class="cls-15" d="M43.44,606.26H43v-5h.48Z"/><path class="cls-15" d="M47.57,604.64a1.65,1.65,0,1,1-3.29,0,1.65,1.65,0,1,1,3.29,0Zm-2.81,0a1.17,1.17,0,1,0,2.33,0,1.17,1.17,0,1,0-2.33,0Z"/><path class="cls-15" d="M49.84,603.41h0a1.08,1.08,0,0,0-.92.58v2.27h-.47V603h.43l0,.46a1.15,1.15,0,0,1,1-.53Z"/><path class="cls-15" d="M53.21,604.6v.2H50.68a1.07,1.07,0,0,0,1.15,1.11,1.2,1.2,0,0,0,1-.47l.32.27a1.68,1.68,0,1,1-1.4-2.78A1.49,1.49,0,0,1,53.21,604.6Zm-2.53-.2h2.06a1,1,0,0,0-1-1A1,1,0,0,0,50.68,604.4Z"/><path class="cls-15" d="M57.59,603.26l-.21.38a1.51,1.51,0,0,0-.9-.28c-.39,0-.68.14-.68.49s.22.41.76.53c.77.18,1.12.46,1.12,1s-.49,1-1.24,1a1.91,1.91,0,0,1-1.21-.39l.22-.38a1.55,1.55,0,0,0,1,.35c.44,0,.76-.18.76-.54s-.24-.44-.77-.56c-.78-.18-1.1-.42-1.1-.92s.46-1,1.17-1A2,2,0,0,1,57.59,603.26Z"/><path class="cls-15" d="M59,601.94a.35.35,0,0,1-.69,0,.35.35,0,0,1,.69,0Zm-.11,4.32h-.47V603h.47Z"/><path class="cls-15" d="M64.92,604.31v2h-.48v-1.92a.84.84,0,0,0-.82-1,1.17,1.17,0,0,0-1,.59,1.51,1.51,0,0,1,0,.3v2h-.47v-1.92a.85.85,0,0,0-.82-1,1.19,1.19,0,0,0-.94.56v2.31H60V603h.43l0,.43a1.35,1.35,0,0,1,1.07-.5,1.08,1.08,0,0,1,1,.64,1.41,1.41,0,0,1,1.2-.64C64.47,602.93,64.92,603.49,64.92,604.31Z"/><path class="cls-15" d="M69,604.64a1.65,1.65,0,1,1-1.65-1.71A1.64,1.64,0,0,1,69,604.64Zm-2.82,0a1.17,1.17,0,1,0,2.34,0,1.17,1.17,0,1,0-2.34,0Z"/><path class="cls-15" d="M72.7,606.26h-.43l0-.44a1.32,1.32,0,0,1-1.11.51,1.71,1.71,0,0,1,0-3.4,1.35,1.35,0,0,1,1.09.47v-2.1h.47Zm-2.59-1.63a1.13,1.13,0,0,0,2.12.68V604a1.13,1.13,0,0,0-2.12.68Z"/><path class="cls-15" d="M74.33,601.94a.34.34,0,0,1-.68,0,.34.34,0,0,1,.68,0Zm-.1,4.32h-.47V603h.47Z"/><path class="cls-15" d="M77.27,603.4a1.35,1.35,0,0,1,1.09-.47,1.71,1.71,0,0,1,0,3.4,1.32,1.32,0,0,1-1.11-.51l0,.44h-.44v-5h.48Zm0,.55v1.36a1.13,1.13,0,0,0,2.12-.68,1.15,1.15,0,0,0-1.11-1.27A1.14,1.14,0,0,0,77.27,604Z"/><path class="cls-15" d="M83.51,604.6v.2H81a1.07,1.07,0,0,0,1.15,1.11,1.2,1.2,0,0,0,1-.47l.32.27a1.58,1.58,0,0,1-1.31.62,1.7,1.7,0,0,1-.09-3.4A1.5,1.5,0,0,1,83.51,604.6ZM81,604.4H83a1,1,0,0,0-1-1A1,1,0,0,0,81,604.4Z"/><path class="cls-15" d="M86.69,603.43V603h.44v3.26H86.7v-.44a1.29,1.29,0,0,1-1.08.51,1.71,1.71,0,0,1,0-3.4A1.31,1.31,0,0,1,86.69,603.43Zm-2.09,1.2a1.13,1.13,0,0,0,1.08,1.27,1.09,1.09,0,0,0,1-.59V604a1.09,1.09,0,0,0-1-.59A1.14,1.14,0,0,0,84.6,604.63Z"/><path class="cls-15" d="M90.59,603.44l0-.44H91v4.76h-.47v-1.9a1.34,1.34,0,0,1-1.08.47,1.71,1.71,0,0,1,0-3.4A1.3,1.3,0,0,1,90.59,603.44Zm-2.14,1.19a1.13,1.13,0,0,0,2.12.68V604a1.13,1.13,0,0,0-2.12.68Z"/><path class="cls-15" d="M94.77,606.26h-.44v-.43a1.36,1.36,0,0,1-1.1.5c-.74,0-1.16-.55-1.16-1.36v-2h.48v2c0,.55.3.93.78.93a1.15,1.15,0,0,0,1-.57V603h.48Z"/><path class="cls-15" d="M96.39,601.94a.35.35,0,0,1-.69,0,.35.35,0,0,1,.69,0Zm-.11,4.32h-.47V603h.47Z"/><path class="cls-15" d="M99.57,603h1.07v.42H99.57v1.82a.58.58,0,0,0,.6.65,1,1,0,0,0,.51-.12l.15.39a1.3,1.3,0,0,1-.68.17,1,1,0,0,1-1.05-1.09v-1.82h-.67V603h.67v-1.11h.47Z"/><path class="cls-15" d="M104.14,604.6v.2h-2.53a1.07,1.07,0,0,0,1.15,1.11,1.18,1.18,0,0,0,1-.47l.32.27a1.68,1.68,0,1,1-1.39-2.78A1.49,1.49,0,0,1,104.14,604.6Zm-2.53-.2h2.06a1,1,0,0,0-1-1A1,1,0,0,0,101.61,604.4Z"/><path class="cls-15" d="M109.91,604.31v2h-.48v-1.92a.84.84,0,0,0-.82-1,1.17,1.17,0,0,0-1,.59,1.53,1.53,0,0,1,0,.3v2h-.48v-1.92a.85.85,0,0,0-.82-1,1.19,1.19,0,0,0-.94.56v2.31H105V603h.43l0,.43a1.35,1.35,0,0,1,1.07-.5,1.08,1.08,0,0,1,1,.64,1.43,1.43,0,0,1,1.2-.64C109.46,602.93,109.91,603.49,109.91,604.31Z"/><path class="cls-15" d="M114,604.64a1.65,1.65,0,1,1-1.65-1.71A1.64,1.64,0,0,1,114,604.64Zm-2.81,0a1.17,1.17,0,1,0,2.33,0,1.17,1.17,0,1,0-2.33,0Z"/><path class="cls-15" d="M117.69,606.26h-.43l0-.44a1.32,1.32,0,0,1-1.11.51,1.71,1.71,0,0,1,0-3.4,1.35,1.35,0,0,1,1.09.47v-2.1h.47Zm-2.59-1.63a1.13,1.13,0,0,0,2.12.68V604a1.13,1.13,0,0,0-2.12.68Z"/><path class="cls-15" d="M119.32,601.94a.34.34,0,1,1-.68,0,.34.34,0,0,1,.68,0Zm-.1,4.32h-.47V603h.47Z"/><path class="cls-15" d="M123.32,604.64a1.65,1.65,0,1,1-1.65-1.71A1.64,1.64,0,0,1,123.32,604.64Zm-2.82,0a1.17,1.17,0,1,0,2.34,0,1.17,1.17,0,1,0-2.34,0Z"/><path class="cls-15" d="M126.35,603h1.08v.42h-1.08v1.82a.59.59,0,0,0,.61.65,1,1,0,0,0,.51-.12l.14.39a1.23,1.23,0,0,1-.67.17,1,1,0,0,1-1.06-1.09v-1.82h-.66V603h.66v-1.11h.47Z"/><path class="cls-15" d="M130.93,604.6v.2H128.4a1.06,1.06,0,0,0,1.15,1.11,1.2,1.2,0,0,0,1-.47l.32.27a1.58,1.58,0,0,1-1.31.62,1.7,1.7,0,0,1-.09-3.4A1.5,1.5,0,0,1,130.93,604.6Zm-2.53-.2h2.06a1,1,0,0,0-1-1A1,1,0,0,0,128.4,604.4Z"/><path class="cls-15" d="M136.69,604.31v2h-.47v-1.92a.84.84,0,0,0-.82-1,1.2,1.2,0,0,0-1,.59,1.53,1.53,0,0,1,0,.3v2H134v-1.92a.84.84,0,0,0-.82-1,1.19,1.19,0,0,0-.94.56v2.31h-.47V603h.43l0,.43a1.38,1.38,0,0,1,1.07-.5,1.07,1.07,0,0,1,1,.64,1.44,1.44,0,0,1,1.2-.64C136.25,602.93,136.69,603.49,136.69,604.31Z"/><path class="cls-15" d="M138.37,606a.38.38,0,1,1-.37-.38A.37.37,0,0,1,138.37,606Z"/><path class="cls-15" d="M39.33,611.25H37.59v4.34h-.5v-4.34H35.35v-.45h4Z"/><path class="cls-15" d="M42.18,613.94v.19H39.65a1.06,1.06,0,0,0,1.15,1.11,1.18,1.18,0,0,0,1-.46l.32.26a1.67,1.67,0,1,1-1.4-2.77A1.49,1.49,0,0,1,42.18,613.94Zm-2.53-.21h2.06a1,1,0,0,0-1-1.05A1,1,0,0,0,39.65,613.73Z"/><path class="cls-15" d="M48,613.64v2h-.48v-1.92a.84.84,0,0,0-.82-.95,1.17,1.17,0,0,0-1,.59,1.53,1.53,0,0,1,0,.3v2h-.48v-1.92a.85.85,0,0,0-.82-.95,1.19,1.19,0,0,0-.94.56v2.31H43v-3.26h.43l0,.43a1.35,1.35,0,0,1,1.07-.49,1.08,1.08,0,0,1,1,.63,1.43,1.43,0,0,1,1.2-.63A1.2,1.2,0,0,1,48,613.64Z"/><path class="cls-15" d="M51,611.27a.35.35,0,0,1-.69,0,.35.35,0,0,1,.69,0Zm-.11,4.32h-.47v-3.26h.47Z"/><path class="cls-15" d="M54.82,615.59h-.43l0-.43a1.33,1.33,0,0,1-1.11.5,1.71,1.71,0,0,1,0-3.39,1.32,1.32,0,0,1,1.09.47v-2.1h.47ZM52.23,614a1.13,1.13,0,0,0,2.12.68v-1.36a1.14,1.14,0,0,0-2.12.68Z"/><path class="cls-15" d="M62.33,613.64v2h-.48v-1.92a.84.84,0,0,0-.81-.95,1.2,1.2,0,0,0-1,.59,1.53,1.53,0,0,1,0,.3v2h-.48v-1.92a.84.84,0,0,0-.82-.95,1.19,1.19,0,0,0-.94.56v2.31h-.47v-3.26h.43l0,.43a1.38,1.38,0,0,1,1.07-.49,1.08,1.08,0,0,1,1,.63,1.46,1.46,0,0,1,1.2-.63C61.89,612.27,62.33,612.82,62.33,613.64Z"/><path class="cls-15" d="M65.72,612.76v-.43h.44v3.26h-.44v-.43a1.32,1.32,0,0,1-1.09.5,1.71,1.71,0,0,1,0-3.39A1.32,1.32,0,0,1,65.72,612.76Zm-2.1,1.2a1.13,1.13,0,0,0,1.08,1.27,1.11,1.11,0,0,0,1-.59v-1.36a1.1,1.1,0,0,0-1-.58A1.13,1.13,0,0,0,63.62,614Z"/><path class="cls-15" d="M67.79,611.27a.35.35,0,0,1-.69,0,.35.35,0,0,1,.69,0Zm-.11,4.32h-.47v-3.26h.47Z"/><path class="cls-15" d="M71.79,614a1.65,1.65,0,1,1-1.65-1.7A1.62,1.62,0,0,1,71.79,614ZM69,614a1.17,1.17,0,1,0,1.17-1.27A1.18,1.18,0,0,0,69,614Z"/><path class="cls-15" d="M73.17,615.28a.37.37,0,0,1-.38.38.38.38,0,0,1,0-.76A.37.37,0,0,1,73.17,615.28Z"/><path class="cls-15" d="M79.15,613.92a1.78,1.78,0,0,1-3.56,0V610.8h.5v3.1a1.28,1.28,0,1,0,2.56,0v-3.1h.5Z"/><path class="cls-15" d="M81,612.33H82v.42H81v1.82a.59.59,0,0,0,.61.65,1,1,0,0,0,.51-.12l.14.4a1.24,1.24,0,0,1-.67.16,1,1,0,0,1-1.06-1.09v-1.82h-.66v-.42h.66v-1.11H81Z"/><path class="cls-15" d="M86.27,610.88l-.2.37a.6.6,0,0,0-.47-.18c-.36,0-.57.28-.57.67v.59h.91v.42H85v2.84h-.48v-2.84H84v-.42h.59v-.57a1,1,0,0,1,1-1.12A1,1,0,0,1,86.27,610.88Z"/><path class="cls-15" d="M88.92,612.76l0-.43h.43v3.26h-.43l0-.43a1.3,1.3,0,0,1-1.08.5,1.71,1.71,0,0,1,0-3.39A1.29,1.29,0,0,1,88.92,612.76ZM86.83,614a1.13,1.13,0,0,0,1.08,1.27,1.11,1.11,0,0,0,1-.59v-1.36a1.1,1.1,0,0,0-1-.58A1.13,1.13,0,0,0,86.83,614Z"/><path class="cls-15" d="M93.09,613l-.33.27a1.1,1.1,0,0,0-1-.54,1.27,1.27,0,1,0,1,2l.34.26a1.5,1.5,0,0,1-1.3.7,1.57,1.57,0,0,1-1.61-1.7,1.55,1.55,0,0,1,1.6-1.69A1.44,1.44,0,0,1,93.09,613Z"/><path class="cls-15" d="M94.4,611.27a.35.35,0,0,1-.69,0,.35.35,0,0,1,.69,0Zm-.11,4.32h-.47v-3.26h.47Z"/><path class="cls-15" d="M97.68,612.76v-.43h.44v3.26h-.44v-.43a1.31,1.31,0,0,1-1.08.5,1.71,1.71,0,0,1,0-3.39A1.31,1.31,0,0,1,97.68,612.76ZM95.59,614a1.13,1.13,0,0,0,1.08,1.27,1.09,1.09,0,0,0,1-.59v-1.36a1.08,1.08,0,0,0-1-.58A1.13,1.13,0,0,0,95.59,614Z"/><path class="cls-15" d="M101.27,612.59l-.2.38a1.53,1.53,0,0,0-.9-.28c-.39,0-.69.14-.69.49s.22.41.77.53c.77.19,1.11.47,1.11,1s-.49,1-1.24,1a2,2,0,0,1-1.21-.39l.22-.38a1.55,1.55,0,0,0,1,.35c.45,0,.77-.18.77-.53s-.25-.45-.78-.57c-.78-.18-1.1-.42-1.1-.92s.47-1,1.17-1A1.93,1.93,0,0,1,101.27,612.59Z"/><path class="cls-15" d="M106,612.76v-.43h.44v3.26H106v-.43a1.3,1.3,0,0,1-1.08.5,1.71,1.71,0,0,1,0-3.39A1.29,1.29,0,0,1,106,612.76ZM103.9,614a1.13,1.13,0,0,0,1.08,1.27,1.09,1.09,0,0,0,1-.59v-1.36a1.08,1.08,0,0,0-1-.58A1.13,1.13,0,0,0,103.9,614Z"/><path class="cls-15" d="M110.16,615.59h-.43l0-.43a1.35,1.35,0,0,1-1.09.5c-.74,0-1.16-.55-1.16-1.36v-2h.47v1.95a.82.82,0,0,0,.79.93,1.14,1.14,0,0,0,1-.57v-2.31h.47Z"/><path class="cls-15" d="M112,612.33H113v.42H112v1.82a.58.58,0,0,0,.6.65,1,1,0,0,0,.51-.12l.15.4a1.29,1.29,0,0,1-.67.16,1,1,0,0,1-1.06-1.09v-1.82h-.67v-.42h.67v-1.11H112Z"/><path class="cls-15" d="M117.7,612.77v-.44h.44v4.76h-.48v-1.9a1.31,1.31,0,0,1-1.08.47,1.71,1.71,0,0,1,0-3.39A1.33,1.33,0,0,1,117.7,612.77ZM115.55,614a1.15,1.15,0,0,0,1.11,1.27,1.13,1.13,0,0,0,1-.59v-1.36a1.12,1.12,0,0,0-1-.58A1.14,1.14,0,0,0,115.55,614Z"/><path class="cls-15" d="M121.87,615.59h-.44v-.43a1.35,1.35,0,0,1-1.09.5c-.74,0-1.17-.55-1.17-1.36v-2h.48v1.95a.82.82,0,0,0,.79.93,1.12,1.12,0,0,0,1-.57v-2.31h.48Z"/><path class="cls-15" d="M125.72,613.94v.19h-2.53a1.06,1.06,0,0,0,1.15,1.11,1.19,1.19,0,0,0,1-.46l.32.26a1.58,1.58,0,0,1-1.31.62,1.7,1.7,0,0,1-.09-3.39A1.49,1.49,0,0,1,125.72,613.94Zm-2.53-.21h2.06a1,1,0,0,0-1-1.05A1,1,0,0,0,123.19,613.73Z"/><path class="cls-15" d="M130.09,612.59l-.2.38a1.53,1.53,0,0,0-.9-.28c-.39,0-.68.14-.68.49s.22.41.76.53c.77.19,1.11.47,1.11,1s-.49,1-1.23,1a2,2,0,0,1-1.22-.39l.22-.38a1.57,1.57,0,0,0,1,.35c.44,0,.76-.18.76-.53s-.24-.45-.78-.57c-.77-.18-1.09-.42-1.09-.92s.46-1,1.16-1A1.93,1.93,0,0,1,130.09,612.59Z"/><path class="cls-15" d="M133.64,615.59h-.43l0-.43a1.33,1.33,0,0,1-1.09.5c-.74,0-1.16-.55-1.16-1.36v-2h.47v1.95a.82.82,0,0,0,.79.93,1.13,1.13,0,0,0,1-.57v-2.31h.47Z"/><path class="cls-15" d="M139.63,613.64v2h-.48v-1.92a.84.84,0,0,0-.81-.95,1.18,1.18,0,0,0-1,.59,1.53,1.53,0,0,1,0,.3v2h-.48v-1.92a.84.84,0,0,0-.82-.95,1.19,1.19,0,0,0-.94.56v2.31h-.47v-3.26h.43l0,.43a1.38,1.38,0,0,1,1.07-.49,1.08,1.08,0,0,1,1,.63,1.46,1.46,0,0,1,1.2-.63C139.19,612.27,139.63,612.82,139.63,613.64Z"/><path class="cls-15" d="M38.52,623v2h-.47V623a.86.86,0,0,0-.87-1,1.19,1.19,0,0,0-1,.57v2.31h-.47v-3.27h.43l0,.44a1.36,1.36,0,0,1,1.09-.5A1.21,1.21,0,0,1,38.52,623Z"/><path class="cls-15" d="M42.2,624.93h-.43l0-.44a1.35,1.35,0,0,1-1.09.5c-.74,0-1.16-.55-1.16-1.36v-2H40v2a.82.82,0,0,0,.79.93,1.15,1.15,0,0,0,1-.57v-2.31h.47Z"/><path class="cls-15" d="M43.73,624.93h-.47v-5h.47Z"/><path class="cls-15" d="M45.26,624.93h-.48v-5h.48Z"/><path class="cls-15" d="M49,624.93h-.44v-.44a1.37,1.37,0,0,1-1.1.5c-.74,0-1.16-.55-1.16-1.36v-2h.48v2c0,.55.3.93.78.93a1.13,1.13,0,0,0,1-.57v-2.31H49Z"/><path class="cls-15" d="M53.11,623.29a1.55,1.55,0,0,1-1.52,1.7,1.4,1.4,0,0,1-1.09-.46v1.89H50v-4.76h.43l0,.44a1.35,1.35,0,0,1,1.11-.5A1.55,1.55,0,0,1,53.11,623.29Zm-2.61-.67V624a1.27,1.27,0,1,0,0-1.35Z"/><path class="cls-15" d="M54.63,621.66h1.08v.42H54.63v1.82a.58.58,0,0,0,.61.65,1.12,1.12,0,0,0,.5-.11l.15.39a1.29,1.29,0,0,1-.67.16,1,1,0,0,1-1.06-1.09v-1.82h-.67v-.42h.67v-1.1h.47Z"/><path class="cls-15" d="M58.77,622.09v-.43h.44v3.27h-.44v-.44a1.31,1.31,0,0,1-1.08.5,1.71,1.71,0,0,1,0-3.39A1.34,1.34,0,0,1,58.77,622.09Zm-2.1,1.2a1.14,1.14,0,0,0,1.09,1.27,1.09,1.09,0,0,0,1-.59v-1.35a1.09,1.09,0,0,0-1-.59A1.13,1.13,0,0,0,56.67,623.29Z"/><path class="cls-15" d="M61,621.66H62.1v.42H61v1.82a.59.59,0,0,0,.61.65,1.17,1.17,0,0,0,.51-.11l.14.39a1.24,1.24,0,0,1-.67.16,1,1,0,0,1-1.06-1.09v-1.82h-.66v-.42h.66v-1.1H61Z"/><path class="cls-15" d="M65.52,624.93h-.44v-.44a1.36,1.36,0,0,1-1.1.5c-.73,0-1.16-.55-1.16-1.36v-2h.48v2a.82.82,0,0,0,.79.93,1.12,1.12,0,0,0,1-.57v-2.31h.48Z"/><path class="cls-15" d="M68,622.07h0a1.07,1.07,0,0,0-.92.59v2.27h-.47v-3.27H67l0,.47a1.15,1.15,0,0,1,1-.53Z"/><path class="cls-15" d="M71,621.32c0,1.11-1.08,1.18-1.08,1.94v.4h-.48v-.45c0-.93,1.06-1,1.06-1.88a.78.78,0,0,0-.83-.84.84.84,0,0,0-.88.75l-.48-.09a1.29,1.29,0,0,1,1.36-1.1A1.25,1.25,0,0,1,71,621.32Zm-1,3.31a.34.34,0,0,1-.35.36.36.36,0,1,1,.35-.36Z"/><path class="cls-15" d="M77.35,625.58l-.73-.85a2.44,2.44,0,0,1-1.15.28,2.48,2.48,0,1,1,2.39-2.48,2.49,2.49,0,0,1-.85,1.94l.95,1.11Zm-1-1.22-.8-.93.36-.31.83,1a2,2,0,0,0,.67-1.57,1.89,1.89,0,1,0-1.06,1.83Z"/><path class="cls-15" d="M81.41,624.93H81v-.44a1.37,1.37,0,0,1-1.1.5c-.74,0-1.16-.55-1.16-1.36v-2h.48v2c0,.55.3.93.78.93a1.13,1.13,0,0,0,1-.57v-2.31h.48Z"/><path class="cls-15" d="M83,620.61a.35.35,0,0,1-.69,0,.35.35,0,1,1,.69,0Zm-.11,4.32h-.47v-3.27h.47Z"/><path class="cls-15" d="M88.52,623.3a1.65,1.65,0,1,1-1.65-1.7A1.61,1.61,0,0,1,88.52,623.3Zm-2.81,0a1.17,1.17,0,1,0,2.33,0,1.17,1.17,0,1,0-2.33,0Z"/><path class="cls-15" d="M91.23,620.21l-.2.37a.63.63,0,0,0-.47-.18.59.59,0,0,0-.58.67v.59h.92v.42H90v2.85h-.47v-2.85h-.6v-.42h.6v-.56a1.05,1.05,0,0,1,1.72-.89Z"/><path class="cls-15" d="M93.58,620.12l-.15.39a.65.65,0,0,0-.39-.11.59.59,0,0,0-.58.67v.59h.92v.42h-.92v2.85H92v-2.85h-.6v-.42H92v-.58A1,1,0,0,1,93,620,1,1,0,0,1,93.58,620.12Zm1,.49a.35.35,0,0,1-.69,0,.35.35,0,1,1,.69,0Zm-.11,4.32H94v-3.27h.47Z"/><path class="cls-15" d="M98.23,622.3l-.34.26a1.1,1.1,0,0,0-1-.54,1.13,1.13,0,0,0-1.13,1.27A1.14,1.14,0,0,0,97,624.57a1.11,1.11,0,0,0,1-.54l.34.26A1.49,1.49,0,0,1,97,625a1.7,1.7,0,0,1,0-3.39A1.47,1.47,0,0,1,98.23,622.3Z"/><path class="cls-15" d="M99.53,620.61a.35.35,0,0,1-.69,0,.35.35,0,1,1,.69,0Zm-.11,4.32H99v-3.27h.47Z"/><path class="cls-15" d="M103.41,622.07h0a1.07,1.07,0,0,0-.92.59v2.27H102v-3.27h.43l0,.47a1.15,1.15,0,0,1,1-.53Z"/><path class="cls-15" d="M106.78,623.27v.19h-2.53a1.06,1.06,0,0,0,1.15,1.11,1.19,1.19,0,0,0,1-.46l.32.26a1.68,1.68,0,1,1-1.4-2.77A1.49,1.49,0,0,1,106.78,623.27Zm-2.53-.2h2.06a1,1,0,0,0-1-1.05A1,1,0,0,0,104.25,623.07Z"/><path class="cls-15" d="M108.09,622.07a1.36,1.36,0,0,1,1.06-.47,1.21,1.21,0,0,1,1.24,1.37v2h-.47V623a.86.86,0,0,0-.86-1,1.2,1.2,0,0,0-1,.57v2.31h-.48v-5h.48Z"/><path class="cls-15" d="M114.2,623.27v.19h-2.53a1.06,1.06,0,0,0,1.15,1.11,1.19,1.19,0,0,0,1-.46l.32.26a1.58,1.58,0,0,1-1.31.62,1.7,1.7,0,0,1-.09-3.39A1.49,1.49,0,0,1,114.2,623.27Zm-2.53-.2h2.06a1,1,0,0,0-1-1.05A1,1,0,0,0,111.67,623.07Z"/><path class="cls-15" d="M117.8,623v2h-.47V623a.86.86,0,0,0-.87-1,1.22,1.22,0,0,0-1,.57v2.31H115v-3.27h.44v.44a1.4,1.4,0,0,1,1.09-.5A1.21,1.21,0,0,1,117.8,623Z"/><path class="cls-15" d="M121.61,623.27v.19h-2.53a1.06,1.06,0,0,0,1.15,1.11,1.19,1.19,0,0,0,1-.46l.32.26a1.68,1.68,0,1,1-1.4-2.77A1.49,1.49,0,0,1,121.61,623.27Zm-2.53-.2h2.06a1,1,0,0,0-1-1.05A1,1,0,0,0,119.08,623.07Z"/><path class="cls-15" d="M125.11,622.3l-.33.26a1.11,1.11,0,0,0-1-.54,1.28,1.28,0,0,0,0,2.55,1.14,1.14,0,0,0,1-.54l.34.26a1.52,1.52,0,0,1-1.3.7,1.7,1.7,0,0,1,0-3.39A1.47,1.47,0,0,1,125.11,622.3Z"/><path class="cls-15" d="M128.17,622.09l0-.43h.43v3.27h-.43l0-.44a1.3,1.3,0,0,1-1.08.5,1.71,1.71,0,0,1,0-3.39A1.32,1.32,0,0,1,128.17,622.09Zm-2.09,1.2a1.13,1.13,0,0,0,1.08,1.27,1.11,1.11,0,0,0,1-.59v-1.35a1.11,1.11,0,0,0-1-.59A1.13,1.13,0,0,0,126.08,623.29Z"/><path class="cls-15" d="M130.43,621.66h1.07v.42h-1.07v1.82a.58.58,0,0,0,.6.65,1.13,1.13,0,0,0,.51-.11l.15.39a1.29,1.29,0,0,1-.67.16A1,1,0,0,1,130,623.9v-1.82h-.67v-.42H130v-1.1h.47Z"/><path class="cls-15" d="M133,624.61a.37.37,0,0,1-.38.38.37.37,0,0,1-.38-.38.38.38,0,0,1,.76,0Z"/><path class="cls-15" d="M38.56,634.25l-1.18-1.89H36.3v1.88h-.49v-4.79h1.44c1,0,1.68.52,1.68,1.45a1.34,1.34,0,0,1-1,1.37l1.24,2Zm-.13-3.34c0-.66-.49-1-1.22-1H36.3v2h.91C38,631.92,38.43,631.58,38.43,630.91Z"/><path class="cls-15" d="M42.13,631.42V631h.44v3.26h-.44v-.43a1.3,1.3,0,0,1-1.08.5,1.71,1.71,0,0,1,0-3.39A1.32,1.32,0,0,1,42.13,631.42ZM40,632.62a1.13,1.13,0,0,0,1.08,1.27,1.09,1.09,0,0,0,1-.59v-1.36a1.1,1.1,0,0,0-1-.58A1.13,1.13,0,0,0,40,632.62Z"/><path class="cls-15" d="M44.38,631h1.08v.42H44.38v1.82a.59.59,0,0,0,.61.65,1.17,1.17,0,0,0,.51-.11l.14.39a1.24,1.24,0,0,1-.67.16,1,1,0,0,1-1-1.09v-1.82h-.67V631h.67v-1.11h.46Z"/><path class="cls-15" d="M48.88,634.25h-.43l0-.43a1.35,1.35,0,0,1-1.09.5c-.74,0-1.16-.55-1.16-1.36v-2h.47v2a.82.82,0,0,0,.79.93,1.15,1.15,0,0,0,1-.57V631h.47Z"/><path class="cls-15" d="M51.36,631.4h0a1.08,1.08,0,0,0-.92.58v2.27h-.47V631h.43l0,.47a1.09,1.09,0,0,1,1-.53Z"/><path class="cls-15" d="M55.84,631.42l0-.43h.43v3.26h-.43l0-.43a1.28,1.28,0,0,1-1.08.5,1.71,1.71,0,0,1,0-3.39A1.31,1.31,0,0,1,55.84,631.42Zm-2.09,1.2a1.13,1.13,0,0,0,1.08,1.27,1.11,1.11,0,0,0,1-.59v-1.36a1.11,1.11,0,0,0-2.07.68Z"/><path class="cls-15" d="M57.82,631.4a1.38,1.38,0,0,1,1.09-.47,1.71,1.71,0,0,1,0,3.39,1.36,1.36,0,0,1-1.11-.5l0,.43h-.43v-5h.47Zm0,.54v1.36a1.16,1.16,0,0,0,1,.59,1.28,1.28,0,0,0,0-2.53A1.18,1.18,0,0,0,57.82,631.94Z"/><path class="cls-15" d="M64.34,632.63a1.65,1.65,0,1,1-1.65-1.7A1.62,1.62,0,0,1,64.34,632.63Zm-2.82,0a1.17,1.17,0,1,0,1.17-1.27A1.18,1.18,0,0,0,61.52,632.63Z"/><path class="cls-15" d="M65.72,633.94a.38.38,0,1,1-.76,0,.37.37,0,0,1,.38-.38A.37.37,0,0,1,65.72,633.94Z"/><path class="cls-15" d="M71.4,630.94a1.47,1.47,0,0,1-1.66,1.48h-1v1.83h-.49v-4.79h1.53A1.47,1.47,0,0,1,71.4,630.94Zm-2.7-1V632h1c.72,0,1.19-.36,1.19-1s-.47-1-1.19-1Z"/><path class="cls-15" d="M75.11,632.63a1.65,1.65,0,1,1-1.65-1.7A1.62,1.62,0,0,1,75.11,632.63Zm-2.82,0a1.17,1.17,0,1,0,1.17-1.27A1.18,1.18,0,0,0,72.29,632.63Z"/><path class="cls-15" d="M77.38,631.4h0a1.09,1.09,0,0,0-.92.58v2.27h-.47V631h.43l0,.47a1.1,1.1,0,0,1,1-.53Z"/><path class="cls-15" d="M78.62,629.94a.34.34,0,0,1-.68,0,.34.34,0,1,1,.68,0Zm-.1,4.31h-.47V631h.47Z"/><path class="cls-15" d="M80.31,631h1.08v.42H80.31v1.82a.59.59,0,0,0,.61.65,1.17,1.17,0,0,0,.51-.11l.14.39a1.24,1.24,0,0,1-.67.16,1,1,0,0,1-1.06-1.09v-1.82h-.66V631h.66v-1.11h.47Z"/><path class="cls-15" d="M86,631.43l0-.44h.43v4.76H86v-1.89a1.38,1.38,0,0,1-1.09.46,1.71,1.71,0,0,1,0-3.39A1.33,1.33,0,0,1,86,631.43Zm-2.14,1.19a1.13,1.13,0,0,0,2.12.68v-1.36a1.15,1.15,0,0,0-1-.58A1.14,1.14,0,0,0,83.9,632.62Z"/><path class="cls-15" d="M90.21,634.25h-.43l0-.43a1.33,1.33,0,0,1-1.09.5c-.74,0-1.16-.55-1.16-1.36v-2H88v2a.82.82,0,0,0,.79.93,1.13,1.13,0,0,0,1-.57V631h.47Z"/><path class="cls-15" d="M94.35,632.63a1.65,1.65,0,1,1-1.65-1.7A1.62,1.62,0,0,1,94.35,632.63Zm-2.82,0a1.17,1.17,0,1,0,1.17-1.27A1.18,1.18,0,0,0,91.53,632.63Z"/><path class="cls-15" d="M97.22,629.94a.34.34,0,0,1-.68,0,.34.34,0,1,1,.68,0Zm-.1,4.31h-.47V631h.47Z"/><path class="cls-15" d="M101.24,632.62a1.55,1.55,0,0,1-1.52,1.7,1.41,1.41,0,0,1-1.09-.46v1.89h-.47V631h.44v.44a1.36,1.36,0,0,1,1.11-.5A1.55,1.55,0,0,1,101.24,632.62Zm-2.61-.68v1.36a1.14,1.14,0,0,0,2.13-.68,1.15,1.15,0,0,0-1.12-1.26A1.18,1.18,0,0,0,98.63,631.94Z"/><path class="cls-15" d="M102.64,629.94a.34.34,0,0,1-.68,0,.34.34,0,1,1,.68,0Zm-.1,4.31h-.47V631h.47Z"/><path class="cls-15" d="M106.25,631.63l-.34.26a1.1,1.1,0,0,0-1-.54,1.28,1.28,0,1,0,1,2l.34.26a1.49,1.49,0,0,1-1.3.7,1.7,1.7,0,0,1,0-3.39A1.45,1.45,0,0,1,106.25,631.63Z"/><path class="cls-15" d="M107.55,629.94a.35.35,0,0,1-.69,0,.35.35,0,1,1,.69,0Zm-.11,4.31H107V631h.47Z"/><path class="cls-15" d="M110.83,631.42V631h.44v3.26h-.44v-.43a1.31,1.31,0,0,1-1.08.5,1.71,1.71,0,0,1,0-3.39A1.34,1.34,0,0,1,110.83,631.42Zm-2.09,1.2a1.13,1.13,0,0,0,1.08,1.27,1.09,1.09,0,0,0,1-.59v-1.36a1.1,1.1,0,0,0-1-.58A1.13,1.13,0,0,0,108.74,632.62Z"/><path class="cls-15" d="M114.41,629.94a.33.33,0,0,1-.34.33.34.34,0,0,1-.35-.33.35.35,0,0,1,.35-.35A.34.34,0,0,1,114.41,629.94Zm-.1,4.31h-.47V631h.47Z"/><path class="cls-15" d="M118.42,632.62a1.55,1.55,0,0,1-1.51,1.7,1.38,1.38,0,0,1-1.09-.46v1.89h-.47V631h.43l0,.44a1.35,1.35,0,0,1,1.11-.5A1.55,1.55,0,0,1,118.42,632.62Zm-2.6-.68v1.36a1.14,1.14,0,0,0,1,.59,1.27,1.27,0,1,0-1-1.95Z"/><path class="cls-15" d="M121.32,631.25l-.21.38a1.58,1.58,0,0,0-.9-.28c-.39,0-.68.15-.68.49s.22.41.76.54c.77.18,1.12.46,1.12,1s-.49,1-1.24,1a1.85,1.85,0,0,1-1.21-.39l.22-.38a1.49,1.49,0,0,0,1,.35c.44,0,.76-.17.76-.53s-.24-.45-.77-.56c-.78-.19-1.1-.43-1.1-.93s.46-1,1.17-1A2,2,0,0,1,121.32,631.25Z"/><path class="cls-15" d="M124.58,631.42V631H125v3.26h-.44v-.43a1.32,1.32,0,0,1-1.09.5,1.71,1.71,0,0,1,0-3.39A1.34,1.34,0,0,1,124.58,631.42Zm-2.1,1.2a1.13,1.13,0,0,0,1.08,1.27,1.11,1.11,0,0,0,1-.59v-1.36a1.11,1.11,0,0,0-2.07.68Z"/><path class="cls-15" d="M128.87,632.6v.19h-2.53a1.06,1.06,0,0,0,1.15,1.11,1.19,1.19,0,0,0,1-.46l.32.26a1.68,1.68,0,1,1-1.4-2.77A1.49,1.49,0,0,1,128.87,632.6Zm-2.53-.2h2.06a1,1,0,0,0-1-1A1,1,0,0,0,126.34,632.4Z"/><path class="cls-15" d="M130.29,633.94a.38.38,0,0,1-.76,0,.37.37,0,0,1,.38-.38A.37.37,0,0,1,130.29,633.94Z"/></svg>