<svg id="Layer_1" data-name="Layer 1" xmlns="http://www.w3.org/2000/svg" viewBox="0 0 553.21 779.77"><defs><style>.cls-1{fill:#011e41;}.cls-2{fill:#fff;}</style></defs><title>Grid_Layout_Example_02</title><rect class="cls-1" width="553.21" height="779.77"/><rect class="cls-2" x="322.27" y="130.06" width="199.88" height="14.75"/><rect class="cls-2" x="322.17" y="113.22" width="199.88" height="14.75"/><rect class="cls-2" x="322.17" y="86.79" width="157.83" height="7.69"/><rect class="cls-2" x="322.17" y="77.74" width="190.21" height="7.69"/><rect class="cls-2" x="322.17" y="68.69" width="193.61" height="7.69"/><rect class="cls-2" x="322.17" y="59.64" width="193.61" height="7.69"/><rect class="cls-2" x="322.17" y="50.15" width="182.97" height="7.69"/><rect class="cls-2" x="322.17" y="40.65" width="196.86" height="7.69"/><rect class="cls-2" x="322.17" y="31.16" width="187.99" height="7.69"/><rect class="cls-2" x="322.06" y="151.32" width="174.28" height="7.69"/><rect class="cls-2" x="438.73" y="700.25" width="83.31" height="47.71"/><polygon class="cls-2" points="130.87 453.4 130.87 329.99 31.28 329.99 31.28 749.15 114.71 749.15 130.87 749.15 230.74 749.15 230.74 453.4 130.87 453.4"/></svg>