<svg id="Layer_1" data-name="Layer 1" xmlns="http://www.w3.org/2000/svg" viewBox="0 0 30 30"><defs><style>.cls-1{fill:#fff;}</style></defs><title>Icon_Instagram</title><path class="cls-1" d="M19,15a4,4,0,1,0-4,4,4,4,0,0,0,4-4m5-6.55a.59.59,0,0,1-.6.59H21.58A.59.59,0,0,1,21,8.45V6.66a.59.59,0,0,1,.59-.59h1.79a.59.59,0,0,1,.6.59ZM22.34,4.33H7.66A3.33,3.33,0,0,0,4.33,7.66v3.62h5.4a6.45,6.45,0,0,1,10.54,0h5.4V7.66a3.33,3.33,0,0,0-3.33-3.33M21.45,15a6.45,6.45,0,0,1-12.9,0,6.36,6.36,0,0,1,.12-1.24H4.33v8.58a3.33,3.33,0,0,0,3.33,3.33H22.34a3.33,3.33,0,0,0,3.33-3.33V13.76H21.33A6.36,6.36,0,0,1,21.45,15"/></svg>