<svg id="Layer_1" data-name="Layer 1" xmlns="http://www.w3.org/2000/svg" viewBox="0 0 30 30"><defs><style>.cls-1{fill:#fff;}</style></defs><title>Icon_Twitter</title><path class="cls-1" d="M25.65,8.39a8.72,8.72,0,0,1-2.51.69,4.37,4.37,0,0,0,1.92-2.42,8.61,8.61,0,0,1-2.77,1.06,4.37,4.37,0,0,0-7.56,3,4.09,4.09,0,0,0,.11,1,12.4,12.4,0,0,1-9-4.57A4.39,4.39,0,0,0,7.18,13a4.32,4.32,0,0,1-2-.55v.06a4.38,4.38,0,0,0,3.51,4.28,4.23,4.23,0,0,1-2,.08,4.36,4.36,0,0,0,4.08,3,8.73,8.73,0,0,1-5.43,1.87,8.94,8.94,0,0,1-1-.06A12.42,12.42,0,0,0,23.48,11.22c0-.19,0-.38,0-.57a8.52,8.52,0,0,0,2.18-2.26"/></svg>