<svg id="Layer_1" data-name="Layer 1" xmlns="http://www.w3.org/2000/svg" viewBox="0 0 30 30"><defs><style>.cls-1{fill:#fff;}</style></defs><title>Icon_Youtube</title><path class="cls-1" d="M26.86,9a3.09,3.09,0,0,0-2.19-2.19C22.74,6.33,15,6.33,15,6.33s-7.74,0-9.67.52A3.09,3.09,0,0,0,3.14,9a32.06,32.06,0,0,0-.52,6,32.06,32.06,0,0,0,.52,6,3.09,3.09,0,0,0,2.19,2.19c1.93.52,9.67.52,9.67.52s7.74,0,9.67-.52A3.09,3.09,0,0,0,26.86,21a32.06,32.06,0,0,0,.52-6A32.06,32.06,0,0,0,26.86,9ZM12.52,18.71V11.29L19,15Z"/></svg>