<?xml version="1.0" encoding="UTF-8"?>
<svg width="1001px" height="558px" viewBox="0 0 1001 558" version="1.1" xmlns="http://www.w3.org/2000/svg" xmlns:xlink="http://www.w3.org/1999/xlink">
    <!-- Generator: Sketch 51.3 (57544) - http://www.bohemiancoding.com/sketch -->
    <title>Table</title>
    <desc>Created with Sketch.</desc>
    <defs></defs>
    <g id="Page-1" stroke="none" stroke-width="1" fill="none" fill-rule="evenodd">
        <g id="Colour" transform="translate(-219.000000, -5395.000000)">
            <g id="Page"></g>
            <g id="The-Brandmark" transform="translate(0.000000, 4869.000000)">
                <g id="Table" transform="translate(219.000000, 525.000000)">
                    <g id="Group-19" transform="translate(819.000000, 395.579000)">
                        <g id="Group-3" transform="translate(57.000000, 38.000000)">
                            <polygon id="Clip-2" points="0.5375 0.8475 47.2395 0.8475 47.2395 42.125 0.5375 42.125"></polygon>
                            <path d="M45.9105,26.5215 C42.0385,30.8375 37.5005,33.1615 31.4135,33.1615 C20.7905,33.1615 8.6175,23.7545 8.6175,10.6965 C8.6175,7.2655 9.2805,4.6105 10.9405,2.0655 L10.2765,0.8475 C5.2975,4.3875 0.5375,11.2495 0.5375,19.2175 C0.5375,32.0555 10.7205,42.1255 24.5525,42.1255 C35.1775,42.1255 42.5905,36.7025 47.2395,26.8545 L45.9105,26.5215 Z" id="Fill-1" fill="#080202"></path>
                        </g>
                        <path d="M50.0179,22.0264 C50.0179,8.5254 39.6159,0.0054 16.9289,1.1114 L16.9289,2.9924 C31.6469,3.5464 36.5159,12.7294 36.5159,22.0264 C36.5159,31.4324 32.2009,40.2864 18.2569,41.2824 L42.1609,78.7974 L57.5429,78.7974 L33.4179,41.5044 C41.9399,38.7374 50.0179,32.4284 50.0179,22.0264" id="Fill-4" fill="#080202"></path>
                        <g id="Group-8" transform="translate(169.000000, 14.000000)">
                            <polygon id="Clip-7" points="0.5509 0.5569 12.06 0.5569 12.06 12.0659 0.5509 12.0659"></polygon>
                            <path d="M12.0609,6.2549 C12.0609,3.1269 9.4049,0.5569 6.3059,0.5569 C3.2069,0.5569 0.5509,3.1269 0.5509,6.2549 C0.5509,9.4949 3.2069,12.0659 6.3059,12.0659 C9.4049,12.0659 12.0609,9.4949 12.0609,6.2549" id="Fill-6" fill="#E3FC00"></path>
                        </g>
                        <path d="M87.639,30.5479 C96.381,28.4439 103.686,22.9119 103.686,14.1689 C103.686,6.0909 97.157,0.0039 85.868,0.3369 L85.868,1.7749 C90.517,2.7719 93.725,8.3039 93.725,14.6109 C93.725,22.2479 91.07,26.3419 87.086,29.3299 L87.639,30.5479 Z" id="Fill-9" fill="#080202"></path>
                        <path d="M115.9691,63.6357 C135.8881,63.6357 155.5871,54.2297 171.6331,28.6657 L170.0841,27.6697 C156.1401,49.4717 138.6561,57.9917 120.9481,57.9917 C98.0411,57.9917 76.7941,39.0697 76.7941,16.9357 C76.7941,9.8537 78.5651,3.7657 83.6561,1.8847 L83.6561,0.4477 C72.9211,1.8847 65.6161,11.6237 65.6161,22.8007 C65.6161,45.4877 88.4141,63.6357 115.9691,63.6357" id="Fill-11" fill="#080202"></path>
                        <polygon id="Fill-13" fill="#080202" points="152.0502 78.7969 165.8832 78.7969 136.5572 0.8899 134.8982 0.8899 128.9222 16.7149"></polygon>
                        <polygon id="Fill-15" fill="#080202" points="105.7933 78.7969 109.0013 78.7969 129.1433 24.4609 127.7043 20.1449"></polygon>
                        <polygon id="Clip-18" points="0.973 80.125 181.06 80.125 181.06 0.003 0.973 0.003"></polygon>
                        <polygon id="Fill-17" fill="#080202" points="0.974 78.797 14.495 78.797 14.495 1.111 0.974 1.111"></polygon>
                    </g>
                    <g id="Group-38" transform="translate(544.000000, 395.579000)">
                        <g id="Group-22" transform="translate(57.000000, 38.000000)">
                            <polygon id="Clip-21" points="0.141 0.8475 46.843 0.8475 46.843 42.125 0.141 42.125"></polygon>
                            <path d="M45.514,26.5215 C41.642,30.8375 37.104,33.1615 31.017,33.1615 C20.393,33.1615 8.221,23.7545 8.221,10.6965 C8.221,7.2655 8.885,4.6105 10.544,2.0655 L9.88,0.8475 C4.901,4.3875 0.141,11.2495 0.141,19.2175 C0.141,32.0555 10.324,42.1255 24.156,42.1255 C34.781,42.1255 42.194,36.7025 46.843,26.8545 L45.514,26.5215 Z" id="Fill-20" fill="#080202"></path>
                        </g>
                        <path d="M49.6215,22.0264 C49.6215,8.5244 39.2195,0.0054 16.5325,1.1114 L16.5325,2.9924 C31.2515,3.5464 36.1195,12.7304 36.1195,22.0264 C36.1195,31.4324 31.8045,40.2864 17.8605,41.2824 L41.7645,78.7974 L57.1465,78.7974 L33.0215,41.5044 C41.5435,38.7374 49.6215,32.4284 49.6215,22.0264" id="Fill-23" fill="#080202"></path>
                        <g id="Group-27" transform="translate(169.000000, 14.000000)">
                            <polygon id="Clip-26" points="0.1544 0.5569 11.663 0.5569 11.663 12.0659 0.1544 12.0659"></polygon>
                            <path d="M11.6644,6.2549 C11.6644,3.1269 9.0084,0.5569 5.9094,0.5569 C2.8104,0.5569 0.1544,3.1269 0.1544,6.2549 C0.1544,9.4949 2.8104,12.0659 5.9094,12.0659 C9.0084,12.0659 11.6644,9.4949 11.6644,6.2549" id="Fill-25" fill="#FF5736"></path>
                        </g>
                        <path d="M87.2426,30.5479 C95.9856,28.4439 103.2896,22.9119 103.2896,14.1689 C103.2896,6.0909 96.7606,0.0039 85.4716,0.3369 L85.4716,1.7749 C90.1206,2.7719 93.3286,8.3039 93.3286,14.6109 C93.3286,22.2479 90.6736,26.3419 86.6896,29.3299 L87.2426,30.5479 Z" id="Fill-28" fill="#080202"></path>
                        <path d="M115.5726,63.6367 C135.4916,63.6367 155.1906,54.2297 171.2366,28.6657 L169.6876,27.6697 C155.7436,49.4707 138.2596,57.9917 120.5516,57.9917 C97.6446,57.9917 76.3986,39.0687 76.3986,16.9357 C76.3986,9.8537 78.1686,3.7667 83.2596,1.8857 L83.2596,0.4467 C72.5236,1.8857 65.2206,11.6237 65.2206,22.8007 C65.2206,45.4877 88.0176,63.6367 115.5726,63.6367" id="Fill-30" fill="#080202"></path>
                        <polygon id="Fill-32" fill="#080202" points="151.6537 78.7969 165.4867 78.7969 136.1607 0.8899 134.5017 0.8899 128.5257 16.7149"></polygon>
                        <polygon id="Fill-34" fill="#080202" points="105.3969 78.7969 108.6049 78.7969 128.7469 24.4609 127.3079 20.1459"></polygon>
                        <polygon id="Clip-37" points="0.576 80.125 180.663 80.125 180.663 0.003 0.576 0.003"></polygon>
                        <polygon id="Fill-36" fill="#080202" points="0.577 78.797 14.098 78.797 14.098 1.111 0.577 1.111"></polygon>
                    </g>
                    <g id="Group-57" transform="translate(270.000000, 395.579000)">
                        <g id="Group-41" transform="translate(57.000000, 38.000000)">
                            <polygon id="Clip-40" points="0.2548 0.8475 46.9568 0.8475 46.9568 42.125 0.2548 42.125"></polygon>
                            <path d="M45.6278,26.5215 C41.7548,30.8375 37.2178,33.1615 31.1308,33.1615 C20.5068,33.1615 8.3348,23.7535 8.3348,10.6965 C8.3348,7.2655 8.9988,4.6095 10.6588,2.0645 L9.9938,0.8475 C5.0148,4.3885 0.2548,11.2505 0.2548,19.2175 C0.2548,32.0545 10.4368,42.1255 24.2698,42.1255 C34.8938,42.1255 42.3078,36.7025 46.9568,26.8535 L45.6278,26.5215 Z" id="Fill-39" fill="#080202"></path>
                        </g>
                        <path d="M49.7352,22.0254 C49.7352,8.5244 39.3322,0.0044 16.6472,1.1104 L16.6472,2.9924 C31.3642,3.5454 36.2332,12.7304 36.2332,22.0254 C36.2332,31.4324 31.9182,40.2864 17.9742,41.2824 L41.8772,78.7964 L57.2602,78.7964 L33.1352,41.5044 C41.6562,38.7364 49.7352,32.4284 49.7352,22.0254" id="Fill-42" fill="#080202"></path>
                        <g id="Group-46" transform="translate(169.000000, 14.000000)">
                            <polygon id="Clip-45" points="0.2687 0.5569 11.777 0.5569 11.777 12.0659 0.2687 12.0659"></polygon>
                            <path d="M11.7777,6.2549 C11.7777,3.1269 9.1217,0.5569 6.0227,0.5569 C2.9237,0.5569 0.2687,3.1269 0.2687,6.2549 C0.2687,9.4949 2.9237,12.0659 6.0227,12.0659 C9.1217,12.0659 11.7777,9.4949 11.7777,6.2549" id="Fill-44" fill="#38FFC3"></path>
                        </g>
                        <path d="M87.3563,30.5469 C96.0993,28.4449 103.4033,22.9109 103.4033,14.1689 C103.4033,6.0909 96.8743,0.0049 85.5853,0.3359 L85.5853,1.7749 C90.2333,2.7709 93.4423,8.3029 93.4423,14.6109 C93.4423,22.2479 90.7873,26.3419 86.8033,29.3299 L87.3563,30.5469 Z" id="Fill-47" fill="#080202"></path>
                        <path d="M115.6864,63.6357 C135.6054,63.6357 155.3044,54.2297 171.3504,28.6657 L169.8014,27.6697 C155.8564,49.4717 138.3734,57.9917 120.6654,57.9917 C97.7584,57.9917 76.5124,39.0687 76.5124,16.9357 C76.5124,9.8537 78.2814,3.7657 83.3734,1.8847 L83.3734,0.4477 C72.6384,1.8847 65.3344,11.6237 65.3344,22.8007 C65.3344,45.4877 88.1314,63.6357 115.6864,63.6357" id="Fill-49" fill="#080202"></path>
                        <polygon id="Fill-51" fill="#080202" points="151.7674 78.7969 165.6004 78.7969 136.2744 0.8899 134.6154 0.8899 128.6394 16.7149"></polygon>
                        <polygon id="Fill-53" fill="#080202" points="105.5101 78.7969 108.7181 78.7969 128.8601 24.4609 127.4221 20.1449"></polygon>
                        <polygon id="Clip-56" points="0.691 80.125 180.777 80.125 180.777 0.003 0.691 0.003"></polygon>
                        <polygon id="Fill-55" fill="#080202" points="0.691 78.797 14.212 78.797 14.212 1.11 0.691 1.11"></polygon>
                    </g>
                    <g id="Group-76" transform="translate(0.000000, 395.579000)">
                        <g id="Group-60" transform="translate(56.000000, 38.000000)">
                            <polygon id="Clip-59" points="0.5643 0.8475 47.2663 0.8475 47.2663 42.125 0.5643 42.125"></polygon>
                            <path d="M45.9373,26.5215 C42.0643,30.8375 37.5273,33.1625 31.4403,33.1625 C20.8163,33.1625 8.6443,23.7545 8.6443,10.6975 C8.6443,7.2665 9.3083,4.6105 10.9683,2.0655 L10.3033,0.8475 C5.3243,4.3885 0.5643,11.2505 0.5643,19.2185 C0.5643,32.0555 10.7463,42.1255 24.5793,42.1255 C35.2033,42.1255 42.6173,36.7035 47.2663,26.8545 L45.9373,26.5215 Z" id="Fill-58" fill="#080202"></path>
                        </g>
                        <path d="M49.0448,22.0264 C49.0448,8.5244 38.6418,0.0054 15.9568,1.1114 L15.9568,2.9924 C30.6738,3.5464 35.5428,12.7304 35.5428,22.0264 C35.5428,31.4334 31.2278,40.2864 17.2838,41.2834 L41.1868,78.7974 L56.5698,78.7974 L32.4448,41.5044 C40.9658,38.7374 49.0448,32.4284 49.0448,22.0264" id="Fill-61" fill="#080202"></path>
                        <g id="Group-65" transform="translate(168.000000, 14.000000)">
                            <polygon id="Clip-64" points="0.5782 0.5579 12.086 0.5579 12.086 12.0669 0.5782 12.0669"></polygon>
                            <path d="M12.0872,6.2559 C12.0872,3.1269 9.4312,0.5579 6.3322,0.5579 C3.2332,0.5579 0.5782,3.1269 0.5782,6.2559 C0.5782,9.4959 3.2332,12.0669 6.3322,12.0669 C9.4312,12.0669 12.0872,9.4959 12.0872,6.2559" id="Fill-63" fill="#A593FF"></path>
                        </g>
                        <path d="M86.6659,30.5479 C95.4089,28.4439 102.7129,22.9119 102.7129,14.1699 C102.7129,6.0909 96.1839,0.0039 84.8949,0.3369 L84.8949,1.7749 C89.5429,2.7719 92.7519,8.3049 92.7519,14.6119 C92.7519,22.2479 90.0969,26.3429 86.1129,29.3299 L86.6659,30.5479 Z" id="Fill-66" fill="#080202"></path>
                        <path d="M114.9959,63.6367 C134.9149,63.6367 154.6139,54.2307 170.6599,28.6667 L169.1109,27.6707 C155.1659,49.4707 137.6829,57.9917 119.9749,57.9917 C97.0679,57.9917 75.8219,39.0687 75.8219,16.9357 C75.8219,9.8537 77.5909,3.7667 82.6829,1.8857 L82.6829,0.4467 C71.9469,1.8857 64.6439,11.6237 64.6439,22.8007 C64.6439,45.4877 87.4409,63.6367 114.9959,63.6367" id="Fill-68" fill="#080202"></path>
                        <polygon id="Fill-70" fill="#080202" points="151.077 78.7979 164.91 78.7979 135.584 0.8899 133.925 0.8899 127.949 16.7159"></polygon>
                        <polygon id="Fill-72" fill="#080202" points="104.8197 78.7979 108.0277 78.7979 128.1697 24.4619 126.7317 20.1459"></polygon>
                        <polygon id="Clip-75" points="0 80.125 180.086 80.125 180.086 0.003 0 0.003"></polygon>
                        <polygon id="Fill-74" fill="#080202" points="0 78.798 13.521 78.798 13.521 1.111 0 1.111"></polygon>
                    </g>
                    <g id="Group-94" transform="translate(409.000000, 0.579000)">
                        <g id="Group-79" transform="translate(57.000000, 39.000000)">
                            <polygon id="Clip-78" points="0.5512 0.2645 47.2522 0.2645 47.2522 41.541 0.5512 41.541"></polygon>
                            <path d="M45.9242,25.9375 C42.0512,30.2535 37.5142,32.5775 31.4272,32.5775 C20.8022,32.5775 8.6312,23.1705 8.6312,10.1125 C8.6312,6.6815 9.2942,4.0255 10.9542,1.4815 L10.2902,0.2645 C5.3102,3.8045 0.5512,10.6665 0.5512,18.6335 C0.5512,31.4715 10.7342,41.5415 24.5662,41.5415 C35.1902,41.5415 42.6042,36.1185 47.2522,26.2705 L45.9242,25.9375 Z" id="Fill-77" fill="#080202"></path>
                        </g>
                        <path d="M50.0311,22.4424 C50.0311,8.9414 39.6291,0.4214 16.9431,1.5274 L16.9431,3.4084 C31.6611,3.9624 36.5301,13.1464 36.5301,22.4424 C36.5301,31.8484 32.2141,40.7034 18.2701,41.6984 L42.1741,79.2134 L57.5561,79.2134 L33.4311,41.9204 C41.9521,39.1534 50.0311,32.8454 50.0311,22.4424" id="Fill-80" fill="#080202"></path>
                        <path d="M181.0736,20.6709 C181.0736,17.5429 178.4176,14.9729 175.3196,14.9729 C172.2196,14.9729 169.5646,17.5429 169.5646,20.6709 C169.5646,23.9119 172.2196,26.4829 175.3196,26.4829 C178.4176,26.4829 181.0736,23.9119 181.0736,20.6709" id="Fill-82" fill="#14E8FF"></path>
                        <path d="M87.6527,30.9639 C96.3947,28.8609 103.6997,23.3279 103.6997,14.5849 C103.6997,6.5069 97.1707,0.4209 85.8817,0.7529 L85.8817,2.1919 C90.5297,3.1879 93.7387,8.7209 93.7387,15.0279 C93.7387,22.6639 91.0837,26.7579 87.0997,29.7469 L87.6527,30.9639 Z" id="Fill-84" fill="#080202"></path>
                        <path d="M115.9828,64.0518 C135.9018,64.0518 155.6008,54.6468 171.6468,29.0828 L170.0978,28.0868 C156.1538,49.8878 138.6698,58.4078 120.9618,58.4078 C98.0548,58.4078 76.8078,39.4848 76.8078,17.3518 C76.8078,10.2698 78.5778,4.1828 83.6688,2.3018 L83.6688,0.8638 C72.9338,2.3018 65.6298,12.0398 65.6298,23.2168 C65.6298,45.9038 88.4278,64.0518 115.9828,64.0518" id="Fill-86" fill="#080202"></path>
                        <polygon id="Fill-88" fill="#080202" points="152.0638 79.2129 165.8968 79.2129 136.5708 1.3059 134.9118 1.3059 128.9358 17.1309"></polygon>
                        <polygon id="Fill-90" fill="#080202" points="105.806 79.2129 109.015 79.2129 129.156 24.8769 127.718 20.5609"></polygon>
                        <polygon id="Clip-93" points="0.988 80.541 181.074 80.541 181.074 0.421 0.988 0.421"></polygon>
                        <polygon id="Fill-92" fill="#080202" points="0.987 79.214 14.508 79.214 14.508 1.526 0.987 1.526"></polygon>
                    </g>
                    <polygon id="Fill-95" fill="#B2B2B2" points="910.517 299.7274 909.093 299.7274 909.093 254.4604 90.967 254.4604 90.967 299.7274 89.544 299.7274 89.544 253.0374 910.517 253.0374"></polygon>
                    <polygon id="Fill-96" fill="#B2B2B2" points="498.607 253.036 500.03 253.036 500.03 204.626 498.607 204.626"></polygon>
                    <polygon id="Fill-97" fill="#080202" points="404.7689 149.4472 403.6299 149.4472 403.6299 142.1652 399.6439 149.5072 399.5399 149.5072 395.5539 142.1652 395.5539 149.4472 394.4149 149.4472 394.4149 138.2392 394.4749 138.2392 399.5839 147.4252 404.7089 138.2392 404.7689 138.2392"></polygon>
                    <g id="Group-204" transform="translate(30.000000, 137.579000)" fill="#080202">
                        <path d="M378.4071,8.1221 C378.4071,9.8461 379.4261,11.0291 380.8941,11.0291 C382.0181,11.0291 382.6471,10.4601 383.1571,9.6811 L383.1571,6.5631 C382.6471,5.7841 382.0181,5.2151 380.8941,5.2151 C379.4261,5.2151 378.4071,6.4141 378.4071,8.1221 M383.2171,5.3651 L383.2471,4.3761 L384.2511,4.3761 L384.2511,11.8681 L383.2471,11.8681 L383.2171,10.8641 C382.7671,11.4481 382.0031,12.0181 380.7291,12.0181 C378.6921,12.0181 377.3131,10.3851 377.3131,8.1221 C377.3131,5.8741 378.6921,4.2261 380.7291,4.2261 C382.0031,4.2261 382.7671,4.7961 383.2171,5.3651" id="Fill-98"></path>
                        <path d="M391.8465,4.9756 L391.3815,5.8446 C390.8575,5.4856 390.1825,5.2006 389.3135,5.2006 C388.4145,5.2006 387.7405,5.5306 387.7405,6.3246 C387.7405,7.0286 388.2505,7.2676 389.4935,7.5526 C391.2625,7.9726 392.0555,8.6166 392.0555,9.7406 C392.0555,11.1196 390.9325,12.0176 389.2095,12.0176 C388.0705,12.0176 387.1265,11.6886 386.4225,11.1336 L386.9315,10.2496 C387.5315,10.7446 388.2955,11.0586 389.2095,11.0586 C390.2275,11.0586 390.9625,10.6546 390.9625,9.8296 C390.9625,9.1116 390.4085,8.8116 389.1795,8.5416 C387.3955,8.1216 386.6615,7.5676 386.6615,6.4136 C386.6615,5.0356 387.7255,4.2266 389.3445,4.2266 C390.3325,4.2266 391.2175,4.5406 391.8465,4.9756" id="Fill-100"></path>
                        <path d="M396.1903,4.376 L398.6623,4.376 L398.6623,5.335 L396.1903,5.335 L396.1903,9.516 C396.1903,10.489 396.7743,11.014 397.5843,11.014 C398.1383,11.014 398.4973,10.879 398.7523,10.744 L399.0823,11.644 C398.7523,11.854 398.2433,12.018 397.5383,12.018 C396.0703,12.018 395.1113,11.164 395.1113,9.516 L395.1113,5.335 L393.5833,5.335 L393.5833,4.376 L395.1113,4.376 L395.1113,1.829 L396.1903,1.829 L396.1903,4.376 Z" id="Fill-102"></path>
                        <path d="M401.2684,7.5977 L406.0034,7.5977 C405.9434,6.1737 405.1194,5.1857 403.7104,5.1857 C402.3024,5.1857 401.3434,6.1597 401.2684,7.5977 M407.0814,8.0627 L407.0814,8.5117 L401.2684,8.5117 C401.3434,10.0847 402.2724,11.0587 403.9054,11.0587 C404.9994,11.0587 405.7784,10.5647 406.1834,9.9947 L406.9174,10.5947 C406.2434,11.4787 405.2684,12.0177 403.9054,12.0177 C401.5674,12.0177 400.1744,10.3847 400.1744,8.1367 C400.1744,5.8897 401.6124,4.2267 403.7104,4.2267 C405.8984,4.2267 407.0814,5.9347 407.0814,8.0627" id="Fill-104"></path>
                        <path d="M412.6541,5.3203 L412.5491,5.3203 C411.6051,5.3203 410.9761,5.8443 410.4361,6.6533 L410.4361,11.8683 L409.3581,11.8683 L409.3581,4.3763 L410.3461,4.3763 L410.4061,5.4403 C410.7811,4.8413 411.5151,4.2263 412.6541,4.2263 L412.6541,5.3203 Z" id="Fill-106"></path>
                        <path d="M420.369,6.7588 L420.369,10.8198 L423.591,10.8198 C425.179,10.8198 426.153,10.1298 426.153,8.7968 C426.153,7.4778 425.254,6.7588 423.381,6.7588 L420.369,6.7588 Z M420.369,1.9038 L420.369,5.7388 L423.021,5.7388 C424.43,5.7388 425.239,4.9148 425.239,3.8208 C425.239,2.6228 424.459,1.9038 422.841,1.9038 L420.369,1.9038 Z M426.363,3.7168 C426.363,5.0058 425.613,5.7838 424.939,6.0698 C426.243,6.3688 427.291,7.1778 427.291,8.8418 C427.291,10.7598 425.853,11.8678 423.695,11.8678 L419.26,11.8678 L419.26,0.8548 L422.961,0.8548 C425.239,0.8548 426.363,1.9788 426.363,3.7168 Z" id="Fill-108"></path>
                        <path d="M432.9383,5.3203 L432.8333,5.3203 C431.8893,5.3203 431.2603,5.8443 430.7203,6.6533 L430.7203,11.8683 L429.6423,11.8683 L429.6423,4.3763 L430.6303,4.3763 L430.6903,5.4403 C431.0653,4.8413 431.7993,4.2263 432.9383,4.2263 L432.9383,5.3203 Z" id="Fill-110"></path>
                        <path d="M435.2596,8.1221 C435.2596,9.8461 436.2786,11.0291 437.7466,11.0291 C438.8706,11.0291 439.4996,10.4601 440.0096,9.6811 L440.0096,6.5631 C439.4996,5.7841 438.8706,5.2151 437.7466,5.2151 C436.2786,5.2151 435.2596,6.4141 435.2596,8.1221 M440.0696,5.3651 L440.0996,4.3761 L441.1036,4.3761 L441.1036,11.8681 L440.0996,11.8681 L440.0696,10.8641 C439.6196,11.4481 438.8556,12.0181 437.5816,12.0181 C435.5446,12.0181 434.1656,10.3851 434.1656,8.1221 C434.1656,5.8741 435.5446,4.2261 437.5816,4.2261 C438.8556,4.2261 439.6196,4.7961 440.0696,5.3651" id="Fill-112"></path>
                        <path d="M450.2572,7.3877 L450.2572,11.8677 L449.1782,11.8677 L449.1782,7.4487 C449.1782,6.1587 448.3992,5.2757 447.1852,5.2757 C446.1962,5.2757 445.5372,5.8287 444.9672,6.5787 L444.9672,11.8677 L443.8892,11.8677 L443.8892,4.3757 L444.8782,4.3757 L444.9232,5.3797 C445.3722,4.8247 446.1962,4.2267 447.4252,4.2267 C449.2232,4.2267 450.2572,5.4997 450.2572,7.3877" id="Fill-114"></path>
                        <path d="M453.5965,8.1221 C453.5965,9.8461 454.6595,11.0291 456.1435,11.0291 C457.2825,11.0291 457.9565,10.4601 458.4665,9.6811 L458.4665,6.5631 C457.9565,5.7841 457.2825,5.2151 456.1435,5.2151 C454.6595,5.2151 453.5965,6.4141 453.5965,8.1221 Z M459.5595,11.8681 L458.5555,11.8681 L458.5265,10.8641 C458.0765,11.4481 457.2675,12.0181 455.9785,12.0181 C453.9265,12.0181 452.5025,10.3851 452.5025,8.1221 C452.5025,5.8741 453.9265,4.2261 455.9785,4.2261 C457.2375,4.2261 458.0165,4.7511 458.4665,5.3051 L458.4665,0.4801 L459.5595,0.4801 L459.5595,11.8681 Z" id="Fill-116"></path>
                        <path d="M467.4535,8.1221 C467.4535,9.8461 468.4725,11.0291 469.9405,11.0291 C471.0635,11.0291 471.6935,10.4601 472.2025,9.6811 L472.2025,6.5631 C471.6935,5.7841 471.0635,5.2151 469.9405,5.2151 C468.4725,5.2151 467.4535,6.4141 467.4535,8.1221 M472.2635,5.3651 L472.2925,4.3761 L473.2965,4.3761 L473.2965,11.8681 L472.2925,11.8681 L472.2635,10.8641 C471.8125,11.4481 471.0495,12.0181 469.7755,12.0181 C467.7385,12.0181 466.3595,10.3851 466.3595,8.1221 C466.3595,5.8741 467.7385,4.2261 469.7755,4.2261 C471.0495,4.2261 471.8125,4.7961 472.2635,5.3651" id="Fill-118"></path>
                        <path d="M482.4506,7.3877 L482.4506,11.8677 L481.3716,11.8677 L481.3716,7.4487 C481.3716,6.1587 480.5926,5.2757 479.3786,5.2757 C478.3896,5.2757 477.7306,5.8287 477.1616,6.5787 L477.1616,11.8677 L476.0826,11.8677 L476.0826,4.3757 L477.0706,4.3757 L477.1156,5.3797 C477.5656,4.8247 478.3896,4.2267 479.6186,4.2267 C481.4166,4.2267 482.4506,5.4997 482.4506,7.3877" id="Fill-120"></path>
                        <path d="M485.7894,8.1221 C485.7894,9.8461 486.8524,11.0291 488.3364,11.0291 C489.4754,11.0291 490.1494,10.4601 490.6594,9.6811 L490.6594,6.5631 C490.1494,5.7841 489.4754,5.2151 488.3364,5.2151 C486.8524,5.2151 485.7894,6.4141 485.7894,8.1221 Z M491.7534,11.8681 L490.7494,11.8681 L490.7194,10.8641 C490.2694,11.4481 489.4604,12.0181 488.1714,12.0181 C486.1184,12.0181 484.6954,10.3851 484.6954,8.1221 C484.6954,5.8741 486.1184,4.2261 488.1714,4.2261 C489.4304,4.2261 490.2094,4.7511 490.6594,5.3051 L490.6594,0.4801 L491.7534,0.4801 L491.7534,11.8681 Z" id="Fill-122"></path>
                        <path d="M500.9203,8.2725 L505.3253,8.2725 L503.1233,3.2075 L500.9203,8.2725 Z M508.0823,11.8685 L506.8693,11.8685 L505.7603,9.2915 L500.4853,9.2915 L499.3773,11.8685 L498.1633,11.8685 L503.0933,0.6605 L503.1523,0.6605 L508.0823,11.8685 Z" id="Fill-124"></path>
                        <path d="M521.3568,7.3877 L521.3568,11.8677 L520.2628,11.8677 L520.2628,7.4487 C520.2628,6.1587 519.5288,5.2757 518.3898,5.2757 C517.4168,5.2757 516.7558,5.8287 516.1718,6.6237 C516.2168,6.8487 516.2318,7.0877 516.2318,7.3137 L516.2318,11.8677 L515.1378,11.8677 L515.1378,7.4487 C515.1378,6.1587 514.3888,5.2757 513.2508,5.2757 C512.3058,5.2757 511.6628,5.8147 511.0928,6.5637 L511.0928,11.8677 L510.0138,11.8677 L510.0138,4.3757 L511.0028,4.3757 L511.0468,5.3657 C511.4978,4.8107 512.3218,4.2267 513.5048,4.2267 C514.6288,4.2267 515.4378,4.7807 515.8728,5.6797 C516.4578,4.8697 517.3558,4.2267 518.6288,4.2267 C520.3378,4.2267 521.3568,5.4997 521.3568,7.3877" id="Fill-126"></path>
                        <path d="M524.7103,8.1221 C524.7103,9.8461 525.7293,11.0291 527.1973,11.0291 C528.3213,11.0291 528.9503,10.4601 529.4603,9.6811 L529.4603,6.5631 C528.9503,5.7841 528.3213,5.2151 527.1973,5.2151 C525.7293,5.2151 524.7103,6.4141 524.7103,8.1221 M529.5203,5.3651 L529.5503,4.3761 L530.5543,4.3761 L530.5543,11.8681 L529.5503,11.8681 L529.5203,10.8641 C529.0703,11.4481 528.3063,12.0181 527.0323,12.0181 C524.9943,12.0181 523.6163,10.3851 523.6163,8.1221 C523.6163,5.8741 524.9943,4.2261 527.0323,4.2261 C528.3063,4.2261 529.0703,4.7961 529.5203,5.3651" id="Fill-128"></path>
                        <path d="M535.0922,4.376 L537.5652,4.376 L537.5652,5.335 L535.0922,5.335 L535.0922,9.516 C535.0922,10.489 535.6772,11.014 536.4862,11.014 C537.0402,11.014 537.4002,10.879 537.6552,10.744 L537.9852,11.644 C537.6552,11.854 537.1452,12.018 536.4412,12.018 C534.9732,12.018 534.0142,11.164 534.0142,9.516 L534.0142,5.335 L532.4852,5.335 L532.4852,4.376 L534.0142,4.376 L534.0142,1.829 L535.0922,1.829 L535.0922,4.376 Z" id="Fill-130"></path>
                        <path d="M540.1556,7.5977 L544.8896,7.5977 C544.8306,6.1737 544.0066,5.1857 542.5976,5.1857 C541.1896,5.1857 540.2306,6.1597 540.1556,7.5977 M545.9686,8.0627 L545.9686,8.5117 L540.1556,8.5117 C540.2306,10.0847 541.1596,11.0587 542.7926,11.0587 C543.8856,11.0587 544.6656,10.5647 545.0706,9.9947 L545.8036,10.5947 C545.1306,11.4787 544.1566,12.0177 542.7926,12.0177 C540.4556,12.0177 539.0616,10.3847 539.0616,8.1367 C539.0616,5.8897 540.5006,4.2267 542.5976,4.2267 C544.7856,4.2267 545.9686,5.9347 545.9686,8.0627" id="Fill-132"></path>
                        <path d="M554.3734,11.8682 L553.3694,11.8682 L553.3404,10.8792 C552.8604,11.4482 552.0964,12.0172 550.8224,12.0172 C549.1294,12.0172 548.1554,10.7602 548.1554,8.9012 L548.1554,4.3762 L549.2494,4.3762 L549.2494,8.8562 C549.2494,10.1152 549.9534,10.9842 551.0614,10.9842 C552.1264,10.9842 552.7264,10.4302 553.2794,9.6802 L553.2794,4.3762 L554.3734,4.3762 L554.3734,11.8682 Z" id="Fill-134"></path>
                        <path d="M560.4545,5.3203 L560.3505,5.3203 C559.4055,5.3203 558.7765,5.8443 558.2375,6.6533 L558.2375,11.8683 L557.1585,11.8683 L557.1585,4.3763 L558.1465,4.3763 L558.2075,5.4403 C558.5815,4.8413 559.3155,4.2263 560.4545,4.2263 L560.4545,5.3203 Z" id="Fill-136"></path>
                        <path d="M416.2816,26.4268 L415.5476,27.2658 C414.7826,26.4568 413.7196,25.9168 412.4006,25.9168 C409.8686,25.9168 408.0856,27.8798 408.0856,30.5628 C408.0856,33.2438 409.8686,35.1928 412.4006,35.1928 C413.7646,35.1928 414.8726,34.6228 415.6376,33.7538 L416.3566,34.6228 C415.3526,35.7018 414.0186,36.2558 412.4006,36.2558 C409.2236,36.2558 406.9466,33.8438 406.9466,30.5628 C406.9466,27.2808 409.2236,24.8538 412.4006,24.8538 C414.0336,24.8538 415.2926,25.4228 416.2816,26.4268" id="Fill-138"></path>
                        <path d="M419.4857,29.5137 C419.9947,28.9447 420.7297,28.4197 421.9277,28.4197 C423.7267,28.4197 424.7757,29.6937 424.7757,31.5807 L424.7757,36.0617 L423.6817,36.0617 L423.6817,31.6417 C423.6817,30.3527 422.9027,29.4687 421.7037,29.4687 C420.6997,29.4687 420.0547,30.0227 419.4857,30.7727 L419.4857,36.0617 L418.3917,36.0617 L418.3917,24.6737 L419.4857,24.6737 L419.4857,29.5137 Z" id="Fill-140"></path>
                        <path d="M428.0999,32.3154 C428.0999,34.0394 429.1189,35.2224 430.5869,35.2224 C431.7109,35.2224 432.3399,34.6534 432.8499,33.8744 L432.8499,30.7564 C432.3399,29.9774 431.7109,29.4084 430.5869,29.4084 C429.1189,29.4084 428.0999,30.6074 428.0999,32.3154 M432.9099,29.5584 L432.9399,28.5694 L433.9439,28.5694 L433.9439,36.0614 L432.9399,36.0614 L432.9099,35.0574 C432.4599,35.6414 431.6959,36.2114 430.4219,36.2114 C428.3849,36.2114 427.0059,34.5784 427.0059,32.3154 C427.0059,30.0674 428.3849,28.4194 430.4219,28.4194 C431.6959,28.4194 432.4599,28.9894 432.9099,29.5584" id="Fill-142"></path>
                        <path d="M448.057,31.5811 L448.057,36.0611 L446.963,36.0611 L446.963,31.6421 C446.963,30.3521 446.229,29.4691 445.09,29.4691 C444.116,29.4691 443.457,30.0221 442.872,30.8171 C442.917,31.0421 442.932,31.2811 442.932,31.5071 L442.932,36.0611 L441.839,36.0611 L441.839,31.6421 C441.839,30.3521 441.089,29.4691 439.951,29.4691 C439.007,29.4691 438.362,30.0081 437.793,30.7571 L437.793,36.0611 L436.714,36.0611 L436.714,28.5691 L437.703,28.5691 L437.748,29.5591 C438.198,29.0041 439.021,28.4201 440.205,28.4201 C441.329,28.4201 442.138,28.9741 442.573,29.8731 C443.157,29.0631 444.056,28.4201 445.33,28.4201 C447.038,28.4201 448.057,29.6931 448.057,31.5811" id="Fill-144"></path>
                        <path d="M451.8744,30.7568 L451.8744,33.8738 C452.3834,34.6528 453.0734,35.2228 454.1974,35.2228 C455.6804,35.2228 456.7594,34.0388 456.7594,32.3158 C456.7594,30.5928 455.6804,29.4078 454.1974,29.4078 C453.0734,29.4078 452.3834,29.9778 451.8744,30.7568 M457.8534,32.3158 C457.8534,34.5778 456.4294,36.2108 454.3764,36.2108 C453.1184,36.2108 452.3384,35.6868 451.8744,35.1478 L451.8744,39.5078 L450.7954,39.5078 L450.7954,28.5688 L451.7844,28.5688 L451.8294,29.5728 C452.2794,28.9888 453.0734,28.4198 454.3764,28.4198 C456.4294,28.4198 457.8534,30.0678 457.8534,32.3158" id="Fill-146"></path>
                        <path d="M460.144,36.062 L461.223,36.062 L461.223,28.57 L460.144,28.57 L460.144,36.062 Z M461.462,26.142 C461.462,26.592 461.118,26.921 460.683,26.921 C460.234,26.921 459.889,26.592 459.889,26.142 C459.889,25.692 460.234,25.348 460.683,25.348 C461.118,25.348 461.462,25.692 461.462,26.142 Z" id="Fill-148"></path>
                        <path d="M464.5633,32.3301 C464.5633,34.0091 465.6873,35.2231 467.2453,35.2231 C468.8033,35.2231 469.9273,34.0091 469.9273,32.3301 C469.9273,30.6521 468.8033,29.4081 467.2453,29.4081 C465.6873,29.4081 464.5633,30.6521 464.5633,32.3301 M471.0353,32.3301 C471.0353,34.5781 469.4333,36.2111 467.2453,36.2111 C465.0423,36.2111 463.4693,34.5781 463.4693,32.3301 C463.4693,30.0831 465.0423,28.4201 467.2453,28.4201 C469.4333,28.4201 471.0353,30.0831 471.0353,32.3301" id="Fill-150"></path>
                        <path d="M479.7093,31.5811 L479.7093,36.0611 L478.6303,36.0611 L478.6303,31.6421 C478.6303,30.3521 477.8513,29.4691 476.6373,29.4691 C475.6483,29.4691 474.9893,30.0221 474.4203,30.7721 L474.4203,36.0611 L473.3413,36.0611 L473.3413,28.5691 L474.3293,28.5691 L474.3753,29.5731 C474.8243,29.0181 475.6483,28.4201 476.8773,28.4201 C478.6753,28.4201 479.7093,29.6931 479.7093,31.5811" id="Fill-151"></path>
                        <path d="M487.1996,29.1689 L486.7346,30.0379 C486.2106,29.6789 485.5366,29.3939 484.6676,29.3939 C483.7676,29.3939 483.0946,29.7239 483.0946,30.5179 C483.0946,31.2219 483.6026,31.4609 484.8466,31.7459 C486.6146,32.1659 487.4096,32.8099 487.4096,33.9339 C487.4096,35.3129 486.2856,36.2109 484.5616,36.2109 C483.4236,36.2109 482.4786,35.8819 481.7746,35.3269 L482.2846,34.4429 C482.8846,34.9379 483.6476,35.2519 484.5616,35.2519 C485.5816,35.2519 486.3146,34.8479 486.3146,34.0229 C486.3146,33.3049 485.7616,33.0049 484.5326,32.7349 C482.7496,32.3149 482.0146,31.7609 482.0146,30.6069 C482.0146,29.2289 483.0786,28.4199 484.6966,28.4199 C485.6856,28.4199 486.5696,28.7339 487.1996,29.1689" id="Fill-152"></path>
                        <path d="M490.765,29.5137 C491.274,28.9447 492.008,28.4197 493.207,28.4197 C495.005,28.4197 496.054,29.6937 496.054,31.5807 L496.054,36.0617 L494.96,36.0617 L494.96,31.6417 C494.96,30.3527 494.181,29.4687 492.982,29.4687 C491.978,29.4687 491.334,30.0227 490.765,30.7727 L490.765,36.0617 L489.67,36.0617 L489.67,24.6737 L490.765,24.6737 L490.765,29.5137 Z" id="Fill-153"></path>
                        <path d="M498.749,36.062 L499.828,36.062 L499.828,28.57 L498.749,28.57 L498.749,36.062 Z M500.067,26.142 C500.067,26.592 499.722,26.921 499.287,26.921 C498.838,26.921 498.494,26.592 498.494,26.142 C498.494,25.692 498.838,25.348 499.287,25.348 C499.722,25.348 500.067,25.692 500.067,26.142 Z" id="Fill-154"></path>
                        <path d="M503.6918,30.7568 L503.6918,33.8738 C504.2008,34.6528 504.8898,35.2228 506.0138,35.2228 C507.4978,35.2228 508.5768,34.0388 508.5768,32.3158 C508.5768,30.5928 507.4978,29.4078 506.0138,29.4078 C504.8898,29.4078 504.2008,29.9778 503.6918,30.7568 M509.6708,32.3158 C509.6708,34.5778 508.2468,36.2108 506.1938,36.2108 C504.9348,36.2108 504.1558,35.6868 503.6918,35.1478 L503.6918,39.5078 L502.6128,39.5078 L502.6128,28.5688 L503.6008,28.5688 L503.6468,29.5728 C504.0958,28.9888 504.8898,28.4198 506.1938,28.4198 C508.2468,28.4198 509.6708,30.0678 509.6708,32.3158" id="Fill-155"></path>
                        <path d="M516.6957,29.1689 L516.2307,30.0379 C515.7067,29.6789 515.0327,29.3939 514.1637,29.3939 C513.2637,29.3939 512.5907,29.7239 512.5907,30.5179 C512.5907,31.2219 513.0987,31.4609 514.3427,31.7459 C516.1107,32.1659 516.9057,32.8099 516.9057,33.9339 C516.9057,35.3129 515.7817,36.2109 514.0577,36.2109 C512.9197,36.2109 511.9747,35.8819 511.2707,35.3269 L511.7807,34.4429 C512.3807,34.9379 513.1437,35.2519 514.0577,35.2519 C515.0777,35.2519 515.8107,34.8479 515.8107,34.0229 C515.8107,33.3049 515.2577,33.0049 514.0287,32.7349 C512.2457,32.3149 511.5107,31.7609 511.5107,30.6069 C511.5107,29.2289 512.5747,28.4199 514.1927,28.4199 C515.1817,28.4199 516.0657,28.7339 516.6957,29.1689" id="Fill-156"></path>
                        <path d="M9.4105,407.9189 L8.6765,408.7579 C7.9115,407.9489 6.8485,407.4089 5.5295,407.4089 C2.9975,407.4089 1.2145,409.3719 1.2145,412.0549 C1.2145,414.7359 2.9975,416.6849 5.5295,416.6849 C6.8935,416.6849 8.0015,416.1149 8.7665,415.2459 L9.4855,416.1149 C8.4815,417.1939 7.1475,417.7479 5.5295,417.7479 C2.3525,417.7479 0.0755,415.3359 0.0755,412.0549 C0.0755,408.7729 2.3525,406.3459 5.5295,406.3459 C7.1625,406.3459 8.4215,406.9149 9.4105,407.9189" id="Fill-157"></path>
                        <path d="M12.6146,411.0059 C13.1236,410.4369 13.8586,409.9119 15.0566,409.9119 C16.8556,409.9119 17.9046,411.1859 17.9046,413.0729 L17.9046,417.5539 L16.8106,417.5539 L16.8106,413.1339 C16.8106,411.8449 16.0316,410.9609 14.8326,410.9609 C13.8286,410.9609 13.1836,411.5149 12.6146,412.2649 L12.6146,417.5539 L11.5206,417.5539 L11.5206,406.1659 L12.6146,406.1659 L12.6146,411.0059 Z" id="Fill-158"></path>
                        <path d="M21.2289,413.8076 C21.2289,415.5316 22.2479,416.7146 23.7159,416.7146 C24.8399,416.7146 25.4689,416.1456 25.9789,415.3666 L25.9789,412.2486 C25.4689,411.4696 24.8399,410.9006 23.7159,410.9006 C22.2479,410.9006 21.2289,412.0996 21.2289,413.8076 M26.0389,411.0506 L26.0689,410.0616 L27.0729,410.0616 L27.0729,417.5536 L26.0689,417.5536 L26.0389,416.5496 C25.5889,417.1336 24.8249,417.7036 23.5509,417.7036 C21.5139,417.7036 20.1349,416.0706 20.1349,413.8076 C20.1349,411.5596 21.5139,409.9116 23.5509,409.9116 C24.8249,409.9116 25.5889,410.4816 26.0389,411.0506" id="Fill-159"></path>
                        <path d="M41.1859,413.0732 L41.1859,417.5532 L40.0919,417.5532 L40.0919,413.1342 C40.0919,411.8442 39.3579,410.9612 38.2189,410.9612 C37.2449,410.9612 36.5859,411.5142 36.0009,412.3092 C36.0459,412.5342 36.0609,412.7732 36.0609,412.9992 L36.0609,417.5532 L34.9679,417.5532 L34.9679,413.1342 C34.9679,411.8442 34.2179,410.9612 33.0799,410.9612 C32.1359,410.9612 31.4909,411.5002 30.9219,412.2492 L30.9219,417.5532 L29.8429,417.5532 L29.8429,410.0612 L30.8319,410.0612 L30.8769,411.0512 C31.3269,410.4962 32.1499,409.9122 33.3339,409.9122 C34.4579,409.9122 35.2669,410.4662 35.7019,411.3652 C36.2859,410.5552 37.1849,409.9122 38.4589,409.9122 C40.1669,409.9122 41.1859,411.1852 41.1859,413.0732" id="Fill-160"></path>
                        <path d="M45.0033,412.249 L45.0033,415.366 C45.5123,416.145 46.2023,416.715 47.3263,416.715 C48.8093,416.715 49.8883,415.531 49.8883,413.808 C49.8883,412.085 48.8093,410.9 47.3263,410.9 C46.2023,410.9 45.5123,411.47 45.0033,412.249 M50.9823,413.808 C50.9823,416.07 49.5583,417.703 47.5053,417.703 C46.2473,417.703 45.4673,417.179 45.0033,416.64 L45.0033,421 L43.9243,421 L43.9243,410.061 L44.9133,410.061 L44.9583,411.065 C45.4083,410.481 46.2023,409.912 47.5053,409.912 C49.5583,409.912 50.9823,411.56 50.9823,413.808" id="Fill-161"></path>
                        <path d="M53.272,417.554 L54.351,417.554 L54.351,410.062 L53.272,410.062 L53.272,417.554 Z M54.591,407.634 C54.591,408.084 54.246,408.413 53.812,408.413 C53.363,408.413 53.018,408.084 53.018,407.634 C53.018,407.185 53.363,406.84 53.812,406.84 C54.246,406.84 54.591,407.185 54.591,407.634 Z" id="Fill-162"></path>
                        <path d="M57.6922,413.8223 C57.6922,415.5013 58.8162,416.7153 60.3742,416.7153 C61.9322,416.7153 63.0562,415.5013 63.0562,413.8223 C63.0562,412.1443 61.9322,410.9003 60.3742,410.9003 C58.8162,410.9003 57.6922,412.1443 57.6922,413.8223 M64.1652,413.8223 C64.1652,416.0703 62.5622,417.7033 60.3742,417.7033 C58.1712,417.7033 56.5982,416.0703 56.5982,413.8223 C56.5982,411.5753 58.1712,409.9123 60.3742,409.9123 C62.5622,409.9123 64.1652,411.5753 64.1652,413.8223" id="Fill-163"></path>
                        <path d="M72.8387,413.0732 L72.8387,417.5532 L71.7597,417.5532 L71.7597,413.1342 C71.7597,411.8442 70.9807,410.9612 69.7667,410.9612 C68.7777,410.9612 68.1187,411.5142 67.5487,412.2642 L67.5487,417.5532 L66.4707,417.5532 L66.4707,410.0612 L67.4597,410.0612 L67.5047,411.0652 C67.9537,410.5102 68.7777,409.9122 70.0067,409.9122 C71.8047,409.9122 72.8387,411.1852 72.8387,413.0732" id="Fill-164"></path>
                        <path d="M80.3289,410.6611 L79.8639,411.5301 C79.3399,411.1711 78.6649,410.8861 77.7959,410.8861 C76.8969,410.8861 76.2229,411.2161 76.2229,412.0101 C76.2229,412.7141 76.7329,412.9531 77.9759,413.2381 C79.7449,413.6581 80.5379,414.3021 80.5379,415.4261 C80.5379,416.8051 79.4149,417.7031 77.6919,417.7031 C76.5529,417.7031 75.6089,417.3741 74.9049,416.8191 L75.4139,415.9351 C76.0139,416.4301 76.7779,416.7441 77.6919,416.7441 C78.7099,416.7441 79.4449,416.3401 79.4449,415.5151 C79.4449,414.7971 78.8909,414.4971 77.6619,414.2271 C75.8779,413.8071 75.1439,413.2531 75.1439,412.0991 C75.1439,410.7211 76.2079,409.9121 77.8269,409.9121 C78.8149,409.9121 79.6999,410.2261 80.3289,410.6611" id="Fill-165"></path>
                        <path d="M83.8934,411.0059 C84.4034,410.4369 85.1374,409.9119 86.3354,409.9119 C88.1344,409.9119 89.1834,411.1859 89.1834,413.0729 L89.1834,417.5539 L88.0894,417.5539 L88.0894,413.1339 C88.0894,411.8449 87.3104,410.9609 86.1114,410.9609 C85.1074,410.9609 84.4624,411.5149 83.8934,412.2649 L83.8934,417.5539 L82.7994,417.5539 L82.7994,406.1659 L83.8934,406.1659 L83.8934,411.0059 Z" id="Fill-166"></path>
                        <path d="M91.878,417.554 L92.957,417.554 L92.957,410.062 L91.878,410.062 L91.878,417.554 Z M93.197,407.634 C93.197,408.084 92.852,408.413 92.417,408.413 C91.968,408.413 91.623,408.084 91.623,407.634 C91.623,407.185 91.968,406.84 92.417,406.84 C92.852,406.84 93.197,407.185 93.197,407.634 Z" id="Fill-167"></path>
                        <path d="M96.8221,412.249 L96.8221,415.366 C97.3311,416.145 98.0211,416.715 99.1451,416.715 C100.6281,416.715 101.7071,415.531 101.7071,413.808 C101.7071,412.085 100.6281,410.9 99.1451,410.9 C98.0211,410.9 97.3311,411.47 96.8221,412.249 M102.8011,413.808 C102.8011,416.07 101.3771,417.703 99.3241,417.703 C98.0661,417.703 97.2861,417.179 96.8221,416.64 L96.8221,421 L95.7431,421 L95.7431,410.061 L96.7321,410.061 L96.7771,411.065 C97.2271,410.481 98.0211,409.912 99.3241,409.912 C101.3771,409.912 102.8011,411.56 102.8011,413.808" id="Fill-168"></path>
                        <path d="M278.9188,407.5293 L278.3498,408.5033 C277.6008,407.8883 276.5218,407.3943 275.3828,407.3943 C274.0638,407.3943 273.0148,408.0083 273.0148,409.3873 C273.0148,410.5413 273.6898,410.9753 275.6518,411.4103 C278.2448,411.9793 279.2788,412.8033 279.2788,414.4973 C279.2788,416.4293 277.8098,417.7483 275.4878,417.7483 C273.8688,417.7483 272.5808,417.2393 271.5768,416.3703 L272.2358,415.4253 C273.0298,416.2053 274.2888,416.6993 275.5178,416.6993 C277.0158,416.6993 278.1398,415.9663 278.1398,414.5873 C278.1398,413.4633 277.3008,412.8933 275.3378,412.4733 C272.7458,411.9043 271.8768,411.1103 271.8768,409.4473 C271.8768,407.5293 273.3148,406.3453 275.3978,406.3453 C276.8358,406.3453 278.0198,406.8553 278.9188,407.5293" id="Fill-169"></path>
                        <path d="M287.6976,417.5537 L286.6936,417.5537 L286.6636,416.5647 C286.1836,417.1337 285.4196,417.7027 284.1466,417.7027 C282.4526,417.7027 281.4786,416.4457 281.4786,414.5867 L281.4786,410.0617 L282.5726,410.0617 L282.5726,414.5417 C282.5726,415.8007 283.2776,416.6697 284.3856,416.6697 C285.4496,416.6697 286.0496,416.1157 286.6036,415.3657 L286.6036,410.0617 L287.6976,410.0617 L287.6976,417.5537 Z" id="Fill-170"></path>
                        <path d="M295.2923,410.6611 L294.8273,411.5301 C294.3033,411.1711 293.6283,410.8861 292.7593,410.8861 C291.8603,410.8861 291.1863,411.2161 291.1863,412.0101 C291.1863,412.7141 291.6963,412.9531 292.9393,413.2381 C294.7083,413.6581 295.5013,414.3021 295.5013,415.4261 C295.5013,416.8051 294.3783,417.7031 292.6553,417.7031 C291.5163,417.7031 290.5723,417.3741 289.8683,416.8191 L290.3773,415.9351 C290.9773,416.4301 291.7413,416.7441 292.6553,416.7441 C293.6733,416.7441 294.4083,416.3401 294.4083,415.5151 C294.4083,414.7971 293.8543,414.4971 292.6253,414.2271 C290.8413,413.8071 290.1073,413.2531 290.1073,412.0991 C290.1073,410.7211 291.1713,409.9121 292.7903,409.9121 C293.7783,409.9121 294.6633,410.2261 295.2923,410.6611" id="Fill-171"></path>
                        <path d="M299.6366,410.0615 L302.1086,410.0615 L302.1086,411.0205 L299.6366,411.0205 L299.6366,415.2015 C299.6366,416.1745 300.2206,416.6995 301.0306,416.6995 C301.5846,416.6995 301.9436,416.5645 302.1986,416.4295 L302.5286,417.3295 C302.1986,417.5395 301.6896,417.7035 300.9846,417.7035 C299.5166,417.7035 298.5576,416.8495 298.5576,415.2015 L298.5576,411.0205 L297.0296,411.0205 L297.0296,410.0615 L298.5576,410.0615 L298.5576,407.5145 L299.6366,407.5145 L299.6366,410.0615 Z" id="Fill-172"></path>
                        <path d="M304.7147,413.8076 C304.7147,415.5316 305.7337,416.7146 307.2017,416.7146 C308.3257,416.7146 308.9547,416.1456 309.4647,415.3666 L309.4647,412.2486 C308.9547,411.4696 308.3257,410.9006 307.2017,410.9006 C305.7337,410.9006 304.7147,412.0996 304.7147,413.8076 M309.5247,411.0506 L309.5547,410.0616 L310.5587,410.0616 L310.5587,417.5536 L309.5547,417.5536 L309.5247,416.5496 C309.0747,417.1336 308.3107,417.7036 307.0367,417.7036 C304.9997,417.7036 303.6207,416.0706 303.6207,413.8076 C303.6207,411.5596 304.9997,409.9116 307.0367,409.9116 C308.3107,409.9116 309.0747,410.4816 309.5247,411.0506" id="Fill-173"></path>
                        <path d="M313.343,417.554 L314.422,417.554 L314.422,410.062 L313.343,410.062 L313.343,417.554 Z M314.662,407.634 C314.662,408.084 314.317,408.413 313.883,408.413 C313.433,408.413 313.089,408.084 313.089,407.634 C313.089,407.185 313.433,406.84 313.883,406.84 C314.317,406.84 314.662,407.185 314.662,407.634 Z" id="Fill-174"></path>
                        <path d="M323.577,413.0732 L323.577,417.5532 L322.498,417.5532 L322.498,413.1342 C322.498,411.8442 321.719,410.9612 320.505,410.9612 C319.516,410.9612 318.857,411.5142 318.287,412.2642 L318.287,417.5532 L317.209,417.5532 L317.209,410.0612 L318.198,410.0612 L318.243,411.0652 C318.692,410.5102 319.516,409.9122 320.745,409.9122 C322.543,409.9122 323.577,411.1852 323.577,413.0732" id="Fill-175"></path>
                        <path d="M326.9164,413.8076 C326.9164,415.5316 327.9354,416.7146 329.4034,416.7146 C330.5274,416.7146 331.1564,416.1456 331.6664,415.3666 L331.6664,412.2486 C331.1564,411.4696 330.5274,410.9006 329.4034,410.9006 C327.9354,410.9006 326.9164,412.0996 326.9164,413.8076 M331.7264,411.0506 L331.7564,410.0616 L332.7604,410.0616 L332.7604,417.5536 L331.7564,417.5536 L331.7264,416.5496 C331.2764,417.1336 330.5124,417.7036 329.2384,417.7036 C327.2014,417.7036 325.8224,416.0706 325.8224,413.8076 C325.8224,411.5596 327.2014,409.9116 329.2384,409.9116 C330.5124,409.9116 331.2764,410.4816 331.7264,411.0506" id="Fill-176"></path>
                        <path d="M336.639,412.249 L336.639,415.366 C337.148,416.145 337.838,416.715 338.962,416.715 C340.445,416.715 341.509,415.531 341.509,413.808 C341.509,412.1 340.445,410.9 338.962,410.9 C337.838,410.9 337.148,411.47 336.639,412.249 Z M336.639,410.99 C337.103,410.437 337.883,409.912 339.141,409.912 C341.194,409.912 342.618,411.56 342.618,413.808 C342.618,416.07 341.194,417.703 339.141,417.703 C337.838,417.703 337.044,417.134 336.594,416.55 L336.549,417.554 L335.545,417.554 L335.545,406.166 L336.639,406.166 L336.639,410.99 Z" id="Fill-177"></path>
                        <path d="M344.908,417.554 L345.987,417.554 L345.987,410.062 L344.908,410.062 L344.908,417.554 Z M346.226,407.634 C346.226,408.084 345.882,408.413 345.447,408.413 C344.998,408.413 344.653,408.084 344.653,407.634 C344.653,407.185 344.998,406.84 345.447,406.84 C345.882,406.84 346.226,407.185 346.226,407.634 Z" id="Fill-178"></path>
                        <polygon id="Fill-179" points="348.788 417.554 349.882 417.554 349.882 406.166 348.788 406.166"></polygon>
                        <path d="M352.683,417.554 L353.762,417.554 L353.762,410.062 L352.683,410.062 L352.683,417.554 Z M354.001,407.634 C354.001,408.084 353.657,408.413 353.222,408.413 C352.773,408.413 352.428,408.084 352.428,407.634 C352.428,407.185 352.773,406.84 353.222,406.84 C353.657,406.84 354.001,407.185 354.001,407.634 Z" id="Fill-180"></path>
                        <path d="M358.2713,410.0615 L360.7433,410.0615 L360.7433,411.0205 L358.2713,411.0205 L358.2713,415.2015 C358.2713,416.1745 358.8553,416.6995 359.6653,416.6995 C360.2193,416.6995 360.5783,416.5645 360.8333,416.4295 L361.1633,417.3295 C360.8333,417.5395 360.3243,417.7035 359.6193,417.7035 C358.1513,417.7035 357.1923,416.8495 357.1923,415.2015 L357.1923,411.0205 L355.6643,411.0205 L355.6643,410.0615 L357.1923,410.0615 L357.1923,407.5145 L358.2713,407.5145 L358.2713,410.0615 Z" id="Fill-181"></path>
                        <polygon id="Fill-182" points="364.5179 421 363.2739 421 365.4619 416.685 362.2999 410.062 363.4389 410.062 366.0459 415.605 368.6679 410.062 369.8079 410.062"></polygon>
                        <path d="M550.4486,407.6045 L550.4486,416.4905 L552.5156,416.4905 C555.5576,416.4905 557.2516,414.8565 557.2516,412.0405 C557.2516,409.2375 555.5286,407.6045 552.5156,407.6045 L550.4486,407.6045 Z M558.4056,412.0405 C558.4056,415.5155 556.2616,417.5535 552.5466,417.5535 L549.3096,417.5535 L549.3096,406.5405 L552.5466,406.5405 C556.2326,406.5405 558.4056,408.5635 558.4056,412.0405 Z" id="Fill-183"></path>
                        <path d="M561.3842,413.2832 L566.1182,413.2832 C566.0592,411.8592 565.2352,410.8712 563.8262,410.8712 C562.4182,410.8712 561.4592,411.8452 561.3842,413.2832 M567.1972,413.7482 L567.1972,414.1972 L561.3842,414.1972 C561.4592,415.7702 562.3882,416.7442 564.0212,416.7442 C565.1142,416.7442 565.8942,416.2502 566.2992,415.6802 L567.0322,416.2802 C566.3592,417.1642 565.3852,417.7032 564.0212,417.7032 C561.6842,417.7032 560.2902,416.0702 560.2902,413.8222 C560.2902,411.5752 561.7292,409.9122 563.8262,409.9122 C566.0142,409.9122 567.1972,411.6202 567.1972,413.7482" id="Fill-184"></path>
                        <polygon id="Fill-185" points="571.9906 417.7031 571.9306 417.7031 568.1996 410.0611 569.3536 410.0611 571.9616 415.5601 574.5836 410.0611 575.7076 410.0611"></polygon>
                        <path d="M577.7875,413.2832 L582.5215,413.2832 C582.4625,411.8592 581.6385,410.8712 580.2295,410.8712 C578.8215,410.8712 577.8625,411.8452 577.7875,413.2832 M583.6005,413.7482 L583.6005,414.1972 L577.7875,414.1972 C577.8625,415.7702 578.7915,416.7442 580.4245,416.7442 C581.5175,416.7442 582.2975,416.2502 582.7025,415.6802 L583.4355,416.2802 C582.7625,417.1642 581.7885,417.7032 580.4245,417.7032 C578.0875,417.7032 576.6935,416.0702 576.6935,413.8222 C576.6935,411.5752 578.1325,409.9122 580.2295,409.9122 C582.4175,409.9122 583.6005,411.6202 583.6005,413.7482" id="Fill-186"></path>
                        <polygon id="Fill-187" points="585.906 417.554 587.001 417.554 587.001 406.166 585.906 406.166"></polygon>
                        <path d="M590.4164,413.8223 C590.4164,415.5013 591.5404,416.7153 593.0984,416.7153 C594.6564,416.7153 595.7804,415.5013 595.7804,413.8223 C595.7804,412.1443 594.6564,410.9003 593.0984,410.9003 C591.5404,410.9003 590.4164,412.1443 590.4164,413.8223 M596.8894,413.8223 C596.8894,416.0703 595.2864,417.7033 593.0984,417.7033 C590.8954,417.7033 589.3224,416.0703 589.3224,413.8223 C589.3224,411.5753 590.8954,409.9123 593.0984,409.9123 C595.2864,409.9123 596.8894,411.5753 596.8894,413.8223" id="Fill-188"></path>
                        <path d="M600.2748,412.249 L600.2748,415.366 C600.7838,416.145 601.4728,416.715 602.5968,416.715 C604.0808,416.715 605.1598,415.531 605.1598,413.808 C605.1598,412.085 604.0808,410.9 602.5968,410.9 C601.4728,410.9 600.7838,411.47 600.2748,412.249 M606.2538,413.808 C606.2538,416.07 604.8298,417.703 602.7768,417.703 C601.5178,417.703 600.7388,417.179 600.2748,416.64 L600.2748,421 L599.1958,421 L599.1958,410.061 L600.1838,410.061 L600.2288,411.065 C600.6788,410.481 601.4728,409.912 602.7768,409.912 C604.8298,409.912 606.2538,411.56 606.2538,413.808" id="Fill-189"></path>
                        <path d="M619.931,413.0732 L619.931,417.5532 L618.837,417.5532 L618.837,413.1342 C618.837,411.8442 618.103,410.9612 616.964,410.9612 C615.991,410.9612 615.33,411.5142 614.746,412.3092 C614.791,412.5342 614.806,412.7732 614.806,412.9992 L614.806,417.5532 L613.712,417.5532 L613.712,413.1342 C613.712,411.8442 612.963,410.9612 611.825,410.9612 C610.88,410.9612 610.237,411.5002 609.667,412.2492 L609.667,417.5532 L608.588,417.5532 L608.588,410.0612 L609.577,410.0612 L609.621,411.0512 C610.072,410.4962 610.896,409.9122 612.079,409.9122 C613.203,409.9122 614.012,410.4662 614.447,411.3652 C615.032,410.5552 615.93,409.9122 617.203,409.9122 C618.912,409.9122 619.931,411.1852 619.931,413.0732" id="Fill-190"></path>
                        <path d="M623.2845,413.2832 L628.0185,413.2832 C627.9595,411.8592 627.1355,410.8712 625.7265,410.8712 C624.3185,410.8712 623.3595,411.8452 623.2845,413.2832 M629.0975,413.7482 L629.0975,414.1972 L623.2845,414.1972 C623.3595,415.7702 624.2885,416.7442 625.9215,416.7442 C627.0145,416.7442 627.7945,416.2502 628.1995,415.6802 L628.9325,416.2802 C628.2595,417.1642 627.2855,417.7032 625.9215,417.7032 C623.5845,417.7032 622.1905,416.0702 622.1905,413.8222 C622.1905,411.5752 623.6295,409.9122 625.7265,409.9122 C627.9145,409.9122 629.0975,411.6202 629.0975,413.7482" id="Fill-191"></path>
                        <path d="M637.7426,413.0732 L637.7426,417.5532 L636.6636,417.5532 L636.6636,413.1342 C636.6636,411.8442 635.8846,410.9612 634.6706,410.9612 C633.6816,410.9612 633.0226,411.5142 632.4536,412.2642 L632.4536,417.5532 L631.3746,417.5532 L631.3746,410.0612 L632.3626,410.0612 L632.4086,411.0652 C632.8576,410.5102 633.6816,409.9122 634.9106,409.9122 C636.7086,409.9122 637.7426,411.1852 637.7426,413.0732" id="Fill-192"></path>
                        <path d="M642.0404,410.0615 L644.5134,410.0615 L644.5134,411.0205 L642.0404,411.0205 L642.0404,415.2015 C642.0404,416.1745 642.6254,416.6995 643.4344,416.6995 C643.9884,416.6995 644.3484,416.5645 644.6034,416.4295 L644.9334,417.3295 C644.6034,417.5395 644.0934,417.7035 643.3894,417.7035 C641.9214,417.7035 640.9624,416.8495 640.9624,415.2015 L640.9624,411.0205 L639.4334,411.0205 L639.4334,410.0615 L640.9624,410.0615 L640.9624,407.5145 L642.0404,407.5145 L642.0404,410.0615 Z" id="Fill-193"></path>
                        <path d="M839.2543,407.9189 L838.5203,408.7579 C837.7553,407.9489 836.6913,407.4089 835.3733,407.4089 C832.8403,407.4089 831.0583,409.3719 831.0583,412.0549 C831.0583,414.7359 832.9003,416.6849 835.5533,416.6849 C836.6763,416.6849 837.6503,416.3549 838.3853,415.7849 L838.3853,412.9689 L835.3583,412.9689 L835.3583,411.9649 L839.5243,411.9649 L839.5243,416.3549 C838.5203,417.2539 837.1553,417.7479 835.5533,417.7479 C832.2563,417.7479 829.9183,415.3359 829.9183,412.0549 C829.9183,408.7729 832.1963,406.3459 835.3733,406.3459 C837.0063,406.3459 838.2653,406.9149 839.2543,407.9189" id="Fill-194"></path>
                        <path d="M842.848,413.8223 C842.848,415.5013 843.972,416.7153 845.53,416.7153 C847.088,416.7153 848.212,415.5013 848.212,413.8223 C848.212,412.1443 847.088,410.9003 845.53,410.9003 C843.972,410.9003 842.848,412.1443 842.848,413.8223 M849.321,413.8223 C849.321,416.0703 847.718,417.7033 845.53,417.7033 C843.327,417.7033 841.754,416.0703 841.754,413.8223 C841.754,411.5753 843.327,409.9123 845.53,409.9123 C847.718,409.9123 849.321,411.5753 849.321,413.8223" id="Fill-195"></path>
                        <polygon id="Fill-196" points="854.0687 417.7031 854.0087 417.7031 850.2777 410.0611 851.4317 410.0611 854.0397 415.5601 856.6617 410.0611 857.7857 410.0611"></polygon>
                        <path d="M859.8666,413.2832 L864.6006,413.2832 C864.5416,411.8592 863.7176,410.8712 862.3086,410.8712 C860.9006,410.8712 859.9416,411.8452 859.8666,413.2832 M865.6796,413.7482 L865.6796,414.1972 L859.8666,414.1972 C859.9416,415.7702 860.8706,416.7442 862.5036,416.7442 C863.5966,416.7442 864.3766,416.2502 864.7816,415.6802 L865.5146,416.2802 C864.8416,417.1642 863.8676,417.7032 862.5036,417.7032 C860.1666,417.7032 858.7726,416.0702 858.7726,413.8222 C858.7726,411.5752 860.2116,409.9122 862.3086,409.9122 C864.4966,409.9122 865.6796,411.6202 865.6796,413.7482" id="Fill-197"></path>
                        <path d="M871.267,411.0059 L871.163,411.0059 C870.218,411.0059 869.589,411.5299 869.05,412.3389 L869.05,417.5539 L867.971,417.5539 L867.971,410.0619 L868.959,410.0619 L869.02,411.1259 C869.394,410.5269 870.128,409.9119 871.267,409.9119 L871.267,411.0059 Z" id="Fill-198"></path>
                        <path d="M879.5668,413.0732 L879.5668,417.5532 L878.4878,417.5532 L878.4878,413.1342 C878.4878,411.8442 877.7088,410.9612 876.4948,410.9612 C875.5058,410.9612 874.8468,411.5142 874.2778,412.2642 L874.2778,417.5532 L873.1988,417.5532 L873.1988,410.0612 L874.1868,410.0612 L874.2328,411.0652 C874.6818,410.5102 875.5058,409.9122 876.7348,409.9122 C878.5328,409.9122 879.5668,411.1852 879.5668,413.0732" id="Fill-199"></path>
                        <path d="M882.9066,413.8076 C882.9066,415.5316 883.9256,416.7146 885.3936,416.7146 C886.5176,416.7146 887.1466,416.1456 887.6566,415.3666 L887.6566,412.2486 C887.1466,411.4696 886.5176,410.9006 885.3936,410.9006 C883.9256,410.9006 882.9066,412.0996 882.9066,413.8076 M887.7166,411.0506 L887.7466,410.0616 L888.7506,410.0616 L888.7506,417.5536 L887.7466,417.5536 L887.7166,416.5496 C887.2666,417.1336 886.5026,417.7036 885.2286,417.7036 C883.1906,417.7036 881.8126,416.0706 881.8126,413.8076 C881.8126,411.5596 883.1906,409.9116 885.2286,409.9116 C886.5026,409.9116 887.2666,410.4816 887.7166,411.0506" id="Fill-200"></path>
                        <path d="M897.9047,413.0732 L897.9047,417.5532 L896.8257,417.5532 L896.8257,413.1342 C896.8257,411.8442 896.0467,410.9612 894.8327,410.9612 C893.8437,410.9612 893.1847,411.5142 892.6157,412.2642 L892.6157,417.5532 L891.5367,417.5532 L891.5367,410.0612 L892.5247,410.0612 L892.5707,411.0652 C893.0197,410.5102 893.8437,409.9122 895.0727,409.9122 C896.8707,409.9122 897.9047,411.1852 897.9047,413.0732" id="Fill-201"></path>
                        <path d="M906.7885,411.5146 L906.0235,412.1146 C905.6045,411.4856 904.9155,410.8856 903.8365,410.8856 C902.1585,410.8856 901.2445,412.1446 901.2445,413.8076 C901.2445,415.4866 902.1735,416.7296 903.8665,416.7296 C904.9305,416.7296 905.6495,416.1296 906.0685,415.5006 L906.8485,416.1006 C906.1745,417.0886 905.2005,417.7026 903.8665,417.7026 C901.5595,417.7026 900.1505,416.0556 900.1505,413.8076 C900.1505,411.5596 901.5445,409.9116 903.8365,409.9116 C905.1845,409.9116 906.1295,410.5266 906.7885,411.5146" id="Fill-202"></path>
                        <path d="M909.4095,413.2832 L914.1435,413.2832 C914.0845,411.8592 913.2605,410.8712 911.8515,410.8712 C910.4435,410.8712 909.4845,411.8452 909.4095,413.2832 M915.2225,413.7482 L915.2225,414.1972 L909.4095,414.1972 C909.4845,415.7702 910.4135,416.7442 912.0465,416.7442 C913.1395,416.7442 913.9195,416.2502 914.3245,415.6802 L915.0575,416.2802 C914.3845,417.1642 913.4105,417.7032 912.0465,417.7032 C909.7095,417.7032 908.3155,416.0702 908.3155,413.8222 C908.3155,411.5752 909.7545,409.9122 911.8515,409.9122 C914.0395,409.9122 915.2225,411.6202 915.2225,413.7482" id="Fill-203"></path>
                    </g>
                </g>
            </g>
        </g>
        <g id="Page"></g>
    </g>
</svg>