<?xml version="1.0" encoding="UTF-8"?>
<svg width="726px" height="248px" viewBox="0 0 726 248" version="1.1" xmlns="http://www.w3.org/2000/svg" xmlns:xlink="http://www.w3.org/1999/xlink">
    <!-- Generator: Sketch 51.3 (57544) - http://www.bohemiancoding.com/sketch -->
    <title>Group 29</title>
    <desc>Created with Sketch.</desc>
    <defs></defs>
    <g id="Page-1" stroke="none" stroke-width="1" fill="none" fill-rule="evenodd">
        <g id="Colour" transform="translate(-357.000000, -4308.000000)">
            <g id="Page"></g>
            <g id="Using-Colour" transform="translate(132.000000, 3688.000000)">
                <g id="Light-Blue" transform="translate(3.000000, 520.000000)">
                    <g id="Group-29" transform="translate(216.000000, 99.000000)">
                        <polygon id="Stroke-1" stroke="#14E8FF" stroke-width="1.271" points="70.6392 182.3768 70.2952 182.3768 38.8192 226.9248 7.2572 182.3768 6.9132 182.3768 6.9132 246.7048 20.0712 246.7048 20.0712 219.7008 38.5612 247.5648 39.1632 247.5648 57.4812 219.7868 57.4812 246.7048 70.6392 246.7048"></polygon>
                        <path d="M110.8862,182.3768 L110.5422,182.3768 L80.0122,246.7048 L94.5462,246.7048 L98.6742,236.9868 L122.8402,236.9868 L126.8822,246.7048 L141.5022,246.7048 L110.8862,182.3768 Z M110.7142,207.8328 L118.7122,226.6668 L102.8022,226.6668 L110.7142,207.8328 Z" id="Stroke-2" stroke="#14E8FF" stroke-width="1.271"></path>
                        <g id="Group-28" transform="translate(0.000000, 0.410000)">
                            <path d="M170.9131,181.9668 C157.4111,181.9668 147.8651,190.1368 147.8651,201.4888 C147.8651,210.6918 152.5091,216.8828 168.8491,220.3228 C178.3091,222.2148 181.0611,224.5368 181.0611,228.3208 C181.0611,232.9648 177.2771,235.5448 170.7411,235.5448 C164.2051,235.5448 157.1531,232.6208 152.9391,228.1488 L145.8011,238.9858 C151.9931,244.4038 160.5931,247.4128 170.3111,247.4128 C185.1891,247.4128 194.2191,239.2428 194.2191,227.0308 C194.2191,217.3988 189.1451,211.8088 172.7191,208.4548 C163.3451,206.4768 161.0231,204.4988 161.0231,200.7148 C161.0231,196.1568 165.2371,193.8348 170.8271,193.8348 C177.5351,193.8348 183.1251,196.6728 187.2531,199.8548 L193.5311,188.7608 C188.1131,184.8048 179.9431,181.9668 170.9131,181.9668 Z" id="Stroke-3" stroke="#14E8FF" stroke-width="1.271"></path>
                            <polygon id="Stroke-5" stroke="#14E8FF" stroke-width="1.271" points="254.7617 183.085 200.6677 183.085 200.6677 194.695 221.1357 194.695 221.1357 246.295 234.2937 246.295 234.2937 194.695 254.7617 194.695"></polygon>
                            <polygon id="Stroke-7" stroke="#14E8FF" stroke-width="1.271" points="305.5879 183.085 264.7379 183.085 264.7379 246.295 306.2759 246.295 306.2759 234.255 277.8959 234.255 277.8959 219.893 301.9759 219.893 301.9759 208.627 277.8959 208.627 277.8959 195.125 305.5879 195.125"></polygon>
                            <path d="M368.8823,246.2949 L354.1763,221.7849 C360.9703,218.6889 365.7003,212.4969 365.7003,203.5529 C365.7003,190.4809 355.3803,183.0849 343.3403,183.0849 L318.4003,183.0849 L318.4003,246.2949 L331.5583,246.2949 L331.5583,224.0209 L340.2443,224.0209 L353.4883,246.2949 L368.8823,246.2949 Z M331.5583,194.4369 L342.0503,194.4369 C348.2423,194.4369 352.3703,197.7049 352.3703,203.5529 C352.3703,209.4869 348.2423,212.6689 342.0503,212.6689 L331.5583,212.6689 L331.5583,194.4369 Z" id="Stroke-9" stroke="#14E8FF" stroke-width="1.271"></path>
                            <path d="M424.8672,183.085 L400.3572,183.085 L400.3572,246.295 L428.9952,246.295 C440.6912,246.295 449.9792,239.673 449.9792,227.891 C449.9792,219.119 445.1632,214.647 438.7992,212.411 C441.8092,210.347 444.9052,206.391 444.9052,200.199 C444.9052,189.535 437.3372,183.085 424.8672,183.085 Z M423.1472,195.039 C428.3932,195.039 431.5752,197.619 431.5752,202.005 C431.5752,206.133 428.3932,208.885 423.4052,208.885 L413.5152,208.885 L413.5152,195.039 L423.1472,195.039 Z M427.0172,219.291 C433.1232,219.291 436.6492,221.957 436.6492,226.773 C436.6492,231.675 432.9512,234.341 427.4472,234.341 L413.5152,234.341 L413.5152,219.291 L427.0172,219.291 Z" id="Stroke-11" stroke="#14E8FF" stroke-width="1.271"></path>
                            <path d="M511.4687,246.2949 L496.7627,221.7849 C503.5567,218.6889 508.2867,212.4969 508.2867,203.5529 C508.2867,190.4809 497.9667,183.0849 485.9267,183.0849 L460.9867,183.0849 L460.9867,246.2949 L474.1447,246.2949 L474.1447,224.0209 L482.8307,224.0209 L496.0747,246.2949 L511.4687,246.2949 Z M474.1447,194.4369 L484.6367,194.4369 C490.8287,194.4369 494.9567,197.7049 494.9567,203.5529 C494.9567,209.4869 490.8287,212.6689 484.6367,212.6689 L474.1447,212.6689 L474.1447,194.4369 Z" id="Stroke-13" stroke="#14E8FF" stroke-width="1.271"></path>
                            <path d="M545.8682,181.9668 L545.5242,181.9668 L514.9942,246.2948 L529.5282,246.2948 L533.6562,236.5768 L557.8222,236.5768 L561.8642,246.2948 L576.4842,246.2948 L545.8682,181.9668 Z M545.6962,207.4228 L553.6942,226.2568 L537.7842,226.2568 L545.6962,207.4228 Z" id="Stroke-15" stroke="#14E8FF" stroke-width="1.271"></path>
                            <polygon id="Stroke-17" stroke="#14E8FF" stroke-width="1.271" points="586.1152 181.9668 585.7712 181.9668 585.7712 246.2948 598.9292 246.2948 598.9292 211.1208 636.2532 247.4128 636.5972 247.4128 636.5972 183.0848 623.4392 183.0848 623.4392 218.1728"></polygon>
                            <path d="M671.8574,183.085 L651.7334,183.085 L651.7334,246.295 L671.8574,246.295 C693.6154,246.295 706.4294,234.599 706.4294,214.647 C706.4294,194.695 693.4434,183.085 671.8574,183.085 Z M671.4274,195.211 C685.6174,195.211 693.0994,202.349 693.0994,214.733 C693.0994,227.031 685.7034,234.255 671.4274,234.255 L664.8914,234.255 L664.8914,195.211 L671.4274,195.211 Z" id="Stroke-19" stroke="#14E8FF" stroke-width="1.271"></path>
                            <polygon id="Clip-21" points="0 268 737.078 268 737.078 0.59 0 0.59"></polygon>
                            <text id="." font-family="Radikal-Bold, Radikal" font-size="86" font-weight="bold" fill="#14E8FF">
                                <tspan x="711.9331" y="226.094691">.</tspan>
                            </text>
                            <path d="M460.9536,97.3945 C455.4216,97.3945 450.0456,97.3795 444.6706,97.4065 C443.4866,97.4125 443.5446,96.4475 443.2946,95.7785 C440.3096,87.8205 437.3076,79.8675 434.4356,71.8685 C433.8706,70.2945 433.3236,70.2555 431.9876,70.9565 C421.8936,76.2425 411.1146,78.7765 399.7336,78.6745 C398.2916,78.6625 397.6606,79.1185 397.1906,80.4615 C395.5886,85.0365 393.8356,89.5585 392.1546,94.1055 C390.8706,97.5805 390.8796,97.5835 386.9336,97.2795 C389.2306,91.1035 391.5096,84.9775 393.8686,78.6355 C389.5486,78.1235 385.3556,77.6225 381.2656,76.5525 C366.2266,72.6215 353.4296,65.2215 344.6756,52.0375 C338.1486,42.2065 335.3526,31.3765 338.6396,19.7395 C341.3396,10.1755 347.5286,3.6935 357.4176,1.2135 C358.1156,1.0395 359.1416,0.2365 359.6116,1.4825 C360.0366,2.6095 358.9836,2.8845 358.2456,3.3045 C354.6676,5.3375 352.9716,8.6885 352.1636,12.4985 C349.7116,24.0735 351.9506,34.8965 358.1286,44.8275 C366.7966,58.7605 379.4186,67.1865 395.3866,70.7535 C396.8986,71.0915 397.0076,70.2565 397.3606,69.3095 C402.6556,55.1255 407.9646,40.9485 413.2706,26.7705 C413.4326,26.3395 413.6016,25.9125 413.9286,25.0655 C414.8746,28.0245 415.9866,30.2635 414.7756,33.3475 C410.0466,45.3995 405.7166,57.6075 401.1616,69.7295 C400.5866,71.2595 400.8896,71.6285 402.4396,71.6905 C412.3016,72.0845 421.7656,70.4225 430.8706,66.5745 C432.4586,65.9025 431.8666,65.1035 431.5086,64.1425 C426.3116,50.2055 421.1276,36.2635 415.9056,22.3345 C415.5346,21.3465 415.4926,20.4985 415.8776,19.4995 C418.0016,13.9855 420.0566,8.4435 422.1566,2.9185 C422.4426,2.1655 422.5186,1.2855 423.7896,1.2895 C425.0186,1.2925 425.1436,2.0605 425.4466,2.8665 C432.0656,20.4555 438.7166,38.0315 445.2786,55.6405 C445.8916,57.2875 446.2956,57.1545 447.4596,56.1685 C454.4296,50.2675 460.1796,43.3215 465.2426,35.7635 C465.6036,35.2235 465.7036,34.1205 466.9576,34.7865 C468.1346,35.4095 467.9596,35.9335 467.3456,36.8875 C461.9866,45.2105 455.8746,52.9025 448.4586,59.4935 C447.4246,60.4125 447.3296,61.1205 447.7996,62.3525 C452.1046,73.6465 456.3416,84.9665 460.5966,96.2805 C460.7086,96.5785 460.7916,96.8865 460.9536,97.3945" id="Fill-22" fill="#FFFFFF"></path>
                            <path d="M297.8433,51.5469 C307.7053,66.7989 317.5103,81.9599 327.4903,97.3949 C321.1583,97.3949 315.1323,97.3869 309.1053,97.4059 C308.4533,97.4079 308.1713,97.0359 307.8783,96.5749 C298.3523,81.6029 288.8233,66.6309 279.2993,51.6559 C279.2343,51.5549 279.2333,51.4119 279.1893,51.2369 C281.1203,50.8899 283.0673,50.6389 284.9643,50.1799 C294.6553,47.8349 300.6033,40.7619 301.3383,30.7929 C301.6193,26.9859 301.5353,23.2019 300.4093,19.5199 C297.7543,10.8299 291.5533,6.2589 282.8993,4.6189 C281.4023,4.3359 279.8683,4.2219 278.3463,4.0969 C277.4383,4.0229 277.3013,3.5219 277.3173,2.7559 C277.3303,2.0859 277.3823,1.6369 278.2473,1.6099 C289.4193,1.2729 300.5003,1.7239 309.8093,8.9339 C320.6833,17.3569 321.1593,34.4309 311.0893,43.8309 C307.8323,46.8719 304.0693,49.0619 299.9483,50.6859 C299.2823,50.9469 298.6233,51.2269 297.8433,51.5469" id="Fill-23" fill="#FFFFFF"></path>
                            <path d="M257.3975,49.3623 C257.3975,33.9733 257.4215,18.5853 257.3595,3.1973 C257.3535,1.7003 257.7105,1.3193 259.2055,1.3533 C263.8665,1.4623 268.5315,1.4303 273.1935,1.3663 C274.3385,1.3503 274.6145,1.6953 274.6135,2.8083 C274.5845,33.9853 274.5845,65.1613 274.6145,96.3383 C274.6155,97.4673 274.3095,97.7833 273.1825,97.7673 C268.5195,97.7063 263.8545,97.6703 259.1935,97.7833 C257.6755,97.8203 257.3555,97.4003 257.3605,95.9263 C257.4195,80.4053 257.3975,64.8833 257.3975,49.3623" id="Fill-24" fill="#FFFFFF"></path>
                            <path d="M356.5166,99.0928 C343.9486,98.9958 333.3506,91.9628 329.0786,80.5838 C324.8976,69.4468 328.8496,55.9578 338.3766,48.9208 C338.7346,48.6568 339.1276,47.9228 339.6486,48.5038 C339.9946,48.8898 340.4466,49.4308 340.0516,50.1168 C336.2496,56.7328 336.7246,63.5528 339.5136,70.2638 C342.4746,77.3898 347.8276,82.3608 354.8096,85.5348 C364.2336,89.8218 375.0286,88.6498 382.4876,80.6588 C383.0856,80.0188 383.7296,79.5158 384.5276,80.1238 C385.4246,80.8068 384.4576,81.3888 384.1916,81.9028 C379.8996,90.1998 373.7046,96.2078 364.2946,98.3238 C361.8786,98.8678 359.4326,99.0168 356.5166,99.0928" id="Fill-25" fill="#FFFFFF"></path>
                            <path d="M384.3032,17.5156 C384.3382,23.9536 381.5742,28.5936 376.9612,32.2656 C373.6362,34.9116 369.7922,36.5296 365.7392,37.6836 C365.1942,37.8386 364.5872,38.1086 364.1852,37.3326 C363.7912,36.5696 364.0982,36.1496 364.7102,35.6916 C372.7272,29.6966 373.4712,16.7146 370.2602,9.8026 C368.7802,6.6166 366.7172,4.0096 363.2982,2.7966 C362.4772,2.5056 362.3452,2.0776 362.3662,1.3416 C362.3842,0.6936 362.7092,0.5766 363.2502,0.5906 C369.5882,0.7626 375.5582,1.9386 380.1682,6.8006 C383.1162,9.9086 384.3922,13.6476 384.3032,17.5156" id="Fill-26" fill="#FFFFFF"></path>
                            <path d="M472.5044,32.2959 C468.4744,32.2639 465.5184,29.2169 465.5654,25.1419 C465.6084,21.3099 468.7474,18.2569 472.6304,18.2719 C476.5924,18.2859 479.7644,21.4599 479.7194,25.3649 C479.6734,29.3229 476.5454,32.3279 472.5044,32.2959" id="Fill-27" fill="#14E8FF"></path>
                        </g>
                    </g>
                </g>
            </g>
        </g>
        <g id="Page"></g>
    </g>
</svg>