<?xml version="1.0" encoding="UTF-8"?>
<svg width="757px" height="248px" viewBox="0 0 757 248" version="1.1" xmlns="http://www.w3.org/2000/svg" xmlns:xlink="http://www.w3.org/1999/xlink">
    <!-- Generator: Sketch 51.3 (57544) - http://www.bohemiancoding.com/sketch -->
    <title>Group 4</title>
    <desc>Created with Sketch.</desc>
    <defs></defs>
    <g id="Page-1" stroke="none" stroke-width="1" fill="none" fill-rule="evenodd">
        <g id="Colour" transform="translate(-501.000000, -3781.000000)">
            <g id="Page"></g>
            <g id="Using-Colour" transform="translate(132.000000, 3688.000000)">
                <g id="Lilac" transform="translate(261.000000, 0.000000)">
                    <g id="Group-43">
                        <g id="Group-4" transform="translate(108.000000, 92.000000)">
                            <g id="Group-29" transform="translate(0.000000, 181.820000)" stroke="#A693FF" stroke-width="1.271">
                                <path d="M33.1582,0.7598 C14.4102,0.7598 0.9082,14.7788 0.9082,33.4398 C0.9082,52.1878 14.4102,66.2058 33.1582,66.2058 C42.6182,66.2058 50.1002,63.4538 56.3782,56.5738 L48.1222,46.9418 C44.7682,50.9848 39.8662,54.1658 33.1582,54.1658 C21.8062,54.1658 14.2382,45.4798 14.2382,33.4398 C14.2382,21.3998 21.8062,12.7998 33.1582,12.7998 C39.7802,12.7998 44.5962,15.8958 47.9502,19.8518 L56.2062,10.2198 C50.1862,3.9418 43.3062,0.7598 33.1582,0.7598 Z" id="Stroke-3"></path>
                                <polygon id="Stroke-5" points="118.5557 1.8779 105.3977 1.8779 105.3977 26.7319 79.7697 26.7319 79.7697 1.8779 66.6117 1.8779 66.6117 65.0879 79.7697 65.0879 79.7697 38.7719 105.3977 38.7719 105.3977 65.0879 118.5557 65.0879"></polygon>
                                <path d="M158.7178,0.7598 L158.3738,0.7598 L127.8438,65.0878 L142.3778,65.0878 L146.5058,55.3698 L170.6718,55.3698 L174.7138,65.0878 L189.3338,65.0878 L158.7178,0.7598 Z M158.5458,26.2158 L166.5438,45.0498 L150.6338,45.0498 L158.5458,26.2158 Z" id="Stroke-7"></path>
                                <polygon id="Stroke-9" points="262.3467 0.7598 262.0027 0.7598 230.5267 45.3078 198.9647 0.7598 198.6207 0.7598 198.6207 65.0878 211.7787 65.0878 211.7787 38.0838 230.2687 65.9478 230.8707 65.9478 249.1887 38.1698 249.1887 65.0878 262.3467 65.0878"></polygon>
                                <path d="M302.8516,1.8779 L277.5676,1.8779 L277.5676,65.0879 L290.7256,65.0879 L290.7256,43.6739 L302.8516,43.6739 C314.9776,43.6739 325.1256,36.1909 325.1256,22.7759 C325.1256,9.3599 314.9776,1.8779 302.8516,1.8779 Z M301.5616,13.2299 C307.6676,13.2299 311.7096,16.6699 311.7096,22.7759 C311.7096,29.1399 307.6676,32.3219 301.5616,32.3219 L290.7256,32.3219 L290.7256,13.2299 L301.5616,13.2299 Z" id="Stroke-11"></path>
                                <polygon id="Stroke-13" points="349.2051 1.8779 336.0471 1.8779 336.0471 65.0879 349.2051 65.0879"></polygon>
                                <path d="M393.5801,0.7598 C374.9181,0.7598 361.0721,14.6058 361.0721,33.6128 C361.0721,52.4468 374.9181,66.2058 393.5801,66.2058 C412.1561,66.2058 426.0881,52.4468 426.0881,33.6128 C426.0881,14.6058 412.1561,0.7598 393.5801,0.7598 Z M393.5801,12.7998 C404.7601,12.7998 412.6721,21.3998 412.6721,33.6128 C412.6721,45.5658 404.7601,54.1658 393.5801,54.1658 C382.3141,54.1658 374.4021,45.5658 374.4021,33.6128 C374.4021,21.3998 382.3141,12.7998 393.5801,12.7998 Z" id="Stroke-15"></path>
                                <polygon id="Stroke-17" points="438.2134 0.7598 437.8694 0.7598 437.8694 65.0878 451.0274 65.0878 451.0274 29.9138 488.3514 66.2058 488.6954 66.2058 488.6954 1.8778 475.5374 1.8778 475.5374 36.9658"></polygon>
                                <path d="M523.9551,0.7598 C510.4531,0.7598 500.9071,8.9298 500.9071,20.2818 C500.9071,29.4848 505.5511,35.6758 521.8911,39.1158 C531.3511,41.0078 534.1031,43.3298 534.1031,47.1138 C534.1031,51.7578 530.3191,54.3378 523.7831,54.3378 C517.2471,54.3378 510.1951,51.4138 505.9811,46.9418 L498.8431,57.7788 C505.0351,63.1968 513.6351,66.2058 523.3531,66.2058 C538.2311,66.2058 547.2611,58.0358 547.2611,45.8238 C547.2611,36.1918 542.1871,30.6018 525.7611,27.2478 C516.3871,25.2698 514.0651,23.2918 514.0651,19.5078 C514.0651,14.9498 518.2791,12.6278 523.8691,12.6278 C530.5771,12.6278 536.1671,15.4658 540.2951,18.6478 L546.5731,7.5538 C541.1551,3.5978 532.9851,0.7598 523.9551,0.7598 Z" id="Stroke-19"></path>
                                <polygon id="Stroke-21" points="610.814 1.8779 597.656 1.8779 597.656 26.7319 572.028 26.7319 572.028 1.8779 558.87 1.8779 558.87 65.0879 572.028 65.0879 572.028 38.7719 597.656 38.7719 597.656 65.0879 610.814 65.0879"></polygon>
                                <polygon id="Stroke-23" points="639.1079 1.8779 625.9499 1.8779 625.9499 65.0879 639.1079 65.0879"></polygon>
                                <path d="M679.6128,1.8779 L654.3288,1.8779 L654.3288,65.0879 L667.4868,65.0879 L667.4868,43.6739 L679.6128,43.6739 C691.7388,43.6739 701.8868,36.1909 701.8868,22.7759 C701.8868,9.3599 691.7388,1.8779 679.6128,1.8779 Z M678.3228,13.2299 C684.4288,13.2299 688.4708,16.6699 688.4708,22.7759 C688.4708,29.1399 684.4288,32.3219 678.3228,32.3219 L667.4868,32.3219 L667.4868,13.2299 L678.3228,13.2299 Z" id="Stroke-25"></path>
                                <path d="M732.9326,0.7598 C719.4306,0.7598 709.8846,8.9298 709.8846,20.2818 C709.8846,29.4848 714.5286,35.6758 730.8686,39.1158 C740.3286,41.0078 743.0796,43.3298 743.0796,47.1138 C743.0796,51.7578 739.2956,54.3378 732.7606,54.3378 C726.2246,54.3378 719.1726,51.4138 714.9586,46.9418 L707.8206,57.7788 C714.0126,63.1968 722.6126,66.2058 732.3296,66.2058 C747.2076,66.2058 756.2386,58.0358 756.2386,45.8238 C756.2386,36.1918 751.1636,30.6018 734.7386,27.2478 C725.3646,25.2698 723.0426,23.2918 723.0426,19.5078 C723.0426,14.9498 727.2566,12.6278 732.8466,12.6278 C739.5546,12.6278 745.1446,15.4658 749.2726,18.6478 L755.5496,7.5538 C750.1316,3.5978 741.9616,0.7598 732.9326,0.7598 Z" id="Stroke-27"></path>
                            </g>
                            <g id="Group-42" transform="translate(280.000000, 0.820000)">
                                <path d="M204.4466,97.1878 C198.9146,97.1878 193.5386,97.1728 188.1626,97.1998 C186.9786,97.2058 187.0376,96.2408 186.7866,95.5718 C183.8026,87.6138 180.8006,79.6608 177.9276,71.6618 C177.3626,70.0878 176.8166,70.0488 175.4796,70.7498 C165.3856,76.0358 154.6076,78.5698 143.2256,78.4678 C141.7846,78.4558 141.1536,78.9118 140.6826,80.2548 C139.0806,84.8298 137.3286,89.3518 135.6466,93.8988 C134.3626,97.3738 134.3726,97.3768 130.4266,97.0728 C132.7236,90.8968 135.0026,84.7708 137.3606,78.4288 C133.0416,77.9168 128.8476,77.4158 124.7586,76.3458 C109.7186,72.4148 96.9226,65.0148 88.1686,51.8308 C81.6406,41.9998 78.8446,31.1698 82.1316,19.5328 C84.8316,9.9688 91.0216,3.4868 100.9096,1.0068 C101.6086,0.8328 102.6336,0.0298 103.1036,1.2758 C103.5286,2.4028 102.4756,2.6778 101.7376,3.0978 C98.1606,5.1308 96.4636,8.4818 95.6566,12.2918 C93.2036,23.8668 95.4426,34.6898 101.6216,44.6208 C110.2896,58.5538 122.9106,66.9798 138.8796,70.5468 C140.3916,70.8848 140.5006,70.0498 140.8536,69.1028 C146.1476,54.9188 151.4576,40.7418 156.7636,26.5638 C156.9256,26.1328 157.0936,25.7058 157.4216,24.8588 C158.3676,27.8178 159.4786,30.0568 158.2686,33.1408 C153.5396,45.1928 149.2096,57.4008 144.6536,69.5228 C144.0796,71.0528 144.3826,71.4218 145.9316,71.4838 C155.7936,71.8778 165.2586,70.2158 174.3626,66.3678 C175.9516,65.6958 175.3586,64.8968 175.0006,63.9358 C169.8036,49.9988 164.6196,36.0568 159.3976,22.1278 C159.0276,21.1398 158.9856,20.2918 159.3696,19.2928 C161.4946,13.7788 163.5486,8.2368 165.6486,2.7118 C165.9346,1.9588 166.0106,1.0788 167.2816,1.0828 C168.5106,1.0858 168.6356,1.8538 168.9396,2.6598 C175.5576,20.2488 182.2096,37.8248 188.7706,55.4338 C189.3846,57.0808 189.7886,56.9478 190.9516,55.9618 C197.9226,50.0608 203.6716,43.1148 208.7346,35.5568 C209.0956,35.0168 209.1956,33.9138 210.4506,34.5798 C211.6266,35.2028 211.4526,35.7268 210.8376,36.6808 C205.4796,45.0038 199.3666,52.6958 191.9516,59.2868 C190.9176,60.2058 190.8216,60.9138 191.2916,62.1458 C195.5976,73.4398 199.8346,84.7598 204.0886,96.0738 C204.2006,96.3718 204.2846,96.6798 204.4466,97.1878" id="Fill-30" fill="#FFFFFF"></path>
                                <path d="M41.3362,51.3402 C51.1982,66.5922 61.0022,81.7532 70.9832,97.1882 C64.6512,97.1882 58.6242,97.1802 52.5972,97.1992 C51.9452,97.2012 51.6642,96.8292 51.3712,96.3682 C41.8452,81.3962 32.3152,66.4242 22.7912,51.4492 C22.7272,51.3482 22.7262,51.2052 22.6822,51.0302 C24.6122,50.6832 26.5602,50.4322 28.4572,49.9732 C38.1482,47.6282 44.0962,40.5552 44.8312,30.5862 C45.1112,26.7792 45.0272,22.9952 43.9022,19.3132 C41.2462,10.6232 35.0462,6.0522 26.3922,4.4122 C24.8952,4.1292 23.3602,4.0152 21.8392,3.8902 C20.9312,3.8162 20.7932,3.3152 20.8092,2.5492 C20.8232,1.8792 20.8752,1.4302 21.7402,1.4032 C32.9122,1.0662 43.9922,1.5172 53.3012,8.7272 C64.1762,17.1502 64.6512,34.2242 54.5822,43.6242 C51.3252,46.6652 47.5622,48.8552 43.4402,50.4792 C42.7742,50.7402 42.1152,51.0202 41.3362,51.3402" id="Fill-32" fill="#FFFFFF"></path>
                                <path d="M0.8899,49.1556 C0.8899,33.7666 0.9129,18.3786 0.8519,2.9906 C0.8459,1.4936 1.2019,1.1126 2.6979,1.1466 C7.3589,1.2556 12.0239,1.2236 16.6859,1.1596 C17.8309,1.1436 18.1069,1.4886 18.1059,2.6016 C18.0769,33.7786 18.0769,64.9546 18.1069,96.1316 C18.1079,97.2606 17.8019,97.5766 16.6739,97.5606 C12.0119,97.4996 7.3469,97.4636 2.6869,97.5766 C1.1679,97.6136 0.8479,97.1936 0.8539,95.7196 C0.9119,80.1986 0.8899,64.6766 0.8899,49.1556" id="Fill-34" fill="#FFFFFF"></path>
                                <path d="M100.0091,98.8861 C87.4411,98.7891 76.8431,91.7561 72.5721,80.3771 C68.3901,69.2401 72.3431,55.7511 81.8691,48.7141 C82.2281,48.4501 82.6201,47.7161 83.1411,48.2971 C83.4871,48.6831 83.9391,49.2241 83.5441,49.9101 C79.7411,56.5261 80.2161,63.3461 83.0051,70.0571 C85.9671,77.1831 91.3201,82.1541 98.3021,85.3281 C107.7271,89.6151 118.5211,88.4431 125.9801,80.4521 C126.5781,79.8121 127.2221,79.3091 128.0211,79.9171 C128.9161,80.6001 127.9501,81.1821 127.6841,81.6961 C123.3931,89.9931 117.1971,96.0011 107.7871,98.1171 C105.3711,98.6611 102.9241,98.8101 100.0091,98.8861" id="Fill-36" fill="#FFFFFF"></path>
                                <path d="M127.7962,17.3089 C127.8312,23.7469 125.0662,28.3869 120.4532,32.0589 C117.1282,34.7049 113.2852,36.3229 109.2322,37.4769 C108.6862,37.6319 108.0792,37.9019 107.6782,37.1259 C107.2832,36.3629 107.5912,35.9429 108.2032,35.4849 C116.2202,29.4899 116.9632,16.5079 113.7532,9.5959 C112.2732,6.4099 110.2092,3.8029 106.7912,2.5899 C105.9702,2.2989 105.8382,1.8709 105.8582,1.1349 C105.8762,0.4869 106.2012,0.3699 106.7432,0.3839 C113.0802,0.5559 119.0512,1.7319 123.6612,6.5939 C126.6082,9.7019 127.8842,13.4409 127.7962,17.3089" id="Fill-38" fill="#FFFFFF"></path>
                                <path d="M215.9974,32.0892 C211.9674,32.0572 209.0114,29.0102 209.0574,24.9352 C209.1014,21.1032 212.2404,18.0502 216.1224,18.0652 C220.0854,18.0792 223.2574,21.2532 223.2114,25.1582 C223.1664,29.1162 220.0384,32.1212 215.9974,32.0892" id="Fill-40" fill="#A693FF"></path>
                            </g>
                        </g>
                    </g>
                </g>
            </g>
        </g>
        <g id="Page"></g>
    </g>
</svg>